<svg width="801" height="800" viewBox="0 0 801 800" fill="none" xmlns="http://www.w3.org/2000/svg">
<mask id="mask0_2587_31696" style="mask-type:luminance" maskUnits="userSpaceOnUse" x="124" y="628" width="348" height="151">
<path d="M403.135 628.38L151.815 645.69L124.445 689.54L277.615 775.98C283.515 779.31 290.745 779.25 296.595 775.81L469.455 674.08C472.295 672.41 472.285 668.29 469.425 666.64L403.145 628.38H403.135Z" fill="white"/>
</mask>
<g mask="url(#mask0_2587_31696)">
<path d="M497.034 589.189H455.734V630.489H497.034V589.189Z" fill="#DFE9ED"/>
<path d="M497.034 630.479H455.734V671.78H497.034V630.479Z" fill="#DFE9ED"/>
<path d="M497.034 671.779H455.734V713.079H497.034V671.779Z" fill="#DFE9ED"/>
<path d="M497.034 713.069H455.734V754.369H497.034V713.069Z" fill="#DFE9ED"/>
<path d="M497.034 754.369H455.734V795.669H497.034V754.369Z" fill="#DFE9ED"/>
<path d="M455.734 589.189H414.434V630.489H455.734V589.189Z" fill="#DFE9ED"/>
<path d="M455.734 630.479H414.434V671.78H455.734V630.479Z" fill="#DFE9ED"/>
<path d="M455.734 671.779H414.434V713.079H455.734V671.779Z" fill="#DFE9ED"/>
<path d="M455.734 713.069H414.434V754.369H455.734V713.069Z" fill="#DFE9ED"/>
<path d="M455.734 754.369H414.434V795.669H455.734V754.369Z" fill="#DFE9ED"/>
<path d="M414.445 589.189H373.145V630.489H414.445V589.189Z" fill="#DFE9ED"/>
<path d="M414.445 630.479H373.145V671.78H414.445V630.479Z" fill="#DFE9ED"/>
<path d="M414.445 671.779H373.145V713.079H414.445V671.779Z" fill="#DFE9ED"/>
<path d="M414.445 713.069H373.145V754.369H414.445V713.069Z" fill="#DFE9ED"/>
<path d="M414.445 754.369H373.145V795.669H414.445V754.369Z" fill="#DFE9ED"/>
<path d="M373.144 589.189H331.844V630.489H373.144V589.189Z" fill="#DFE9ED"/>
<path d="M373.144 630.479H331.844V671.78H373.144V630.479Z" fill="#DFE9ED"/>
<path d="M373.144 671.779H331.844V713.079H373.144V671.779Z" fill="#DFE9ED"/>
<path d="M373.144 713.069H331.844V754.369H373.144V713.069Z" fill="#DFE9ED"/>
<path d="M373.144 754.369H331.844V795.669H373.144V754.369Z" fill="#DFE9ED"/>
<path d="M331.855 589.189H290.555V630.489H331.855V589.189Z" fill="#DFE9ED"/>
<path d="M331.855 630.479H290.555V671.78H331.855V630.479Z" fill="#DFE9ED"/>
<path d="M331.855 671.779H290.555V713.079H331.855V671.779Z" fill="#DFE9ED"/>
<path d="M331.855 713.069H290.555V754.369H331.855V713.069Z" fill="#DFE9ED"/>
<path d="M331.855 754.369H290.555V795.669H331.855V754.369Z" fill="#DFE9ED"/>
<path d="M290.554 589.189H249.254V630.489H290.554V589.189Z" fill="#DFE9ED"/>
<path d="M290.554 630.479H249.254V671.78H290.554V630.479Z" fill="#DFE9ED"/>
<path d="M290.554 671.779H249.254V713.079H290.554V671.779Z" fill="#DFE9ED"/>
<path d="M290.554 713.069H249.254V754.369H290.554V713.069Z" fill="#DFE9ED"/>
<path d="M290.554 754.369H249.254V795.669H290.554V754.369Z" fill="#DFE9ED"/>
<path d="M249.255 589.189H207.955V630.489H249.255V589.189Z" fill="#DFE9ED"/>
<path d="M249.255 630.479H207.955V671.78H249.255V630.479Z" fill="#DFE9ED"/>
<path d="M249.255 671.779H207.955V713.079H249.255V671.779Z" fill="#DFE9ED"/>
<path d="M249.255 713.069H207.955V754.369H249.255V713.069Z" fill="#DFE9ED"/>
<path d="M249.255 754.369H207.955V795.669H249.255V754.369Z" fill="#DFE9ED"/>
<path d="M207.964 589.189H166.664V630.489H207.964V589.189Z" fill="#DFE9ED"/>
<path d="M207.964 630.479H166.664V671.78H207.964V630.479Z" fill="#DFE9ED"/>
<path d="M207.964 671.779H166.664V713.079H207.964V671.779Z" fill="#DFE9ED"/>
<path d="M207.964 713.069H166.664V754.369H207.964V713.069Z" fill="#DFE9ED"/>
<path d="M207.964 754.369H166.664V795.669H207.964V754.369Z" fill="#DFE9ED"/>
<path d="M166.665 589.189H125.365V630.489H166.665V589.189Z" fill="#DFE9ED"/>
<path d="M166.665 630.479H125.365V671.78H166.665V630.479Z" fill="#DFE9ED"/>
<path d="M166.665 671.779H125.365V713.079H166.665V671.779Z" fill="#DFE9ED"/>
<path d="M166.665 713.069H125.365V754.369H166.665V713.069Z" fill="#DFE9ED"/>
<path d="M166.665 754.369H125.365V795.669H166.665V754.369Z" fill="#DFE9ED"/>
<path d="M125.364 589.189H84.0645V630.489H125.364V589.189Z" fill="#DFE9ED"/>
<path d="M125.364 630.479H84.0645V671.78H125.364V630.479Z" fill="#DFE9ED"/>
<path d="M125.364 671.779H84.0645V713.079H125.364V671.779Z" fill="#DFE9ED"/>
<path d="M125.364 713.069H84.0645V754.369H125.364V713.069Z" fill="#DFE9ED"/>
<path d="M125.364 754.369H84.0645V795.669H125.364V754.369Z" fill="#DFE9ED"/>
</g>
<path d="M234.005 736.24V715.97C229.695 715.97 225.375 714.86 221.505 712.62L219.775 711.62L205.555 703.41L191.335 695.2L177.115 686.99L177.105 686.98L162.885 678.77L148.665 670.56V588.45V572.03V555.61V487.68C146.175 487.68 143.685 487.04 141.455 485.75L134.445 481.7L123.015 475.1C121.215 478.22 120.225 481.8 120.225 485.52V489.91V506.33V555.6V572.02V588.44V637.71V654.13V674.57C120.225 682.25 124.325 689.34 130.965 693.18L134.445 695.19L148.665 703.4L162.885 711.61H162.895L177.115 719.82L185.775 724.83L191.335 728.04L205.555 736.25H205.565L214.215 741.25L219.775 744.46L224.465 747.17C227.415 748.87 230.705 749.72 234.005 749.72V736.25V736.24Z" fill="#A07F57"/>
<path d="M177.114 654.13L191.324 645.92H191.334L205.554 637.71L219.774 629.5L233.994 621.29H234.004L248.214 613.08H248.224L262.444 604.87L276.654 596.66H276.664L290.884 588.45L305.104 580.23H305.114V563.82V530.97V498.13V448.86V432.44V399.59H305.104L290.894 407.8H290.884L276.664 416.01L262.444 424.22L248.224 432.43L234.004 440.64L219.774 448.86L205.554 457.07L191.334 465.28L177.114 473.49H177.104L162.884 481.7L155.874 485.75C154.204 486.72 152.384 487.32 150.534 487.56C149.914 487.64 149.294 487.68 148.674 487.68V555.6V572.02V588.44V670.56L162.894 662.35L177.114 654.13ZM234.004 604.87L219.774 613.08L205.554 621.29L191.334 629.5L177.114 637.71L177.104 637.72L162.894 645.92H162.884V645.81L177.054 637.63L191.414 629.34L205.784 621.05L220.144 612.75L234.504 604.46L248.874 596.17V596.29L248.224 596.66L234.004 604.87ZM162.884 498.12H162.894L163.764 497.62L177.104 489.92H177.114L191.334 481.7L205.554 473.49L206.434 472.98L219.774 465.28L234.004 457.07L248.224 448.86L249.104 448.35L262.444 440.65L262.454 440.64L276.664 432.44L290.884 424.23V424.33L276.704 432.52L262.354 440.8H262.344L248.874 448.59L247.984 449.1L233.624 457.39L219.254 465.68L205.784 473.46L204.894 473.97L190.534 482.26L176.174 490.55L176.164 490.56L162.884 498.23V498.13V498.12Z" fill="#77552C"/>
<path d="M386.785 445.58C385.985 445.42 385.185 445.21 384.405 444.95C384.015 444.82 383.625 444.67 383.245 444.51C382.475 444.19 381.725 443.82 380.995 443.4L376.225 440.64H376.215L362.005 432.43L333.555 416L319.335 407.79L305.115 399.58V432.42V448.84V498.11V530.95V563.8V580.22L319.335 588.43L333.555 596.65L337.845 599.13V484.28V435.01H337.855L337.845 435V418.58L352.075 426.8V476.06V607.34L362.005 613.07L376.225 621.28L390.445 629.49V580.23V563.81V530.96V514.54V498.12V465.27V445.93C390.035 445.93 389.625 445.92 389.225 445.89C388.415 445.84 387.595 445.73 386.795 445.57L386.785 445.58ZM319.335 572.03H319.325L319.335 572.02V572.03ZM362.005 547.4H361.995L362.005 547.38V547.4Z" fill="#A07F57"/>
<path d="M404.664 440.64L399.894 443.41C396.974 445.1 393.704 445.94 390.444 445.94V465.27V498.12V514.54V530.96V563.81V580.23V629.5L376.224 637.72L362.004 645.93L347.784 654.14H347.774L333.564 662.35H333.554L319.334 670.56L305.114 678.77L290.894 686.98H290.884L276.664 695.2L262.454 703.41H262.444L248.224 711.62L246.494 712.62C242.624 714.85 238.314 715.97 234.004 715.97V736.24V749.72C237.294 749.72 240.594 748.87 243.544 747.16L248.214 744.46H248.224L262.444 736.24L276.664 728.03L290.884 719.82H290.894L305.104 711.61H305.114L319.334 703.39L324.884 700.18L333.554 695.17L347.774 686.96L353.324 683.76L362.004 678.75L376.224 670.54L390.444 662.33L404.664 654.12L407.204 652.66L411.344 650.26C416.014 647.56 418.884 642.58 418.884 637.19V613.07V596.64V563.8V530.95V514.53V498.11V481.68V448.84V441.44C418.884 438.65 418.134 435.96 416.784 433.63L404.664 440.62V440.64Z" fill="#77552C"/>
<path d="M176.355 457.33L176.365 457.32H176.355V457.33Z" fill="#C6A76F"/>
<path d="M141.454 485.75C143.684 487.04 146.174 487.68 148.664 487.68C149.284 487.68 149.904 487.64 150.524 487.56C152.374 487.32 154.194 486.72 155.864 485.75L162.874 481.7L177.094 473.49H177.104L191.324 465.28L205.544 457.07L219.764 448.86L233.994 440.64L248.214 432.43L262.434 424.23L276.654 416.01L290.874 407.8H290.884L305.094 399.59H305.104L319.324 407.8L333.544 416.01L347.764 424.22L361.994 432.44L376.204 440.65H376.214L380.984 443.41C381.714 443.83 382.464 444.2 383.234 444.52C383.614 444.68 384.004 444.82 384.394 444.96C385.174 445.22 385.974 445.43 386.774 445.59C387.574 445.75 388.394 445.85 389.204 445.91C389.614 445.94 390.014 445.95 390.424 445.95C393.684 445.95 396.944 445.11 399.874 443.42L404.644 440.66L416.764 433.66C415.414 431.33 413.454 429.35 411.034 427.96L406.424 425.31L404.654 424.23H404.644L390.434 416.02H390.424L376.204 407.81L361.984 399.6L347.764 391.39H347.754L333.544 383.17H333.534L319.314 374.96L312.024 370.75C307.734 368.27 302.454 368.28 298.164 370.75L295.134 372.5L290.284 375.3L296.174 378.7C298.704 380.16 300.754 382.24 302.164 384.69C303.574 387.13 304.354 389.94 304.354 392.86V399.85L290.134 408.05L280.564 413.58C277.684 415.24 274.134 415.24 271.264 413.58L261.694 408.06L249.934 401.27C249.214 400.86 248.634 400.27 248.214 399.59L190.734 432.77L198.384 437.19C200.374 438.34 201.974 439.97 203.084 441.89C204.194 443.81 204.804 446.02 204.804 448.31V457.32H204.794L190.584 465.53H190.574L176.354 473.75L162.134 465.54L148.054 457.41L134.434 465.27H134.424L130.634 467.46C127.414 469.32 124.804 471.97 123.004 475.09L134.434 481.69L141.444 485.74L141.454 485.75Z" fill="#C6A76F"/>
<path d="M347.774 604.88L347.784 604.87L352.074 607.35V508.91V492.49V476.08V476.07V459.65V443.22V426.81L337.844 418.59V435.01H337.854L337.844 435.02V451.44V467.86V484.28V484.29V599.14L347.774 604.87V604.88Z" fill="#77552C"/>
<path d="M362.004 613.08L352.074 607.349L347.784 604.87H347.774L337.844 599.14L333.554 596.659L319.334 588.45L305.114 580.24L305.104 580.229L290.884 588.45L276.664 596.659H276.654L262.444 604.87L248.224 613.08H248.214L234.004 621.289H233.994L219.774 629.5L205.554 637.71L191.334 645.919H191.324L177.114 654.13H177.104L162.884 662.349L148.664 670.56L162.884 678.77L177.104 686.979H177.114L191.334 695.2L205.554 703.4L219.774 711.62L221.504 712.62C225.374 714.85 229.684 715.969 234.004 715.969C238.314 715.969 242.634 714.85 246.494 712.62L248.224 711.62L262.444 703.409H262.454L276.664 695.2L290.884 686.99L290.894 686.979L305.114 678.77L319.334 670.56L333.554 662.349H333.564L347.774 654.14H347.784L362.004 645.93L376.224 637.719L390.444 629.51L376.224 621.289L362.004 613.08Z" fill="#C6A76F"/>
<path d="M275.925 399.84H275.915L265.905 394.06L261.695 391.63L247.475 383.42V397.01C247.475 397.94 247.745 398.83 248.215 399.59C248.635 400.27 249.215 400.85 249.935 401.27L261.695 408.06L271.265 413.58C274.145 415.24 277.695 415.24 280.565 413.58L290.135 408.06L304.355 399.85V392.86C304.355 389.94 303.575 387.14 302.165 384.69L290.135 391.64L275.925 399.84Z" fill="#E2B042"/>
<path d="M176.354 473.75L190.574 465.53H190.584L204.794 457.32H204.804V448.31C204.804 446.02 204.194 443.81 203.084 441.89L190.584 449.11L190.574 449.12L176.364 457.32H176.354L162.134 449.11L150.224 442.23C148.734 444.81 147.914 447.78 147.914 450.86V457.32L148.054 457.41L162.134 465.54L176.354 473.75Z" fill="#E2B042"/>
<path d="M270.084 379.15L277.274 375.01C278.384 374.37 279.754 374.37 280.864 375.01L287.194 378.67C288.154 379.22 288.154 380.61 287.194 381.16L281.134 384.65L265.904 394.06L275.914 399.84H275.924L290.134 391.64L302.164 384.69C300.754 382.24 298.704 380.16 296.174 378.7L290.284 375.3L290.124 375.21L281.324 370.13C277.964 368.19 273.834 368.19 270.474 370.13L261.674 375.21V383.75L270.064 379.15H270.084Z" fill="#F4F0A8"/>
<path d="M176.355 457.32H176.365L190.575 449.12H190.585L203.085 441.89C201.975 439.97 200.375 438.34 198.385 437.19L190.735 432.77L190.585 432.68V438.71L184.975 442.3L185.045 442.34L177.305 446.81C175.735 447.72 173.795 447.72 172.215 446.81L165.965 443.2C165.305 442.82 165.305 441.86 165.965 441.47L173.335 437.22L176.355 435.4V426.89L174.815 425.35L162.125 432.68L156.535 435.91C153.865 437.45 151.705 439.65 150.215 442.23L162.125 449.11L176.345 457.32H176.355Z" fill="#F4F0A8"/>
<path d="M176.364 435.42L173.344 437.24L174.774 436.42L184.984 442.32L190.594 438.73V416.28V403.48C190.594 403.2 190.614 402.92 190.654 402.65C190.914 400.74 192.034 399.03 193.734 398.05L204.824 391.65L219.044 383.44L219.054 383.43L233.264 375.23L233.274 375.22L244.384 368.81C244.904 368.51 245.464 368.46 245.974 368.61C246.144 368.66 246.304 368.73 246.454 368.81C247.054 369.16 247.484 369.81 247.484 370.6V383.43L261.704 391.64L265.914 394.07L281.144 384.66L279.074 385.85L268.784 379.91L270.094 379.15L261.704 383.75V365.95C261.704 362.07 259.894 358.45 256.874 356.13C256.444 355.8 255.984 355.49 255.504 355.21L254.344 354.54C250.164 352.13 245.044 352.1 240.834 354.43C240.764 354.47 240.694 354.5 240.634 354.54L233.264 358.79L219.054 367H219.044L204.824 375.21L190.604 383.42L183.214 387.7C181.624 388.62 180.274 389.82 179.194 391.23C177.394 393.58 176.384 396.48 176.384 399.54V408.06V424.49L174.854 425.37L176.394 426.91V435.42H176.364Z" fill="#A07F57"/>
<path d="M174.775 436.42L173.345 437.24L165.975 441.49C165.315 441.87 165.315 442.83 165.975 443.22L172.225 446.83C173.795 447.74 175.735 447.74 177.315 446.83L185.055 442.36L184.985 442.32L174.775 436.42Z" fill="#77552C"/>
<path d="M287.195 378.67L280.865 375.01C279.755 374.37 278.385 374.37 277.275 375.01L270.085 379.15L268.775 379.91L279.065 385.85L281.135 384.66L287.195 381.17C288.155 380.62 288.155 379.23 287.195 378.68V378.67Z" fill="#77552C"/>
<path d="M290.885 397.81L290.895 397.8H290.885V397.81Z" fill="#5FF25F"/>
<path d="M262.445 414.231H262.455L262.445 414.221V414.231Z" fill="#5FF25F"/>
<path d="M219.775 438.861H219.785L219.775 438.851V438.861Z" fill="#5FF25F"/>
<path d="M205.555 430.651H205.565L205.555 430.641V430.651Z" fill="#5FF25F"/>
<path d="M234.005 447.06V426.79C229.695 426.79 225.375 425.68 221.505 423.44L219.775 422.44L205.555 414.23L191.335 406.02L177.115 397.81L177.105 397.8L162.885 389.59L148.665 381.38V299.27V282.85V266.43V198.5C146.175 198.5 143.685 197.86 141.455 196.57L134.445 192.52L123.015 185.92C121.215 189.04 120.225 192.62 120.225 196.34V200.73V217.15V266.42V282.84V299.26V348.53V364.95V385.39C120.225 393.07 124.325 400.16 130.965 404L134.445 406.01L148.665 414.22L162.885 422.43H162.895L177.115 430.64L185.775 435.65L191.335 438.86L205.555 447.07H205.565L214.215 452.07L219.775 455.28L224.465 457.99C227.415 459.69 230.705 460.54 234.005 460.54V447.07V447.06Z" fill="#A07F57"/>
<path d="M177.114 364.95L191.324 356.74H191.334L205.554 348.53L219.774 340.32L233.994 332.11H234.004L248.214 323.9H248.224L262.444 315.69L276.654 307.48H276.664L290.884 299.27L305.104 291.05H305.114V274.64V241.79V208.95V159.68V143.26V110.41H305.104L290.894 118.62H290.884L276.664 126.83L262.444 135.04L248.224 143.25L234.004 151.46L219.774 159.68L205.554 167.89L191.334 176.1L177.114 184.31H177.104L162.884 192.52L155.874 196.57C154.204 197.54 152.384 198.14 150.534 198.38C149.914 198.46 149.294 198.5 148.674 198.5V266.42V282.84V299.26V381.38L162.894 373.17L177.114 364.95ZM234.004 315.69L219.774 323.9L205.554 332.11L191.334 340.32L177.114 348.53L177.104 348.54L162.894 356.74H162.884V356.63L177.054 348.45L191.414 340.16L205.784 331.87L220.144 323.57L234.504 315.28L248.874 306.99V307.11L248.224 307.48L234.004 315.69ZM162.884 208.94H162.894L163.764 208.44L177.104 200.74H177.114L191.334 192.52L205.554 184.31L206.434 183.8L219.774 176.1L234.004 167.89L248.224 159.68L249.104 159.17L262.444 151.47L262.454 151.46L276.664 143.26L290.884 135.05V135.15L276.704 143.34L262.354 151.62H262.344L248.874 159.41L247.984 159.92L233.624 168.21L219.254 176.5L205.784 184.28L204.894 184.79L190.534 193.08L176.174 201.37L176.164 201.38L162.884 209.05V208.95V208.94Z" fill="#77552C"/>
<path d="M386.785 156.4C385.985 156.24 385.185 156.03 384.405 155.77C384.015 155.64 383.625 155.49 383.245 155.33C382.475 155.01 381.725 154.64 380.995 154.22L376.225 151.46H376.215L362.005 143.25L333.555 126.82L319.335 118.61L305.115 110.4V143.24V159.66V208.93V241.77V274.62V291.04L319.335 299.25L333.555 307.47L337.845 309.95V195.1V145.83H337.855L337.845 145.82V129.4L352.075 137.62V186.88V318.16L362.005 323.89L376.225 332.1L390.445 340.31V291.05V274.63V241.78V225.36V208.94V176.09V156.75C390.035 156.75 389.625 156.74 389.225 156.71C388.415 156.66 387.595 156.55 386.795 156.39L386.785 156.4ZM319.335 282.85H319.325L319.335 282.84V282.85ZM362.005 258.22H361.995L362.005 258.2V258.22Z" fill="#A07F57"/>
<path d="M404.664 151.46L399.894 154.23C396.974 155.92 393.704 156.76 390.444 156.76V176.09V208.94V225.36V241.78V274.63V291.05V340.32L376.224 348.54L362.004 356.75L347.784 364.96H347.774L333.564 373.17H333.554L319.334 381.38L305.114 389.59L290.894 397.8H290.884L276.664 406.02L262.454 414.23H262.444L248.224 422.44L246.494 423.44C242.624 425.67 238.314 426.79 234.004 426.79V447.06V460.54C237.294 460.54 240.594 459.69 243.544 457.98L248.214 455.28H248.224L262.444 447.06L276.664 438.85L290.884 430.64H290.894L305.104 422.43H305.114L319.334 414.21L324.884 411L333.554 405.99L347.774 397.78L353.324 394.58L362.004 389.57L376.224 381.36L390.444 373.15L404.664 364.94L407.204 363.48L411.344 361.08C416.014 358.38 418.884 353.4 418.884 348.01V323.89V307.46V274.62V241.77V225.35V208.93V192.5V159.66V152.26C418.884 149.47 418.134 146.78 416.784 144.45L404.664 151.44V151.46Z" fill="#77552C"/>
<path d="M176.355 168.151L176.365 168.141H176.355V168.151Z" fill="#C6A76F"/>
<path d="M141.454 196.57C143.684 197.86 146.174 198.5 148.664 198.5C149.284 198.5 149.904 198.46 150.524 198.38C152.374 198.14 154.194 197.54 155.864 196.57L162.874 192.52L177.094 184.31H177.104L191.324 176.1L205.544 167.89L219.764 159.68L233.994 151.46L248.214 143.25L262.434 135.05L276.654 126.83L290.874 118.62H290.884L305.094 110.41H305.104L319.324 118.62L333.544 126.83L347.764 135.04L361.994 143.26L376.204 151.47H376.214L380.984 154.23C381.714 154.65 382.464 155.02 383.234 155.34C383.614 155.5 384.004 155.64 384.394 155.78C385.174 156.04 385.974 156.25 386.774 156.41C387.574 156.57 388.394 156.67 389.204 156.73C389.614 156.76 390.014 156.77 390.424 156.77C393.684 156.77 396.944 155.93 399.874 154.24L404.644 151.48L416.764 144.48C415.414 142.15 413.454 140.17 411.034 138.78L406.424 136.13L404.654 135.05H404.644L390.434 126.84H390.424L376.204 118.63L361.984 110.42L347.764 102.21H347.754L333.544 93.9901H333.534L319.314 85.7801L312.024 81.5701C307.734 79.0901 302.454 79.1001 298.164 81.5701L295.134 83.3201L290.284 86.1201L296.174 89.5201C298.704 90.9801 300.754 93.0601 302.164 95.5101C303.574 97.9501 304.354 100.76 304.354 103.68V110.67L290.134 118.87L280.564 124.4C277.684 126.06 274.134 126.06 271.264 124.4L261.694 118.88L249.934 112.09C249.214 111.68 248.634 111.09 248.214 110.41L190.734 143.59L198.384 148.01C200.374 149.16 201.974 150.79 203.084 152.71C204.194 154.63 204.804 156.84 204.804 159.13V168.14H204.794L190.584 176.35H190.574L176.354 184.57L162.134 176.36L148.054 168.23L134.434 176.09H134.424L130.634 178.28C127.414 180.14 124.804 182.79 123.004 185.91L134.434 192.51L141.444 196.56L141.454 196.57Z" fill="#C6A76F"/>
<path d="M347.774 315.7L347.784 315.69L352.074 318.17V219.73V203.31V186.9V186.89V170.47V154.04V137.63L337.844 129.41V145.83H337.854L337.844 145.84V162.26V178.68V195.1V195.11V309.96L347.774 315.69V315.7Z" fill="#77552C"/>
<path d="M362.004 323.9L352.074 318.17L347.784 315.69H347.774L337.844 309.96L333.554 307.48L319.334 299.27L305.114 291.06L305.104 291.05L290.884 299.27L276.664 307.48H276.654L262.444 315.69L248.224 323.9H248.214L234.004 332.11H233.994L219.774 340.32L205.554 348.53L191.334 356.74H191.324L177.114 364.95H177.104L162.884 373.17L148.664 381.38L162.884 389.59L177.104 397.8H177.114L191.334 406.02L205.554 414.22L219.774 422.44L221.504 423.44C225.374 425.67 229.684 426.79 234.004 426.79C238.314 426.79 242.634 425.67 246.494 423.44L248.224 422.44L262.444 414.23H262.454L276.664 406.02L290.884 397.81L290.894 397.8L305.114 389.59L319.334 381.38L333.554 373.17H333.564L347.774 364.96H347.784L362.004 356.75L376.224 348.54L390.444 340.33L376.224 332.11L362.004 323.9Z" fill="#C6A76F"/>
<path d="M275.925 110.66H275.915L265.905 104.88L261.695 102.45L247.475 94.2402V107.83C247.475 108.76 247.745 109.65 248.215 110.41C248.635 111.09 249.215 111.67 249.935 112.09L261.695 118.88L271.265 124.4C274.145 126.06 277.695 126.06 280.565 124.4L290.135 118.88L304.355 110.67V103.68C304.355 100.76 303.575 97.9602 302.165 95.5102L290.135 102.46L275.925 110.66Z" fill="#E2B042"/>
<path d="M176.354 184.57L190.574 176.35H190.584L204.794 168.14H204.804V159.13C204.804 156.84 204.194 154.63 203.084 152.71L190.584 159.93L190.574 159.94L176.364 168.14H176.354L162.134 159.93L150.224 153.05C148.734 155.63 147.914 158.6 147.914 161.68V168.14L148.054 168.23L162.134 176.36L176.354 184.57Z" fill="#E2B042"/>
<path d="M270.084 89.9701L277.274 85.8301C278.384 85.1901 279.754 85.1901 280.864 85.8301L287.194 89.4901C288.154 90.0401 288.154 91.4301 287.194 91.9801L281.134 95.4701L265.904 104.88L275.914 110.66H275.924L290.134 102.46L302.164 95.5101C300.754 93.0601 298.704 90.9801 296.174 89.5201L290.284 86.1201L290.124 86.0301L281.324 80.9501C277.964 79.0101 273.834 79.0101 270.474 80.9501L261.674 86.0301V94.5701L270.064 89.9701H270.084Z" fill="#F4F0A8"/>
<path d="M176.355 168.14H176.365L190.575 159.94H190.585L203.085 152.71C201.975 150.79 200.375 149.16 198.385 148.01L190.735 143.59L190.585 143.5V149.53L184.975 153.12L185.045 153.16L177.305 157.63C175.735 158.54 173.795 158.54 172.215 157.63L165.965 154.02C165.305 153.64 165.305 152.68 165.965 152.29L173.335 148.04L176.355 146.22V137.71L174.815 136.17L162.125 143.5L156.535 146.73C153.865 148.27 151.705 150.47 150.215 153.05L162.125 159.93L176.345 168.14H176.355Z" fill="#F4F0A8"/>
<path d="M176.364 146.24L173.344 148.06L174.774 147.24L184.984 153.14L190.594 149.55V127.1V114.3C190.594 114.02 190.614 113.74 190.654 113.47C190.914 111.56 192.034 109.85 193.734 108.87L204.824 102.47L219.044 94.2602L219.054 94.2502L233.264 86.0502L233.274 86.0402L244.384 79.6302C244.904 79.3302 245.464 79.2802 245.974 79.4302C246.144 79.4802 246.304 79.5502 246.454 79.6302C247.054 79.9802 247.484 80.6302 247.484 81.4202V94.2502L261.704 102.46L265.914 104.89L281.144 95.4802L279.074 96.6702L268.784 90.7302L270.094 89.9702L261.704 94.5702V76.7702C261.704 72.8902 259.894 69.2702 256.874 66.9502C256.444 66.6202 255.984 66.3102 255.504 66.0302L254.344 65.3602C250.164 62.9502 245.044 62.9202 240.834 65.2502C240.764 65.2902 240.694 65.3202 240.634 65.3602L233.264 69.6102L219.054 77.8202H219.044L204.824 86.0302L190.604 94.2402L183.214 98.5202C181.624 99.4402 180.274 100.64 179.194 102.05C177.394 104.4 176.384 107.3 176.384 110.36V118.88V135.31L174.854 136.19L176.394 137.73V146.24H176.364Z" fill="#A07F57"/>
<path d="M174.775 147.24L173.345 148.06L165.975 152.31C165.315 152.69 165.315 153.65 165.975 154.04L172.225 157.65C173.795 158.56 175.735 158.56 177.315 157.65L185.055 153.18L184.985 153.14L174.775 147.24Z" fill="#77552C"/>
<path d="M287.195 89.4906L280.865 85.8306C279.755 85.1906 278.385 85.1906 277.275 85.8306L270.085 89.9706L268.775 90.7306L279.065 96.6706L281.135 95.4806L287.195 91.9906C288.155 91.4406 288.155 90.0506 287.195 89.5006V89.4906Z" fill="#77552C"/>
<mask id="mask1_2587_31696" style="mask-type:luminance" maskUnits="userSpaceOnUse" x="428" y="628" width="348" height="151">
<path d="M707.264 628.38L455.944 645.69L428.574 689.54L581.744 775.98C587.644 779.31 594.874 779.25 600.724 775.81L773.584 674.08C776.424 672.41 776.414 668.29 773.554 666.64L707.274 628.38H707.264Z" fill="white"/>
</mask>
<g mask="url(#mask1_2587_31696)">
<path d="M801.175 589.189H759.875V630.489H801.175V589.189Z" fill="#DFE9ED"/>
<path d="M801.175 630.479H759.875V671.78H801.175V630.479Z" fill="#DFE9ED"/>
<path d="M801.175 671.779H759.875V713.079H801.175V671.779Z" fill="#DFE9ED"/>
<path d="M801.175 713.069H759.875V754.369H801.175V713.069Z" fill="#DFE9ED"/>
<path d="M801.175 754.369H759.875V795.669H801.175V754.369Z" fill="#DFE9ED"/>
<path d="M759.874 589.189H718.574V630.489H759.874V589.189Z" fill="#DFE9ED"/>
<path d="M759.874 630.479H718.574V671.78H759.874V630.479Z" fill="#DFE9ED"/>
<path d="M759.874 671.779H718.574V713.079H759.874V671.779Z" fill="#DFE9ED"/>
<path d="M759.874 713.069H718.574V754.369H759.874V713.069Z" fill="#DFE9ED"/>
<path d="M759.874 754.369H718.574V795.669H759.874V754.369Z" fill="#DFE9ED"/>
<path d="M718.575 589.189H677.275V630.489H718.575V589.189Z" fill="#DFE9ED"/>
<path d="M718.575 630.479H677.275V671.78H718.575V630.479Z" fill="#DFE9ED"/>
<path d="M718.575 671.779H677.275V713.079H718.575V671.779Z" fill="#DFE9ED"/>
<path d="M718.575 713.069H677.275V754.369H718.575V713.069Z" fill="#DFE9ED"/>
<path d="M718.575 754.369H677.275V795.669H718.575V754.369Z" fill="#DFE9ED"/>
<path d="M677.284 589.189H635.984V630.489H677.284V589.189Z" fill="#DFE9ED"/>
<path d="M677.284 630.479H635.984V671.78H677.284V630.479Z" fill="#DFE9ED"/>
<path d="M677.284 671.779H635.984V713.079H677.284V671.779Z" fill="#DFE9ED"/>
<path d="M677.284 713.069H635.984V754.369H677.284V713.069Z" fill="#DFE9ED"/>
<path d="M677.284 754.369H635.984V795.669H677.284V754.369Z" fill="#DFE9ED"/>
<path d="M635.986 589.189H594.686V630.489H635.986V589.189Z" fill="#DFE9ED"/>
<path d="M635.986 630.479H594.686V671.78H635.986V630.479Z" fill="#DFE9ED"/>
<path d="M635.986 671.779H594.686V713.079H635.986V671.779Z" fill="#DFE9ED"/>
<path d="M635.986 713.069H594.686V754.369H635.986V713.069Z" fill="#DFE9ED"/>
<path d="M635.986 754.369H594.686V795.669H635.986V754.369Z" fill="#DFE9ED"/>
<path d="M594.685 589.189H553.385V630.489H594.685V589.189Z" fill="#DFE9ED"/>
<path d="M594.685 630.479H553.385V671.78H594.685V630.479Z" fill="#DFE9ED"/>
<path d="M594.685 671.779H553.385V713.079H594.685V671.779Z" fill="#DFE9ED"/>
<path d="M594.685 713.069H553.385V754.369H594.685V713.069Z" fill="#DFE9ED"/>
<path d="M594.685 754.369H553.385V795.669H594.685V754.369Z" fill="#DFE9ED"/>
<path d="M553.396 589.189H512.096V630.489H553.396V589.189Z" fill="#DFE9ED"/>
<path d="M553.396 630.479H512.096V671.78H553.396V630.479Z" fill="#DFE9ED"/>
<path d="M553.396 671.779H512.096V713.079H553.396V671.779Z" fill="#DFE9ED"/>
<path d="M553.396 713.069H512.096V754.369H553.396V713.069Z" fill="#DFE9ED"/>
<path d="M553.396 754.369H512.096V795.669H553.396V754.369Z" fill="#DFE9ED"/>
<path d="M512.095 589.189H470.795V630.489H512.095V589.189Z" fill="#DFE9ED"/>
<path d="M512.095 630.479H470.795V671.78H512.095V630.479Z" fill="#DFE9ED"/>
<path d="M512.095 671.779H470.795V713.079H512.095V671.779Z" fill="#DFE9ED"/>
<path d="M512.095 713.069H470.795V754.369H512.095V713.069Z" fill="#DFE9ED"/>
<path d="M512.095 754.369H470.795V795.669H512.095V754.369Z" fill="#DFE9ED"/>
<path d="M470.794 589.189H429.494V630.489H470.794V589.189Z" fill="#DFE9ED"/>
<path d="M470.794 630.479H429.494V671.78H470.794V630.479Z" fill="#DFE9ED"/>
<path d="M470.794 671.779H429.494V713.079H470.794V671.779Z" fill="#DFE9ED"/>
<path d="M470.794 713.069H429.494V754.369H470.794V713.069Z" fill="#DFE9ED"/>
<path d="M470.794 754.369H429.494V795.669H470.794V754.369Z" fill="#DFE9ED"/>
<path d="M429.505 589.189H388.205V630.489H429.505V589.189Z" fill="#DFE9ED"/>
<path d="M429.505 630.479H388.205V671.78H429.505V630.479Z" fill="#DFE9ED"/>
<path d="M429.505 671.779H388.205V713.079H429.505V671.779Z" fill="#DFE9ED"/>
<path d="M429.505 713.069H388.205V754.369H429.505V713.069Z" fill="#DFE9ED"/>
<path d="M429.505 754.369H388.205V795.669H429.505V754.369Z" fill="#DFE9ED"/>
</g>
<path d="M538.134 736.24V715.97C533.824 715.97 529.504 714.86 525.634 712.62L523.904 711.62L509.684 703.41L495.464 695.2L481.243 686.99L481.234 686.98L467.014 678.77L452.794 670.56V588.45V572.03V555.61V487.68C450.304 487.68 447.813 487.04 445.583 485.75L438.574 481.7L427.143 475.1C425.343 478.22 424.354 481.8 424.354 485.52V489.91V506.33V555.6V572.02V588.44V637.71V654.13V674.57C424.354 682.25 428.454 689.34 435.094 693.18L438.574 695.19L452.794 703.4L467.014 711.61H467.023L481.243 719.82L489.904 724.83L495.464 728.04L509.684 736.25H509.694L518.344 741.25L523.904 744.46L528.594 747.17C531.544 748.87 534.834 749.72 538.134 749.72V736.25V736.24Z" fill="#A07F57"/>
<path d="M481.243 654.13L495.453 645.92H495.463L509.683 637.71L523.903 629.5L538.123 621.29H538.133L552.343 613.08H552.353L566.573 604.87L580.783 596.66H580.793L595.013 588.45L609.233 580.23H609.243V563.82V530.97V498.13V448.86V432.44V399.59H609.233L595.023 407.8H595.013L580.793 416.01L566.573 424.22L552.353 432.43L538.133 440.64L523.903 448.86L509.683 457.07L495.463 465.28L481.243 473.49H481.233L467.013 481.7L460.003 485.75C458.333 486.72 456.513 487.32 454.663 487.56C454.043 487.64 453.423 487.68 452.803 487.68V555.6V572.02V588.44V670.56L467.023 662.35L481.243 654.13ZM538.133 604.87L523.903 613.08L509.683 621.29L495.463 629.5L481.243 637.71L481.233 637.72L467.023 645.92H467.013V645.81L481.183 637.63L495.543 629.34L509.913 621.05L524.273 612.75L538.633 604.46L553.003 596.17V596.29L552.353 596.66L538.133 604.87ZM467.013 498.12H467.023L467.893 497.62L481.233 489.92H481.243L495.463 481.7L509.683 473.49L510.563 472.98L523.903 465.28L538.133 457.07L552.353 448.86L553.233 448.35L566.573 440.65L566.583 440.64L580.793 432.44L595.013 424.23V424.33L580.833 432.52L566.483 440.8H566.473L553.003 448.59L552.113 449.1L537.753 457.39L523.383 465.68L509.913 473.46L509.023 473.97L494.663 482.26L480.303 490.55L480.293 490.56L467.013 498.23V498.13V498.12Z" fill="#77552C"/>
<path d="M690.924 445.58C690.124 445.42 689.324 445.21 688.544 444.95C688.154 444.82 687.764 444.67 687.384 444.51C686.614 444.19 685.864 443.82 685.134 443.4L680.364 440.64H680.354L666.144 432.43L637.694 416L623.474 407.79L609.254 399.58V432.42V448.84V498.11V530.95V563.8V580.22L623.474 588.43L637.694 596.65L641.984 599.13V484.28V435.01H641.994L641.984 435V418.58L656.214 426.8V476.06V607.34L666.144 613.07L680.364 621.28L694.584 629.49V580.23V563.81V530.96V514.54V498.12V465.27V445.93C694.174 445.93 693.764 445.92 693.364 445.89C692.554 445.84 691.734 445.73 690.934 445.57L690.924 445.58ZM623.464 572.03H623.454L623.464 572.02V572.03ZM666.134 547.4H666.124L666.134 547.38V547.4Z" fill="#A07F57"/>
<path d="M708.793 440.64L704.023 443.41C701.103 445.1 697.833 445.94 694.573 445.94V465.27V498.12V514.54V530.96V563.81V580.23V629.5L680.353 637.72L666.133 645.93L651.913 654.14H651.903L637.693 662.35H637.683L623.463 670.56L609.243 678.77L595.023 686.98H595.013L580.793 695.2L566.583 703.41H566.573L552.353 711.62L550.623 712.62C546.753 714.85 542.443 715.97 538.133 715.97V736.24V749.72C541.423 749.72 544.723 748.87 547.673 747.16L552.343 744.46H552.353L566.573 736.24L580.793 728.03L595.013 719.82H595.023L609.233 711.61H609.243L623.463 703.39L629.013 700.18L637.683 695.17L651.903 686.96L657.453 683.76L666.133 678.75L680.353 670.54L694.573 662.33L708.793 654.12L711.333 652.66L715.473 650.26C720.143 647.56 723.013 642.58 723.013 637.19V613.07V596.64V563.8V530.95V514.53V498.11V481.68V448.84V441.44C723.013 438.65 722.263 435.96 720.913 433.63L708.793 440.62V440.64Z" fill="#77552C"/>
<path d="M480.494 457.33L480.504 457.32H480.494V457.33Z" fill="#C6A76F"/>
<path d="M445.583 485.75C447.813 487.04 450.303 487.68 452.793 487.68C453.413 487.68 454.033 487.64 454.653 487.56C456.503 487.32 458.323 486.72 459.993 485.75L467.003 481.7L481.223 473.49H481.233L495.453 465.28L509.673 457.07L523.893 448.86L538.123 440.64L552.343 432.43L566.563 424.23L580.783 416.01L595.003 407.8H595.013L609.223 399.59H609.233L623.453 407.8L637.673 416.01L651.893 424.22L666.123 432.44L680.333 440.65H680.343L685.113 443.41C685.843 443.83 686.593 444.2 687.363 444.52C687.743 444.68 688.133 444.82 688.523 444.96C689.303 445.22 690.103 445.43 690.903 445.59C691.703 445.75 692.523 445.85 693.333 445.91C693.743 445.94 694.143 445.95 694.553 445.95C697.813 445.95 701.073 445.11 704.003 443.42L708.773 440.66L720.893 433.66C719.543 431.33 717.583 429.35 715.163 427.96L710.553 425.31L708.783 424.23H708.773L694.563 416.02H694.553L680.333 407.81L666.113 399.6L651.893 391.39H651.883L637.673 383.17H637.663L623.443 374.96L616.153 370.75C611.863 368.27 606.583 368.28 602.293 370.75L599.263 372.5L594.413 375.3L600.303 378.7C602.833 380.16 604.883 382.24 606.293 384.69C607.703 387.13 608.483 389.94 608.483 392.86V399.85L594.263 408.05L584.693 413.58C581.813 415.24 578.263 415.24 575.393 413.58L565.823 408.06L554.063 401.27C553.343 400.86 552.763 400.27 552.343 399.59L494.863 432.77L502.513 437.19C504.503 438.34 506.103 439.97 507.213 441.89C508.323 443.81 508.933 446.02 508.933 448.31V457.32H508.923L494.713 465.53H494.703L480.483 473.75L466.263 465.54L452.183 457.41L438.563 465.27H438.553L434.763 467.46C431.543 469.32 428.933 471.97 427.133 475.09L438.563 481.69L445.573 485.74L445.583 485.75Z" fill="#C6A76F"/>
<path d="M651.903 604.88L651.913 604.87L656.203 607.35V508.91V492.49V476.08V476.07V459.65V443.22V426.81L641.973 418.59V435.01H641.983L641.973 435.02V451.44V467.86V484.28V484.29V599.14L651.903 604.87V604.88Z" fill="#77552C"/>
<path d="M666.133 613.08L656.203 607.349L651.913 604.87H651.903L641.973 599.14L637.683 596.659L623.463 588.45L609.243 580.24L609.233 580.229L595.013 588.45L580.793 596.659H580.783L566.573 604.87L552.353 613.08H552.343L538.133 621.289H538.123L523.903 629.5L509.683 637.71L495.463 645.919H495.453L481.243 654.13H481.233L467.013 662.349L452.793 670.56L467.013 678.77L481.233 686.979H481.243L495.463 695.2L509.683 703.4L523.903 711.62L525.633 712.62C529.503 714.85 533.813 715.969 538.133 715.969C542.443 715.969 546.763 714.85 550.623 712.62L552.353 711.62L566.573 703.409H566.583L580.793 695.2L595.013 686.99L595.023 686.979L609.243 678.77L623.463 670.56L637.683 662.349H637.693L651.903 654.14H651.913L666.133 645.93L680.353 637.719L694.573 629.51L680.353 621.289L666.133 613.08Z" fill="#C6A76F"/>
<path d="M580.063 399.84H580.053L570.043 394.06L565.833 391.63L551.613 383.42V397.01C551.613 397.94 551.883 398.83 552.353 399.59C552.773 400.27 553.353 400.85 554.073 401.27L565.833 408.06L575.403 413.58C578.283 415.24 581.833 415.24 584.703 413.58L594.273 408.06L608.493 399.85V392.86C608.493 389.94 607.713 387.14 606.303 384.69L594.273 391.64L580.063 399.84Z" fill="#E2B042"/>
<path d="M480.493 473.75L494.713 465.53H494.723L508.933 457.32H508.943V448.31C508.943 446.02 508.333 443.81 507.223 441.89L494.723 449.11L494.713 449.12L480.503 457.32H480.493L466.273 449.11L454.363 442.23C452.873 444.81 452.053 447.78 452.053 450.86V457.32L452.193 457.41L466.273 465.54L480.493 473.75Z" fill="#E2B042"/>
<path d="M574.224 379.15L581.414 375.01C582.524 374.37 583.894 374.37 585.004 375.01L591.334 378.67C592.294 379.22 592.294 380.61 591.334 381.16L585.274 384.65L570.044 394.06L580.054 399.84H580.064L594.274 391.64L606.304 384.69C604.894 382.24 602.844 380.16 600.314 378.7L594.424 375.3L594.264 375.21L585.464 370.13C582.104 368.19 577.974 368.19 574.614 370.13L565.814 375.21V383.75L574.204 379.15H574.224Z" fill="#F4F0A8"/>
<path d="M480.493 457.32H480.504L494.714 449.12H494.724L507.224 441.89C506.114 439.97 504.513 438.34 502.523 437.19L494.874 432.77L494.724 432.68V438.71L489.113 442.3L489.184 442.34L481.444 446.81C479.874 447.72 477.934 447.72 476.354 446.81L470.104 443.2C469.444 442.82 469.444 441.86 470.104 441.47L477.474 437.22L480.493 435.4V426.89L478.954 425.35L466.264 432.68L460.673 435.91C458.003 437.45 455.844 439.65 454.354 442.23L466.264 449.11L480.484 457.32H480.493Z" fill="#F4F0A8"/>
<path d="M480.504 435.42L477.484 437.24L478.914 436.42L489.124 442.32L494.734 438.73V416.28V403.48C494.734 403.2 494.754 402.92 494.794 402.65C495.054 400.74 496.174 399.03 497.874 398.05L508.964 391.65L523.184 383.44L523.194 383.43L537.404 375.23L537.414 375.22L548.524 368.81C549.044 368.51 549.604 368.46 550.114 368.61C550.284 368.66 550.444 368.73 550.594 368.81C551.194 369.16 551.624 369.81 551.624 370.6V383.43L565.844 391.64L570.054 394.07L585.284 384.66L583.214 385.85L572.924 379.91L574.234 379.15L565.844 383.75V365.95C565.844 362.07 564.034 358.45 561.014 356.13C560.584 355.8 560.124 355.49 559.644 355.21L558.484 354.54C554.304 352.13 549.184 352.1 544.974 354.43C544.904 354.47 544.834 354.5 544.774 354.54L537.404 358.79L523.194 367H523.184L508.964 375.21L494.744 383.42L487.354 387.7C485.764 388.62 484.414 389.82 483.334 391.23C481.534 393.58 480.524 396.48 480.524 399.54V408.06V424.49L478.994 425.37L480.534 426.91V435.42H480.504Z" fill="#A07F57"/>
<path d="M478.904 436.42L477.474 437.24L470.104 441.49C469.444 441.87 469.444 442.83 470.104 443.22L476.354 446.83C477.924 447.74 479.864 447.74 481.444 446.83L489.184 442.36L489.114 442.32L478.904 436.42Z" fill="#77552C"/>
<path d="M591.324 378.67L584.994 375.01C583.884 374.37 582.514 374.37 581.404 375.01L574.214 379.15L572.904 379.91L583.194 385.85L585.264 384.66L591.324 381.17C592.284 380.62 592.284 379.23 591.324 378.68V378.67Z" fill="#77552C"/>
<path d="M595.014 397.81L595.024 397.8H595.014V397.81Z" fill="#5FF25F"/>
<path d="M566.574 414.231H566.584L566.574 414.221V414.231Z" fill="#5FF25F"/>
<path d="M523.904 438.861H523.914L523.904 438.851V438.861Z" fill="#5FF25F"/>
<path d="M509.684 430.651H509.694L509.684 430.641V430.651Z" fill="#5FF25F"/>
<path d="M538.134 447.06V426.79C533.824 426.79 529.504 425.68 525.634 423.44L523.904 422.44L509.684 414.23L495.464 406.02L481.243 397.81L481.234 397.8L467.014 389.59L452.794 381.38V299.27V282.85V266.43V198.5C450.304 198.5 447.813 197.86 445.583 196.57L438.574 192.52L427.143 185.92C425.343 189.04 424.354 192.62 424.354 196.34V200.73V217.15V266.42V282.84V299.26V348.53V364.95V385.39C424.354 393.07 428.454 400.16 435.094 404L438.574 406.01L452.794 414.22L467.014 422.43H467.023L481.243 430.64L489.904 435.65L495.464 438.86L509.684 447.07H509.694L518.344 452.07L523.904 455.28L528.594 457.99C531.544 459.69 534.834 460.54 538.134 460.54V447.07V447.06Z" fill="#A07F57"/>
<path d="M481.243 364.95L495.453 356.74H495.463L509.683 348.53L523.903 340.32L538.123 332.11H538.133L552.343 323.9H552.353L566.573 315.69L580.783 307.48H580.793L595.013 299.27L609.233 291.05H609.243V274.64V241.79V208.95V159.68V143.26V110.41H609.233L595.023 118.62H595.013L580.793 126.83L566.573 135.04L552.353 143.25L538.133 151.46L523.903 159.68L509.683 167.89L495.463 176.1L481.243 184.31H481.233L467.013 192.52L460.003 196.57C458.333 197.54 456.513 198.14 454.663 198.38C454.043 198.46 453.423 198.5 452.803 198.5V266.42V282.84V299.26V381.38L467.023 373.17L481.243 364.95ZM538.133 315.69L523.903 323.9L509.683 332.11L495.463 340.32L481.243 348.53L481.233 348.54L467.023 356.74H467.013V356.63L481.183 348.45L495.543 340.16L509.913 331.87L524.273 323.57L538.633 315.28L553.003 306.99V307.11L552.353 307.48L538.133 315.69ZM467.013 208.94H467.023L467.893 208.44L481.233 200.74H481.243L495.463 192.52L509.683 184.31L510.563 183.8L523.903 176.1L538.133 167.89L552.353 159.68L553.233 159.17L566.573 151.47L566.583 151.46L580.793 143.26L595.013 135.05V135.15L580.833 143.34L566.483 151.62H566.473L553.003 159.41L552.113 159.92L537.753 168.21L523.383 176.5L509.913 184.28L509.023 184.79L494.663 193.08L480.303 201.37L480.293 201.38L467.013 209.05V208.95V208.94Z" fill="#77552C"/>
<path d="M690.924 156.4C690.124 156.24 689.324 156.03 688.544 155.77C688.154 155.64 687.764 155.49 687.384 155.33C686.614 155.01 685.864 154.64 685.134 154.22L680.364 151.46H680.354L666.144 143.25L637.694 126.82L623.474 118.61L609.254 110.4V143.24V159.66V208.93V241.77V274.62V291.04L623.474 299.25L637.694 307.47L641.984 309.95V195.1V145.83H641.994L641.984 145.82V129.4L656.214 137.62V186.88V318.16L666.144 323.89L680.364 332.1L694.584 340.31V291.05V274.63V241.78V225.36V208.94V176.09V156.75C694.174 156.75 693.764 156.74 693.364 156.71C692.554 156.66 691.734 156.55 690.934 156.39L690.924 156.4ZM623.464 282.85H623.454L623.464 282.84V282.85ZM666.134 258.22H666.124L666.134 258.2V258.22Z" fill="#A07F57"/>
<path d="M708.793 151.46L704.023 154.23C701.103 155.92 697.833 156.76 694.573 156.76V176.09V208.94V225.36V241.78V274.63V291.05V340.32L680.353 348.54L666.133 356.75L651.913 364.96H651.903L637.693 373.17H637.683L623.463 381.38L609.243 389.59L595.023 397.8H595.013L580.793 406.02L566.583 414.23H566.573L552.353 422.44L550.623 423.44C546.753 425.67 542.443 426.79 538.133 426.79V447.06V460.54C541.423 460.54 544.723 459.69 547.673 457.98L552.343 455.28H552.353L566.573 447.06L580.793 438.85L595.013 430.64H595.023L609.233 422.43H609.243L623.463 414.21L629.013 411L637.683 405.99L651.903 397.78L657.453 394.58L666.133 389.57L680.353 381.36L694.573 373.15L708.793 364.94L711.333 363.48L715.473 361.08C720.143 358.38 723.013 353.4 723.013 348.01V323.89V307.46V274.62V241.77V225.35V208.93V192.5V159.66V152.26C723.013 149.47 722.263 146.78 720.913 144.45L708.793 151.44V151.46Z" fill="#77552C"/>
<path d="M480.494 168.151L480.504 168.141H480.494V168.151Z" fill="#C6A76F"/>
<path d="M445.583 196.57C447.813 197.86 450.303 198.5 452.793 198.5C453.413 198.5 454.033 198.46 454.653 198.38C456.503 198.14 458.323 197.54 459.993 196.57L467.003 192.52L481.223 184.31H481.233L495.453 176.1L509.673 167.89L523.893 159.68L538.123 151.46L552.343 143.25L566.563 135.05L580.783 126.83L595.003 118.62H595.013L609.223 110.41H609.233L623.453 118.62L637.673 126.83L651.893 135.04L666.123 143.26L680.333 151.47H680.343L685.113 154.23C685.843 154.65 686.593 155.02 687.363 155.34C687.743 155.5 688.133 155.64 688.523 155.78C689.303 156.04 690.103 156.25 690.903 156.41C691.703 156.57 692.523 156.67 693.333 156.73C693.743 156.76 694.143 156.77 694.553 156.77C697.813 156.77 701.073 155.93 704.003 154.24L708.773 151.48L720.893 144.48C719.543 142.15 717.583 140.17 715.163 138.78L710.553 136.13L708.783 135.05H708.773L694.563 126.84H694.553L680.333 118.63L666.113 110.42L651.893 102.21H651.883L637.673 93.9901H637.663L623.443 85.7801L616.153 81.5701C611.863 79.0901 606.583 79.1001 602.293 81.5701L599.263 83.3201L594.413 86.1201L600.303 89.5201C602.833 90.9801 604.883 93.0601 606.293 95.5101C607.703 97.9501 608.483 100.76 608.483 103.68V110.67L594.263 118.87L584.693 124.4C581.813 126.06 578.263 126.06 575.393 124.4L565.823 118.88L554.063 112.09C553.343 111.68 552.763 111.09 552.343 110.41L494.863 143.59L502.513 148.01C504.503 149.16 506.103 150.79 507.213 152.71C508.323 154.63 508.933 156.84 508.933 159.13V168.14H508.923L494.713 176.35H494.703L480.483 184.57L466.263 176.36L452.183 168.23L438.563 176.09H438.553L434.763 178.28C431.543 180.14 428.933 182.79 427.133 185.91L438.563 192.51L445.573 196.56L445.583 196.57Z" fill="#C6A76F"/>
<path d="M651.903 315.7L651.913 315.69L656.203 318.17V219.73V203.31V186.9V186.89V170.47V154.04V137.63L641.973 129.41V145.83H641.983L641.973 145.84V162.26V178.68V195.1V195.11V309.96L651.903 315.69V315.7Z" fill="#77552C"/>
<path d="M666.133 323.9L656.203 318.17L651.913 315.69H651.903L641.973 309.96L637.683 307.48L623.463 299.27L609.243 291.06L609.233 291.05L595.013 299.27L580.793 307.48H580.783L566.573 315.69L552.353 323.9H552.343L538.133 332.11H538.123L523.903 340.32L509.683 348.53L495.463 356.74H495.453L481.243 364.95H481.233L467.013 373.17L452.793 381.38L467.013 389.59L481.233 397.8H481.243L495.463 406.02L509.683 414.22L523.903 422.44L525.633 423.44C529.503 425.67 533.813 426.79 538.133 426.79C542.443 426.79 546.763 425.67 550.623 423.44L552.353 422.44L566.573 414.23H566.583L580.793 406.02L595.013 397.81L595.023 397.8L609.243 389.59L623.463 381.38L637.683 373.17H637.693L651.903 364.96H651.913L666.133 356.75L680.353 348.54L694.573 340.33L680.353 332.11L666.133 323.9Z" fill="#C6A76F"/>
<path d="M580.063 110.66H580.053L570.043 104.88L565.833 102.45L551.613 94.2402V107.83C551.613 108.76 551.883 109.65 552.353 110.41C552.773 111.09 553.353 111.67 554.073 112.09L565.833 118.88L575.403 124.4C578.283 126.06 581.833 126.06 584.703 124.4L594.273 118.88L608.493 110.67V103.68C608.493 100.76 607.713 97.9602 606.303 95.5102L594.273 102.46L580.063 110.66Z" fill="#E2B042"/>
<path d="M480.493 184.57L494.713 176.35H494.723L508.933 168.14H508.943V159.13C508.943 156.84 508.333 154.63 507.223 152.71L494.723 159.93L494.713 159.94L480.503 168.14H480.493L466.273 159.93L454.363 153.05C452.873 155.63 452.053 158.6 452.053 161.68V168.14L452.193 168.23L466.273 176.36L480.493 184.57Z" fill="#E2B042"/>
<path d="M574.224 89.9701L581.414 85.8301C582.524 85.1901 583.894 85.1901 585.004 85.8301L591.334 89.4901C592.294 90.0401 592.294 91.4301 591.334 91.9801L585.274 95.4701L570.044 104.88L580.054 110.66H580.064L594.274 102.46L606.304 95.5101C604.894 93.0601 602.844 90.9801 600.314 89.5201L594.424 86.1201L594.264 86.0301L585.464 80.9501C582.104 79.0101 577.974 79.0101 574.614 80.9501L565.814 86.0301V94.5701L574.204 89.9701H574.224Z" fill="#F4F0A8"/>
<path d="M480.493 168.14H480.504L494.714 159.94H494.724L507.224 152.71C506.114 150.79 504.513 149.16 502.523 148.01L494.874 143.59L494.724 143.5V149.53L489.113 153.12L489.184 153.16L481.444 157.63C479.874 158.54 477.934 158.54 476.354 157.63L470.104 154.02C469.444 153.64 469.444 152.68 470.104 152.29L477.474 148.04L480.493 146.22V137.71L478.954 136.17L466.264 143.5L460.673 146.73C458.003 148.27 455.844 150.47 454.354 153.05L466.264 159.93L480.484 168.14H480.493Z" fill="#F4F0A8"/>
<path d="M480.504 146.24L477.484 148.06L478.914 147.24L489.124 153.14L494.734 149.55V127.1V114.3C494.734 114.02 494.754 113.74 494.794 113.47C495.054 111.56 496.174 109.85 497.874 108.87L508.964 102.47L523.184 94.2602L523.194 94.2502L537.404 86.0502L537.414 86.0402L548.524 79.6302C549.044 79.3302 549.604 79.2802 550.114 79.4302C550.284 79.4802 550.444 79.5502 550.594 79.6302C551.194 79.9802 551.624 80.6302 551.624 81.4202V94.2502L565.844 102.46L570.054 104.89L585.284 95.4802L583.214 96.6702L572.924 90.7302L574.234 89.9702L565.844 94.5702V76.7702C565.844 72.8902 564.034 69.2702 561.014 66.9502C560.584 66.6202 560.124 66.3102 559.644 66.0302L558.484 65.3602C554.304 62.9502 549.184 62.9202 544.974 65.2502C544.904 65.2902 544.834 65.3202 544.774 65.3602L537.404 69.6102L523.194 77.8202H523.184L508.964 86.0302L494.744 94.2402L487.354 98.5202C485.764 99.4402 484.414 100.64 483.334 102.05C481.534 104.4 480.524 107.3 480.524 110.36V118.88V135.31L478.994 136.19L480.534 137.73V146.24H480.504Z" fill="#A07F57"/>
<path d="M478.904 147.24L477.474 148.06L470.104 152.31C469.444 152.69 469.444 153.65 470.104 154.04L476.354 157.65C477.924 158.56 479.864 158.56 481.444 157.65L489.184 153.18L489.114 153.14L478.904 147.24Z" fill="#77552C"/>
<path d="M591.324 89.4906L584.994 85.8306C583.884 85.1906 582.514 85.1906 581.404 85.8306L574.214 89.9706L572.904 90.7306L583.194 96.6706L585.264 95.4806L591.324 91.9906C592.284 91.4406 592.284 90.0506 591.324 89.5006V89.4906Z" fill="#77552C"/>
</svg>
