<svg width="801" height="801" viewBox="0 0 801 801" fill="none" xmlns="http://www.w3.org/2000/svg">
<path d="M385.975 570.559L385.905 570.599L378.885 574.649L371.685 578.809L357.475 587.019L343.245 595.229L336.045 599.399L329.015 603.449L314.795 611.659H314.785L300.575 619.869H300.565L293.465 623.969L286.355 628.069L272.135 636.279H272.125L257.915 644.489L250.895 648.539L243.695 652.689L229.485 660.899L229.475 660.909L223.555 664.319C220.255 666.219 216.455 666.889 212.805 666.349L262.615 694.459C268.515 697.789 275.745 697.729 281.595 694.289L454.455 592.559C457.295 590.889 457.285 586.769 454.425 585.119L399.205 553.239C397.295 560.439 392.605 566.709 386.005 570.539L385.975 570.559Z" fill="#DFE9ED"/>
<path d="M343.234 578.81V578.82H343.244L343.234 578.81Z" fill="#DFE9ED"/>
<path d="M286.344 562.39V562.4L272.124 570.61L257.904 578.82L272.124 570.61L286.344 562.4V562.39V562.4L286.354 562.39H286.344Z" fill="#DFE9ED"/>
<path d="M300.565 603.449H300.555L300.565 603.459H300.575V603.449H300.565Z" fill="#DFE9ED"/>
<path d="M229.465 562.39H229.455L229.445 562.4H229.465V562.39L238.475 557.18L229.465 562.39Z" fill="#DFE9ED"/>
<path d="M215.234 570.6L222.344 566.5L215.234 570.6L201.014 578.81L215.234 570.6Z" fill="#DFE9ED"/>
<path d="M201.014 562.4H201.024L201.014 562.39V562.4Z" fill="#DFE9ED"/>
<path d="M229.465 611.649L229.455 611.659H229.445L229.455 611.669H229.465V611.649Z" fill="#DFE9ED"/>
<path d="M158.344 587.02V587.03H158.354L158.344 587.02Z" fill="#DFE9ED"/>
<path d="M186.785 636.289H186.775L186.785 636.299H186.795V636.289H186.785Z" fill="#DFE9ED"/>
<path d="M377.754 214.009C375.874 215.089 373.784 215.639 371.684 215.639V266.779V283.209V381.739V431.009V447.429V480.279V529.539V545.969L357.464 554.179L343.234 562.389L329.014 570.599L314.794 578.809L300.574 587.019L300.564 587.029L286.344 595.239L272.124 603.449L257.904 611.659L243.684 619.869V636.289V652.709L250.884 648.559L257.904 644.509L272.114 636.299H272.124L286.344 628.089L293.454 623.989L300.554 619.889H300.564L314.774 611.679H314.784L329.004 603.469L336.034 599.419L343.234 595.259L357.464 587.039L371.674 578.829L378.874 574.669L385.894 570.619L385.964 570.579C392.574 566.739 397.264 560.479 399.164 553.279C399.774 550.979 400.104 548.579 400.114 546.139V545.999V496.729V463.879V431.039V398.199V348.929V316.079V208.759C400.084 206.399 399.454 204.139 398.314 202.159L385.894 209.329L377.744 214.029L377.754 214.009ZM300.574 603.459H300.564V603.449H300.574V603.459Z" fill="#77552C"/>
<path d="M343.235 217.53V299.63V332.48V381.74V381.75V431.01V431.02V447.43V463.86V480.28V513.13V529.54V529.55L357.455 537.75L371.675 545.97V529.55V480.29V447.44V431.02V381.75V283.22V266.79V215.64C369.575 215.64 367.475 215.1 365.605 214.02L361.045 211.39L357.455 209.32L343.225 201.1V217.52L343.235 217.53ZM357.465 274.99V275.01L357.455 275H357.465V274.99Z" fill="#A07F57"/>
<path d="M284.154 153.1C285.564 155.54 286.344 158.35 286.344 161.27V168.26L300.564 176.47H300.574L314.794 184.68L329.014 192.89L343.234 201.1L357.464 209.31L361.054 211.39L365.614 214.02C367.494 215.1 369.584 215.64 371.684 215.64C373.784 215.64 375.874 215.1 377.754 214.01L385.904 209.31L398.324 202.14C397.174 200.14 395.504 198.44 393.444 197.24L385.914 192.9H385.904L378.884 188.84L371.684 184.69L364.584 180.58L357.474 176.48L350.274 172.32L343.254 168.27L336.064 164.11L329.044 160.06H329.034L314.814 151.85L300.594 143.64L297.734 141.99L293.524 139.56C289.094 137 283.644 137 279.214 139.56L272.154 143.64L278.194 147.13C280.724 148.59 282.774 150.67 284.184 153.12L284.154 153.1Z" fill="#C6A76F"/>
<path d="M223.535 664.339L229.455 660.929H229.465V660.919L243.675 652.709V636.299V619.879L229.465 628.089L223.955 631.269C218.565 634.379 211.915 634.379 206.525 631.269L201.015 628.089L186.795 619.879L172.575 611.669L158.345 603.459L144.135 595.249H144.125L129.905 587.039V521.349V455.659V373.549V257.049C128.195 257.049 126.475 256.609 124.945 255.719L115.685 250.369L103.115 243.109C102.055 244.939 101.475 247.049 101.475 249.239V594.409C101.525 600.039 104.545 605.219 109.425 608.039L115.685 611.659L122.885 615.819L129.915 619.869L144.135 628.079L158.355 636.289H158.365L165.465 640.389L172.565 644.489H172.575L186.795 652.699L201.015 660.909V660.919L206.915 664.329C208.745 665.389 210.735 666.059 212.765 666.369C216.415 666.919 220.215 666.239 223.515 664.339H223.535ZM186.795 636.299H186.785V636.289H186.795V636.299Z" fill="#A07F57"/>
<path d="M215.234 209.309L229.454 201.099H229.464L243.674 192.899L257.894 184.689L264.294 180.989L262.544 181.999C259.664 183.659 256.114 183.659 253.244 181.999L243.674 176.479L231.924 169.699C231.164 169.259 230.544 168.629 230.124 167.899L229.474 168.269L215.244 176.489L208.044 180.649L201.024 184.699L186.804 192.909L172.584 201.119L180.384 205.619C182.374 206.769 183.974 208.399 185.084 210.319C186.194 212.239 186.804 214.449 186.804 216.739V225.749L201.024 217.539L215.244 209.329L215.234 209.309Z" fill="#C6A76F"/>
<path d="M129.904 291.43V373.53V455.64V521.33V587.03L144.124 578.82L158.344 570.61L172.564 562.39H172.574L186.794 554.18L201.014 545.97L215.234 537.76L229.464 529.55L243.684 521.34L257.904 513.13L272.124 504.92L286.344 496.71V463.87V447.44V414.6V398.17V365.33V348.91V299.64V250.37V201.11V184.68V168.26L272.124 176.46L267.654 179.05L264.304 180.99L257.904 184.69L243.684 192.89V192.9L229.474 201.1V201.12L215.254 209.33L201.034 217.54L186.814 225.75L172.604 233.96H172.594L165.484 238.07L158.384 242.18L144.164 250.39L134.904 255.74C133.364 256.63 131.654 257.07 129.944 257.07V291.46L129.904 291.43ZM272.124 488.49L257.904 496.7L243.684 504.91L229.474 513.12L215.244 521.33L201.024 529.55L186.804 537.76H186.794L172.584 545.97H172.574L158.354 554.18L144.134 562.39V561.43L158.344 553.22L172.564 545.01L186.794 536.8L201.014 528.58L215.234 520.37L229.464 512.16V512.35L243.684 504.14L257.904 495.93L272.134 487.72V488.49H272.124Z" fill="#77552C"/>
<path d="M103.104 243.109L115.674 250.369L124.934 255.719C126.474 256.609 128.184 257.049 129.894 257.049C131.604 257.049 133.324 256.609 134.854 255.719L144.114 250.369L158.334 242.159L144.114 233.949L129.894 225.739L122.874 229.789L115.674 233.939V233.949L107.604 238.599C105.704 239.699 104.164 241.269 103.104 243.109Z" fill="#C6A76F"/>
<path d="M357.464 537.759L343.244 529.549L329.024 521.329L314.804 513.119L313.564 512.399L300.584 504.919L286.364 496.699H286.354L272.134 504.909L257.914 513.129L243.694 521.329L229.474 529.549L215.244 537.759L201.024 545.969L186.804 554.179L172.584 562.389H172.574L158.354 570.609L144.134 578.809L129.914 587.029L144.134 595.239H144.144L158.354 603.449L172.584 611.659L186.804 619.869L201.024 628.079L206.534 631.259C211.924 634.369 218.574 634.369 223.964 631.259L229.474 628.079L243.684 619.869L257.904 611.659L272.124 603.449L286.344 595.239L300.564 587.029H300.574L314.794 578.819L329.014 570.599L343.234 562.389L357.464 554.179L371.684 545.969L357.464 537.759ZM238.474 557.179L229.464 562.389H229.444H229.454L238.464 557.179H238.474ZM158.344 587.019H158.354L158.344 587.029V587.019ZM229.464 611.669V611.659V611.679V611.669Z" fill="#C6A76F"/>
<path d="M286.344 168.26V184.67H286.354L286.344 184.68V201.1V250.36V299.63V348.9V365.32H286.354L286.344 365.33V398.16V414.59H286.364H286.354V447.42H286.364L286.354 447.43V463.85V496.69H286.364L300.584 504.9L313.564 512.39L314.804 513.11L329.024 521.32V504.91V488.49V439.22V373.53V357.11V340.69V242.15V225.73V192.88L314.804 184.67L300.584 176.46H300.574L286.354 168.25L286.344 168.26Z" fill="#A07F57"/>
<path d="M329.014 225.73V225.74V242.15V242.16V258.58V275V291.42V307.85V324.27V340.69V340.7V357.11V357.12V373.53V373.54V389.96V406.38V422.8V439.22V439.23V455.65V472.07V488.49V488.5V504.91V504.92V521.33L343.234 529.54V513.13V496.7V480.29V480.28V463.86V447.44V447.43V431.02V431.01V414.59V398.17V381.75V381.74V365.33V348.9V332.49V332.48V316.06V299.64V299.63V283.21V266.79V250.37V233.94V217.53V217.52V201.1L329.014 192.89V209.31V225.73Z" fill="#77552C"/>
<path d="M229.465 165.419C229.465 166.299 229.695 167.139 230.125 167.879C230.545 168.619 231.165 169.239 231.925 169.679L243.675 176.459H243.685L253.255 181.979C256.135 183.639 259.685 183.639 262.555 181.979L264.305 180.969L272.125 176.459L286.345 168.249V161.259C286.345 158.339 285.565 155.539 284.155 153.089L272.125 160.039L257.915 168.239H257.905L247.895 162.459L243.685 160.029L229.465 151.819V165.409V165.419Z" fill="#E2B042"/>
<path d="M158.344 242.16L165.454 238.05L172.564 233.94H172.574L186.784 225.73H186.794V216.72C186.794 214.43 186.184 212.22 185.074 210.3L172.574 217.52L172.564 217.53L158.354 225.73H158.344L144.124 217.52L132.214 210.64C130.724 213.22 129.904 216.19 129.904 219.27V225.73V225.74L144.124 233.95L158.344 242.16Z" fill="#E2B042"/>
<path d="M252.074 147.56L259.254 143.42C260.364 142.78 261.734 142.78 262.844 143.42L269.174 147.08C270.134 147.63 270.134 149.02 269.174 149.57L263.114 153.06L247.884 162.47L257.894 168.25H257.904L272.114 160.05L284.144 153.1C282.734 150.65 280.684 148.57 278.154 147.11L272.114 143.63H272.104L263.304 138.55C259.944 136.61 255.814 136.61 252.454 138.55L243.654 143.63V152.17L252.044 147.57L252.074 147.56Z" fill="#F4F0A8"/>
<path d="M158.345 225.73H158.355L172.565 217.53H172.575L185.075 210.3C183.965 208.38 182.365 206.75 180.375 205.6L172.575 201.1V207.13L166.965 210.72L167.035 210.76L159.295 215.23C157.725 216.14 155.785 216.14 154.205 215.23L147.955 211.62C147.295 211.24 147.295 210.28 147.955 209.89L155.325 205.64L158.345 203.82V195.31L156.805 193.77L144.115 201.1L138.525 204.33C135.855 205.87 133.695 208.07 132.205 210.65L144.115 217.53L158.335 225.74L158.345 225.73Z" fill="#F4F0A8"/>
<path d="M158.354 203.829L155.334 205.649L156.764 204.829L166.974 210.729L172.584 207.139V184.689V171.889C172.584 169.649 173.774 167.579 175.714 166.459L186.804 160.059L201.024 151.849L201.034 151.839L215.244 143.639V143.629L226.354 137.219C226.874 136.919 227.434 136.879 227.944 137.019C228.114 137.069 228.274 137.139 228.424 137.219C229.024 137.569 229.464 138.219 229.464 139.009V151.839L243.684 160.049L247.894 162.479L263.124 153.069L261.054 154.259L250.764 148.319L252.074 147.559L243.684 152.159V134.359C243.684 130.479 241.874 126.859 238.854 124.539C238.424 124.209 237.964 123.899 237.484 123.619L236.324 122.949C232.144 120.539 227.024 120.509 222.814 122.839C222.744 122.879 222.674 122.909 222.614 122.949L215.244 127.199L201.034 135.409H201.024L186.804 143.619L172.584 151.829L165.194 156.109C163.754 156.939 162.504 158.019 161.484 159.259C161.194 159.609 160.914 159.979 160.664 160.359C160.334 160.849 160.044 161.359 159.784 161.889C159.134 163.209 158.684 164.639 158.494 166.129C158.414 166.729 158.374 167.329 158.374 167.939V176.459V192.889L156.844 193.769L158.384 195.309V203.819L158.354 203.829Z" fill="#A07F57"/>
<path d="M155.324 205.649L147.954 209.899C147.294 210.279 147.294 211.239 147.954 211.629L154.204 215.239C155.774 216.149 157.714 216.149 159.294 215.239L167.034 210.769L166.964 210.729L156.754 204.829L155.324 205.649Z" fill="#77552C"/>
<path d="M269.174 147.079L262.844 143.419C261.734 142.779 260.364 142.779 259.254 143.419L252.074 147.559L250.764 148.319L261.054 154.259L263.124 153.069L269.184 149.579C270.144 149.029 270.144 147.639 269.184 147.089L269.174 147.079Z" fill="#77552C"/>
<path d="M684.625 570.559L684.555 570.599L677.535 574.649L670.335 578.809L656.125 587.019L641.895 595.229L634.695 599.399L627.665 603.449L613.445 611.659H613.435L599.225 619.869H599.215L592.115 623.969L585.005 628.069L570.785 636.279H570.775L556.565 644.489L549.545 648.539L542.345 652.689L528.135 660.899L528.125 660.909L522.205 664.319C518.905 666.219 515.105 666.889 511.455 666.349L561.265 694.459C567.165 697.789 574.395 697.729 580.245 694.289L753.105 592.559C755.945 590.889 755.935 586.769 753.075 585.119L697.855 553.239C695.945 560.439 691.255 566.709 684.655 570.539L684.625 570.559Z" fill="#DFE9ED"/>
<path d="M641.885 578.81V578.82H641.895L641.885 578.81Z" fill="#DFE9ED"/>
<path d="M585.005 562.39H584.995V562.4L570.775 570.61L556.555 578.82L570.775 570.61L584.995 562.4L585.005 562.39V562.4L585.015 562.39H585.005Z" fill="#DFE9ED"/>
<path d="M599.215 603.449L599.225 603.459V603.449H599.215Z" fill="#DFE9ED"/>
<path d="M528.114 562.39L528.104 562.4H528.124V562.39H528.114L537.124 557.18L528.114 562.39Z" fill="#DFE9ED"/>
<path d="M513.884 570.6L520.994 566.5L513.884 570.6L499.664 578.81L513.884 570.6Z" fill="#DFE9ED"/>
<path d="M499.664 562.4H499.674L499.664 562.39V562.4Z" fill="#DFE9ED"/>
<path d="M528.114 611.649V611.659H528.104L528.114 611.669H528.124V611.649H528.114Z" fill="#DFE9ED"/>
<path d="M456.994 587.02V587.03H457.004L456.994 587.02Z" fill="#DFE9ED"/>
<path d="M485.434 636.289L485.444 636.299V636.289H485.434Z" fill="#DFE9ED"/>
<path d="M676.404 214.009C674.524 215.089 672.434 215.639 670.334 215.639V266.779V283.209V381.739V431.009V447.429V480.279V529.539V545.969L656.114 554.179L641.884 562.389L627.664 570.599L613.444 578.809L599.224 587.019L599.214 587.029L584.994 595.239L570.774 603.449L556.554 611.659L542.334 619.869V636.289V652.709L549.534 648.559L556.554 644.509L570.764 636.299H570.774L584.994 628.089L592.104 623.989L599.204 619.889H599.214L613.424 611.679H613.434L627.654 603.469L634.684 599.419L641.884 595.259L656.114 587.039L670.324 578.829L677.524 574.669L684.544 570.619L684.614 570.579C691.224 566.739 695.914 560.479 697.814 553.279C698.424 550.979 698.754 548.579 698.764 546.139V545.999V496.729V463.879V431.039V398.199V348.929V316.079V208.759C698.734 206.399 698.104 204.139 696.964 202.159L684.544 209.329L676.394 214.029L676.404 214.009ZM599.224 603.459H599.214V603.449H599.224V603.459Z" fill="#77552C"/>
<path d="M641.885 217.53V299.63V332.48V381.74V381.75V431.01V431.02V447.43V463.86V480.28V513.13V529.54V529.55L656.105 537.75L670.325 545.97V529.55V480.29V447.44V431.02V381.75V283.22V266.79V215.64C668.225 215.64 666.125 215.1 664.255 214.02L659.695 211.39L656.105 209.32L641.875 201.1V217.52L641.885 217.53ZM656.115 274.99V275.01L656.105 275H656.115V274.99Z" fill="#A07F57"/>
<path d="M582.814 153.1C584.224 155.54 585.004 158.35 585.004 161.27V168.26L599.224 176.47H599.234L613.454 184.68L627.674 192.89L641.894 201.1L656.124 209.31L659.714 211.39L664.274 214.02C666.154 215.1 668.244 215.64 670.344 215.64C672.444 215.64 674.534 215.1 676.414 214.01L684.564 209.31L696.984 202.14C695.834 200.14 694.164 198.44 692.104 197.24L684.574 192.9H684.564L677.544 188.84L670.344 184.69L663.244 180.58L656.134 176.48L648.934 172.32L641.914 168.27L634.724 164.11L627.704 160.06H627.694L613.474 151.85L599.254 143.64L596.394 141.99L592.184 139.56C587.754 137 582.304 137 577.874 139.56L570.814 143.64L576.854 147.13C579.384 148.59 581.434 150.67 582.844 153.12L582.814 153.1Z" fill="#C6A76F"/>
<path d="M522.185 664.339L528.105 660.929H528.115V660.919L542.325 652.709V636.299V619.879L528.115 628.089L522.605 631.269C517.215 634.379 510.565 634.379 505.175 631.269L499.665 628.089L485.445 619.879L471.225 611.669L456.995 603.459L442.785 595.249H442.775L428.555 587.039V521.349V455.659V373.549V257.049C426.845 257.049 425.125 256.609 423.595 255.719L414.335 250.369L401.765 243.109C400.705 244.939 400.125 247.049 400.125 249.239V594.409C400.175 600.039 403.195 605.219 408.075 608.039L414.335 611.659L421.535 615.819L428.565 619.869L442.785 628.079L457.005 636.289H457.015L464.115 640.389L471.215 644.489H471.225L485.445 652.699L499.665 660.909V660.919L505.565 664.329C507.395 665.389 509.385 666.059 511.415 666.369C515.065 666.919 518.865 666.239 522.165 664.339H522.185ZM485.445 636.299H485.435V636.289H485.445V636.299Z" fill="#A07F57"/>
<path d="M513.884 209.309L528.104 201.099H528.114L542.324 192.899L556.544 184.689L562.944 180.989L561.194 181.999C558.314 183.659 554.764 183.659 551.894 181.999L542.324 176.479L530.574 169.699C529.814 169.259 529.194 168.629 528.774 167.899L528.124 168.269L513.894 176.489L506.694 180.649L499.674 184.699L485.454 192.909L471.234 201.119L479.034 205.619C481.024 206.769 482.624 208.399 483.734 210.319C484.844 212.239 485.454 214.449 485.454 216.739V225.749L499.674 217.539L513.894 209.329L513.884 209.309Z" fill="#C6A76F"/>
<path d="M428.555 291.43V373.53V455.64V521.33V587.03L442.775 578.82L456.995 570.61L471.215 562.39H471.225L485.445 554.18L499.665 545.97L513.885 537.76L528.115 529.55L542.335 521.34L556.555 513.13L570.775 504.92L584.995 496.71V463.87V447.44V414.6V398.17V365.33V348.91V299.64V250.37V201.11V184.68V168.26L570.775 176.46L566.305 179.05L562.955 180.99L556.555 184.69L542.335 192.89V192.9L528.125 201.1V201.12L513.905 209.33L499.685 217.54L485.465 225.75L471.255 233.96H471.245L464.135 238.07L457.035 242.18L442.815 250.39L433.555 255.74C432.015 256.63 430.305 257.07 428.595 257.07V291.46L428.555 291.43ZM570.775 488.49L556.555 496.7L542.335 504.91L528.125 513.12L513.895 521.33L499.675 529.55L485.455 537.76H485.445L471.235 545.97H471.225L457.005 554.18L442.785 562.39V561.43L456.995 553.22L471.215 545.01L485.445 536.8L499.665 528.58L513.885 520.37L528.115 512.16V512.35L542.335 504.14L556.555 495.93L570.785 487.72V488.49H570.775Z" fill="#77552C"/>
<path d="M401.764 243.109L414.334 250.369L423.594 255.719C425.134 256.609 426.844 257.049 428.554 257.049C430.264 257.049 431.984 256.609 433.514 255.719L442.774 250.369L456.994 242.159L442.774 233.949L428.554 225.739L421.534 229.789L414.334 233.939V233.949L406.264 238.599C404.364 239.699 402.824 241.269 401.764 243.109Z" fill="#C6A76F"/>
<path d="M656.114 537.759L641.894 529.549L627.674 521.329L613.454 513.119L612.214 512.399L599.234 504.919L585.014 496.699H585.004L570.784 504.909L556.564 513.129L542.344 521.329L528.124 529.549L513.894 537.759L499.674 545.969L485.454 554.179L471.234 562.389H471.224L457.004 570.609L442.784 578.809L428.564 587.029L442.784 595.239H442.794L457.004 603.449L471.234 611.659L485.454 619.869L499.674 628.079L505.184 631.259C510.574 634.369 517.224 634.369 522.614 631.259L528.124 628.079L542.334 619.869L556.554 611.659L570.774 603.449L584.994 595.239L599.214 587.029H599.224L613.444 578.819L627.664 570.599L641.884 562.389L656.114 554.179L670.334 545.969L656.114 537.759ZM537.124 557.179L528.114 562.389H528.094H528.104L537.114 557.179H537.124ZM456.994 587.019H457.004L456.994 587.029V587.019ZM528.124 611.669V611.659V611.679V611.669Z" fill="#C6A76F"/>
<path d="M584.994 168.26V184.67H585.004L584.994 184.68V201.1V250.36V299.63V348.9V365.32H585.004L584.994 365.33V398.16V414.59H585.014H585.004V447.42H585.014L585.004 447.43V463.85V496.69H585.014L599.234 504.9L612.214 512.39L613.454 513.11L627.674 521.32V504.91V488.49V439.22V373.53V357.11V340.69V242.15V225.73V192.88L613.454 184.67L599.234 176.46H599.224L585.004 168.25L584.994 168.26Z" fill="#A07F57"/>
<path d="M627.664 225.73V225.74V242.15V242.16V258.58V275V291.42V307.85V324.27V340.69V340.7V357.11V357.12V373.53V373.54V389.96V406.38V422.8V439.22V439.23V455.65V472.07V488.49V488.5V504.91V504.92V521.33L641.884 529.54V513.13V496.7V480.29V480.28V463.86V447.44V447.43V431.02V431.01V414.59V398.17V381.75V381.74V365.33V348.9V332.49V332.48V316.06V299.64V299.63V283.21V266.79V250.37V233.94V217.53V217.52V201.1L627.664 192.89V209.31V225.73Z" fill="#77552C"/>
<path d="M528.115 165.419C528.115 166.299 528.345 167.139 528.775 167.879C529.195 168.619 529.815 169.239 530.575 169.679L542.325 176.459H542.335L551.905 181.979C554.785 183.639 558.335 183.639 561.205 181.979L562.955 180.969L570.775 176.459L584.995 168.249V161.259C584.995 158.339 584.215 155.539 582.805 153.089L570.775 160.039L556.565 168.239H556.555L546.545 162.459L542.335 160.029L528.115 151.819V165.409V165.419Z" fill="#E2B042"/>
<path d="M456.995 242.16L464.105 238.05L471.215 233.94H471.225L485.435 225.73H485.445V216.72C485.445 214.43 484.835 212.22 483.725 210.3L471.225 217.52L471.215 217.53L457.005 225.73H456.995L442.775 217.52L430.865 210.64C429.375 213.22 428.555 216.19 428.555 219.27V225.73V225.74L442.775 233.95L456.995 242.16Z" fill="#E2B042"/>
<path d="M550.725 147.56L557.905 143.42C559.015 142.78 560.385 142.78 561.495 143.42L567.825 147.08C568.785 147.63 568.785 149.02 567.825 149.57L561.765 153.06L546.535 162.47L556.545 168.25H556.555L570.765 160.05L582.795 153.1C581.385 150.65 579.335 148.57 576.805 147.11L570.765 143.63H570.755L561.955 138.55C558.595 136.61 554.465 136.61 551.105 138.55L542.305 143.63V152.17L550.695 147.57L550.725 147.56Z" fill="#F4F0A8"/>
<path d="M456.993 225.73H457.004L471.214 217.53H471.224L483.724 210.3C482.614 208.38 481.013 206.75 479.023 205.6L471.224 201.1V207.13L465.613 210.72L465.684 210.76L457.944 215.23C456.374 216.14 454.434 216.14 452.854 215.23L446.604 211.62C445.944 211.24 445.944 210.28 446.604 209.89L453.974 205.64L456.993 203.82V195.31L455.454 193.77L442.764 201.1L437.173 204.33C434.503 205.87 432.344 208.07 430.854 210.65L442.764 217.53L456.984 225.74L456.993 225.73Z" fill="#F4F0A8"/>
<path d="M457.004 203.829L453.984 205.649L455.414 204.829L465.624 210.729L471.234 207.139V184.689V171.889C471.234 169.649 472.424 167.579 474.364 166.459L485.454 160.059L499.674 151.849L499.684 151.839L513.894 143.639V143.629L525.004 137.219C525.524 136.919 526.084 136.879 526.594 137.019C526.764 137.069 526.924 137.139 527.074 137.219C527.674 137.569 528.114 138.219 528.114 139.009V151.839L542.334 160.049L546.544 162.479L561.774 153.069L559.704 154.259L549.414 148.319L550.724 147.559L542.334 152.159V134.359C542.334 130.479 540.524 126.859 537.504 124.539C537.074 124.209 536.614 123.899 536.134 123.619L534.974 122.949C530.794 120.539 525.674 120.509 521.464 122.839C521.394 122.879 521.324 122.909 521.264 122.949L513.894 127.199L499.684 135.409H499.674L485.454 143.619L471.234 151.829L463.844 156.109C462.404 156.939 461.154 158.019 460.134 159.259C459.844 159.609 459.564 159.979 459.314 160.359C458.984 160.849 458.694 161.359 458.434 161.889C457.784 163.209 457.334 164.639 457.144 166.129C457.064 166.729 457.024 167.329 457.024 167.939V176.459V192.889L455.494 193.769L457.034 195.309V203.819L457.004 203.829Z" fill="#A07F57"/>
<path d="M453.984 205.649L446.614 209.899C445.954 210.279 445.954 211.239 446.614 211.629L452.864 215.239C454.434 216.149 456.374 216.149 457.954 215.239L465.694 210.769L465.624 210.729L455.414 204.829L453.984 205.649Z" fill="#77552C"/>
<path d="M567.834 147.079L561.504 143.419C560.394 142.779 559.024 142.779 557.914 143.419L550.734 147.559L549.424 148.319L559.714 154.259L561.784 153.069L567.844 149.579C568.804 149.029 568.804 147.639 567.844 147.089L567.834 147.079Z" fill="#77552C"/>
</svg>
