<svg width="801" height="801" viewBox="0 0 801 801" fill="none" xmlns="http://www.w3.org/2000/svg">
<g clip-path="url(#clip0_2587_29250)">
<path d="M721.794 559.3L654.194 520.26C652.964 522.38 651.194 524.19 648.994 525.46L641.894 529.56H641.884L627.664 537.77L613.444 545.98L599.224 554.19L585.004 562.4H584.994L570.774 570.62L556.554 578.82L542.334 587.04L528.114 595.25H528.104L513.894 603.46H513.884L499.664 611.67L485.444 619.88L471.224 628.09L457.004 636.3H456.994L442.774 644.52L428.554 652.73L414.334 660.94L400.114 669.15L385.884 677.36L371.674 685.57H371.664L357.444 693.78L343.224 701.99L343.214 702L337.644 705.21C333.484 707.61 328.574 708.13 324.074 706.8L385.594 742.77C394.844 748.18 406.274 748.2 415.544 742.83L721.794 565.51C724.184 564.13 724.184 560.68 721.794 559.3Z" fill="#DFE9ED"/>
<path d="M613.445 513.119L603.965 507.649L613.445 513.119Z" fill="#DFE9ED"/>
<path d="M272.115 660.94V660.92L272.105 660.93L272.115 660.94Z" fill="#DFE9ED"/>
<path d="M243.665 611.659L229.445 619.869L243.665 611.659Z" fill="#DFE9ED"/>
<path d="M229.446 636.299V636.289H229.436L229.446 636.299Z" fill="#DFE9ED"/>
<mask id="mask0_2587_29250" style="mask-type:luminance" maskUnits="userSpaceOnUse" x="635" y="500" width="1" height="1">
<path d="M635.236 500.539L635.196 500.559L635.186 500.569L635.236 500.539Z" fill="white"/>
</mask>
<g mask="url(#mask0_2587_29250)">
<path d="M661.296 466.379H619.996V507.679H661.296V466.379Z" fill="#77552C"/>
</g>
<mask id="mask1_2587_29250" style="mask-type:luminance" maskUnits="userSpaceOnUse" x="584" y="168" width="30" height="329">
<path d="M584.994 184.68V217.52V233.94V250.36V266.79V283.2V299.63V332.47V365.32V414.59V431.01V447.43V480.28L613.444 496.72V463.86V431.02V348.91V316.06V299.64V283.22V250.37V201.11V181.45C609.844 181.45 606.244 180.52 603.014 178.66L599.224 176.47H599.214L584.994 168.26V184.67V184.68Z" fill="white"/>
</mask>
<g mask="url(#mask1_2587_29250)">
<path d="M620.005 136.01H578.705V177.31H620.005V136.01Z" fill="#A07F57"/>
<path d="M620.005 177.31H578.705V218.61H620.005V177.31Z" fill="#A07F57"/>
<path d="M620.005 218.6H578.705V259.9H620.005V218.6Z" fill="#A07F57"/>
<path d="M620.005 259.899H578.705V301.199H620.005V259.899Z" fill="#A07F57"/>
<path d="M620.005 301.2H578.705V342.5H620.005V301.2Z" fill="#A07F57"/>
<path d="M620.005 342.49H578.705V383.79H620.005V342.49Z" fill="#A07F57"/>
<path d="M620.005 383.79H578.705V425.09H620.005V383.79Z" fill="#A07F57"/>
<path d="M620.005 425.08H578.705V466.38H620.005V425.08Z" fill="#A07F57"/>
<path d="M620.005 466.38H578.705V507.68H620.005V466.38Z" fill="#A07F57"/>
<path d="M620.005 342.49H578.705V383.79H620.005V342.49Z" fill="#A07F57"/>
<path d="M620.005 466.38H578.705V507.68H620.005V466.38Z" fill="#A07F57"/>
</g>
<path d="M584.994 496.689V496.699H585.004L589.744 499.439L599.224 504.909V504.919L603.964 507.649L613.444 513.119V496.719L584.994 480.279V496.689Z" fill="#DFE9ED"/>
<mask id="mask2_2587_29250" style="mask-type:luminance" maskUnits="userSpaceOnUse" x="584" y="480" width="30" height="34">
<path d="M584.994 496.689V496.699H585.004L589.744 499.439L599.224 504.909V504.919L603.964 507.649L613.444 513.119V496.719L584.994 480.279V496.689Z" fill="white"/>
</mask>
<g mask="url(#mask2_2587_29250)">
<path d="M620.005 466.379H578.705V507.679H620.005V466.379Z" fill="#A07F57"/>
<path d="M620.005 507.679H578.705V548.979H620.005V507.679Z" fill="#A07F57"/>
</g>
<mask id="mask3_2587_29250" style="mask-type:luminance" maskUnits="userSpaceOnUse" x="513" y="131" width="30" height="342">
<path d="M513.885 143.62V192.88V242.15V258.58V291.42V307.84V357.11V406.38V455.64H513.895L520.995 459.74L528.095 463.84H528.105L537.585 469.32L542.325 472.06V455.64V406.38V373.53V357.11V225.73V192.88V143.62L542.315 143.61L528.105 135.41H528.095L526.315 134.38C522.465 132.16 518.165 131.05 513.875 131.05V143.62H513.885Z" fill="white"/>
</mask>
<g mask="url(#mask3_2587_29250)">
<path d="M578.704 94.71H537.404V136.01H578.704V94.71Z" fill="#A07F57"/>
<path d="M578.704 136.01H537.404V177.31H578.704V136.01Z" fill="#A07F57"/>
<path d="M578.704 177.31H537.404V218.61H578.704V177.31Z" fill="#A07F57"/>
<path d="M578.704 218.6H537.404V259.9H578.704V218.6Z" fill="#A07F57"/>
<path d="M578.704 259.9H537.404V301.2H578.704V259.9Z" fill="#A07F57"/>
<path d="M578.704 301.2H537.404V342.5H578.704V301.2Z" fill="#A07F57"/>
<path d="M578.704 342.49H537.404V383.79H578.704V342.49Z" fill="#A07F57"/>
<path d="M578.704 383.79H537.404V425.09H578.704V383.79Z" fill="#A07F57"/>
<path d="M578.704 425.08H537.404V466.38H578.704V425.08Z" fill="#A07F57"/>
<path d="M578.704 466.38H537.404V507.68H578.704V466.38Z" fill="#A07F57"/>
<path d="M537.415 94.71H496.115V136.01H537.415V94.71Z" fill="#A07F57"/>
<path d="M537.415 136.01H496.115V177.31H537.415V136.01Z" fill="#A07F57"/>
<path d="M537.415 177.31H496.115V218.61H537.415V177.31Z" fill="#A07F57"/>
<path d="M537.415 218.6H496.115V259.9H537.415V218.6Z" fill="#A07F57"/>
<path d="M537.415 259.9H496.115V301.2H537.415V259.9Z" fill="#A07F57"/>
<path d="M537.415 301.2H496.115V342.5H537.415V301.2Z" fill="#A07F57"/>
<path d="M537.415 342.49H496.115V383.79H537.415V342.49Z" fill="#A07F57"/>
<path d="M537.415 383.79H496.115V425.09H537.415V383.79Z" fill="#A07F57"/>
<path d="M537.415 425.08H496.115V466.38H537.415V425.08Z" fill="#A07F57"/>
<path d="M537.415 466.38H496.115V507.68H537.415V466.38Z" fill="#A07F57"/>
<path d="M537.415 259.9H496.115V301.2H537.415V259.9Z" fill="#A07F57"/>
</g>
<path d="M337.644 705.199L343.214 701.989H343.224L357.444 693.769V660.929H357.434L343.224 669.129L328.994 677.349L314.784 669.139H314.774L305.294 663.669L300.554 660.929L286.334 652.719L286.324 652.709L272.114 644.509L257.884 636.289L243.664 628.079L229.444 619.869V613.199L197.794 626.289C195.054 627.419 194.794 631.209 197.354 632.709L324.074 706.799C328.574 708.129 333.484 707.609 337.644 705.209V705.199ZM229.444 636.299H229.434L229.444 636.289V636.299ZM272.114 660.939H272.104L272.114 660.919V660.939Z" fill="#DFE9ED"/>
<mask id="mask4_2587_29250" style="mask-type:luminance" maskUnits="userSpaceOnUse" x="195" y="613" width="163" height="95">
<path d="M337.644 705.199L343.214 701.989H343.224L357.444 693.769V660.929H357.434L343.224 669.129L328.994 677.349L314.784 669.139H314.774L305.294 663.669L300.554 660.929L286.334 652.719L286.324 652.709L272.114 644.509L257.884 636.289L243.664 628.079L229.444 619.869V613.199L197.794 626.289C195.054 627.419 194.794 631.209 197.354 632.709L324.074 706.799C328.574 708.129 333.484 707.609 337.644 705.209V705.199ZM229.444 636.299H229.434L229.444 636.289V636.299ZM272.114 660.939H272.104L272.114 660.919V660.939Z" fill="white"/>
</mask>
<g mask="url(#mask4_2587_29250)">
<path d="M372.224 590.27H330.924V631.57H372.224V590.27Z" fill="#A07F57"/>
<path d="M372.224 631.569H330.924V672.869H372.224V631.569Z" fill="#A07F57"/>
<path d="M372.224 672.859H330.924V714.159H372.224V672.859Z" fill="#A07F57"/>
<path d="M330.925 590.27H289.625V631.57H330.925V590.27Z" fill="#A07F57"/>
<path d="M330.925 631.569H289.625V672.869H330.925V631.569Z" fill="#A07F57"/>
<path d="M330.925 672.859H289.625V714.159H330.925V672.859Z" fill="#A07F57"/>
<path d="M289.634 590.27H248.334V631.57H289.634V590.27Z" fill="#A07F57"/>
<path d="M289.634 631.569H248.334V672.869H289.634V631.569Z" fill="#A07F57"/>
<path d="M289.634 672.859H248.334V714.159H289.634V672.859Z" fill="#A07F57"/>
<path d="M248.333 590.27H207.033V631.57H248.333V590.27Z" fill="#A07F57"/>
<path d="M248.333 631.569H207.033V672.869H248.333V631.569Z" fill="#A07F57"/>
<path d="M248.333 672.859H207.033V714.159H248.333V672.859Z" fill="#A07F57"/>
<path d="M207.044 590.27H165.744V631.57H207.044V590.27Z" fill="#A07F57"/>
<path d="M207.044 631.569H165.744V672.869H207.044V631.569Z" fill="#A07F57"/>
<path d="M207.044 672.859H165.744V714.159H207.044V672.859Z" fill="#A07F57"/>
<path d="M248.333 631.569H207.033V672.869H248.333V631.569Z" fill="#A07F57"/>
<path d="M289.634 631.569H248.334V672.869H289.634V631.569Z" fill="#A07F57"/>
</g>
<mask id="mask5_2587_29250" style="mask-type:luminance" maskUnits="userSpaceOnUse" x="328" y="151" width="107" height="75">
<path d="M343.224 225.729L357.444 217.519L371.664 209.309H371.674L385.884 201.099L400.114 192.889L414.334 184.679L429.604 175.869L434.954 172.779L434.364 173.119C432.564 174.159 430.554 174.679 428.554 174.679C426.554 174.679 424.544 174.159 422.744 173.119L414.334 168.269H414.324L400.114 160.059L389.814 154.109C388.594 153.409 387.614 152.409 386.934 151.229L371.674 160.049H371.664L357.444 168.259L343.224 176.469L343.214 176.479L329.004 184.689H328.994V201.109H329.004L329.564 201.429L334.104 204.049L334.864 204.489C337.454 205.979 339.544 208.109 340.984 210.609C342.424 213.109 343.224 215.989 343.224 218.979V225.739V225.729Z" fill="white"/>
</mask>
<g mask="url(#mask5_2587_29250)">
<path d="M454.816 136.01H413.516V177.31H454.816V136.01Z" fill="#C6A76F"/>
<path d="M454.816 177.31H413.516V218.61H454.816V177.31Z" fill="#C6A76F"/>
<path d="M454.816 218.6H413.516V259.9H454.816V218.6Z" fill="#C6A76F"/>
<path d="M413.525 136.01H372.225V177.31H413.525V136.01Z" fill="#C6A76F"/>
<path d="M413.525 177.31H372.225V218.61H413.525V177.31Z" fill="#C6A76F"/>
<path d="M413.525 218.6H372.225V259.9H413.525V218.6Z" fill="#C6A76F"/>
<path d="M372.226 136.01H330.926V177.31H372.226V136.01Z" fill="#C6A76F"/>
<path d="M372.226 177.31H330.926V218.61H372.226V177.31Z" fill="#C6A76F"/>
<path d="M372.226 218.6H330.926V259.9H372.226V218.6Z" fill="#C6A76F"/>
<path d="M330.925 136.01H289.625V177.31H330.925V136.01Z" fill="#C6A76F"/>
<path d="M330.925 177.31H289.625V218.61H330.925V177.31Z" fill="#C6A76F"/>
<path d="M330.925 218.6H289.625V259.9H330.925V218.6Z" fill="#C6A76F"/>
<path d="M413.525 136.01H372.225V177.31H413.525V136.01Z" fill="#C6A76F"/>
</g>
<mask id="mask6_2587_29250" style="mask-type:luminance" maskUnits="userSpaceOnUse" x="229" y="131" width="285" height="483">
<path d="M272.116 595.24L286.336 587.03L300.556 578.82L305.296 576.08L314.776 570.61L328.996 562.4H329.006L338.486 556.93L343.226 554.19L357.446 545.98L371.666 537.77H371.676L385.886 529.56H385.896L400.116 521.35L404.856 518.61L414.336 513.14L428.556 504.93L438.036 499.45L442.776 496.72L456.996 488.51L457.006 488.5L471.226 480.29L485.446 472.08L490.186 469.34L499.666 463.87L513.886 455.66V406.4V357.13V307.86V291.44V258.6V242.17V192.9V143.64V131.06C509.586 131.06 505.296 132.17 501.446 134.39L501.256 134.5L499.666 135.42L485.446 143.63L471.226 151.84L457.006 160.05H456.996L442.776 168.26L434.956 172.79L429.596 175.88L428.546 176.48L414.326 184.68L400.106 192.9L385.876 201.11L371.666 209.32H371.656L357.436 217.53L343.216 225.74L328.986 233.96L314.766 242.16L300.546 250.38L298.116 251.78L298.066 251.81L286.326 258.59H286.316L272.106 266.8L257.876 275.01L243.656 283.22L239.316 285.73C236.256 287.49 232.846 288.37 229.436 288.37V324.26V373.53V537.76V587.02V613.2L270.176 596.36L272.106 595.25L272.116 595.24ZM400.116 274.99V275.01H400.106L400.116 274.99ZM243.666 299.64L243.676 299.63H243.666V299.64ZM257.886 406.39L257.896 406.38H257.886V406.39Z" fill="white"/>
</mask>
<g mask="url(#mask6_2587_29250)">
<path d="M537.415 94.71H496.115V136.01H537.415V94.71Z" fill="#77552C"/>
<path d="M537.415 136.01H496.115V177.31H537.415V136.01Z" fill="#77552C"/>
<path d="M537.415 177.31H496.115V218.61H537.415V177.31Z" fill="#77552C"/>
<path d="M537.415 218.6H496.115V259.9H537.415V218.6Z" fill="#77552C"/>
<path d="M537.415 259.9H496.115V301.2H537.415V259.9Z" fill="#77552C"/>
<path d="M537.415 301.2H496.115V342.5H537.415V301.2Z" fill="#77552C"/>
<path d="M537.415 342.49H496.115V383.79H537.415V342.49Z" fill="#77552C"/>
<path d="M537.415 383.79H496.115V425.09H537.415V383.79Z" fill="#77552C"/>
<path d="M537.415 425.08H496.115V466.38H537.415V425.08Z" fill="#77552C"/>
<path d="M537.415 466.38H496.115V507.68H537.415V466.38Z" fill="#77552C"/>
<path d="M537.415 507.68H496.115V548.98H537.415V507.68Z" fill="#77552C"/>
<path d="M537.415 548.97H496.115V590.27H537.415V548.97Z" fill="#77552C"/>
<path d="M537.415 590.27H496.115V631.57H537.415V590.27Z" fill="#77552C"/>
<path d="M496.114 94.71H454.814V136.01H496.114V94.71Z" fill="#77552C"/>
<path d="M496.114 136.01H454.814V177.31H496.114V136.01Z" fill="#77552C"/>
<path d="M496.114 177.31H454.814V218.61H496.114V177.31Z" fill="#77552C"/>
<path d="M496.114 218.6H454.814V259.9H496.114V218.6Z" fill="#77552C"/>
<path d="M496.114 259.9H454.814V301.2H496.114V259.9Z" fill="#77552C"/>
<path d="M496.114 301.2H454.814V342.5H496.114V301.2Z" fill="#77552C"/>
<path d="M496.114 342.49H454.814V383.79H496.114V342.49Z" fill="#77552C"/>
<path d="M496.114 383.79H454.814V425.09H496.114V383.79Z" fill="#77552C"/>
<path d="M496.114 425.08H454.814V466.38H496.114V425.08Z" fill="#77552C"/>
<path d="M496.114 466.38H454.814V507.68H496.114V466.38Z" fill="#77552C"/>
<path d="M496.114 507.68H454.814V548.98H496.114V507.68Z" fill="#77552C"/>
<path d="M496.114 548.97H454.814V590.27H496.114V548.97Z" fill="#77552C"/>
<path d="M496.114 590.27H454.814V631.57H496.114V590.27Z" fill="#77552C"/>
<path d="M454.816 94.71H413.516V136.01H454.816V94.71Z" fill="#77552C"/>
<path d="M454.816 136.01H413.516V177.31H454.816V136.01Z" fill="#77552C"/>
<path d="M454.816 177.31H413.516V218.61H454.816V177.31Z" fill="#77552C"/>
<path d="M454.816 218.6H413.516V259.9H454.816V218.6Z" fill="#77552C"/>
<path d="M454.816 259.9H413.516V301.2H454.816V259.9Z" fill="#77552C"/>
<path d="M454.816 301.2H413.516V342.5H454.816V301.2Z" fill="#77552C"/>
<path d="M454.816 342.49H413.516V383.79H454.816V342.49Z" fill="#77552C"/>
<path d="M454.816 383.79H413.516V425.09H454.816V383.79Z" fill="#77552C"/>
<path d="M454.816 425.08H413.516V466.38H454.816V425.08Z" fill="#77552C"/>
<path d="M454.816 466.38H413.516V507.68H454.816V466.38Z" fill="#77552C"/>
<path d="M454.816 507.68H413.516V548.98H454.816V507.68Z" fill="#77552C"/>
<path d="M454.816 548.97H413.516V590.27H454.816V548.97Z" fill="#77552C"/>
<path d="M454.816 590.27H413.516V631.57H454.816V590.27Z" fill="#77552C"/>
<path d="M413.525 94.71H372.225V136.01H413.525V94.71Z" fill="#77552C"/>
<path d="M413.525 136.01H372.225V177.31H413.525V136.01Z" fill="#77552C"/>
<path d="M413.525 177.31H372.225V218.61H413.525V177.31Z" fill="#77552C"/>
<path d="M413.525 218.6H372.225V259.9H413.525V218.6Z" fill="#77552C"/>
<path d="M413.525 259.9H372.225V301.2H413.525V259.9Z" fill="#77552C"/>
<path d="M413.525 301.2H372.225V342.5H413.525V301.2Z" fill="#77552C"/>
<path d="M413.525 342.49H372.225V383.79H413.525V342.49Z" fill="#77552C"/>
<path d="M413.525 383.79H372.225V425.09H413.525V383.79Z" fill="#77552C"/>
<path d="M413.525 425.08H372.225V466.38H413.525V425.08Z" fill="#77552C"/>
<path d="M413.525 466.38H372.225V507.68H413.525V466.38Z" fill="#77552C"/>
<path d="M413.525 507.68H372.225V548.98H413.525V507.68Z" fill="#77552C"/>
<path d="M413.525 548.97H372.225V590.27H413.525V548.97Z" fill="#77552C"/>
<path d="M413.525 590.27H372.225V631.57H413.525V590.27Z" fill="#77552C"/>
<path d="M372.226 94.71H330.926V136.01H372.226V94.71Z" fill="#77552C"/>
<path d="M372.226 136.01H330.926V177.31H372.226V136.01Z" fill="#77552C"/>
<path d="M372.226 177.31H330.926V218.61H372.226V177.31Z" fill="#77552C"/>
<path d="M372.226 218.6H330.926V259.9H372.226V218.6Z" fill="#77552C"/>
<path d="M372.226 259.9H330.926V301.2H372.226V259.9Z" fill="#77552C"/>
<path d="M372.226 301.2H330.926V342.5H372.226V301.2Z" fill="#77552C"/>
<path d="M372.226 342.49H330.926V383.79H372.226V342.49Z" fill="#77552C"/>
<path d="M372.226 383.79H330.926V425.09H372.226V383.79Z" fill="#77552C"/>
<path d="M372.226 425.08H330.926V466.38H372.226V425.08Z" fill="#77552C"/>
<path d="M372.226 466.38H330.926V507.68H372.226V466.38Z" fill="#77552C"/>
<path d="M372.226 507.68H330.926V548.98H372.226V507.68Z" fill="#77552C"/>
<path d="M372.226 548.97H330.926V590.27H372.226V548.97Z" fill="#77552C"/>
<path d="M372.226 590.27H330.926V631.57H372.226V590.27Z" fill="#77552C"/>
<path d="M330.925 94.71H289.625V136.01H330.925V94.71Z" fill="#77552C"/>
<path d="M330.925 136.01H289.625V177.31H330.925V136.01Z" fill="#77552C"/>
<path d="M330.925 177.31H289.625V218.61H330.925V177.31Z" fill="#77552C"/>
<path d="M330.925 218.6H289.625V259.9H330.925V218.6Z" fill="#77552C"/>
<path d="M330.925 259.9H289.625V301.2H330.925V259.9Z" fill="#77552C"/>
<path d="M330.925 301.2H289.625V342.5H330.925V301.2Z" fill="#77552C"/>
<path d="M330.925 342.49H289.625V383.79H330.925V342.49Z" fill="#77552C"/>
<path d="M330.925 383.79H289.625V425.09H330.925V383.79Z" fill="#77552C"/>
<path d="M330.925 425.08H289.625V466.38H330.925V425.08Z" fill="#77552C"/>
<path d="M330.925 466.38H289.625V507.68H330.925V466.38Z" fill="#77552C"/>
<path d="M330.925 507.68H289.625V548.98H330.925V507.68Z" fill="#77552C"/>
<path d="M330.925 548.97H289.625V590.27H330.925V548.97Z" fill="#77552C"/>
<path d="M330.925 590.27H289.625V631.57H330.925V590.27Z" fill="#77552C"/>
<path d="M289.636 94.71H248.336V136.01H289.636V94.71Z" fill="#77552C"/>
<path d="M289.636 136.01H248.336V177.31H289.636V136.01Z" fill="#77552C"/>
<path d="M289.636 177.31H248.336V218.61H289.636V177.31Z" fill="#77552C"/>
<path d="M289.636 218.6H248.336V259.9H289.636V218.6Z" fill="#77552C"/>
<path d="M289.636 259.9H248.336V301.2H289.636V259.9Z" fill="#77552C"/>
<path d="M289.636 301.2H248.336V342.5H289.636V301.2Z" fill="#77552C"/>
<path d="M289.636 342.49H248.336V383.79H289.636V342.49Z" fill="#77552C"/>
<path d="M289.636 383.79H248.336V425.09H289.636V383.79Z" fill="#77552C"/>
<path d="M289.636 425.08H248.336V466.38H289.636V425.08Z" fill="#77552C"/>
<path d="M289.636 466.38H248.336V507.68H289.636V466.38Z" fill="#77552C"/>
<path d="M289.636 507.68H248.336V548.98H289.636V507.68Z" fill="#77552C"/>
<path d="M289.636 548.97H248.336V590.27H289.636V548.97Z" fill="#77552C"/>
<path d="M289.636 590.27H248.336V631.57H289.636V590.27Z" fill="#77552C"/>
<path d="M248.335 94.71H207.035V136.01H248.335V94.71Z" fill="#77552C"/>
<path d="M248.335 136.01H207.035V177.31H248.335V136.01Z" fill="#77552C"/>
<path d="M248.335 177.31H207.035V218.61H248.335V177.31Z" fill="#77552C"/>
<path d="M248.335 218.6H207.035V259.9H248.335V218.6Z" fill="#77552C"/>
<path d="M248.335 259.9H207.035V301.2H248.335V259.9Z" fill="#77552C"/>
<path d="M248.335 301.2H207.035V342.5H248.335V301.2Z" fill="#77552C"/>
<path d="M248.335 342.49H207.035V383.79H248.335V342.49Z" fill="#77552C"/>
<path d="M248.335 383.79H207.035V425.09H248.335V383.79Z" fill="#77552C"/>
<path d="M248.335 425.08H207.035V466.38H248.335V425.08Z" fill="#77552C"/>
<path d="M248.335 466.38H207.035V507.68H248.335V466.38Z" fill="#77552C"/>
<path d="M248.335 507.68H207.035V548.98H248.335V507.68Z" fill="#77552C"/>
<path d="M248.335 548.97H207.035V590.27H248.335V548.97Z" fill="#77552C"/>
<path d="M248.335 590.27H207.035V631.57H248.335V590.27Z" fill="#77552C"/>
<path d="M413.525 259.9H372.225V301.2H413.525V259.9Z" fill="#77552C"/>
<path d="M413.525 301.2H372.225V342.5H413.525V301.2Z" fill="#77552C"/>
<path d="M413.525 466.38H372.225V507.68H413.525V466.38Z" fill="#77552C"/>
<path d="M372.226 259.9H330.926V301.2H372.226V259.9Z" fill="#77552C"/>
<path d="M330.925 383.79H289.625V425.09H330.925V383.79Z" fill="#77552C"/>
<path d="M289.636 259.9H248.336V301.2H289.636V259.9Z" fill="#77552C"/>
<path d="M248.335 259.9H207.035V301.2H248.335V259.9Z" fill="#77552C"/>
<path d="M289.636 383.79H248.336V425.09H289.636V383.79Z" fill="#77552C"/>
</g>
<path d="M243.675 611.66L253.145 606.19L257.885 603.45L270.185 596.35L229.445 613.2V619.87L243.665 611.66H243.675Z" fill="#DFE9ED"/>
<mask id="mask7_2587_29250" style="mask-type:luminance" maskUnits="userSpaceOnUse" x="229" y="596" width="42" height="24">
<path d="M243.675 611.66L253.145 606.19L257.885 603.45L270.185 596.35L229.445 613.2V619.87L243.665 611.66H243.675Z" fill="white"/>
</mask>
<g mask="url(#mask7_2587_29250)">
<path d="M289.636 590.27H248.336V631.57H289.636V590.27Z" fill="#77552C"/>
<path d="M248.335 590.27H207.035V631.57H248.335V590.27Z" fill="#77552C"/>
</g>
<mask id="mask8_2587_29250" style="mask-type:luminance" maskUnits="userSpaceOnUse" x="429" y="172" width="6" height="4">
<path d="M434.955 172.779L429.605 175.869L434.955 172.779Z" fill="white"/>
</mask>
<g mask="url(#mask8_2587_29250)">
<path d="M454.816 136.01H413.516V177.31H454.816V136.01Z" fill="#C6A76F"/>
</g>
<mask id="mask9_2587_29250" style="mask-type:luminance" maskUnits="userSpaceOnUse" x="429" y="172" width="6" height="4">
<path d="M434.955 172.779L429.605 175.869L434.955 172.779Z" fill="white"/>
</mask>
<g mask="url(#mask9_2587_29250)">
<path d="M454.816 136.01H413.516V177.31H454.816V136.01Z" fill="#77552C"/>
</g>
<mask id="mask10_2587_29250" style="mask-type:luminance" maskUnits="userSpaceOnUse" x="186" y="316" width="139" height="391">
<path d="M197.795 626.28L229.445 613.19V587.02V537.76V373.53H229.435L229.445 373.52V340.68L224.075 339.57C209.205 336.5 195.955 328.15 186.775 316.05V431V463.84V496.69V513.11V545.96V562.38V578.8V614.82C186.775 623.02 191.145 630.59 198.245 634.69L200.995 636.28H201.005L215.215 644.49H215.225L229.445 652.7L243.665 660.91L243.675 660.92L257.885 669.12L272.115 677.34L286.335 685.55L300.555 693.76L314.775 701.97L320.345 705.19C321.535 705.88 322.785 706.4 324.075 706.78L197.355 632.69C194.795 631.19 195.055 627.41 197.795 626.27V626.28Z" fill="white"/>
</mask>
<g mask="url(#mask10_2587_29250)">
<path d="M330.927 301.2H289.627V342.5H330.927V301.2Z" fill="#A07F57"/>
<path d="M330.927 342.49H289.627V383.79H330.927V342.49Z" fill="#A07F57"/>
<path d="M330.927 383.79H289.627V425.09H330.927V383.79Z" fill="#A07F57"/>
<path d="M330.927 425.08H289.627V466.38H330.927V425.08Z" fill="#A07F57"/>
<path d="M330.927 466.38H289.627V507.68H330.927V466.38Z" fill="#A07F57"/>
<path d="M330.927 507.681H289.627V548.981H330.927V507.681Z" fill="#A07F57"/>
<path d="M330.927 548.971H289.627V590.271H330.927V548.971Z" fill="#A07F57"/>
<path d="M330.927 590.271H289.627V631.57H330.927V590.271Z" fill="#A07F57"/>
<path d="M330.927 631.57H289.627V672.87H330.927V631.57Z" fill="#A07F57"/>
<path d="M330.927 672.86H289.627V714.16H330.927V672.86Z" fill="#A07F57"/>
<path d="M289.636 301.2H248.336V342.5H289.636V301.2Z" fill="#A07F57"/>
<path d="M289.636 342.49H248.336V383.79H289.636V342.49Z" fill="#A07F57"/>
<path d="M289.636 383.79H248.336V425.09H289.636V383.79Z" fill="#A07F57"/>
<path d="M289.636 425.08H248.336V466.38H289.636V425.08Z" fill="#A07F57"/>
<path d="M289.636 466.38H248.336V507.68H289.636V466.38Z" fill="#A07F57"/>
<path d="M289.636 507.681H248.336V548.981H289.636V507.681Z" fill="#A07F57"/>
<path d="M289.636 548.971H248.336V590.271H289.636V548.971Z" fill="#A07F57"/>
<path d="M289.636 590.271H248.336V631.57H289.636V590.271Z" fill="#A07F57"/>
<path d="M289.636 631.57H248.336V672.87H289.636V631.57Z" fill="#A07F57"/>
<path d="M289.636 672.86H248.336V714.16H289.636V672.86Z" fill="#A07F57"/>
<path d="M248.335 301.2H207.035V342.5H248.335V301.2Z" fill="#A07F57"/>
<path d="M248.335 342.49H207.035V383.79H248.335V342.49Z" fill="#A07F57"/>
<path d="M248.335 383.79H207.035V425.09H248.335V383.79Z" fill="#A07F57"/>
<path d="M248.335 425.08H207.035V466.38H248.335V425.08Z" fill="#A07F57"/>
<path d="M248.335 466.38H207.035V507.68H248.335V466.38Z" fill="#A07F57"/>
<path d="M248.335 507.681H207.035V548.981H248.335V507.681Z" fill="#A07F57"/>
<path d="M248.335 548.971H207.035V590.271H248.335V548.971Z" fill="#A07F57"/>
<path d="M248.335 590.271H207.035V631.57H248.335V590.271Z" fill="#A07F57"/>
<path d="M248.335 631.57H207.035V672.87H248.335V631.57Z" fill="#A07F57"/>
<path d="M248.335 672.86H207.035V714.16H248.335V672.86Z" fill="#A07F57"/>
<path d="M207.046 301.2H165.746V342.5H207.046V301.2Z" fill="#A07F57"/>
<path d="M207.046 342.49H165.746V383.79H207.046V342.49Z" fill="#A07F57"/>
<path d="M207.046 383.79H165.746V425.09H207.046V383.79Z" fill="#A07F57"/>
<path d="M207.046 425.08H165.746V466.38H207.046V425.08Z" fill="#A07F57"/>
<path d="M207.046 466.38H165.746V507.68H207.046V466.38Z" fill="#A07F57"/>
<path d="M207.046 507.681H165.746V548.981H207.046V507.681Z" fill="#A07F57"/>
<path d="M207.046 548.971H165.746V590.271H207.046V548.971Z" fill="#A07F57"/>
<path d="M207.046 590.271H165.746V631.57H207.046V590.271Z" fill="#A07F57"/>
<path d="M207.046 631.57H165.746V672.87H207.046V631.57Z" fill="#A07F57"/>
<path d="M207.046 672.86H165.746V714.16H207.046V672.86Z" fill="#A07F57"/>
<path d="M207.046 342.49H165.746V383.79H207.046V342.49Z" fill="#A07F57"/>
<path d="M207.046 466.38H165.746V507.68H207.046V466.38Z" fill="#A07F57"/>
</g>
<mask id="mask11_2587_29250" style="mask-type:luminance" maskUnits="userSpaceOnUse" x="190" y="233" width="100" height="54">
<path d="M201.004 275L215.224 283.21L229.444 286.23L243.664 283.22L257.884 275L272.114 266.79L289.084 256.92C288.214 257.29 287.294 257.47 286.364 257.48C285.124 257.48 283.884 257.17 282.764 256.53L272.104 250.37H272.094L257.874 242.16L243.664 233.96L229.444 242.17L215.224 250.38H215.214L200.994 258.59C196.594 261.13 193.044 264.75 190.584 269L200.994 275.01H201.004V275Z" fill="white"/>
</mask>
<g mask="url(#mask11_2587_29250)">
<path d="M289.634 218.6H248.334V259.9H289.634V218.6Z" fill="#C6A76F"/>
<path d="M289.634 259.899H248.334V301.199H289.634V259.899Z" fill="#C6A76F"/>
<path d="M248.333 218.6H207.033V259.9H248.333V218.6Z" fill="#C6A76F"/>
<path d="M248.333 259.899H207.033V301.199H248.333V259.899Z" fill="#C6A76F"/>
<path d="M207.044 218.6H165.744V259.9H207.044V218.6Z" fill="#C6A76F"/>
<path d="M207.044 259.899H165.744V301.199H207.044V259.899Z" fill="#C6A76F"/>
</g>
<mask id="mask12_2587_29250" style="mask-type:luminance" maskUnits="userSpaceOnUse" x="229" y="283" width="15" height="6">
<path d="M243.665 283.22L229.445 286.23V288.36C232.855 288.36 236.265 287.48 239.325 285.72L243.665 283.22Z" fill="white"/>
</mask>
<g mask="url(#mask12_2587_29250)">
<path d="M248.335 259.899H207.035V301.199H248.335V259.899Z" fill="#77552C"/>
</g>
<mask id="mask13_2587_29250" style="mask-type:luminance" maskUnits="userSpaceOnUse" x="229" y="283" width="15" height="6">
<path d="M243.665 283.22L229.445 286.23V288.36C232.855 288.36 236.265 287.48 239.325 285.72L243.665 283.22Z" fill="white"/>
</mask>
<g mask="url(#mask13_2587_29250)">
<path d="M248.335 259.899H207.035V301.199H248.335V259.899Z" fill="#C6A76F"/>
</g>
<mask id="mask14_2587_29250" style="mask-type:luminance" maskUnits="userSpaceOnUse" x="186" y="268" width="44" height="73">
<path d="M224.075 339.579L229.445 340.689V324.269V288.369C226.035 288.369 222.625 287.489 219.565 285.719L215.225 283.209L201.005 274.999H200.995L190.585 268.989C188.125 273.239 186.775 278.129 186.775 283.209V299.629V316.049C195.945 328.159 209.205 336.519 224.075 339.579Z" fill="white"/>
</mask>
<g mask="url(#mask14_2587_29250)">
<path d="M248.335 259.899H207.035V301.199H248.335V259.899Z" fill="#A07F57"/>
<path d="M248.335 301.199H207.035V342.499H248.335V301.199Z" fill="#A07F57"/>
<path d="M207.046 259.899H165.746V301.199H207.046V259.899Z" fill="#A07F57"/>
<path d="M207.046 301.199H165.746V342.499H207.046V301.199Z" fill="#A07F57"/>
</g>
<mask id="mask15_2587_29250" style="mask-type:luminance" maskUnits="userSpaceOnUse" x="186" y="268" width="44" height="73">
<path d="M224.075 339.579L229.445 340.689V324.269V288.369C226.035 288.369 222.625 287.489 219.565 285.719L215.225 283.209L201.005 274.999H200.995L190.585 268.989C188.125 273.239 186.775 278.129 186.775 283.209V299.629V316.049C195.945 328.159 209.205 336.519 224.075 339.579Z" fill="white"/>
</mask>
<g mask="url(#mask15_2587_29250)">
<path d="M248.335 259.899H207.035V301.199H248.335V259.899Z" fill="#C6A76F"/>
<path d="M248.335 301.199H207.035V342.499H248.335V301.199Z" fill="#C6A76F"/>
<path d="M207.046 259.899H165.746V301.199H207.046V259.899Z" fill="#C6A76F"/>
<path d="M207.046 301.199H165.746V342.499H207.046V301.199Z" fill="#C6A76F"/>
</g>
<mask id="mask16_2587_29250" style="mask-type:luminance" maskUnits="userSpaceOnUse" x="215" y="283" width="15" height="6">
<path d="M215.225 283.21L219.565 285.72C222.625 287.48 226.035 288.37 229.445 288.37V286.24L215.225 283.22V283.21Z" fill="white"/>
</mask>
<g mask="url(#mask16_2587_29250)">
<path d="M248.335 259.9H207.035V301.2H248.335V259.9Z" fill="#A07F57"/>
</g>
<mask id="mask17_2587_29250" style="mask-type:luminance" maskUnits="userSpaceOnUse" x="215" y="283" width="15" height="6">
<path d="M215.225 283.21L219.565 285.72C222.625 287.48 226.035 288.37 229.445 288.37V286.24L215.225 283.22V283.21Z" fill="white"/>
</mask>
<g mask="url(#mask17_2587_29250)">
<path d="M248.335 259.9H207.035V301.2H248.335V259.9Z" fill="#C6A76F"/>
</g>
<mask id="mask18_2587_29250" style="mask-type:luminance" maskUnits="userSpaceOnUse" x="215" y="283" width="15" height="6">
<path d="M215.225 283.21L219.565 285.72C222.625 287.48 226.035 288.37 229.445 288.37V286.24L215.225 283.22V283.21Z" fill="white"/>
</mask>
<g mask="url(#mask18_2587_29250)">
<path d="M248.335 259.9H207.035V301.2H248.335V259.9Z" fill="#C6A76F"/>
</g>
<mask id="mask19_2587_29250" style="mask-type:luminance" maskUnits="userSpaceOnUse" x="632" y="500" width="4" height="2">
<path d="M632.844 501.92C632.844 501.92 632.844 501.92 632.834 501.92L635.184 500.56L632.844 501.91V501.92Z" fill="white"/>
</mask>
<g mask="url(#mask19_2587_29250)">
<path d="M661.294 466.38H619.994V507.68H661.294V466.38Z" fill="#77552C"/>
</g>
<path d="M627.665 521.33V510.91C627.665 509.06 628.155 507.28 629.045 505.73L613.445 496.72V513.13L599.225 521.34L599.215 521.35L584.995 529.56L570.775 537.77L556.555 545.98L542.335 554.19H542.325L537.585 556.93L528.115 562.4H528.105L513.885 570.61L499.665 578.82L485.445 587.03L471.225 595.24L456.995 603.46L452.255 606.2L442.775 611.67L428.555 619.88L414.335 628.09H414.325L400.115 636.3L400.105 636.31L385.885 644.51L371.665 652.72L357.445 660.93V693.78L371.665 685.57H371.675L385.885 677.36L400.115 669.15L414.335 660.94L428.555 652.73L442.775 644.52L456.995 636.31L457.005 636.3L471.225 628.09L485.445 619.88L499.665 611.67L513.885 603.46H513.895L528.105 595.25H528.115L542.335 587.04L556.555 578.83L570.775 570.62L584.995 562.41H585.005L599.225 554.2L613.445 545.99L627.665 537.78L641.885 529.57H641.895L648.995 525.47C651.195 524.2 652.965 522.4 654.195 520.27L632.595 507.8L627.665 521.35V521.33Z" fill="#DFE9ED"/>
<mask id="mask20_2587_29250" style="mask-type:luminance" maskUnits="userSpaceOnUse" x="357" y="496" width="298" height="198">
<path d="M627.665 521.33V510.91C627.665 509.06 628.155 507.28 629.045 505.73L613.445 496.72V513.13L599.225 521.34L599.215 521.35L584.995 529.56L570.775 537.77L556.555 545.98L542.335 554.19H542.325L537.585 556.93L528.115 562.4H528.105L513.885 570.61L499.665 578.82L485.445 587.03L471.225 595.24L456.995 603.46L452.255 606.2L442.775 611.67L428.555 619.88L414.335 628.09H414.325L400.115 636.3L400.105 636.31L385.885 644.51L371.665 652.72L357.445 660.93V693.78L371.665 685.57H371.675L385.885 677.36L400.115 669.15L414.335 660.94L428.555 652.73L442.775 644.52L456.995 636.31L457.005 636.3L471.225 628.09L485.445 619.88L499.665 611.67L513.885 603.46H513.895L528.105 595.25H528.115L542.335 587.04L556.555 578.83L570.775 570.62L584.995 562.41H585.005L599.225 554.2L613.445 545.99L627.665 537.78L641.885 529.57H641.895L648.995 525.47C651.195 524.2 652.965 522.4 654.195 520.27L632.595 507.8L627.665 521.35V521.33Z" fill="white"/>
</mask>
<g mask="url(#mask20_2587_29250)">
<path d="M661.296 466.38H619.996V507.68H661.296V466.38Z" fill="#77552C"/>
<path d="M661.296 507.68H619.996V548.98H661.296V507.68Z" fill="#77552C"/>
<path d="M661.296 548.97H619.996V590.27H661.296V548.97Z" fill="#77552C"/>
<path d="M661.296 590.27H619.996V631.57H661.296V590.27Z" fill="#77552C"/>
<path d="M661.296 631.57H619.996V672.87H661.296V631.57Z" fill="#77552C"/>
<path d="M661.296 672.86H619.996V714.16H661.296V672.86Z" fill="#77552C"/>
<path d="M620.005 466.38H578.705V507.68H620.005V466.38Z" fill="#77552C"/>
<path d="M620.005 507.68H578.705V548.98H620.005V507.68Z" fill="#77552C"/>
<path d="M620.005 548.97H578.705V590.27H620.005V548.97Z" fill="#77552C"/>
<path d="M620.005 590.27H578.705V631.57H620.005V590.27Z" fill="#77552C"/>
<path d="M620.005 631.57H578.705V672.87H620.005V631.57Z" fill="#77552C"/>
<path d="M620.005 672.86H578.705V714.16H620.005V672.86Z" fill="#77552C"/>
<path d="M578.706 466.38H537.406V507.68H578.706V466.38Z" fill="#77552C"/>
<path d="M578.706 507.68H537.406V548.98H578.706V507.68Z" fill="#77552C"/>
<path d="M578.706 548.97H537.406V590.27H578.706V548.97Z" fill="#77552C"/>
<path d="M578.706 590.27H537.406V631.57H578.706V590.27Z" fill="#77552C"/>
<path d="M578.706 631.57H537.406V672.87H578.706V631.57Z" fill="#77552C"/>
<path d="M578.706 672.86H537.406V714.16H578.706V672.86Z" fill="#77552C"/>
<path d="M537.415 466.38H496.115V507.68H537.415V466.38Z" fill="#77552C"/>
<path d="M537.415 507.68H496.115V548.98H537.415V507.68Z" fill="#77552C"/>
<path d="M537.415 548.97H496.115V590.27H537.415V548.97Z" fill="#77552C"/>
<path d="M537.415 590.27H496.115V631.57H537.415V590.27Z" fill="#77552C"/>
<path d="M537.415 631.57H496.115V672.87H537.415V631.57Z" fill="#77552C"/>
<path d="M537.415 672.86H496.115V714.16H537.415V672.86Z" fill="#77552C"/>
<path d="M496.116 466.38H454.816V507.68H496.116V466.38Z" fill="#77552C"/>
<path d="M496.116 507.68H454.816V548.98H496.116V507.68Z" fill="#77552C"/>
<path d="M496.116 548.97H454.816V590.27H496.116V548.97Z" fill="#77552C"/>
<path d="M496.116 590.27H454.816V631.57H496.116V590.27Z" fill="#77552C"/>
<path d="M496.116 631.57H454.816V672.87H496.116V631.57Z" fill="#77552C"/>
<path d="M496.116 672.86H454.816V714.16H496.116V672.86Z" fill="#77552C"/>
<path d="M454.816 466.38H413.516V507.68H454.816V466.38Z" fill="#77552C"/>
<path d="M454.816 507.68H413.516V548.98H454.816V507.68Z" fill="#77552C"/>
<path d="M454.816 548.97H413.516V590.27H454.816V548.97Z" fill="#77552C"/>
<path d="M454.816 590.27H413.516V631.57H454.816V590.27Z" fill="#77552C"/>
<path d="M454.816 631.57H413.516V672.87H454.816V631.57Z" fill="#77552C"/>
<path d="M454.816 672.86H413.516V714.16H454.816V672.86Z" fill="#77552C"/>
<path d="M413.527 466.38H372.227V507.68H413.527V466.38Z" fill="#77552C"/>
<path d="M413.527 507.68H372.227V548.98H413.527V507.68Z" fill="#77552C"/>
<path d="M413.527 548.97H372.227V590.27H413.527V548.97Z" fill="#77552C"/>
<path d="M413.527 590.27H372.227V631.57H413.527V590.27Z" fill="#77552C"/>
<path d="M413.527 631.57H372.227V672.87H413.527V631.57Z" fill="#77552C"/>
<path d="M413.527 672.86H372.227V714.16H413.527V672.86Z" fill="#77552C"/>
<path d="M372.226 466.38H330.926V507.68H372.226V466.38Z" fill="#77552C"/>
<path d="M372.226 507.68H330.926V548.98H372.226V507.68Z" fill="#77552C"/>
<path d="M372.226 548.97H330.926V590.27H372.226V548.97Z" fill="#77552C"/>
<path d="M372.226 590.27H330.926V631.57H372.226V590.27Z" fill="#77552C"/>
<path d="M372.226 631.57H330.926V672.87H372.226V631.57Z" fill="#77552C"/>
<path d="M372.226 672.86H330.926V714.16H372.226V672.86Z" fill="#77552C"/>
</g>
<mask id="mask21_2587_29250" style="mask-type:luminance" maskUnits="userSpaceOnUse" x="629" y="500" width="7" height="8">
<path d="M635.235 500.539L635.185 500.569L632.835 501.929C631.235 502.859 629.945 504.179 629.055 505.729L632.605 507.779L635.235 500.539Z" fill="white"/>
</mask>
<g mask="url(#mask21_2587_29250)">
<path d="M661.294 466.379H619.994V507.679H661.294V466.379Z" fill="#77552C"/>
<path d="M661.294 507.679H619.994V548.979H661.294V507.679Z" fill="#77552C"/>
</g>
<mask id="mask22_2587_29250" style="mask-type:luminance" maskUnits="userSpaceOnUse" x="629" y="500" width="7" height="8">
<path d="M635.235 500.539L635.185 500.569L632.835 501.929C631.235 502.859 629.945 504.179 629.055 505.729L632.605 507.779L635.235 500.539Z" fill="white"/>
</mask>
<g mask="url(#mask22_2587_29250)">
<path d="M661.294 466.379H619.994V507.679H661.294V466.379Z" fill="#77552C"/>
<path d="M661.294 507.679H619.994V548.979H661.294V507.679Z" fill="#77552C"/>
</g>
<path d="M627.664 521.329L632.594 507.78L629.044 505.729C628.154 507.279 627.664 509.06 627.664 510.91V521.329Z" fill="#DFE9ED"/>
<mask id="mask23_2587_29250" style="mask-type:luminance" maskUnits="userSpaceOnUse" x="627" y="505" width="6" height="17">
<path d="M627.664 521.329L632.594 507.78L629.044 505.729C628.154 507.279 627.664 509.06 627.664 510.91V521.329Z" fill="white"/>
</mask>
<g mask="url(#mask23_2587_29250)">
<path d="M661.294 466.38H619.994V507.68H661.294V466.38Z" fill="#77552C"/>
<path d="M661.294 507.68H619.994V548.98H661.294V507.68Z" fill="#77552C"/>
</g>
<mask id="mask24_2587_29250" style="mask-type:luminance" maskUnits="userSpaceOnUse" x="627" y="505" width="6" height="17">
<path d="M627.664 521.329L632.594 507.78L629.044 505.729C628.154 507.279 627.664 509.06 627.664 510.91V521.329Z" fill="white"/>
</mask>
<g mask="url(#mask24_2587_29250)">
<path d="M661.294 466.38H619.994V507.68H661.294V466.38Z" fill="#77552C"/>
<path d="M661.294 507.68H619.994V548.98H661.294V507.68Z" fill="#77552C"/>
</g>
<mask id="mask25_2587_29250" style="mask-type:luminance" maskUnits="userSpaceOnUse" x="613" y="278" width="44" height="243">
<path d="M617.285 302.37L613.445 303.12V316.049V348.9V431.009V463.849V496.71L629.045 505.729C629.935 504.179 631.225 502.86 632.825 501.93L627.655 504.91L635.185 500.549L635.225 500.53L632.595 507.77L654.195 520.239C655.425 518.109 656.115 515.659 656.115 513.119V504.91V472.069V455.639V439.22V422.799V389.949H656.105L656.115 389.94V373.53V357.109H656.105L656.115 357.099V307.84V291.419V278.479H656.105C646.485 290.879 632.695 299.369 617.285 302.359V302.37ZM641.885 316.06L641.895 316.049H641.885V316.06Z" fill="white"/>
</mask>
<g mask="url(#mask25_2587_29250)">
<path d="M661.294 259.899H619.994V301.199H661.294V259.899Z" fill="#77552C"/>
<path d="M661.294 301.199H619.994V342.499H661.294V301.199Z" fill="#77552C"/>
<path d="M661.294 342.489H619.994V383.789H661.294V342.489Z" fill="#77552C"/>
<path d="M661.294 383.789H619.994V425.089H661.294V383.789Z" fill="#77552C"/>
<path d="M661.294 425.079H619.994V466.379H661.294V425.079Z" fill="#77552C"/>
<path d="M661.294 466.379H619.994V507.679H661.294V466.379Z" fill="#77552C"/>
<path d="M661.294 507.68H619.994V548.98H661.294V507.68Z" fill="#77552C"/>
<path d="M620.005 259.899H578.705V301.199H620.005V259.899Z" fill="#77552C"/>
<path d="M620.005 301.199H578.705V342.499H620.005V301.199Z" fill="#77552C"/>
<path d="M620.005 342.489H578.705V383.789H620.005V342.489Z" fill="#77552C"/>
<path d="M620.005 383.789H578.705V425.089H620.005V383.789Z" fill="#77552C"/>
<path d="M620.005 425.079H578.705V466.379H620.005V425.079Z" fill="#77552C"/>
<path d="M620.005 466.379H578.705V507.679H620.005V466.379Z" fill="#77552C"/>
<path d="M620.005 507.68H578.705V548.98H620.005V507.68Z" fill="#77552C"/>
<path d="M661.294 301.199H619.994V342.499H661.294V301.199Z" fill="#77552C"/>
</g>
<mask id="mask26_2587_29250" style="mask-type:luminance" maskUnits="userSpaceOnUse" x="627" y="504" width="1" height="1">
<path d="M627.664 504.919V504.909L627.654 504.919H627.664Z" fill="white"/>
</mask>
<g mask="url(#mask26_2587_29250)">
<path d="M661.294 466.379H619.994V507.679H661.294V466.379Z" fill="#77552C"/>
</g>
<mask id="mask27_2587_29250" style="mask-type:luminance" maskUnits="userSpaceOnUse" x="627" y="504" width="1" height="1">
<path d="M627.664 504.919V504.909L627.654 504.919H627.664Z" fill="white"/>
</mask>
<g mask="url(#mask27_2587_29250)">
<path d="M661.294 466.379H619.994V507.679H661.294V466.379Z" fill="#77552C"/>
</g>
<path d="M641.885 168.259L627.665 176.469L623.875 178.659C620.645 180.519 617.045 181.449 613.445 181.449V201.099V250.359V283.209V299.629V303.119L617.285 302.369C632.695 299.379 646.485 290.889 656.105 278.489H656.115V262.079V242.159H656.105L656.115 242.149V225.739V209.319H656.105L656.115 209.309V176.429C656.115 176.029 656.115 172.749 656.115 169.229C656.115 166.389 655.355 163.659 653.985 161.279L641.905 168.249H641.895L641.885 168.259ZM641.885 283.219L641.895 283.209H641.885V283.219Z" fill="#896F3A"/>
<mask id="mask28_2587_29250" style="mask-type:luminance" maskUnits="userSpaceOnUse" x="456" y="82" width="198" height="95">
<path d="M481.634 129.399C484.094 133.649 485.444 138.539 485.444 143.619L499.664 135.409L501.254 134.489L501.444 134.379L513.884 127.199L526.324 134.379L528.104 135.409H528.114L542.324 143.619H542.334L556.544 151.829H556.554L570.774 160.049L584.994 168.249L599.214 176.469H599.224L613.444 164.149V175.719L627.664 176.479L641.884 168.269L641.894 168.259L653.974 161.289C652.604 158.909 650.614 156.889 648.154 155.469L641.874 151.839L627.654 143.629H627.644L613.434 135.429L599.214 127.219L599.204 127.209L584.984 118.999L570.764 110.789L556.544 102.579L542.324 94.3695H542.314L528.104 86.1595H528.094C519.294 81.0795 508.454 81.0695 499.644 86.1595L485.434 94.3595L471.214 102.569L471.204 102.579L456.994 110.789L471.214 118.999C475.614 121.539 479.164 125.159 481.624 129.409L481.634 129.399Z" fill="white"/>
</mask>
<g mask="url(#mask28_2587_29250)">
<path d="M661.294 53.4199H619.994V94.7199H661.294V53.4199Z" fill="#C6A76F"/>
<path d="M661.294 94.71H619.994V136.01H661.294V94.71Z" fill="#C6A76F"/>
<path d="M661.294 136.01H619.994V177.31H661.294V136.01Z" fill="#C6A76F"/>
<path d="M620.005 53.4199H578.705V94.7199H620.005V53.4199Z" fill="#C6A76F"/>
<path d="M620.005 94.71H578.705V136.01H620.005V94.71Z" fill="#C6A76F"/>
<path d="M620.005 136.01H578.705V177.31H620.005V136.01Z" fill="#C6A76F"/>
<path d="M578.704 53.4199H537.404V94.7199H578.704V53.4199Z" fill="#C6A76F"/>
<path d="M578.704 94.71H537.404V136.01H578.704V94.71Z" fill="#C6A76F"/>
<path d="M578.704 136.01H537.404V177.31H578.704V136.01Z" fill="#C6A76F"/>
<path d="M537.415 53.4199H496.115V94.7199H537.415V53.4199Z" fill="#C6A76F"/>
<path d="M537.415 94.71H496.115V136.01H537.415V94.71Z" fill="#C6A76F"/>
<path d="M537.415 136.01H496.115V177.31H537.415V136.01Z" fill="#C6A76F"/>
<path d="M496.114 53.4199H454.814V94.7199H496.114V53.4199Z" fill="#C6A76F"/>
<path d="M496.114 94.71H454.814V136.01H496.114V94.71Z" fill="#C6A76F"/>
<path d="M496.114 136.01H454.814V177.31H496.114V136.01Z" fill="#C6A76F"/>
<path d="M620.005 136.01H578.705V177.31H620.005V136.01Z" fill="#C6A76F"/>
<path d="M537.415 53.4199H496.115V94.7199H537.415V53.4199Z" fill="#C6A76F"/>
</g>
<mask id="mask29_2587_29250" style="mask-type:luminance" maskUnits="userSpaceOnUse" x="499" y="134" width="3" height="2">
<path d="M501.254 134.489L499.664 135.409L501.254 134.489Z" fill="white"/>
</mask>
<g mask="url(#mask29_2587_29250)">
<path d="M537.413 94.709H496.113V136.009H537.413V94.709Z" fill="#77552C"/>
</g>
<mask id="mask30_2587_29250" style="mask-type:luminance" maskUnits="userSpaceOnUse" x="499" y="134" width="3" height="2">
<path d="M501.254 134.489L499.664 135.409L501.254 134.489Z" fill="white"/>
</mask>
<g mask="url(#mask30_2587_29250)">
<path d="M537.413 94.709H496.113V136.009H537.413V94.709Z" fill="#C6A76F"/>
</g>
<mask id="mask31_2587_29250" style="mask-type:luminance" maskUnits="userSpaceOnUse" x="599" y="164" width="15" height="18">
<path d="M613.445 181.45V164.14L599.225 176.46L603.015 178.65C606.245 180.51 609.845 181.44 613.445 181.44V181.45Z" fill="white"/>
</mask>
<g mask="url(#mask31_2587_29250)">
<path d="M620.005 136.01H578.705V177.31H620.005V136.01Z" fill="#A07F57"/>
<path d="M620.005 177.31H578.705V218.61H620.005V177.31Z" fill="#A07F57"/>
</g>
<mask id="mask32_2587_29250" style="mask-type:luminance" maskUnits="userSpaceOnUse" x="599" y="164" width="15" height="18">
<path d="M613.445 181.45V164.14L599.225 176.46L603.015 178.65C606.245 180.51 609.845 181.44 613.445 181.44V181.45Z" fill="white"/>
</mask>
<g mask="url(#mask32_2587_29250)">
<path d="M620.005 136.01H578.705V177.31H620.005V136.01Z" fill="#C6A76F"/>
<path d="M620.005 177.31H578.705V218.61H620.005V177.31Z" fill="#C6A76F"/>
</g>
<mask id="mask33_2587_29250" style="mask-type:luminance" maskUnits="userSpaceOnUse" x="513" y="127" width="14" height="8">
<path d="M526.325 134.379L513.885 127.199V131.049C518.185 131.049 522.475 132.159 526.325 134.379Z" fill="white"/>
</mask>
<g mask="url(#mask33_2587_29250)">
<path d="M537.415 94.709H496.115V136.009H537.415V94.709Z" fill="#A07F57"/>
</g>
<mask id="mask34_2587_29250" style="mask-type:luminance" maskUnits="userSpaceOnUse" x="513" y="127" width="14" height="8">
<path d="M526.325 134.379L513.885 127.199V131.049C518.185 131.049 522.475 132.159 526.325 134.379Z" fill="white"/>
</mask>
<g mask="url(#mask34_2587_29250)">
<path d="M537.415 94.709H496.115V136.009H537.415V94.709Z" fill="#C6A76F"/>
</g>
<mask id="mask35_2587_29250" style="mask-type:luminance" maskUnits="userSpaceOnUse" x="526" y="134" width="3" height="2">
<path d="M526.324 134.38L528.104 135.41L526.324 134.38Z" fill="white"/>
</mask>
<g mask="url(#mask35_2587_29250)">
<path d="M537.413 94.71H496.113V136.01H537.413V94.71Z" fill="#A07F57"/>
</g>
<mask id="mask36_2587_29250" style="mask-type:luminance" maskUnits="userSpaceOnUse" x="526" y="134" width="3" height="2">
<path d="M526.324 134.38L528.104 135.41L526.324 134.38Z" fill="white"/>
</mask>
<g mask="url(#mask36_2587_29250)">
<path d="M537.413 94.71H496.113V136.01H537.413V94.71Z" fill="#C6A76F"/>
</g>
<mask id="mask37_2587_29250" style="mask-type:luminance" maskUnits="userSpaceOnUse" x="526" y="134" width="3" height="2">
<path d="M526.324 134.38L528.104 135.41L526.324 134.38Z" fill="white"/>
</mask>
<g mask="url(#mask37_2587_29250)">
<path d="M537.413 94.71H496.113V136.01H537.413V94.71Z" fill="#A07F57"/>
</g>
<mask id="mask38_2587_29250" style="mask-type:luminance" maskUnits="userSpaceOnUse" x="526" y="134" width="3" height="2">
<path d="M526.324 134.38L528.104 135.41L526.324 134.38Z" fill="white"/>
</mask>
<g mask="url(#mask38_2587_29250)">
<path d="M537.413 94.71H496.113V136.01H537.413V94.71Z" fill="#C6A76F"/>
</g>
<mask id="mask39_2587_29250" style="mask-type:luminance" maskUnits="userSpaceOnUse" x="501" y="127" width="13" height="8">
<path d="M513.885 127.199L501.445 134.379C505.295 132.159 509.595 131.049 513.885 131.049V127.199Z" fill="white"/>
</mask>
<g mask="url(#mask39_2587_29250)">
<path d="M537.415 94.709H496.115V136.009H537.415V94.709Z" fill="#77552C"/>
</g>
<mask id="mask40_2587_29250" style="mask-type:luminance" maskUnits="userSpaceOnUse" x="501" y="127" width="13" height="8">
<path d="M513.885 127.199L501.445 134.379C505.295 132.159 509.595 131.049 513.885 131.049V127.199Z" fill="white"/>
</mask>
<g mask="url(#mask40_2587_29250)">
<path d="M537.415 94.709H496.115V136.009H537.415V94.709Z" fill="#C6A76F"/>
</g>
<path d="M623.875 178.66L627.665 176.47L613.445 175.71V181.45C617.045 181.45 620.645 180.52 623.875 178.66Z" fill="#896F3A"/>
<mask id="mask41_2587_29250" style="mask-type:luminance" maskUnits="userSpaceOnUse" x="613" y="175" width="15" height="7">
<path d="M623.875 178.66L627.665 176.47L613.445 175.71V181.45C617.045 181.45 620.645 180.52 623.875 178.66Z" fill="white"/>
</mask>
<g mask="url(#mask41_2587_29250)">
<path d="M661.294 136.01H619.994V177.31H661.294V136.01Z" fill="#C6A76F"/>
<path d="M661.294 177.31H619.994V218.61H661.294V177.31Z" fill="#C6A76F"/>
<path d="M620.005 136.01H578.705V177.31H620.005V136.01Z" fill="#C6A76F"/>
<path d="M620.005 177.31H578.705V218.61H620.005V177.31Z" fill="#C6A76F"/>
</g>
<path d="M434.365 173.11L434.955 172.77L442.775 168.25L456.995 160.04L457.005 160.03L471.225 151.82L485.445 143.61C485.445 138.53 484.085 133.64 481.635 129.39L478.445 131.23L471.225 135.4L456.995 143.61L442.785 151.82H442.775L438.385 154.36C435.345 156.12 431.955 156.99 428.555 156.99V174.66C430.565 174.66 432.565 174.14 434.365 173.1V173.11Z" fill="#E2B042"/>
<path d="M386.935 151.219C387.615 152.399 388.595 153.399 389.815 154.099L400.115 160.049L414.325 168.259H414.335L422.745 173.109C424.545 174.149 426.555 174.669 428.555 174.669V156.999C425.165 156.999 421.765 156.119 418.725 154.369L418.075 153.989L414.335 151.829L400.115 143.619L385.885 135.409V147.289C385.885 148.699 386.255 150.049 386.935 151.219Z" fill="#EFD35E"/>
<path d="M257.884 242.159L272.104 250.369H272.114L282.774 256.529C283.884 257.169 285.124 257.489 286.374 257.479C286.554 252.799 287.864 248.309 290.144 244.369L286.344 242.179H286.324L272.114 233.959L257.884 225.749L247.474 219.729C245.014 223.979 243.664 228.869 243.664 233.949C243.664 233.949 243.664 233.959 243.664 233.969L257.874 242.169L257.884 242.159Z" fill="#EFD35E"/>
<path d="M257.885 225.74L272.115 233.95L286.345 242.17L290.145 244.36C292.595 240.1 296.155 236.48 300.555 233.94L314.775 225.74L328.995 217.52L340.985 210.6C339.545 208.1 337.445 205.97 334.865 204.48L334.105 204.04L329.565 201.42L329.405 201.5L316.355 208.39L314.775 209.3L300.555 217.51L290.335 223.41C287.855 224.84 284.815 224.84 282.335 223.41L273.945 218.57C273.125 218.1 273.125 216.92 273.945 216.45L286.335 209.3L300.555 201.09L303.085 199.62L302.525 199.25L314.785 192.88L307.135 188.46C303.065 186.11 298.055 186.11 293.985 188.46L286.335 192.87L286.325 192.88L272.115 201.08V201.1H272.105L257.885 209.3C253.485 211.84 249.935 215.46 247.475 219.71L257.885 225.72V225.74Z" fill="#F4F0A8"/>
<path d="M418.074 123.42V133.52L428.994 127.21L441.104 120.22C442.404 119.47 444.014 119.47 445.314 120.22L454.354 125.44C455.724 126.23 455.724 128.21 454.354 129L443.214 135.43L428.994 143.64L418.074 137.33V153.99L418.724 154.37C421.764 156.13 425.154 157 428.554 157C431.954 157 435.344 156.12 438.384 154.37L442.774 151.83H442.784L456.994 143.62L471.224 135.41L478.444 131.24L481.634 129.4C479.174 125.15 475.624 121.53 471.224 118.99L457.004 110.78H456.994V110.77C448.194 105.69 437.354 105.69 428.554 110.77L414.334 118.98L414.324 118.99L413.084 118.28C416.824 120.74 418.074 123.42 418.074 123.42Z" fill="#F4F0A8"/>
<mask id="mask42_2587_29250" style="mask-type:luminance" maskUnits="userSpaceOnUse" x="302" y="114" width="117" height="95">
<path d="M303.085 199.629L303.725 199.259L317.955 207.469L316.345 208.399L329.395 201.509L328.995 201.099H328.985V184.679V184.629C328.985 174.579 334.305 165.299 342.945 160.199C343.025 160.149 343.105 160.089 343.195 160.049H343.205H343.215L357.435 151.839L371.655 143.629L385.875 135.419L399.845 127.869C399.845 127.869 404.585 128.459 403.995 145.799L414.385 151.849L418.065 152.679V123.419C418.065 123.419 416.815 120.739 413.075 118.279L410.995 117.079C409.635 116.289 408.205 115.669 406.745 115.199C405.075 114.669 403.365 114.329 401.635 114.209C401.125 114.169 400.615 114.149 400.105 114.149C396.345 114.149 392.585 115.119 389.205 117.069L385.885 118.989H385.875L371.655 127.199L357.435 135.409L343.215 143.619L328.995 151.829H328.985V151.839C328.695 151.999 328.425 152.189 328.145 152.359C327.885 152.519 327.615 152.679 327.365 152.849C327.085 153.039 326.815 153.239 326.545 153.439C326.315 153.609 326.075 153.769 325.845 153.949C325.585 154.149 325.335 154.369 325.075 154.579C324.855 154.769 324.615 154.939 324.405 155.139C324.175 155.339 323.955 155.559 323.735 155.769C323.505 155.979 323.275 156.189 323.055 156.409C322.825 156.639 322.615 156.879 322.395 157.119C322.195 157.329 321.985 157.539 321.795 157.759C321.575 158.019 321.365 158.279 321.155 158.549C320.985 158.759 320.795 158.969 320.635 159.189C320.445 159.439 320.265 159.709 320.085 159.969C319.915 160.209 319.735 160.449 319.565 160.689C319.395 160.939 319.255 161.199 319.095 161.449C318.925 161.719 318.755 161.979 318.595 162.249C318.435 162.519 318.305 162.799 318.155 163.069C318.015 163.339 317.865 163.599 317.725 163.869C317.575 164.169 317.445 164.469 317.315 164.779C317.195 165.039 317.075 165.289 316.965 165.549C316.835 165.869 316.715 166.199 316.595 166.519C316.505 166.769 316.395 167.019 316.305 167.279C316.185 167.619 316.085 167.979 315.985 168.329C315.915 168.569 315.835 168.809 315.765 169.049C315.675 169.389 315.605 169.739 315.525 170.079C315.465 170.339 315.395 170.599 315.345 170.859C315.285 171.179 315.235 171.509 315.185 171.839C315.135 172.129 315.075 172.419 315.045 172.709C314.995 173.099 314.965 173.489 314.925 173.879C314.905 174.109 314.875 174.339 314.855 174.579C314.815 175.209 314.795 175.839 314.795 176.469V192.899L302.535 199.269L303.095 199.639L303.085 199.629Z" fill="white"/>
</mask>
<g mask="url(#mask42_2587_29250)">
<path d="M454.816 94.709H413.516V136.009H454.816V94.709Z" fill="#A07F57"/>
<path d="M454.816 136.009H413.516V177.309H454.816V136.009Z" fill="#A07F57"/>
<path d="M454.816 177.309H413.516V218.609H454.816V177.309Z" fill="#A07F57"/>
<path d="M413.525 94.709H372.225V136.009H413.525V94.709Z" fill="#A07F57"/>
<path d="M413.525 136.009H372.225V177.309H413.525V136.009Z" fill="#A07F57"/>
<path d="M413.525 177.309H372.225V218.609H413.525V177.309Z" fill="#A07F57"/>
<path d="M372.226 94.709H330.926V136.009H372.226V94.709Z" fill="#A07F57"/>
<path d="M372.226 136.009H330.926V177.309H372.226V136.009Z" fill="#A07F57"/>
<path d="M372.226 177.309H330.926V218.609H372.226V177.309Z" fill="#A07F57"/>
<path d="M330.925 94.709H289.625V136.009H330.925V94.709Z" fill="#A07F57"/>
<path d="M330.925 136.009H289.625V177.309H330.925V136.009Z" fill="#A07F57"/>
<path d="M330.925 177.309H289.625V218.609H330.925V177.309Z" fill="#A07F57"/>
</g>
<mask id="mask43_2587_29250" style="mask-type:luminance" maskUnits="userSpaceOnUse" x="329" y="201" width="1" height="1">
<path d="M329.404 201.51L329.564 201.42L329.004 201.1L329.404 201.51Z" fill="white"/>
</mask>
<g mask="url(#mask43_2587_29250)">
<path d="M330.923 177.31H289.623V218.61H330.923V177.31Z" fill="#C6A76F"/>
</g>
<mask id="mask44_2587_29250" style="mask-type:luminance" maskUnits="userSpaceOnUse" x="329" y="201" width="1" height="1">
<path d="M329.404 201.51L329.564 201.42L329.004 201.1L329.404 201.51Z" fill="white"/>
</mask>
<g mask="url(#mask44_2587_29250)">
<path d="M330.923 177.31H289.623V218.61H330.923V177.31Z" fill="#A07F57"/>
</g>
<path d="M418.075 153.99V152.68L414.395 151.84L418.075 153.99Z" fill="#EFD35E"/>
<mask id="mask45_2587_29250" style="mask-type:luminance" maskUnits="userSpaceOnUse" x="414" y="151" width="5" height="3">
<path d="M418.075 153.99V152.68L414.395 151.84L418.075 153.99Z" fill="white"/>
</mask>
<g mask="url(#mask45_2587_29250)">
<path d="M454.814 136.01H413.514V177.31H454.814V136.01Z" fill="#A07F57"/>
</g>
<path d="M414.335 151.829L418.075 153.989L414.395 151.839L404.005 145.789C404.595 128.459 399.855 127.859 399.855 127.859L385.885 135.409L400.115 143.619L414.335 151.829Z" fill="#F4F0A8"/>
<path d="M298.075 251.8L298.125 251.77L300.555 250.37L314.775 242.16L328.995 233.95L343.225 225.74V218.97C343.225 215.98 342.425 213.11 340.985 210.6L328.995 217.52L314.775 225.73L300.555 233.94C296.155 236.49 292.595 240.11 290.145 244.36C287.875 248.3 286.555 252.79 286.375 257.47C287.305 257.47 288.225 257.28 289.095 256.91C289.365 256.8 289.625 256.67 289.885 256.52L298.085 251.79L298.075 251.8Z" fill="#E2B042"/>
<path d="M303.085 199.63L300.555 201.1L286.335 209.31L273.945 216.46C273.125 216.93 273.125 218.11 273.945 218.58L282.335 223.42C284.815 224.85 287.855 224.85 290.335 223.42L300.555 217.52L314.775 209.31L316.355 208.4L303.085 199.64V199.63Z" fill="#F4F0A8"/>
<mask id="mask46_2587_29250" style="mask-type:luminance" maskUnits="userSpaceOnUse" x="273" y="199" width="44" height="26">
<path d="M303.085 199.63L300.555 201.1L286.335 209.31L273.945 216.46C273.125 216.93 273.125 218.11 273.945 218.58L282.335 223.42C284.815 224.85 287.855 224.85 290.335 223.42L300.555 217.52L314.775 209.31L316.355 208.4L303.085 199.64V199.63Z" fill="white"/>
</mask>
<g mask="url(#mask46_2587_29250)">
<path d="M330.925 177.31H289.625V218.61H330.925V177.31Z" fill="#77552C"/>
<path d="M330.925 218.6H289.625V259.9H330.925V218.6Z" fill="#77552C"/>
<path d="M289.636 177.31H248.336V218.61H289.636V177.31Z" fill="#77552C"/>
<path d="M289.636 218.6H248.336V259.9H289.636V218.6Z" fill="#77552C"/>
</g>
<mask id="mask47_2587_29250" style="mask-type:luminance" maskUnits="userSpaceOnUse" x="303" y="199" width="15" height="10">
<path d="M303.724 199.26L303.084 199.63L316.344 208.4L317.954 207.47L303.724 199.26Z" fill="white"/>
</mask>
<g mask="url(#mask47_2587_29250)">
<path d="M330.923 177.31H289.623V218.61H330.923V177.31Z" fill="#A07F57"/>
</g>
<mask id="mask48_2587_29250" style="mask-type:luminance" maskUnits="userSpaceOnUse" x="303" y="199" width="15" height="10">
<path d="M303.724 199.26L303.084 199.63L316.344 208.4L317.954 207.47L303.724 199.26Z" fill="white"/>
</mask>
<g mask="url(#mask48_2587_29250)">
<path d="M330.923 177.31H289.623V218.61H330.923V177.31Z" fill="#77552C"/>
</g>
<path d="M443.214 135.42L454.354 128.99C455.724 128.2 455.724 126.22 454.354 125.43L445.314 120.21C444.014 119.46 442.404 119.46 441.104 120.21L428.994 127.2L418.074 133.51V137.32L428.994 143.63L443.214 135.42Z" fill="#F4F0A8"/>
<mask id="mask49_2587_29250" style="mask-type:luminance" maskUnits="userSpaceOnUse" x="418" y="119" width="38" height="25">
<path d="M443.214 135.42L454.354 128.99C455.724 128.2 455.724 126.22 454.354 125.43L445.314 120.21C444.014 119.46 442.404 119.46 441.104 120.21L428.994 127.2L418.074 133.51V137.32L428.994 143.63L443.214 135.42Z" fill="white"/>
</mask>
<g mask="url(#mask49_2587_29250)">
<path d="M496.114 94.71H454.814V136.01H496.114V94.71Z" fill="#77552C"/>
<path d="M496.114 136.01H454.814V177.31H496.114V136.01Z" fill="#77552C"/>
<path d="M454.814 94.71H413.514V136.01H454.814V94.71Z" fill="#77552C"/>
<path d="M454.814 136.01H413.514V177.31H454.814V136.01Z" fill="#77552C"/>
</g>
<mask id="mask50_2587_29250" style="mask-type:luminance" maskUnits="userSpaceOnUse" x="542" y="143" width="15" height="336">
<path d="M542.334 176.47V192.88V192.89V209.31V225.73V225.74V242.16V258.58V275V291.43V307.84V324.27V340.69V357.11V357.12V373.53V373.54V389.96V406.38V406.39V422.8V439.23V455.64V455.65V472.07L554.204 478.92L556.554 477.95V463.86V447.44V447.43V431.02V431.01V414.6V414.59V398.17V381.75V365.33V365.32V348.9V332.48V316.06V316.05V299.64V299.63V283.22V283.21V266.79V266.78V250.37V233.95V217.52V201.1V184.68V184.67V168.26V168.25V151.84V151.83H556.544L542.334 143.63V160.04V176.47Z" fill="white"/>
</mask>
<g mask="url(#mask50_2587_29250)">
<path d="M578.704 136.01H537.404V177.31H578.704V136.01Z" fill="#77552C"/>
<path d="M578.704 177.31H537.404V218.61H578.704V177.31Z" fill="#77552C"/>
<path d="M578.704 218.6H537.404V259.9H578.704V218.6Z" fill="#77552C"/>
<path d="M578.704 259.899H537.404V301.199H578.704V259.899Z" fill="#77552C"/>
<path d="M578.704 301.2H537.404V342.5H578.704V301.2Z" fill="#77552C"/>
<path d="M578.704 342.49H537.404V383.79H578.704V342.49Z" fill="#77552C"/>
<path d="M578.704 383.79H537.404V425.09H578.704V383.79Z" fill="#77552C"/>
<path d="M578.704 425.08H537.404V466.38H578.704V425.08Z" fill="#77552C"/>
<path d="M578.704 466.38H537.404V507.68H578.704V466.38Z" fill="#77552C"/>
</g>
<path d="M554.205 478.919L556.555 480.279V477.949L554.205 478.919Z" fill="#DFE9ED"/>
<mask id="mask51_2587_29250" style="mask-type:luminance" maskUnits="userSpaceOnUse" x="554" y="477" width="3" height="4">
<path d="M554.205 478.919L556.555 480.279V477.949L554.205 478.919Z" fill="white"/>
</mask>
<g mask="url(#mask51_2587_29250)">
<path d="M578.704 466.379H537.404V507.679H578.704V466.379Z" fill="#77552C"/>
</g>
<mask id="mask52_2587_29250" style="mask-type:luminance" maskUnits="userSpaceOnUse" x="556" y="151" width="15" height="327">
<path d="M556.555 168.26V184.67V266.78V283.21V299.63V316.05V365.32V414.59V431.01V447.43V477.95L569.145 472.75C569.665 472.53 570.225 472.45 570.775 472.49V324.27V242.16V225.74V160.05L556.555 151.84V168.25V168.26Z" fill="white"/>
</mask>
<g mask="url(#mask52_2587_29250)">
<path d="M578.704 136.01H537.404V177.31H578.704V136.01Z" fill="#A07F57"/>
<path d="M578.704 177.31H537.404V218.61H578.704V177.31Z" fill="#A07F57"/>
<path d="M578.704 218.6H537.404V259.9H578.704V218.6Z" fill="#A07F57"/>
<path d="M578.704 259.899H537.404V301.199H578.704V259.899Z" fill="#A07F57"/>
<path d="M578.704 301.2H537.404V342.5H578.704V301.2Z" fill="#A07F57"/>
<path d="M578.704 342.49H537.404V383.79H578.704V342.49Z" fill="#A07F57"/>
<path d="M578.704 383.79H537.404V425.09H578.704V383.79Z" fill="#A07F57"/>
<path d="M578.704 425.08H537.404V466.38H578.704V425.08Z" fill="#A07F57"/>
<path d="M578.704 466.38H537.404V507.68H578.704V466.38Z" fill="#A07F57"/>
</g>
<path d="M569.145 472.749L556.555 477.949V480.279L570.775 488.489V472.489C570.225 472.449 569.665 472.529 569.145 472.749Z" fill="#DFE9ED"/>
<mask id="mask53_2587_29250" style="mask-type:luminance" maskUnits="userSpaceOnUse" x="556" y="472" width="15" height="17">
<path d="M569.145 472.749L556.555 477.949V480.279L570.775 488.489V472.489C570.225 472.449 569.665 472.529 569.145 472.749Z" fill="white"/>
</mask>
<g mask="url(#mask53_2587_29250)">
<path d="M578.704 466.379H537.404V507.679H578.704V466.379Z" fill="#A07F57"/>
</g>
<mask id="mask54_2587_29250" style="mask-type:luminance" maskUnits="userSpaceOnUse" x="570" y="160" width="15" height="321">
<path d="M570.775 192.89V225.73V242.15V274.99H570.785L570.775 275.01V324.26V472.49C571.305 472.53 571.835 472.68 572.305 472.96L584.995 480.29V447.45V431.03V414.61V365.34V332.49V299.65V283.22V266.81V250.38V233.96V217.54V184.69V168.27L570.775 160.06V192.9V192.89Z" fill="white"/>
</mask>
<g mask="url(#mask54_2587_29250)">
<path d="M620.007 136.01H578.707V177.31H620.007V136.01Z" fill="#77552C"/>
<path d="M620.007 177.31H578.707V218.61H620.007V177.31Z" fill="#77552C"/>
<path d="M620.007 218.6H578.707V259.9H620.007V218.6Z" fill="#77552C"/>
<path d="M620.007 259.899H578.707V301.199H620.007V259.899Z" fill="#77552C"/>
<path d="M620.007 301.2H578.707V342.5H620.007V301.2Z" fill="#77552C"/>
<path d="M620.007 342.49H578.707V383.79H620.007V342.49Z" fill="#77552C"/>
<path d="M620.007 383.79H578.707V425.09H620.007V383.79Z" fill="#77552C"/>
<path d="M620.007 425.08H578.707V466.38H620.007V425.08Z" fill="#77552C"/>
<path d="M620.007 466.38H578.707V507.68H620.007V466.38Z" fill="#77552C"/>
<path d="M578.706 136.01H537.406V177.31H578.706V136.01Z" fill="#77552C"/>
<path d="M578.706 177.31H537.406V218.61H578.706V177.31Z" fill="#77552C"/>
<path d="M578.706 218.6H537.406V259.9H578.706V218.6Z" fill="#77552C"/>
<path d="M578.706 259.899H537.406V301.199H578.706V259.899Z" fill="#77552C"/>
<path d="M578.706 301.2H537.406V342.5H578.706V301.2Z" fill="#77552C"/>
<path d="M578.706 342.49H537.406V383.79H578.706V342.49Z" fill="#77552C"/>
<path d="M578.706 383.79H537.406V425.09H578.706V383.79Z" fill="#77552C"/>
<path d="M578.706 425.08H537.406V466.38H578.706V425.08Z" fill="#77552C"/>
<path d="M578.706 466.38H537.406V507.68H578.706V466.38Z" fill="#77552C"/>
</g>
<path d="M572.305 472.949C571.835 472.679 571.305 472.519 570.775 472.479V488.479L584.995 496.69V480.28L572.305 472.949Z" fill="#DFE9ED"/>
<mask id="mask55_2587_29250" style="mask-type:luminance" maskUnits="userSpaceOnUse" x="570" y="472" width="15" height="25">
<path d="M572.305 472.949C571.835 472.679 571.305 472.519 570.775 472.479V488.479L584.995 496.69V480.28L572.305 472.949Z" fill="white"/>
</mask>
<g mask="url(#mask55_2587_29250)">
<path d="M620.007 466.38H578.707V507.68H620.007V466.38Z" fill="#77552C"/>
<path d="M578.706 466.38H537.406V507.68H578.706V466.38Z" fill="#77552C"/>
</g>
<mask id="mask56_2587_29250" style="mask-type:luminance" maskUnits="userSpaceOnUse" x="270" y="455" width="285" height="142">
<path d="M542.336 472.069L537.596 469.329L528.116 463.859L528.106 463.849L521.006 459.749L513.896 455.649H513.886L499.666 463.859L490.186 469.329L485.446 472.069L471.226 480.279L457.006 488.489H456.996V488.499L442.776 496.699V496.709L438.036 499.439L428.556 504.909V504.919L414.336 513.129L404.856 518.599L400.116 521.339L385.896 529.549H385.886L371.676 537.759H371.666L357.446 545.969L343.226 554.179L338.486 556.919L329.006 562.389L328.996 562.399L314.776 570.609L305.296 576.079L300.556 578.819L286.336 587.029L272.116 595.239L270.186 596.349L554.206 478.919L542.336 472.069Z" fill="white"/>
</mask>
<g mask="url(#mask56_2587_29250)">
<path d="M578.706 425.079H537.406V466.379H578.706V425.079Z" fill="#C6A76F"/>
<path d="M578.706 466.379H537.406V507.679H578.706V466.379Z" fill="#C6A76F"/>
<path d="M578.706 507.679H537.406V548.979H578.706V507.679Z" fill="#C6A76F"/>
<path d="M578.706 548.969H537.406V590.269H578.706V548.969Z" fill="#C6A76F"/>
<path d="M578.706 590.27H537.406V631.57H578.706V590.27Z" fill="#C6A76F"/>
<path d="M537.415 425.079H496.115V466.379H537.415V425.079Z" fill="#C6A76F"/>
<path d="M537.415 466.379H496.115V507.679H537.415V466.379Z" fill="#C6A76F"/>
<path d="M537.415 507.679H496.115V548.979H537.415V507.679Z" fill="#C6A76F"/>
<path d="M537.415 548.969H496.115V590.269H537.415V548.969Z" fill="#C6A76F"/>
<path d="M537.415 590.27H496.115V631.57H537.415V590.27Z" fill="#C6A76F"/>
<path d="M496.116 425.079H454.816V466.379H496.116V425.079Z" fill="#C6A76F"/>
<path d="M496.116 466.379H454.816V507.679H496.116V466.379Z" fill="#C6A76F"/>
<path d="M496.116 507.679H454.816V548.979H496.116V507.679Z" fill="#C6A76F"/>
<path d="M496.116 548.969H454.816V590.269H496.116V548.969Z" fill="#C6A76F"/>
<path d="M496.116 590.27H454.816V631.57H496.116V590.27Z" fill="#C6A76F"/>
<path d="M454.816 425.079H413.516V466.379H454.816V425.079Z" fill="#C6A76F"/>
<path d="M454.816 466.379H413.516V507.679H454.816V466.379Z" fill="#C6A76F"/>
<path d="M454.816 507.679H413.516V548.979H454.816V507.679Z" fill="#C6A76F"/>
<path d="M454.816 548.969H413.516V590.269H454.816V548.969Z" fill="#C6A76F"/>
<path d="M454.816 590.27H413.516V631.57H454.816V590.27Z" fill="#C6A76F"/>
<path d="M413.527 425.079H372.227V466.379H413.527V425.079Z" fill="#C6A76F"/>
<path d="M413.527 466.379H372.227V507.679H413.527V466.379Z" fill="#C6A76F"/>
<path d="M413.527 507.679H372.227V548.979H413.527V507.679Z" fill="#C6A76F"/>
<path d="M413.527 548.969H372.227V590.269H413.527V548.969Z" fill="#C6A76F"/>
<path d="M413.527 590.27H372.227V631.57H413.527V590.27Z" fill="#C6A76F"/>
<path d="M372.226 425.079H330.926V466.379H372.226V425.079Z" fill="#C6A76F"/>
<path d="M372.226 466.379H330.926V507.679H372.226V466.379Z" fill="#C6A76F"/>
<path d="M372.226 507.679H330.926V548.979H372.226V507.679Z" fill="#C6A76F"/>
<path d="M372.226 548.969H330.926V590.269H372.226V548.969Z" fill="#C6A76F"/>
<path d="M372.226 590.27H330.926V631.57H372.226V590.27Z" fill="#C6A76F"/>
<path d="M330.925 425.079H289.625V466.379H330.925V425.079Z" fill="#C6A76F"/>
<path d="M330.925 466.379H289.625V507.679H330.925V466.379Z" fill="#C6A76F"/>
<path d="M330.925 507.679H289.625V548.979H330.925V507.679Z" fill="#C6A76F"/>
<path d="M330.925 548.969H289.625V590.269H330.925V548.969Z" fill="#C6A76F"/>
<path d="M330.925 590.27H289.625V631.57H330.925V590.27Z" fill="#C6A76F"/>
<path d="M289.636 425.079H248.336V466.379H289.636V425.079Z" fill="#C6A76F"/>
<path d="M289.636 466.379H248.336V507.679H289.636V466.379Z" fill="#C6A76F"/>
<path d="M289.636 507.679H248.336V548.979H289.636V507.679Z" fill="#C6A76F"/>
<path d="M289.636 548.969H248.336V590.269H289.636V548.969Z" fill="#C6A76F"/>
<path d="M289.636 590.27H248.336V631.57H289.636V590.27Z" fill="#C6A76F"/>
</g>
<path d="M371.665 652.72L385.885 644.5L400.105 636.3H400.115L414.325 628.08H414.335L428.555 619.87L442.775 611.66L452.255 606.19L456.995 603.45L471.225 595.24L485.445 587.02L499.665 578.82L513.885 570.6L528.105 562.39H528.115L537.585 556.92L542.325 554.18H542.335L556.555 545.97L570.775 537.76L584.995 529.55L599.215 521.34H599.225L613.445 513.12L603.965 507.65L599.225 504.92L589.745 499.44L585.005 496.7H584.995L570.775 488.49L556.555 480.28L554.205 478.92L270.185 596.35L257.885 603.45L253.145 606.19L243.675 611.66H243.665L229.445 619.87L243.665 628.08L257.885 636.29L272.115 644.51L286.325 652.71H286.335L300.555 660.93L305.295 663.67L314.775 669.14H314.785C323.575 674.22 334.415 674.22 343.205 669.14H343.225V669.12L357.435 660.92H357.445L371.665 652.71V652.72Z" fill="#DFE9ED"/>
<mask id="mask57_2587_29250" style="mask-type:luminance" maskUnits="userSpaceOnUse" x="229" y="478" width="385" height="195">
<path d="M371.665 652.72L385.885 644.5L400.105 636.3H400.115L414.325 628.08H414.335L428.555 619.87L442.775 611.66L452.255 606.19L456.995 603.45L471.225 595.24L485.445 587.02L499.665 578.82L513.885 570.6L528.105 562.39H528.115L537.585 556.92L542.325 554.18H542.335L556.555 545.97L570.775 537.76L584.995 529.55L599.215 521.34H599.225L613.445 513.12L603.965 507.65L599.225 504.92L589.745 499.44L585.005 496.7H584.995L570.775 488.49L556.555 480.28L554.205 478.92L270.185 596.35L257.885 603.45L253.145 606.19L243.675 611.66H243.665L229.445 619.87L243.665 628.08L257.885 636.29L272.115 644.51L286.325 652.71H286.335L300.555 660.93L305.295 663.67L314.775 669.14H314.785C323.575 674.22 334.415 674.22 343.205 669.14H343.225V669.12L357.435 660.92H357.445L371.665 652.71V652.72Z" fill="white"/>
</mask>
<g mask="url(#mask57_2587_29250)">
<path d="M620.005 466.38H578.705V507.68H620.005V466.38Z" fill="#C6A76F"/>
<path d="M620.005 507.68H578.705V548.98H620.005V507.68Z" fill="#C6A76F"/>
<path d="M620.005 548.97H578.705V590.27H620.005V548.97Z" fill="#C6A76F"/>
<path d="M620.005 590.27H578.705V631.57H620.005V590.27Z" fill="#C6A76F"/>
<path d="M620.005 631.57H578.705V672.87H620.005V631.57Z" fill="#C6A76F"/>
<path d="M620.005 672.86H578.705V714.16H620.005V672.86Z" fill="#C6A76F"/>
<path d="M578.704 466.38H537.404V507.68H578.704V466.38Z" fill="#C6A76F"/>
<path d="M578.704 507.68H537.404V548.98H578.704V507.68Z" fill="#C6A76F"/>
<path d="M578.704 548.97H537.404V590.27H578.704V548.97Z" fill="#C6A76F"/>
<path d="M578.704 590.27H537.404V631.57H578.704V590.27Z" fill="#C6A76F"/>
<path d="M578.704 631.57H537.404V672.87H578.704V631.57Z" fill="#C6A76F"/>
<path d="M578.704 672.86H537.404V714.16H578.704V672.86Z" fill="#C6A76F"/>
<path d="M537.415 466.38H496.115V507.68H537.415V466.38Z" fill="#C6A76F"/>
<path d="M537.415 507.68H496.115V548.98H537.415V507.68Z" fill="#C6A76F"/>
<path d="M537.415 548.97H496.115V590.27H537.415V548.97Z" fill="#C6A76F"/>
<path d="M537.415 590.27H496.115V631.57H537.415V590.27Z" fill="#C6A76F"/>
<path d="M537.415 631.57H496.115V672.87H537.415V631.57Z" fill="#C6A76F"/>
<path d="M537.415 672.86H496.115V714.16H537.415V672.86Z" fill="#C6A76F"/>
<path d="M496.114 466.38H454.814V507.68H496.114V466.38Z" fill="#C6A76F"/>
<path d="M496.114 507.68H454.814V548.98H496.114V507.68Z" fill="#C6A76F"/>
<path d="M496.114 548.97H454.814V590.27H496.114V548.97Z" fill="#C6A76F"/>
<path d="M496.114 590.27H454.814V631.57H496.114V590.27Z" fill="#C6A76F"/>
<path d="M496.114 631.57H454.814V672.87H496.114V631.57Z" fill="#C6A76F"/>
<path d="M496.114 672.86H454.814V714.16H496.114V672.86Z" fill="#C6A76F"/>
<path d="M454.816 466.38H413.516V507.68H454.816V466.38Z" fill="#C6A76F"/>
<path d="M454.816 507.68H413.516V548.98H454.816V507.68Z" fill="#C6A76F"/>
<path d="M454.816 548.97H413.516V590.27H454.816V548.97Z" fill="#C6A76F"/>
<path d="M454.816 590.27H413.516V631.57H454.816V590.27Z" fill="#C6A76F"/>
<path d="M454.816 631.57H413.516V672.87H454.816V631.57Z" fill="#C6A76F"/>
<path d="M454.816 672.86H413.516V714.16H454.816V672.86Z" fill="#C6A76F"/>
<path d="M413.525 466.38H372.225V507.68H413.525V466.38Z" fill="#C6A76F"/>
<path d="M413.525 507.68H372.225V548.98H413.525V507.68Z" fill="#C6A76F"/>
<path d="M413.525 548.97H372.225V590.27H413.525V548.97Z" fill="#C6A76F"/>
<path d="M413.525 590.27H372.225V631.57H413.525V590.27Z" fill="#C6A76F"/>
<path d="M413.525 631.57H372.225V672.87H413.525V631.57Z" fill="#C6A76F"/>
<path d="M413.525 672.86H372.225V714.16H413.525V672.86Z" fill="#C6A76F"/>
<path d="M372.226 466.38H330.926V507.68H372.226V466.38Z" fill="#C6A76F"/>
<path d="M372.226 507.68H330.926V548.98H372.226V507.68Z" fill="#C6A76F"/>
<path d="M372.226 548.97H330.926V590.27H372.226V548.97Z" fill="#C6A76F"/>
<path d="M372.226 590.27H330.926V631.57H372.226V590.27Z" fill="#C6A76F"/>
<path d="M372.226 631.57H330.926V672.87H372.226V631.57Z" fill="#C6A76F"/>
<path d="M372.226 672.86H330.926V714.16H372.226V672.86Z" fill="#C6A76F"/>
<path d="M330.925 466.38H289.625V507.68H330.925V466.38Z" fill="#C6A76F"/>
<path d="M330.925 507.68H289.625V548.98H330.925V507.68Z" fill="#C6A76F"/>
<path d="M330.925 548.97H289.625V590.27H330.925V548.97Z" fill="#C6A76F"/>
<path d="M330.925 590.27H289.625V631.57H330.925V590.27Z" fill="#C6A76F"/>
<path d="M330.925 631.57H289.625V672.87H330.925V631.57Z" fill="#C6A76F"/>
<path d="M330.925 672.86H289.625V714.16H330.925V672.86Z" fill="#C6A76F"/>
<path d="M289.636 466.38H248.336V507.68H289.636V466.38Z" fill="#C6A76F"/>
<path d="M289.636 507.68H248.336V548.98H289.636V507.68Z" fill="#C6A76F"/>
<path d="M289.636 548.97H248.336V590.27H289.636V548.97Z" fill="#C6A76F"/>
<path d="M289.636 590.27H248.336V631.57H289.636V590.27Z" fill="#C6A76F"/>
<path d="M289.636 631.57H248.336V672.87H289.636V631.57Z" fill="#C6A76F"/>
<path d="M289.636 672.86H248.336V714.16H289.636V672.86Z" fill="#C6A76F"/>
<path d="M248.335 466.38H207.035V507.68H248.335V466.38Z" fill="#C6A76F"/>
<path d="M248.335 507.68H207.035V548.98H248.335V507.68Z" fill="#C6A76F"/>
<path d="M248.335 548.97H207.035V590.27H248.335V548.97Z" fill="#C6A76F"/>
<path d="M248.335 590.27H207.035V631.57H248.335V590.27Z" fill="#C6A76F"/>
<path d="M248.335 631.57H207.035V672.87H248.335V631.57Z" fill="#C6A76F"/>
<path d="M248.335 672.86H207.035V714.16H248.335V672.86Z" fill="#C6A76F"/>
</g>
<path d="M599.225 521.34H599.215L584.995 529.55L570.775 537.76" stroke="#DFE9ED" stroke-linecap="round" stroke-linejoin="round"/>
<path d="M599.225 521.329L613.445 513.119L599.225 521.329Z" fill="#DFE9ED"/>
<mask id="mask58_2587_29250" style="mask-type:luminance" maskUnits="userSpaceOnUse" x="599" y="513" width="15" height="9">
<path d="M599.225 521.329L613.445 513.119L599.225 521.329Z" fill="white"/>
</mask>
<g mask="url(#mask58_2587_29250)">
<path d="M620.005 507.679H578.705V548.979H620.005V507.679Z" fill="#77552C"/>
</g>
<mask id="mask59_2587_29250" style="mask-type:luminance" maskUnits="userSpaceOnUse" x="599" y="513" width="15" height="9">
<path d="M599.225 521.329L613.445 513.119L599.225 521.329Z" fill="white"/>
</mask>
<g mask="url(#mask59_2587_29250)">
<path d="M620.005 507.679H578.705V548.979H620.005V507.679Z" fill="#C6A76F"/>
</g>
<path d="M499.664 578.81L513.884 570.6L528.104 562.39H528.114L537.584 556.92" stroke="#DFE9ED" stroke-linecap="round" stroke-linejoin="round"/>
<path d="M485.445 587.019L499.665 578.819" stroke="#DFE9ED" stroke-linecap="round" stroke-linejoin="round"/>
<path d="M400.115 636.289L414.325 628.079H414.335L428.555 619.869L442.775 611.659L452.255 606.189" stroke="#DFE9ED" stroke-linecap="round" stroke-linejoin="round"/>
<path d="M385.885 644.5L400.105 636.3H400.115" stroke="#DFE9ED" stroke-linecap="round" stroke-linejoin="round"/>
<path d="M589.744 499.439L585.004 496.699H584.994" stroke="#DFE9ED" stroke-linecap="round" stroke-linejoin="round"/>
<path d="M599.225 504.92L603.965 507.65" stroke="#DFE9ED" stroke-linecap="round" stroke-linejoin="round"/>
<path d="M314.785 669.14L328.995 677.35L343.225 669.14H343.205C334.405 674.22 323.575 674.22 314.785 669.14Z" fill="#DFE9ED"/>
<mask id="mask60_2587_29250" style="mask-type:luminance" maskUnits="userSpaceOnUse" x="314" y="669" width="30" height="9">
<path d="M314.785 669.14L328.995 677.35L343.225 669.14H343.205C334.405 674.22 323.575 674.22 314.785 669.14Z" fill="white"/>
</mask>
<g mask="url(#mask60_2587_29250)">
<path d="M372.226 631.569H330.926V672.869H372.226V631.569Z" fill="#A07F57"/>
<path d="M372.226 672.859H330.926V714.159H372.226V672.859Z" fill="#A07F57"/>
<path d="M330.925 631.569H289.625V672.869H330.925V631.569Z" fill="#A07F57"/>
<path d="M330.925 672.859H289.625V714.159H330.925V672.859Z" fill="#A07F57"/>
</g>
<mask id="mask61_2587_29250" style="mask-type:luminance" maskUnits="userSpaceOnUse" x="314" y="669" width="30" height="9">
<path d="M314.785 669.14L328.995 677.35L343.225 669.14H343.205C334.405 674.22 323.575 674.22 314.785 669.14Z" fill="white"/>
</mask>
<g mask="url(#mask61_2587_29250)">
<path d="M372.226 631.569H330.926V672.869H372.226V631.569Z" fill="#C6A76F"/>
<path d="M372.226 672.859H330.926V714.159H372.226V672.859Z" fill="#C6A76F"/>
<path d="M330.925 631.569H289.625V672.869H330.925V631.569Z" fill="#C6A76F"/>
<path d="M330.925 672.859H289.625V714.159H330.925V672.859Z" fill="#C6A76F"/>
</g>
<path d="M305.295 663.67L314.775 669.14H314.785" stroke="#DFE9ED" stroke-linecap="round" stroke-linejoin="round"/>
<path d="M229.445 619.869L243.665 628.079L229.445 619.869Z" fill="#DFE9ED"/>
<mask id="mask62_2587_29250" style="mask-type:luminance" maskUnits="userSpaceOnUse" x="229" y="619" width="15" height="10">
<path d="M229.445 619.869L243.665 628.079L229.445 619.869Z" fill="white"/>
</mask>
<g mask="url(#mask62_2587_29250)">
<path d="M248.335 590.27H207.035V631.57H248.335V590.27Z" fill="#A07F57"/>
</g>
<mask id="mask63_2587_29250" style="mask-type:luminance" maskUnits="userSpaceOnUse" x="229" y="619" width="15" height="10">
<path d="M229.445 619.869L243.665 628.079L229.445 619.869Z" fill="white"/>
</mask>
<g mask="url(#mask63_2587_29250)">
<path d="M248.335 590.27H207.035V631.57H248.335V590.27Z" fill="#C6A76F"/>
</g>
<path d="M243.664 628.079L257.884 636.289L272.114 644.509" stroke="#DFE9ED" stroke-linecap="round" stroke-linejoin="round"/>
<path d="M253.145 606.19L257.885 603.45L270.185 596.35" stroke="#DFE9ED" stroke-linecap="round" stroke-linejoin="round"/>
</g>
<defs>
<clipPath id="clip0_2587_29250">
<rect width="800" height="800" fill="white" transform="translate(0.554688 0.269531)"/>
</clipPath>
</defs>
</svg>
