<svg width="801" height="801" viewBox="0 0 801 801" fill="none" xmlns="http://www.w3.org/2000/svg">
<g clip-path="url(#clip0_2587_31204)">
<path d="M695.065 570.845L694.995 570.885L687.974 574.935L680.774 579.095L666.565 587.305L652.335 595.515L645.135 599.685L638.104 603.735L623.885 611.945H623.875L609.664 620.155H609.654L602.555 624.255L595.445 628.355L581.224 636.565H581.214L567.005 644.775L559.984 648.825L552.784 652.975L538.575 661.185L538.565 661.195L532.645 664.605C529.345 666.505 525.545 667.175 521.895 666.635L571.705 694.745C577.605 698.075 584.835 698.015 590.685 694.575L763.544 592.845C766.384 591.175 766.375 587.055 763.515 585.405L708.294 553.525C706.384 560.725 701.694 566.995 695.094 570.825L695.065 570.845Z" fill="#DFE9ED"/>
<path d="M595.444 562.676V562.686L581.224 570.896L567.004 579.106L581.224 570.896L595.444 562.686V562.676V562.686L595.454 562.676H595.444Z" fill="#DFE9ED"/>
<path d="M609.654 603.735L609.664 603.745V603.735H609.654Z" fill="#DFE9ED"/>
<path d="M538.565 562.676H538.555L538.545 562.686H538.565V562.676L547.565 557.466L538.565 562.676Z" fill="#DFE9ED"/>
<path d="M524.336 570.885L531.445 566.785L524.336 570.885L510.105 579.095L524.336 570.885Z" fill="#DFE9ED"/>
<path d="M510.105 562.686H510.115L510.105 562.676V562.686Z" fill="#DFE9ED"/>
<path d="M538.565 611.936L538.555 611.946H538.545L538.555 611.956H538.565V611.936Z" fill="#DFE9ED"/>
<path d="M467.445 587.306V587.316H467.455L467.445 587.306Z" fill="#DFE9ED"/>
<path d="M495.875 636.576L495.885 636.586V636.576H495.875Z" fill="#DFE9ED"/>
<path d="M686.855 214.295C684.975 215.375 682.885 215.925 680.785 215.925V267.065V283.495V382.025V431.295V447.715V480.565V529.825V546.255L666.565 554.465L652.335 562.675L638.115 570.885L623.895 579.095L609.675 587.305L609.665 587.315L595.445 595.525L581.225 603.735L567.005 611.945L552.785 620.155V636.575V652.995L559.985 648.845L567.005 644.795L581.215 636.585H581.225L595.445 628.375L602.555 624.275L609.655 620.175H609.665L623.875 611.965H623.885L638.105 603.755L645.135 599.705L652.335 595.545L666.565 587.325L680.775 579.115L687.975 574.955L694.995 570.905L695.065 570.865C701.675 567.025 706.365 560.765 708.265 553.565C708.875 551.265 709.205 548.865 709.215 546.425V546.285V497.015V464.165V431.325V398.485V349.215V316.365V209.045C709.185 206.685 708.555 204.425 707.415 202.445L694.995 209.615L686.845 214.315L686.855 214.295ZM609.665 603.745H609.655V603.735H609.665V603.745Z" fill="#77552C"/>
<path d="M652.334 217.816V299.916V332.766V382.026V382.036V431.296V431.306V447.716V464.146V480.566V513.416V529.826V529.836L666.554 538.036L680.774 546.256V529.836V480.576V447.726V431.306V382.036V283.506V267.076V215.926C678.674 215.926 676.574 215.386 674.704 214.306L670.144 211.676L666.554 209.606L652.324 201.386V217.806L652.334 217.816ZM666.564 275.276V275.296L666.554 275.286H666.564V275.276Z" fill="#A07F57"/>
<path d="M593.254 153.386C594.664 155.826 595.444 158.636 595.444 161.556V168.546L609.664 176.756H609.674L623.894 184.966L638.114 193.176L652.334 201.386L666.564 209.596L670.154 211.676L674.714 214.306C676.594 215.386 678.684 215.926 680.784 215.926C682.884 215.926 684.974 215.386 686.854 214.296L695.004 209.596L707.424 202.426C706.274 200.426 704.604 198.726 702.544 197.526L695.014 193.186H695.004L687.984 189.126L680.784 184.976L673.684 180.866L666.574 176.766L659.374 172.606L652.354 168.556L645.164 164.396L638.144 160.346H638.134L623.914 152.136L609.694 143.926L606.834 142.276L602.624 139.846C598.194 137.286 592.744 137.286 588.314 139.846L581.254 143.926L587.294 147.416C589.824 148.876 591.874 150.956 593.284 153.406L593.254 153.386Z" fill="#C6A76F"/>
<path d="M532.624 664.626L538.544 661.215H538.554V661.206L552.764 652.996V636.586V620.165L538.554 628.376L533.044 631.556C527.654 634.666 521.004 634.666 515.614 631.556L510.104 628.376L495.884 620.165L481.664 611.956L467.434 603.746L453.224 595.535H453.214L438.994 587.326V521.636V455.946V373.836V257.336C437.284 257.336 435.564 256.896 434.034 256.006L424.774 250.656L412.204 243.396C411.144 245.226 410.564 247.336 410.564 249.526V594.696C410.614 600.326 413.634 605.506 418.514 608.326L424.774 611.946L431.974 616.105L439.004 620.155L453.224 628.366L467.444 636.576H467.454L474.554 640.676L481.654 644.775H481.664L495.884 652.986L510.104 661.196V661.206L516.004 664.616C517.834 665.676 519.824 666.345 521.854 666.655C525.504 667.205 529.304 666.526 532.604 664.626H532.624ZM495.884 636.586H495.874V636.576H495.884V636.586Z" fill="#A07F57"/>
<path d="M524.336 209.596L538.556 201.386H538.566L552.776 193.186L566.996 184.976L573.396 181.276L571.646 182.286C568.766 183.946 565.216 183.946 562.346 182.286L552.776 176.766L541.026 169.986C540.266 169.546 539.646 168.916 539.226 168.186L538.576 168.556L524.346 176.776L517.146 180.936L510.126 184.986L495.906 193.196L481.686 201.406L489.486 205.906C491.476 207.056 493.076 208.686 494.186 210.606C495.296 212.526 495.906 214.736 495.906 217.026V226.036L510.126 217.826L524.346 209.616L524.336 209.596Z" fill="#C6A76F"/>
<path d="M439.004 291.716V373.816V455.926V521.616V587.316L453.224 579.106L467.444 570.896L481.664 562.676H481.674L495.894 554.466L510.114 546.256L524.334 538.046L538.564 529.836L552.784 521.626L567.004 513.416L581.224 505.206L595.444 496.996V464.156V447.726V414.886V398.456V365.616V349.196V299.926V250.656V201.396V184.966V168.546L581.224 176.746L576.754 179.336L573.404 181.276L567.004 184.976L552.784 193.176V193.186L538.574 201.386V201.406L524.354 209.616L510.134 217.826L495.914 226.036L481.704 234.246H481.694L474.584 238.356L467.484 242.466L453.264 250.676L444.004 256.026C442.464 256.916 440.754 257.356 439.044 257.356V291.746L439.004 291.716ZM581.224 488.776L567.004 496.986L552.784 505.196L538.574 513.406L524.344 521.616L510.124 529.836L495.904 538.046H495.894L481.684 546.256H481.674L467.454 554.466L453.234 562.676V561.716L467.444 553.506L481.664 545.296L495.894 537.086L510.114 528.866L524.334 520.656L538.564 512.446V512.636L552.784 504.426L567.004 496.216L581.234 488.006V488.776H581.224Z" fill="#77552C"/>
<path d="M412.205 243.395L424.775 250.655L434.035 256.005C435.575 256.895 437.285 257.335 438.995 257.335C440.705 257.335 442.425 256.895 443.955 256.005L453.215 250.655L467.435 242.445L453.215 234.235L438.995 226.025L431.975 230.075L424.775 234.225V234.235L416.705 238.885C414.805 239.985 413.265 241.555 412.205 243.395Z" fill="#C6A76F"/>
<path d="M666.566 538.045L652.346 529.835L638.126 521.615L623.906 513.405L622.666 512.685L609.686 505.205L595.466 496.985H595.456L581.236 505.195L567.016 513.415L552.796 521.615L538.576 529.835L524.346 538.045L510.126 546.255L495.906 554.465L481.686 562.675H481.676L467.456 570.895L453.236 579.095L439.016 587.315L453.236 595.525H453.246L467.456 603.735L481.686 611.945L495.906 620.155L510.126 628.365L515.636 631.545C521.026 634.655 527.676 634.655 533.066 631.545L538.576 628.365L552.786 620.155L567.006 611.945L581.226 603.735L595.446 595.525L609.666 587.315H609.676L623.896 579.105L638.116 570.885L652.336 562.675L666.566 554.465L680.786 546.255L666.566 538.045ZM547.566 557.465L538.556 562.675H538.536H538.546L547.556 557.465H547.566ZM467.446 587.305H467.456L467.446 587.315V587.305ZM538.566 611.955V611.945V611.965V611.955Z" fill="#C6A76F"/>
<path d="M595.445 168.546V184.956H595.455L595.445 184.966V201.386V250.646V299.916V349.186V365.606H595.455L595.445 365.616V398.446V414.876H595.465H595.455V447.706H595.465L595.455 447.716V464.136V496.976H595.465L609.685 505.186L622.665 512.676L623.905 513.396L638.125 521.606V505.196V488.776V439.506V373.816V357.396V340.976V242.436V226.016V193.166L623.905 184.956L609.685 176.746H609.675L595.455 168.536L595.445 168.546Z" fill="#A07F57"/>
<path d="M638.105 226.016V226.026V242.436V242.446V258.866V275.286V291.706V308.136V324.556V340.976V340.986V357.396V357.406V373.816V373.826V390.246V406.666V423.086V439.506V439.516V455.936V472.356V488.776V488.786V505.196V505.206V521.616L652.336 529.826V513.416V496.986V480.576V480.566V464.146V447.726V447.716V431.306V431.296V414.876V398.456V382.036V382.026V365.616V349.186V332.776V332.766V316.346V299.926V299.916V283.496V267.076V250.656V234.226V217.816V217.806V201.386L638.105 193.176V209.596V226.016Z" fill="#77552C"/>
<path d="M538.564 165.705C538.564 166.585 538.794 167.425 539.224 168.165C539.644 168.905 540.264 169.525 541.024 169.965L552.774 176.745H552.784L562.354 182.265C565.234 183.925 568.784 183.925 571.654 182.265L573.404 181.255L581.224 176.745L595.444 168.535V161.545C595.444 158.625 594.664 155.825 593.254 153.375L581.224 160.325L567.014 168.525H567.004L556.994 162.745L552.784 160.315L538.564 152.105V165.695V165.705Z" fill="#E2B042"/>
<path d="M467.444 242.446L474.554 238.336L481.664 234.226H481.674L495.884 226.016H495.894V217.006C495.894 214.716 495.284 212.506 494.174 210.586L481.674 217.806L481.664 217.816L467.454 226.016H467.444L453.224 217.806L441.314 210.926C439.824 213.506 439.004 216.476 439.004 219.556V226.016V226.026L453.224 234.236L467.444 242.446Z" fill="#E2B042"/>
<path d="M561.164 147.846L568.344 143.706C569.454 143.066 570.824 143.066 571.934 143.706L578.264 147.366C579.224 147.916 579.224 149.306 578.264 149.856L572.204 153.346L556.974 162.756L566.984 168.536H566.994L581.204 160.336L593.234 153.386C591.824 150.936 589.774 148.856 587.244 147.396L581.204 143.916H581.194L572.394 138.836C569.034 136.896 564.904 136.896 561.544 138.836L552.744 143.916V152.456L561.134 147.856L561.164 147.846Z" fill="#F4F0A8"/>
<path d="M467.445 226.016H467.455L481.665 217.816H481.675L494.175 210.586C493.065 208.666 491.465 207.036 489.475 205.886L481.675 201.386V207.416L476.065 211.006L476.135 211.046L468.395 215.516C466.825 216.426 464.885 216.426 463.305 215.516L457.055 211.906C456.395 211.526 456.395 210.566 457.055 210.176L464.425 205.926L467.445 204.106V195.596L465.905 194.056L453.215 201.386L447.625 204.616C444.955 206.156 442.795 208.356 441.305 210.936L453.215 217.816L467.435 226.026L467.445 226.016Z" fill="#F4F0A8"/>
<path d="M467.456 204.115L464.436 205.935L465.866 205.115L476.076 211.015L481.686 207.425V184.975V172.175C481.686 169.935 482.876 167.865 484.816 166.745L495.906 160.345L510.126 152.135L510.136 152.125L524.346 143.925V143.915L535.456 137.505C535.976 137.205 536.536 137.165 537.046 137.305C537.216 137.355 537.376 137.425 537.526 137.505C538.126 137.855 538.566 138.505 538.566 139.295V152.125L552.786 160.335L556.996 162.765L572.226 153.355L570.156 154.545L559.866 148.605L561.176 147.845L552.786 152.445V134.645C552.786 130.765 550.976 127.145 547.956 124.825C547.526 124.495 547.066 124.185 546.586 123.905L545.426 123.235C541.246 120.825 536.126 120.795 531.916 123.125C531.846 123.165 531.776 123.195 531.716 123.235L524.346 127.485L510.136 135.695H510.126L495.906 143.905L481.686 152.115L474.296 156.395C472.856 157.225 471.606 158.305 470.586 159.545C470.296 159.895 470.016 160.265 469.766 160.645C469.436 161.135 469.146 161.645 468.886 162.175C468.236 163.495 467.786 164.925 467.596 166.415C467.516 167.015 467.476 167.615 467.476 168.225V176.745V193.175L465.946 194.055L467.486 195.595V204.105L467.456 204.115Z" fill="#A07F57"/>
<path d="M464.426 205.935L457.056 210.185C456.396 210.565 456.396 211.525 457.056 211.915L463.306 215.525C464.876 216.435 466.816 216.435 468.396 215.525L476.136 211.055L476.066 211.015L465.856 205.115L464.426 205.935Z" fill="#77552C"/>
<path d="M578.275 147.366L571.945 143.706C570.835 143.066 569.465 143.066 568.355 143.706L561.175 147.846L559.865 148.606L570.155 154.546L572.225 153.356L578.285 149.866C579.245 149.316 579.245 147.926 578.285 147.376L578.275 147.366Z" fill="#77552C"/>
<mask id="mask0_2587_31204" style="mask-type:luminance" maskUnits="userSpaceOnUse" x="104" y="629" width="348" height="151">
<path d="M383.116 629.035L131.796 646.345L104.426 690.195L257.596 776.635C263.496 779.965 270.726 779.905 276.576 776.465L449.436 674.735C452.276 673.065 452.266 668.945 449.406 667.295L383.126 629.035H383.116Z" fill="white"/>
</mask>
<g mask="url(#mask0_2587_31204)">
<path d="M477.015 589.835H435.715V631.135H477.015V589.835Z" fill="#DFE9ED"/>
<path d="M477.015 631.135H435.715V672.435H477.015V631.135Z" fill="#DFE9ED"/>
<path d="M477.015 672.435H435.715V713.735H477.015V672.435Z" fill="#DFE9ED"/>
<path d="M477.015 713.725H435.715V755.025H477.015V713.725Z" fill="#DFE9ED"/>
<path d="M477.015 755.025H435.715V796.325H477.015V755.025Z" fill="#DFE9ED"/>
<path d="M435.714 589.835H394.414V631.135H435.714V589.835Z" fill="#DFE9ED"/>
<path d="M435.714 631.135H394.414V672.435H435.714V631.135Z" fill="#DFE9ED"/>
<path d="M435.714 672.435H394.414V713.735H435.714V672.435Z" fill="#DFE9ED"/>
<path d="M435.714 713.725H394.414V755.025H435.714V713.725Z" fill="#DFE9ED"/>
<path d="M435.714 755.025H394.414V796.325H435.714V755.025Z" fill="#DFE9ED"/>
<path d="M394.425 589.835H353.125V631.135H394.425V589.835Z" fill="#DFE9ED"/>
<path d="M394.425 631.135H353.125V672.435H394.425V631.135Z" fill="#DFE9ED"/>
<path d="M394.425 672.435H353.125V713.735H394.425V672.435Z" fill="#DFE9ED"/>
<path d="M394.425 713.725H353.125V755.025H394.425V713.725Z" fill="#DFE9ED"/>
<path d="M394.425 755.025H353.125V796.325H394.425V755.025Z" fill="#DFE9ED"/>
<path d="M353.124 589.835H311.824V631.135H353.124V589.835Z" fill="#DFE9ED"/>
<path d="M353.124 631.135H311.824V672.435H353.124V631.135Z" fill="#DFE9ED"/>
<path d="M353.124 672.435H311.824V713.735H353.124V672.435Z" fill="#DFE9ED"/>
<path d="M353.124 713.725H311.824V755.025H353.124V713.725Z" fill="#DFE9ED"/>
<path d="M353.124 755.025H311.824V796.325H353.124V755.025Z" fill="#DFE9ED"/>
<path d="M311.835 589.835H270.535V631.135H311.835V589.835Z" fill="#DFE9ED"/>
<path d="M311.835 631.135H270.535V672.435H311.835V631.135Z" fill="#DFE9ED"/>
<path d="M311.835 672.435H270.535V713.735H311.835V672.435Z" fill="#DFE9ED"/>
<path d="M311.835 713.725H270.535V755.025H311.835V713.725Z" fill="#DFE9ED"/>
<path d="M311.835 755.025H270.535V796.325H311.835V755.025Z" fill="#DFE9ED"/>
<path d="M270.534 589.835H229.234V631.135H270.534V589.835Z" fill="#DFE9ED"/>
<path d="M270.534 631.135H229.234V672.435H270.534V631.135Z" fill="#DFE9ED"/>
<path d="M270.534 672.435H229.234V713.735H270.534V672.435Z" fill="#DFE9ED"/>
<path d="M270.534 713.725H229.234V755.025H270.534V713.725Z" fill="#DFE9ED"/>
<path d="M270.534 755.025H229.234V796.325H270.534V755.025Z" fill="#DFE9ED"/>
<path d="M229.236 589.835H187.936V631.135H229.236V589.835Z" fill="#DFE9ED"/>
<path d="M229.236 631.135H187.936V672.435H229.236V631.135Z" fill="#DFE9ED"/>
<path d="M229.236 672.435H187.936V713.735H229.236V672.435Z" fill="#DFE9ED"/>
<path d="M229.236 713.725H187.936V755.025H229.236V713.725Z" fill="#DFE9ED"/>
<path d="M229.236 755.025H187.936V796.325H229.236V755.025Z" fill="#DFE9ED"/>
<path d="M187.945 589.835H146.645V631.135H187.945V589.835Z" fill="#DFE9ED"/>
<path d="M187.945 631.135H146.645V672.435H187.945V631.135Z" fill="#DFE9ED"/>
<path d="M187.945 672.435H146.645V713.735H187.945V672.435Z" fill="#DFE9ED"/>
<path d="M187.945 713.725H146.645V755.025H187.945V713.725Z" fill="#DFE9ED"/>
<path d="M187.945 755.025H146.645V796.325H187.945V755.025Z" fill="#DFE9ED"/>
<path d="M146.646 589.835H105.346V631.135H146.646V589.835Z" fill="#DFE9ED"/>
<path d="M146.646 631.135H105.346V672.435H146.646V631.135Z" fill="#DFE9ED"/>
<path d="M146.646 672.435H105.346V713.735H146.646V672.435Z" fill="#DFE9ED"/>
<path d="M146.646 713.725H105.346V755.025H146.646V713.725Z" fill="#DFE9ED"/>
<path d="M146.646 755.025H105.346V796.325H146.646V755.025Z" fill="#DFE9ED"/>
<path d="M105.345 589.835H64.0449V631.135H105.345V589.835Z" fill="#DFE9ED"/>
<path d="M105.345 631.135H64.0449V672.435H105.345V631.135Z" fill="#DFE9ED"/>
<path d="M105.345 672.435H64.0449V713.735H105.345V672.435Z" fill="#DFE9ED"/>
<path d="M105.345 713.725H64.0449V755.025H105.345V713.725Z" fill="#DFE9ED"/>
<path d="M105.345 755.025H64.0449V796.325H105.345V755.025Z" fill="#DFE9ED"/>
</g>
<path d="M213.985 736.895V716.625C209.675 716.625 205.355 715.515 201.485 713.275L199.755 712.275L185.535 704.065L171.315 695.855L157.095 687.645L157.085 687.635L142.865 679.425L128.645 671.215V589.105V572.685V556.265V488.335C126.155 488.335 123.665 487.695 121.435 486.405L114.425 482.355L102.995 475.755C101.195 478.875 100.205 482.455 100.205 486.175V490.565V506.985V556.255V572.675V589.095V638.365V654.785V675.225C100.205 682.905 104.305 689.995 110.945 693.835L114.425 695.845L128.645 704.055L142.865 712.265H142.875L157.095 720.475L165.755 725.485L171.315 728.695L185.535 736.905H185.545L194.195 741.905L199.755 745.115L204.445 747.825C207.395 749.525 210.685 750.375 213.985 750.375V736.905V736.895Z" fill="#A07F57"/>
<path d="M157.094 654.785L171.304 646.575H171.314L185.534 638.365L199.754 630.155L213.974 621.945H213.984L228.194 613.735H228.204L242.424 605.525L256.634 597.315H256.644L270.864 589.105L285.084 580.885H285.094V564.475V531.625V498.785V449.515V433.095V400.245H285.084L270.874 408.455H270.864L256.644 416.665L242.424 424.875L228.204 433.085L213.984 441.295L199.754 449.515L185.534 457.725L171.314 465.935L157.094 474.145H157.084L142.864 482.355L135.854 486.405C134.184 487.375 132.364 487.975 130.514 488.215C129.894 488.295 129.274 488.335 128.654 488.335V556.255V572.675V589.095V671.215L142.874 663.005L157.094 654.785ZM213.984 605.525L199.754 613.735L185.534 621.945L171.314 630.155L157.094 638.365L157.084 638.375L142.874 646.575H142.864V646.465L157.034 638.285L171.394 629.995L185.764 621.705L200.124 613.405L214.484 605.115L228.854 596.825V596.945L228.204 597.315L213.984 605.525ZM142.864 498.775H142.874L143.744 498.275L157.084 490.575H157.094L171.314 482.355L185.534 474.145L186.414 473.635L199.754 465.935L213.984 457.725L228.204 449.515L229.084 449.005L242.424 441.305L242.434 441.295L256.644 433.095L270.864 424.885V424.985L256.684 433.175L242.334 441.455H242.324L228.854 449.245L227.964 449.755L213.604 458.045L199.234 466.335L185.764 474.115L184.874 474.625L170.514 482.915L156.154 491.205L156.144 491.215L142.864 498.885V498.785V498.775Z" fill="#77552C"/>
<path d="M366.766 446.235C365.966 446.075 365.166 445.865 364.386 445.605C363.996 445.475 363.606 445.325 363.226 445.165C362.456 444.845 361.706 444.475 360.976 444.055L356.206 441.295H356.196L341.986 433.085L313.536 416.655L299.316 408.445L285.096 400.235V433.075V449.495V498.765V531.605V564.455V580.875L299.316 589.085L313.536 597.305L317.826 599.785V484.935V435.665H317.836L317.826 435.655V419.235L332.056 427.455V476.715V607.995L341.986 613.725L356.206 621.935L370.426 630.145V580.885V564.465V531.615V515.195V498.775V465.925V446.585C370.016 446.585 369.606 446.575 369.206 446.545C368.396 446.495 367.576 446.385 366.776 446.225L366.766 446.235ZM299.316 572.685H299.306L299.316 572.675V572.685ZM341.986 548.055H341.976L341.986 548.035V548.055Z" fill="#A07F57"/>
<path d="M384.644 441.295L379.874 444.065C376.954 445.755 373.684 446.595 370.424 446.595V465.925V498.775V515.195V531.615V564.465V580.885V630.155L356.204 638.375L341.984 646.585L327.764 654.795H327.754L313.544 663.005H313.534L299.314 671.215L285.094 679.425L270.874 687.635H270.864L256.644 695.855L242.434 704.065H242.424L228.204 712.275L226.474 713.275C222.604 715.505 218.294 716.625 213.984 716.625V736.895V750.375C217.274 750.375 220.574 749.525 223.524 747.815L228.194 745.115H228.204L242.424 736.895L256.644 728.685L270.864 720.475H270.874L285.084 712.265H285.094L299.314 704.045L304.864 700.835L313.534 695.825L327.754 687.615L333.304 684.415L341.984 679.405L356.204 671.195L370.424 662.985L384.644 654.775L387.184 653.315L391.324 650.915C395.994 648.215 398.864 643.235 398.864 637.845V613.725V597.295V564.455V531.605V515.185V498.765V482.335V449.495V442.095C398.864 439.305 398.114 436.615 396.764 434.285L384.644 441.275V441.295Z" fill="#77552C"/>
<path d="M156.336 457.986L156.346 457.976H156.336V457.986Z" fill="#C6A76F"/>
<path d="M121.434 486.405C123.664 487.695 126.154 488.335 128.644 488.335C129.264 488.335 129.884 488.295 130.504 488.215C132.354 487.975 134.174 487.375 135.844 486.405L142.854 482.355L157.074 474.145H157.084L171.304 465.935L185.524 457.725L199.744 449.515L213.974 441.295L228.194 433.085L242.414 424.885L256.634 416.665L270.854 408.455H270.864L285.074 400.245H285.084L299.304 408.455L313.524 416.665L327.744 424.875L341.974 433.095L356.184 441.305H356.194L360.964 444.065C361.694 444.485 362.444 444.855 363.214 445.175C363.594 445.335 363.984 445.475 364.374 445.615C365.154 445.875 365.954 446.085 366.754 446.245C367.554 446.405 368.374 446.505 369.184 446.565C369.594 446.595 369.994 446.605 370.404 446.605C373.664 446.605 376.924 445.765 379.854 444.075L384.624 441.315L396.744 434.315C395.394 431.985 393.434 430.005 391.014 428.615L386.404 425.965L384.634 424.885H384.624L370.414 416.675H370.404L356.184 408.465L341.964 400.255L327.744 392.045H327.734L313.524 383.825H313.514L299.294 375.615L292.004 371.405C287.714 368.925 282.434 368.935 278.144 371.405L275.114 373.155L270.264 375.955L276.154 379.355C278.684 380.815 280.734 382.895 282.144 385.345C283.554 387.785 284.334 390.595 284.334 393.515V400.505L270.114 408.705L260.544 414.235C257.664 415.895 254.114 415.895 251.244 414.235L241.674 408.715L229.914 401.925C229.194 401.515 228.614 400.925 228.194 400.245L170.714 433.425L178.364 437.845C180.354 438.995 181.954 440.625 183.064 442.545C184.174 444.465 184.784 446.675 184.784 448.965V457.975H184.774L170.564 466.185H170.554L156.334 474.405L142.114 466.195L128.034 458.065L114.414 465.925H114.404L110.614 468.115C107.394 469.975 104.784 472.625 102.984 475.745L114.414 482.345L121.424 486.395L121.434 486.405Z" fill="#C6A76F"/>
<path d="M327.754 605.535L327.764 605.525L332.054 608.005V509.565V493.145V476.735V476.725V460.305V443.875V427.465L317.824 419.245V435.665H317.834L317.824 435.675V452.095V468.515V484.935V484.945V599.795L327.754 605.525V605.535Z" fill="#77552C"/>
<path d="M341.985 613.735L332.055 608.005L327.765 605.525H327.755L317.825 599.795L313.535 597.315L299.315 589.105L285.095 580.895L285.085 580.885L270.865 589.105L256.645 597.315H256.635L242.425 605.525L228.205 613.735H228.195L213.985 621.945H213.975L199.755 630.155L185.535 638.365L171.315 646.575H171.305L157.095 654.785H157.085L142.865 663.005L128.645 671.215L142.865 679.425L157.085 687.635H157.095L171.315 695.855L185.535 704.055L199.755 712.275L201.485 713.275C205.355 715.505 209.665 716.625 213.985 716.625C218.295 716.625 222.615 715.505 226.475 713.275L228.205 712.275L242.425 704.065H242.435L256.645 695.855L270.865 687.645L270.875 687.635L285.095 679.425L299.315 671.215L313.535 663.005H313.545L327.755 654.795H327.765L341.985 646.585L356.205 638.375L370.425 630.165L356.205 621.945L341.985 613.735Z" fill="#C6A76F"/>
<path d="M255.905 400.495H255.895L245.885 394.715L241.675 392.285L227.455 384.075V397.665C227.455 398.595 227.725 399.485 228.195 400.245C228.615 400.925 229.195 401.505 229.915 401.925L241.675 408.715L251.245 414.235C254.125 415.895 257.675 415.895 260.545 414.235L270.115 408.715L284.335 400.505V393.515C284.335 390.595 283.555 387.795 282.145 385.345L270.115 392.295L255.905 400.495Z" fill="#E2B042"/>
<path d="M156.335 474.405L170.555 466.185H170.565L184.775 457.975H184.785V448.965C184.785 446.675 184.175 444.465 183.065 442.545L170.565 449.765L170.555 449.775L156.345 457.975H156.335L142.115 449.765L130.205 442.885C128.715 445.465 127.895 448.435 127.895 451.515V457.975L128.035 458.065L142.115 466.195L156.335 474.405Z" fill="#E2B042"/>
<path d="M250.064 379.805L257.254 375.665C258.364 375.025 259.734 375.025 260.844 375.665L267.174 379.325C268.134 379.875 268.134 381.265 267.174 381.815L261.114 385.305L245.884 394.715L255.894 400.495H255.904L270.114 392.295L282.144 385.345C280.734 382.895 278.684 380.815 276.154 379.355L270.264 375.955L270.104 375.865L261.304 370.785C257.944 368.845 253.814 368.845 250.454 370.785L241.654 375.865V384.405L250.044 379.805H250.064Z" fill="#F4F0A8"/>
<path d="M156.335 457.975H156.345L170.555 449.775H170.565L183.065 442.545C181.955 440.625 180.355 438.995 178.365 437.845L170.715 433.425L170.565 433.335V439.365L164.955 442.955L165.025 442.995L157.285 447.465C155.715 448.375 153.775 448.375 152.195 447.465L145.945 443.855C145.285 443.475 145.285 442.515 145.945 442.125L153.315 437.875L156.335 436.055V427.545L154.795 426.005L142.105 433.335L136.515 436.565C133.845 438.105 131.685 440.305 130.195 442.885L142.105 449.765L156.325 457.975H156.335Z" fill="#F4F0A8"/>
<path d="M156.344 436.075L153.324 437.895L154.754 437.075L164.964 442.975L170.574 439.385V416.935V404.135C170.574 403.855 170.594 403.575 170.634 403.305C170.894 401.395 172.014 399.685 173.714 398.705L184.804 392.305L199.024 384.095L199.034 384.085L213.244 375.885L213.254 375.875L224.364 369.465C224.884 369.165 225.444 369.115 225.954 369.265C226.124 369.315 226.284 369.385 226.434 369.465C227.034 369.815 227.464 370.465 227.464 371.255V384.085L241.684 392.295L245.894 394.725L261.124 385.315L259.054 386.505L248.764 380.565L250.074 379.805L241.684 384.405V366.605C241.684 362.725 239.874 359.105 236.854 356.785C236.424 356.455 235.964 356.145 235.484 355.865L234.324 355.195C230.144 352.785 225.024 352.755 220.814 355.085C220.744 355.125 220.674 355.155 220.614 355.195L213.244 359.445L199.034 367.655H199.024L184.804 375.865L170.584 384.075L163.194 388.355C161.604 389.275 160.254 390.475 159.174 391.885C157.374 394.235 156.364 397.135 156.364 400.195V408.715V425.145L154.834 426.025L156.374 427.565V436.075H156.344Z" fill="#A07F57"/>
<path d="M154.756 437.075L153.326 437.895L145.956 442.145C145.296 442.525 145.296 443.485 145.956 443.875L152.206 447.485C153.776 448.395 155.716 448.395 157.296 447.485L165.036 443.015L164.966 442.975L154.756 437.075Z" fill="#77552C"/>
<path d="M267.176 379.326L260.846 375.666C259.736 375.026 258.366 375.026 257.256 375.666L250.066 379.806L248.756 380.566L259.046 386.506L261.116 385.316L267.176 381.826C268.136 381.276 268.136 379.886 267.176 379.336V379.326Z" fill="#77552C"/>
<path d="M270.865 398.465L270.875 398.455H270.865V398.465Z" fill="#5FF25F"/>
<path d="M242.426 414.886H242.436L242.426 414.876V414.886Z" fill="#5FF25F"/>
<path d="M199.756 439.516H199.766L199.756 439.506V439.516Z" fill="#5FF25F"/>
<path d="M185.535 431.306H185.545L185.535 431.296V431.306Z" fill="#5FF25F"/>
<path d="M213.985 447.715V427.445C209.675 427.445 205.355 426.335 201.485 424.095L199.755 423.095L185.535 414.885L171.315 406.675L157.095 398.465L157.085 398.455L142.865 390.245L128.645 382.035V299.925V283.505V267.085V199.155C126.155 199.155 123.665 198.515 121.435 197.225L114.425 193.175L102.995 186.575C101.195 189.695 100.205 193.275 100.205 196.995V201.385V217.805V267.075V283.495V299.915V349.185V365.605V386.045C100.205 393.725 104.305 400.815 110.945 404.655L114.425 406.665L128.645 414.875L142.865 423.085H142.875L157.095 431.295L165.755 436.305L171.315 439.515L185.535 447.725H185.545L194.195 452.725L199.755 455.935L204.445 458.645C207.395 460.345 210.685 461.195 213.985 461.195V447.725V447.715Z" fill="#A07F57"/>
<path d="M157.094 365.605L171.304 357.395H171.314L185.534 349.185L199.754 340.975L213.974 332.765H213.984L228.194 324.555H228.204L242.424 316.345L256.634 308.135H256.644L270.864 299.925L285.084 291.705H285.094V275.295V242.445V209.605V160.335V143.915V111.065H285.084L270.874 119.275H270.864L256.644 127.485L242.424 135.695L228.204 143.905L213.984 152.115L199.754 160.335L185.534 168.545L171.314 176.755L157.094 184.965H157.084L142.864 193.175L135.854 197.225C134.184 198.195 132.364 198.795 130.514 199.035C129.894 199.115 129.274 199.155 128.654 199.155V267.075V283.495V299.915V382.035L142.874 373.825L157.094 365.605ZM213.984 316.345L199.754 324.555L185.534 332.765L171.314 340.975L157.094 349.185L157.084 349.195L142.874 357.395H142.864V357.285L157.034 349.105L171.394 340.815L185.764 332.525L200.124 324.225L214.484 315.935L228.854 307.645V307.765L228.204 308.135L213.984 316.345ZM142.864 209.595H142.874L143.744 209.095L157.084 201.395H157.094L171.314 193.175L185.534 184.965L186.414 184.455L199.754 176.755L213.984 168.545L228.204 160.335L229.084 159.825L242.424 152.125L242.434 152.115L256.644 143.915L270.864 135.705V135.805L256.684 143.995L242.334 152.275H242.324L228.854 160.065L227.964 160.575L213.604 168.865L199.234 177.155L185.764 184.935L184.874 185.445L170.514 193.735L156.154 202.025L156.144 202.035L142.864 209.705V209.605V209.595Z" fill="#77552C"/>
<path d="M366.766 157.056C365.966 156.896 365.166 156.686 364.386 156.426C363.996 156.296 363.606 156.146 363.226 155.986C362.456 155.666 361.706 155.296 360.976 154.876L356.206 152.116H356.196L341.986 143.906L313.536 127.476L299.316 119.266L285.096 111.056V143.896V160.316V209.586V242.426V275.276V291.696L299.316 299.906L313.536 308.126L317.826 310.606V195.756V146.486H317.836L317.826 146.476V130.056L332.056 138.276V187.536V318.816L341.986 324.546L356.206 332.756L370.426 340.966V291.706V275.286V242.436V226.016V209.596V176.746V157.406C370.016 157.406 369.606 157.396 369.206 157.366C368.396 157.316 367.576 157.206 366.776 157.046L366.766 157.056ZM299.316 283.506H299.306L299.316 283.496V283.506ZM341.986 258.876H341.976L341.986 258.856V258.876Z" fill="#A07F57"/>
<path d="M384.644 152.115L379.874 154.885C376.954 156.575 373.684 157.415 370.424 157.415V176.745V209.595V226.015V242.435V275.285V291.705V340.975L356.204 349.195L341.984 357.405L327.764 365.615H327.754L313.544 373.825H313.534L299.314 382.035L285.094 390.245L270.874 398.455H270.864L256.644 406.675L242.434 414.885H242.424L228.204 423.095L226.474 424.095C222.604 426.325 218.294 427.445 213.984 427.445V447.715V461.195C217.274 461.195 220.574 460.345 223.524 458.635L228.194 455.935H228.204L242.424 447.715L256.644 439.505L270.864 431.295H270.874L285.084 423.085H285.094L299.314 414.865L304.864 411.655L313.534 406.645L327.754 398.435L333.304 395.235L341.984 390.225L356.204 382.015L370.424 373.805L384.644 365.595L387.184 364.135L391.324 361.735C395.994 359.035 398.864 354.055 398.864 348.665V324.545V308.115V275.275V242.425V226.005V209.585V193.155V160.315V152.915C398.864 150.125 398.114 147.435 396.764 145.105L384.644 152.095V152.115Z" fill="#77552C"/>
<path d="M156.336 168.806L156.346 168.796H156.336V168.806Z" fill="#C6A76F"/>
<path d="M121.434 197.225C123.664 198.515 126.154 199.155 128.644 199.155C129.264 199.155 129.884 199.115 130.504 199.035C132.354 198.795 134.174 198.195 135.844 197.225L142.854 193.175L157.074 184.965H157.084L171.304 176.755L185.524 168.545L199.744 160.335L213.974 152.115L228.194 143.905L242.414 135.705L256.634 127.485L270.854 119.275H270.864L285.074 111.065H285.084L299.304 119.275L313.524 127.485L327.744 135.695L341.974 143.915L356.184 152.125H356.194L360.964 154.885C361.694 155.305 362.444 155.675 363.214 155.995C363.594 156.155 363.984 156.295 364.374 156.435C365.154 156.695 365.954 156.905 366.754 157.065C367.554 157.225 368.374 157.325 369.184 157.385C369.594 157.415 369.994 157.425 370.404 157.425C373.664 157.425 376.924 156.585 379.854 154.895L384.624 152.135L396.744 145.135C395.394 142.805 393.434 140.825 391.014 139.435L386.404 136.785L384.634 135.705H384.624L370.414 127.495H370.404L356.184 119.285L341.964 111.075L327.744 102.865H327.734L313.524 94.6454H313.514L299.294 86.4354L292.004 82.2254C287.714 79.7454 282.434 79.7554 278.144 82.2254L275.114 83.9754L270.264 86.7754L276.154 90.1754C278.684 91.6354 280.734 93.7154 282.144 96.1654C283.554 98.6054 284.334 101.415 284.334 104.335V111.325L270.114 119.525L260.544 125.055C257.664 126.715 254.114 126.715 251.244 125.055L241.674 119.535L229.914 112.745C229.194 112.335 228.614 111.745 228.194 111.065L170.714 144.245L178.364 148.665C180.354 149.815 181.954 151.445 183.064 153.365C184.174 155.285 184.784 157.495 184.784 159.785V168.795H184.774L170.564 177.005H170.554L156.334 185.225L142.114 177.015L128.034 168.885L114.414 176.745H114.404L110.614 178.935C107.394 180.795 104.784 183.445 102.984 186.565L114.414 193.165L121.424 197.215L121.434 197.225Z" fill="#C6A76F"/>
<path d="M327.754 316.355L327.764 316.345L332.054 318.825V220.385V203.965V187.555V187.545V171.125V154.695V138.285L317.824 130.065V146.485H317.834L317.824 146.495V162.915V179.335V195.755V195.765V310.615L327.754 316.345V316.355Z" fill="#77552C"/>
<path d="M341.985 324.555L332.055 318.825L327.765 316.345H327.755L317.825 310.615L313.535 308.135L299.315 299.925L285.095 291.715L285.085 291.705L270.865 299.925L256.645 308.135H256.635L242.425 316.345L228.205 324.555H228.195L213.985 332.765H213.975L199.755 340.975L185.535 349.185L171.315 357.395H171.305L157.095 365.605H157.085L142.865 373.825L128.645 382.035L142.865 390.245L157.085 398.455H157.095L171.315 406.675L185.535 414.875L199.755 423.095L201.485 424.095C205.355 426.325 209.665 427.445 213.985 427.445C218.295 427.445 222.615 426.325 226.475 424.095L228.205 423.095L242.425 414.885H242.435L256.645 406.675L270.865 398.465L270.875 398.455L285.095 390.245L299.315 382.035L313.535 373.825H313.545L327.755 365.615H327.765L341.985 357.405L356.205 349.195L370.425 340.985L356.205 332.765L341.985 324.555Z" fill="#C6A76F"/>
<path d="M255.905 111.316H255.895L245.885 105.536L241.675 103.106L227.455 94.8955V108.486C227.455 109.416 227.725 110.306 228.195 111.066C228.615 111.746 229.195 112.326 229.915 112.746L241.675 119.536L251.245 125.056C254.125 126.716 257.675 126.716 260.545 125.056L270.115 119.536L284.335 111.326V104.336C284.335 101.416 283.555 98.6155 282.145 96.1655L270.115 103.116L255.905 111.316Z" fill="#E2B042"/>
<path d="M156.335 185.225L170.555 177.005H170.565L184.775 168.795H184.785V159.785C184.785 157.495 184.175 155.285 183.065 153.365L170.565 160.585L170.555 160.595L156.345 168.795H156.335L142.115 160.585L130.205 153.705C128.715 156.285 127.895 159.255 127.895 162.335V168.795L128.035 168.885L142.115 177.015L156.335 185.225Z" fill="#E2B042"/>
<path d="M250.064 90.6254L257.254 86.4854C258.364 85.8454 259.734 85.8454 260.844 86.4854L267.174 90.1454C268.134 90.6954 268.134 92.0854 267.174 92.6354L261.114 96.1254L245.884 105.535L255.894 111.315H255.904L270.114 103.115L282.144 96.1654C280.734 93.7154 278.684 91.6354 276.154 90.1754L270.264 86.7754L270.104 86.6854L261.304 81.6054C257.944 79.6654 253.814 79.6654 250.454 81.6054L241.654 86.6854V95.2254L250.044 90.6254H250.064Z" fill="#F4F0A8"/>
<path d="M156.335 168.795H156.345L170.555 160.595H170.565L183.065 153.365C181.955 151.445 180.355 149.815 178.365 148.665L170.715 144.245L170.565 144.155V150.185L164.955 153.775L165.025 153.815L157.285 158.285C155.715 159.195 153.775 159.195 152.195 158.285L145.945 154.675C145.285 154.295 145.285 153.335 145.945 152.945L153.315 148.695L156.335 146.875V138.365L154.795 136.825L142.105 144.155L136.515 147.385C133.845 148.925 131.685 151.125 130.195 153.705L142.105 160.585L156.325 168.795H156.335Z" fill="#F4F0A8"/>
<path d="M156.344 146.896L153.324 148.716L154.754 147.896L164.964 153.796L170.574 150.205V127.756V114.956C170.574 114.676 170.594 114.396 170.634 114.126C170.894 112.216 172.014 110.506 173.714 109.526L184.804 103.126L199.024 94.9155L199.034 94.9055L213.244 86.7055L213.254 86.6955L224.364 80.2855C224.884 79.9855 225.444 79.9355 225.954 80.0855C226.124 80.1355 226.284 80.2055 226.434 80.2855C227.034 80.6355 227.464 81.2855 227.464 82.0755V94.9055L241.684 103.116L245.894 105.546L261.124 96.1355L259.054 97.3255L248.764 91.3855L250.074 90.6255L241.684 95.2255V77.4255C241.684 73.5455 239.874 69.9255 236.854 67.6055C236.424 67.2755 235.964 66.9655 235.484 66.6855L234.324 66.0155C230.144 63.6055 225.024 63.5755 220.814 65.9055C220.744 65.9455 220.674 65.9755 220.614 66.0155L213.244 70.2655L199.034 78.4755H199.024L184.804 86.6855L170.584 94.8955L163.194 99.1755C161.604 100.096 160.254 101.296 159.174 102.706C157.374 105.056 156.364 107.956 156.364 111.016V119.536V135.966L154.834 136.845L156.374 138.386V146.896H156.344Z" fill="#A07F57"/>
<path d="M154.756 147.896L153.326 148.716L145.956 152.966C145.296 153.346 145.296 154.306 145.956 154.696L152.206 158.306C153.776 159.216 155.716 159.216 157.296 158.306L165.036 153.836L164.966 153.796L154.756 147.896Z" fill="#77552C"/>
<path d="M267.176 90.1459L260.846 86.4859C259.736 85.8459 258.366 85.8459 257.256 86.4859L250.066 90.6259L248.756 91.3859L259.046 97.3259L261.116 96.1359L267.176 92.6459C268.136 92.0959 268.136 90.7059 267.176 90.1559V90.1459Z" fill="#77552C"/>
</g>
<defs>
<clipPath id="clip0_2587_31204">
<rect width="800" height="800" fill="white" transform="translate(0.554688 0.555664)"/>
</clipPath>
</defs>
</svg>
