<?xml version="1.0" encoding="UTF-8"?>
<svg id="_레이어_1" data-name="레이어 1" xmlns="http://www.w3.org/2000/svg" xmlns:xlink="http://www.w3.org/1999/xlink" viewBox="0 0 800 800">
  <defs>
    <clipPath id="clippath">
      <polygon points="332 756.32 650.62 571.61 515.89 467 195.3 664.74 190.99 683.95 332 756.32" style="fill: none;"/>
    </clipPath>
    <clipPath id="clippath-1">
      <path d="M289.68,141.1h0c-2.42,1.39-5.4,1.39-7.82,0l-10.3-5.94v32.83h0v32.84l14.21-8.2h.01s14.22-8.21,14.22-8.21v-16.42h0v-16.42h0v-16.43l-10.32,5.96Z" style="fill: none;"/>
    </clipPath>
    <clipPath id="clippath-2">
      <path d="M385.33,36.61l-4.31-2.49c-6.14-3.54-13.69-3.54-19.83,0l-4.31,2.49-14.22,8.21-14.22,8.21h-.01l-14.22,8.21-14.21,8.21h-.01l-14.22,8.21-14.22,8.21h0s-7.65,4.42-7.65,4.42h0c-4.07,2.35-6.58,6.69-6.58,11.39v2.57c0,2.54,1.01,4.97,2.8,6.76l2.61,2.61c5.64,5.64,8.81,13.3,8.81,21.28v.23h0s10.3,5.95,10.3,5.95c2.42,1.4,5.4,1.4,7.82,0h0s10.32-5.96,10.32-5.96v-16.42h0v-16.42l14.22-8.21h0s14.22-8.21,14.22-8.21h0s.01-.01.01-.01l14.22-8.21,14.22-8.21,8.4-4.85c2.59-1.49,5.82.37,5.82,3.36v9.7h.01l6.87,3.97c4.54,2.62,10.13,2.62,14.67,0l6.89-3.98v-16.41h0v-11.72c0-2.91-1.55-5.6-4.08-7.06l-10.15-5.86Z" style="fill: none;"/>
    </clipPath>
    <linearGradient id="_무제_그라디언트_16" data-name="무제 그라디언트 16" x1="288.63" y1="723.64" x2="349.75" y2="723.64" gradientUnits="userSpaceOnUse">
      <stop offset="0" stop-color="#53576b"/>
      <stop offset="1" stop-color="#777d99"/>
    </linearGradient>
    <linearGradient id="_무제_그라디언트_16-2" data-name="무제 그라디언트 16" x1="600.58" y1="541.92" x2="661.7" y2="541.92" xlink:href="#_무제_그라디언트_16"/>
    <linearGradient id="_무제_그라디언트_16-3" data-name="무제 그라디언트 16" x1="182.88" y1="679.6" x2="213.01" y2="629.83" xlink:href="#_무제_그라디언트_16"/>
    <pattern id="_새_패턴_견본_1" data-name="새 패턴 견본 1" x="0" y="0" width="41.3" height="41.3" patternTransform="translate(-2902.14 -2217.78) scale(.61)" patternUnits="userSpaceOnUse" viewBox="0 0 41.3 41.3">
      <g>
        <rect y="0" width="41.3" height="41.3" style="fill: none;"/>
        <rect x="0" y="0" width="41.3" height="41.3" style="fill: #dfe9ed;"/>
      </g>
    </pattern>
    <pattern id="_새_패턴_견본_1-2" data-name="새 패턴 견본 1" patternTransform="translate(-2877.83 -2224.74) scale(.61)" xlink:href="#_새_패턴_견본_1"/>
    <clipPath id="clippath-3">
      <path d="M271.56,250.1h-.01l-14.22-8.21-14.22-8.21-14.22,8.21-14.22,8.21h-.01l-14.22,8.21h0c-8.8,5.08-14.22,14.47-14.22,24.63h0v16.42h0v16.42h0v114.96h0v32.84h0v32.85h0v16.42h0v32.85h0v16.42h0v16.42h0v16.43h.01l14.21,8.21,14.23,8.21,14.22,8.21v-32.84h0v-49.26h0v-164.23h-.01s.01,0,.01,0v-49.26h0v-32.85l14.22-8.2h0s14.22-8.22,14.22-8.22l14.23-8.21,18.66-10.85-18.66-5.57ZM200.44,488.23h0s.01-.01.01-.01h-.01ZM200.44,373.27h0s.01,0,.01,0h-.01Z" style="fill: none;"/>
    </clipPath>
    <clipPath id="clippath-4">
      <path d="M655.56,168.96c0-5.68-3.03-10.93-7.95-13.77l-6.28-3.63-14.22-8.21h-.01l-14.21-8.2h0s-14.22-8.21-14.22-8.21h0s-.01-.01-.01-.01l-14.22-8.21-14.22-8.21-14.22-8.21-14.22-8.21h-.01l-14.21-8.21h-.01c-8.8-5.08-19.65-5.09-28.45,0l-14.21,8.2h0s-14.22,8.21-14.22,8.21h0s-.01.01-.01.01l-14.21,8.21,14.22,8.21,7.22,12.25,7,12.38,14.22-8.21h0c8.8-5.08,19.64-5.08,28.44,0h0s.01,0,.01,0h0s14.21,8.21,14.21,8.21h.01s14.21,8.21,14.21,8.21h.01s14.22,8.22,14.22,8.22l14.22,8.2h0s14.22,8.22,14.22,8.22h.01l14.22,8.21v16.42h0v49.26h0v32.85h0v16.42h.01-.01v16.42h0v32.85h0v82.11h0v32.84h0v49.27l14.21-8.2h.01s14.22-8.22,14.22-8.22l14.22-8.21h.01v-16.41h0v-16.43h0v-16.42h0v-16.42h0v-32.85h-.01s.01-.01.01-.01v-16.41h0v-16.42h-.01s.01-.01.01-.01v-49.26h0v-16.42h0v-49.27h-.01s.01-.01.01-.01v-16.41h0v-16.42h-.01s.01-.01.01-.01v-32.84s0-3.48,0-7.24ZM513.33,94.09h0s.01-.01.01-.01h-.01ZM598.67,159.78h-.01s.01-.01.01-.01h0ZM641.33,315.79h0s.01-.01.01-.01h-.01ZM641.33,282.95h0s.01-.01.01-.01h-.01ZM641.33,167.99h0s.01-.01.01-.01h-.01Z" style="fill: none;"/>
    </clipPath>
    <clipPath id="clippath-5">
      <path id="_손잡이_클리핑패스" data-name="손잡이 클리핑패스" d="M470.67,118.72l-14.22-8.21h-.01s0-.01,0-.01c-8.8-5.08-19.64-5.08-28.44,0h0s-14.22,8.21-14.22,8.21h0s-.01.01-.01.01l-3.32-1.92c-6.74-3.89-15.05-3.9-21.79,0l-3.32,1.92h-.01l-14.22,8.21-14.22,8.21-14.22,8.21-14.22,8.21h-.01s-.03.03-.03.03c-8.78,5.08-14.19,14.46-14.19,24.6h0v16.43l-7.65-4.42c-4.07-2.35-9.08-2.35-13.15,0l-7.65,4.41h0s-.01.01-.01.01l-14.21,8.2v.02h-.01s-14.22,8.2-14.22,8.2h0c-8.8,5.08-14.22,14.47-14.22,24.63h0s0,.01,0,.02l14.21,8.2,14.22,8.21h.01l10.66,6.16c2.2,1.27,4.9,1.27,7.1,0l8.25-4.76,2.43-1.4,14.22-8.21h0s14.22-8.21,14.22-8.21l14.23-8.21h0v-6.77c0-5.98-3.19-11.5-8.37-14.49l-5.85-3.38h-.01v-16.42h0v-.05c0-10.15,5.42-19.53,14.22-24.59h0s.01,0,.01,0l14.22-8.21,14.22-8.21,14.22-8.21v11.88c0,2.81,1.5,5.41,3.93,6.81l10.3,5.95,14.21,8.21h.01l8.41,4.85c3.6,2.08,8.03,2.08,11.62,0l8.41-4.85h0s14.22-8.21,14.22-8.21h0s.01-.01.01-.01l14.22-8.21,14.22-8.21h0c0-10.16-5.42-19.55-14.22-24.63h0Z" style="fill: none;"/>
    </clipPath>
  </defs>
  <g style="clip-path: url(#clippath);">
    <g>
      <rect x="619.44" y="454.26" width="41.3" height="41.3" style="fill: none;"/>
      <rect x="619.44" y="454.26" width="41.3" height="41.3" style="fill: #dfe9ed;"/>
    </g>
    <g>
      <rect x="619.44" y="495.56" width="41.3" height="41.3" style="fill: none;"/>
      <rect x="619.44" y="495.56" width="41.3" height="41.3" style="fill: #dfe9ed;"/>
    </g>
    <g>
      <rect x="619.44" y="536.85" width="41.3" height="41.3" style="fill: none;"/>
      <rect x="619.44" y="536.85" width="41.3" height="41.3" style="fill: #dfe9ed;"/>
    </g>
    <g>
      <rect x="619.44" y="578.15" width="41.3" height="41.3" style="fill: none;"/>
      <rect x="619.44" y="578.15" width="41.3" height="41.3" style="fill: #dfe9ed;"/>
    </g>
    <g>
      <rect x="619.44" y="619.44" width="41.3" height="41.3" style="fill: none;"/>
      <rect x="619.44" y="619.44" width="41.3" height="41.3" style="fill: #dfe9ed;"/>
    </g>
    <g>
      <rect x="619.44" y="660.74" width="41.3" height="41.3" style="fill: none;"/>
      <rect x="619.44" y="660.74" width="41.3" height="41.3" style="fill: #dfe9ed;"/>
    </g>
    <g>
      <rect x="619.44" y="702.04" width="41.3" height="41.3" style="fill: none;"/>
      <rect x="619.44" y="702.04" width="41.3" height="41.3" style="fill: #dfe9ed;"/>
    </g>
    <g>
      <rect x="619.44" y="743.33" width="41.3" height="41.3" style="fill: none;"/>
      <rect x="619.44" y="743.33" width="41.3" height="41.3" style="fill: #dfe9ed;"/>
    </g>
    <g>
      <rect x="578.15" y="454.26" width="41.3" height="41.3" style="fill: none;"/>
      <rect x="578.15" y="454.26" width="41.3" height="41.3" style="fill: #dfe9ed;"/>
    </g>
    <g>
      <rect x="578.15" y="495.56" width="41.3" height="41.3" style="fill: none;"/>
      <rect x="578.15" y="495.56" width="41.3" height="41.3" style="fill: #dfe9ed;"/>
    </g>
    <g>
      <rect x="578.15" y="536.85" width="41.3" height="41.3" style="fill: none;"/>
      <rect x="578.15" y="536.85" width="41.3" height="41.3" style="fill: #dfe9ed;"/>
    </g>
    <g>
      <rect x="578.15" y="578.15" width="41.3" height="41.3" style="fill: none;"/>
      <rect x="578.15" y="578.15" width="41.3" height="41.3" style="fill: #dfe9ed;"/>
    </g>
    <g>
      <rect x="578.15" y="619.44" width="41.3" height="41.3" style="fill: none;"/>
      <rect x="578.15" y="619.44" width="41.3" height="41.3" style="fill: #dfe9ed;"/>
    </g>
    <g>
      <rect x="578.15" y="660.74" width="41.3" height="41.3" style="fill: none;"/>
      <rect x="578.15" y="660.74" width="41.3" height="41.3" style="fill: #dfe9ed;"/>
    </g>
    <g>
      <rect x="578.15" y="702.04" width="41.3" height="41.3" style="fill: none;"/>
      <rect x="578.15" y="702.04" width="41.3" height="41.3" style="fill: #dfe9ed;"/>
    </g>
    <g>
      <rect x="578.15" y="743.33" width="41.3" height="41.3" style="fill: none;"/>
      <rect x="578.15" y="743.33" width="41.3" height="41.3" style="fill: #dfe9ed;"/>
    </g>
    <g>
      <rect x="536.85" y="454.26" width="41.3" height="41.3" style="fill: none;"/>
      <rect x="536.85" y="454.26" width="41.3" height="41.3" style="fill: #dfe9ed;"/>
    </g>
    <g>
      <rect x="536.85" y="495.56" width="41.3" height="41.3" style="fill: none;"/>
      <rect x="536.85" y="495.56" width="41.3" height="41.3" style="fill: #dfe9ed;"/>
    </g>
    <g>
      <rect x="536.85" y="536.85" width="41.3" height="41.3" style="fill: none;"/>
      <rect x="536.85" y="536.85" width="41.3" height="41.3" style="fill: #dfe9ed;"/>
    </g>
    <g>
      <rect x="536.85" y="578.15" width="41.3" height="41.3" style="fill: none;"/>
      <rect x="536.85" y="578.15" width="41.3" height="41.3" style="fill: #dfe9ed;"/>
    </g>
    <g>
      <rect x="536.85" y="619.44" width="41.3" height="41.3" style="fill: none;"/>
      <rect x="536.85" y="619.44" width="41.3" height="41.3" style="fill: #dfe9ed;"/>
    </g>
    <g>
      <rect x="536.85" y="660.74" width="41.3" height="41.3" style="fill: none;"/>
      <rect x="536.85" y="660.74" width="41.3" height="41.3" style="fill: #dfe9ed;"/>
    </g>
    <g>
      <rect x="536.85" y="702.04" width="41.3" height="41.3" style="fill: none;"/>
      <rect x="536.85" y="702.04" width="41.3" height="41.3" style="fill: #dfe9ed;"/>
    </g>
    <g>
      <rect x="536.85" y="743.33" width="41.3" height="41.3" style="fill: none;"/>
      <rect x="536.85" y="743.33" width="41.3" height="41.3" style="fill: #dfe9ed;"/>
    </g>
    <g>
      <rect x="495.56" y="454.26" width="41.3" height="41.3" style="fill: none;"/>
      <rect x="495.56" y="454.26" width="41.3" height="41.3" style="fill: #dfe9ed;"/>
    </g>
    <g>
      <rect x="495.56" y="495.56" width="41.3" height="41.3" style="fill: none;"/>
      <rect x="495.56" y="495.56" width="41.3" height="41.3" style="fill: #dfe9ed;"/>
    </g>
    <g>
      <rect x="495.56" y="536.85" width="41.3" height="41.3" style="fill: none;"/>
      <rect x="495.56" y="536.85" width="41.3" height="41.3" style="fill: #dfe9ed;"/>
    </g>
    <g>
      <rect x="495.56" y="578.15" width="41.3" height="41.3" style="fill: none;"/>
      <rect x="495.56" y="578.15" width="41.3" height="41.3" style="fill: #dfe9ed;"/>
    </g>
    <g>
      <rect x="495.56" y="619.44" width="41.3" height="41.3" style="fill: none;"/>
      <rect x="495.56" y="619.44" width="41.3" height="41.3" style="fill: #dfe9ed;"/>
    </g>
    <g>
      <rect x="495.56" y="660.74" width="41.3" height="41.3" style="fill: none;"/>
      <rect x="495.56" y="660.74" width="41.3" height="41.3" style="fill: #dfe9ed;"/>
    </g>
    <g>
      <rect x="495.56" y="702.04" width="41.3" height="41.3" style="fill: none;"/>
      <rect x="495.56" y="702.04" width="41.3" height="41.3" style="fill: #dfe9ed;"/>
    </g>
    <g>
      <rect x="495.56" y="743.33" width="41.3" height="41.3" style="fill: none;"/>
      <rect x="495.56" y="743.33" width="41.3" height="41.3" style="fill: #dfe9ed;"/>
    </g>
    <g>
      <rect x="454.26" y="454.26" width="41.3" height="41.3" style="fill: none;"/>
      <rect x="454.26" y="454.26" width="41.3" height="41.3" style="fill: #dfe9ed;"/>
    </g>
    <g>
      <rect x="454.26" y="495.56" width="41.3" height="41.3" style="fill: none;"/>
      <rect x="454.26" y="495.56" width="41.3" height="41.3" style="fill: #dfe9ed;"/>
    </g>
    <g>
      <rect x="454.26" y="536.85" width="41.3" height="41.3" style="fill: none;"/>
      <rect x="454.26" y="536.85" width="41.3" height="41.3" style="fill: #dfe9ed;"/>
    </g>
    <g>
      <rect x="454.26" y="578.15" width="41.3" height="41.3" style="fill: none;"/>
      <rect x="454.26" y="578.15" width="41.3" height="41.3" style="fill: #dfe9ed;"/>
    </g>
    <g>
      <rect x="454.26" y="619.44" width="41.3" height="41.3" style="fill: none;"/>
      <rect x="454.26" y="619.44" width="41.3" height="41.3" style="fill: #dfe9ed;"/>
    </g>
    <g>
      <rect x="454.26" y="660.74" width="41.3" height="41.3" style="fill: none;"/>
      <rect x="454.26" y="660.74" width="41.3" height="41.3" style="fill: #dfe9ed;"/>
    </g>
    <g>
      <rect x="454.26" y="702.04" width="41.3" height="41.3" style="fill: none;"/>
      <rect x="454.26" y="702.04" width="41.3" height="41.3" style="fill: #dfe9ed;"/>
    </g>
    <g>
      <rect x="454.26" y="743.33" width="41.3" height="41.3" style="fill: none;"/>
      <rect x="454.26" y="743.33" width="41.3" height="41.3" style="fill: #dfe9ed;"/>
    </g>
    <g>
      <rect x="412.96" y="454.26" width="41.3" height="41.3" style="fill: none;"/>
      <rect x="412.96" y="454.26" width="41.3" height="41.3" style="fill: #dfe9ed;"/>
    </g>
    <g>
      <rect x="412.96" y="495.56" width="41.3" height="41.3" style="fill: none;"/>
      <rect x="412.96" y="495.56" width="41.3" height="41.3" style="fill: #dfe9ed;"/>
    </g>
    <g>
      <rect x="412.96" y="536.85" width="41.3" height="41.3" style="fill: none;"/>
      <rect x="412.96" y="536.85" width="41.3" height="41.3" style="fill: #dfe9ed;"/>
    </g>
    <g>
      <rect x="412.96" y="578.15" width="41.3" height="41.3" style="fill: none;"/>
      <rect x="412.96" y="578.15" width="41.3" height="41.3" style="fill: #dfe9ed;"/>
    </g>
    <g>
      <rect x="412.96" y="619.44" width="41.3" height="41.3" style="fill: none;"/>
      <rect x="412.96" y="619.44" width="41.3" height="41.3" style="fill: #dfe9ed;"/>
    </g>
    <g>
      <rect x="412.96" y="660.74" width="41.3" height="41.3" style="fill: none;"/>
      <rect x="412.96" y="660.74" width="41.3" height="41.3" style="fill: #dfe9ed;"/>
    </g>
    <g>
      <rect x="412.96" y="702.04" width="41.3" height="41.3" style="fill: none;"/>
      <rect x="412.96" y="702.04" width="41.3" height="41.3" style="fill: #dfe9ed;"/>
    </g>
    <g>
      <rect x="412.96" y="743.33" width="41.3" height="41.3" style="fill: none;"/>
      <rect x="412.96" y="743.33" width="41.3" height="41.3" style="fill: #dfe9ed;"/>
    </g>
    <g>
      <rect x="371.67" y="454.26" width="41.3" height="41.3" style="fill: none;"/>
      <rect x="371.67" y="454.26" width="41.3" height="41.3" style="fill: #dfe9ed;"/>
    </g>
    <g>
      <rect x="371.67" y="495.56" width="41.3" height="41.3" style="fill: none;"/>
      <rect x="371.67" y="495.56" width="41.3" height="41.3" style="fill: #dfe9ed;"/>
    </g>
    <g>
      <rect x="371.67" y="536.85" width="41.3" height="41.3" style="fill: none;"/>
      <rect x="371.67" y="536.85" width="41.3" height="41.3" style="fill: #dfe9ed;"/>
    </g>
    <g>
      <rect x="371.67" y="578.15" width="41.3" height="41.3" style="fill: none;"/>
      <rect x="371.67" y="578.15" width="41.3" height="41.3" style="fill: #dfe9ed;"/>
    </g>
    <g>
      <rect x="371.67" y="619.44" width="41.3" height="41.3" style="fill: none;"/>
      <rect x="371.67" y="619.44" width="41.3" height="41.3" style="fill: #dfe9ed;"/>
    </g>
    <g>
      <rect x="371.67" y="660.74" width="41.3" height="41.3" style="fill: none;"/>
      <rect x="371.67" y="660.74" width="41.3" height="41.3" style="fill: #dfe9ed;"/>
    </g>
    <g>
      <rect x="371.67" y="702.04" width="41.3" height="41.3" style="fill: none;"/>
      <rect x="371.67" y="702.04" width="41.3" height="41.3" style="fill: #dfe9ed;"/>
    </g>
    <g>
      <rect x="371.67" y="743.33" width="41.3" height="41.3" style="fill: none;"/>
      <rect x="371.67" y="743.33" width="41.3" height="41.3" style="fill: #dfe9ed;"/>
    </g>
    <g>
      <rect x="330.37" y="454.26" width="41.3" height="41.3" style="fill: none;"/>
      <rect x="330.37" y="454.26" width="41.3" height="41.3" style="fill: #dfe9ed;"/>
    </g>
    <g>
      <rect x="330.37" y="495.56" width="41.3" height="41.3" style="fill: none;"/>
      <rect x="330.37" y="495.56" width="41.3" height="41.3" style="fill: #dfe9ed;"/>
    </g>
    <g>
      <rect x="330.37" y="536.85" width="41.3" height="41.3" style="fill: none;"/>
      <rect x="330.37" y="536.85" width="41.3" height="41.3" style="fill: #dfe9ed;"/>
    </g>
    <g>
      <rect x="330.37" y="578.15" width="41.3" height="41.3" style="fill: none;"/>
      <rect x="330.37" y="578.15" width="41.3" height="41.3" style="fill: #dfe9ed;"/>
    </g>
    <g>
      <rect x="330.37" y="619.44" width="41.3" height="41.3" style="fill: none;"/>
      <rect x="330.37" y="619.44" width="41.3" height="41.3" style="fill: #dfe9ed;"/>
    </g>
    <g>
      <rect x="330.37" y="660.74" width="41.3" height="41.3" style="fill: none;"/>
      <rect x="330.37" y="660.74" width="41.3" height="41.3" style="fill: #dfe9ed;"/>
    </g>
    <g>
      <rect x="330.37" y="702.04" width="41.3" height="41.3" style="fill: none;"/>
      <rect x="330.37" y="702.04" width="41.3" height="41.3" style="fill: #dfe9ed;"/>
    </g>
    <g>
      <rect x="330.37" y="743.33" width="41.3" height="41.3" style="fill: none;"/>
      <rect x="330.37" y="743.33" width="41.3" height="41.3" style="fill: #dfe9ed;"/>
    </g>
    <g>
      <rect x="289.07" y="454.26" width="41.3" height="41.3" style="fill: none;"/>
      <rect x="289.07" y="454.26" width="41.3" height="41.3" style="fill: #dfe9ed;"/>
    </g>
    <g>
      <rect x="289.07" y="495.56" width="41.3" height="41.3" style="fill: none;"/>
      <rect x="289.07" y="495.56" width="41.3" height="41.3" style="fill: #dfe9ed;"/>
    </g>
    <g>
      <rect x="289.07" y="536.85" width="41.3" height="41.3" style="fill: none;"/>
      <rect x="289.07" y="536.85" width="41.3" height="41.3" style="fill: #dfe9ed;"/>
    </g>
    <g>
      <rect x="289.07" y="578.15" width="41.3" height="41.3" style="fill: none;"/>
      <rect x="289.07" y="578.15" width="41.3" height="41.3" style="fill: #dfe9ed;"/>
    </g>
    <g>
      <rect x="289.07" y="619.44" width="41.3" height="41.3" style="fill: none;"/>
      <rect x="289.07" y="619.44" width="41.3" height="41.3" style="fill: #dfe9ed;"/>
    </g>
    <g>
      <rect x="289.07" y="660.74" width="41.3" height="41.3" style="fill: none;"/>
      <rect x="289.07" y="660.74" width="41.3" height="41.3" style="fill: #dfe9ed;"/>
    </g>
    <g>
      <rect x="289.07" y="702.04" width="41.3" height="41.3" style="fill: none;"/>
      <rect x="289.07" y="702.04" width="41.3" height="41.3" style="fill: #dfe9ed;"/>
    </g>
    <g>
      <rect x="289.07" y="743.33" width="41.3" height="41.3" style="fill: none;"/>
      <rect x="289.07" y="743.33" width="41.3" height="41.3" style="fill: #dfe9ed;"/>
    </g>
    <g>
      <rect x="247.78" y="454.26" width="41.3" height="41.3" style="fill: none;"/>
      <rect x="247.78" y="454.26" width="41.3" height="41.3" style="fill: #dfe9ed;"/>
    </g>
    <g>
      <rect x="247.78" y="495.56" width="41.3" height="41.3" style="fill: none;"/>
      <rect x="247.78" y="495.56" width="41.3" height="41.3" style="fill: #dfe9ed;"/>
    </g>
    <g>
      <rect x="247.78" y="536.85" width="41.3" height="41.3" style="fill: none;"/>
      <rect x="247.78" y="536.85" width="41.3" height="41.3" style="fill: #dfe9ed;"/>
    </g>
    <g>
      <rect x="247.78" y="578.15" width="41.3" height="41.3" style="fill: none;"/>
      <rect x="247.78" y="578.15" width="41.3" height="41.3" style="fill: #dfe9ed;"/>
    </g>
    <g>
      <rect x="247.78" y="619.44" width="41.3" height="41.3" style="fill: none;"/>
      <rect x="247.78" y="619.44" width="41.3" height="41.3" style="fill: #dfe9ed;"/>
    </g>
    <g>
      <rect x="247.78" y="660.74" width="41.3" height="41.3" style="fill: none;"/>
      <rect x="247.78" y="660.74" width="41.3" height="41.3" style="fill: #dfe9ed;"/>
    </g>
    <g>
      <rect x="247.78" y="702.04" width="41.3" height="41.3" style="fill: none;"/>
      <rect x="247.78" y="702.04" width="41.3" height="41.3" style="fill: #dfe9ed;"/>
    </g>
    <g>
      <rect x="247.78" y="743.33" width="41.3" height="41.3" style="fill: none;"/>
      <rect x="247.78" y="743.33" width="41.3" height="41.3" style="fill: #dfe9ed;"/>
    </g>
    <g>
      <rect x="206.48" y="454.26" width="41.3" height="41.3" style="fill: none;"/>
      <rect x="206.48" y="454.26" width="41.3" height="41.3" style="fill: #dfe9ed;"/>
    </g>
    <g>
      <rect x="206.48" y="495.56" width="41.3" height="41.3" style="fill: none;"/>
      <rect x="206.48" y="495.56" width="41.3" height="41.3" style="fill: #dfe9ed;"/>
    </g>
    <g>
      <rect x="206.48" y="536.85" width="41.3" height="41.3" style="fill: none;"/>
      <rect x="206.48" y="536.85" width="41.3" height="41.3" style="fill: #dfe9ed;"/>
    </g>
    <g>
      <rect x="206.48" y="578.15" width="41.3" height="41.3" style="fill: none;"/>
      <rect x="206.48" y="578.15" width="41.3" height="41.3" style="fill: #dfe9ed;"/>
    </g>
    <g>
      <rect x="206.48" y="619.44" width="41.3" height="41.3" style="fill: none;"/>
      <rect x="206.48" y="619.44" width="41.3" height="41.3" style="fill: #dfe9ed;"/>
    </g>
    <g>
      <rect x="206.48" y="660.74" width="41.3" height="41.3" style="fill: none;"/>
      <rect x="206.48" y="660.74" width="41.3" height="41.3" style="fill: #dfe9ed;"/>
    </g>
    <g>
      <rect x="206.48" y="702.04" width="41.3" height="41.3" style="fill: none;"/>
      <rect x="206.48" y="702.04" width="41.3" height="41.3" style="fill: #dfe9ed;"/>
    </g>
    <g>
      <rect x="206.48" y="743.33" width="41.3" height="41.3" style="fill: none;"/>
      <rect x="206.48" y="743.33" width="41.3" height="41.3" style="fill: #dfe9ed;"/>
    </g>
    <g>
      <rect x="165.19" y="454.26" width="41.3" height="41.3" style="fill: none;"/>
      <rect x="165.19" y="454.26" width="41.3" height="41.3" style="fill: #dfe9ed;"/>
    </g>
    <g>
      <rect x="165.19" y="495.56" width="41.3" height="41.3" style="fill: none;"/>
      <rect x="165.19" y="495.56" width="41.3" height="41.3" style="fill: #dfe9ed;"/>
    </g>
    <g>
      <rect x="165.19" y="536.85" width="41.3" height="41.3" style="fill: none;"/>
      <rect x="165.19" y="536.85" width="41.3" height="41.3" style="fill: #dfe9ed;"/>
    </g>
    <g>
      <rect x="165.19" y="578.15" width="41.3" height="41.3" style="fill: none;"/>
      <rect x="165.19" y="578.15" width="41.3" height="41.3" style="fill: #dfe9ed;"/>
    </g>
    <g>
      <rect x="165.19" y="619.44" width="41.3" height="41.3" style="fill: none;"/>
      <rect x="165.19" y="619.44" width="41.3" height="41.3" style="fill: #dfe9ed;"/>
    </g>
    <g>
      <rect x="165.19" y="660.74" width="41.3" height="41.3" style="fill: none;"/>
      <rect x="165.19" y="660.74" width="41.3" height="41.3" style="fill: #dfe9ed;"/>
    </g>
    <g>
      <rect x="165.19" y="702.04" width="41.3" height="41.3" style="fill: none;"/>
      <rect x="165.19" y="702.04" width="41.3" height="41.3" style="fill: #dfe9ed;"/>
    </g>
    <g>
      <rect x="165.19" y="743.33" width="41.3" height="41.3" style="fill: none;"/>
      <rect x="165.19" y="743.33" width="41.3" height="41.3" style="fill: #dfe9ed;"/>
    </g>
  </g>
  <g>
    <polygon points="385.33 102.3 385.33 118.71 385.33 118.72 385.34 118.72 399.56 115.89 399.56 94.09 399.56 94.08 399.56 77.66 385.33 80.44 385.33 102.3" style="fill: #a5b1c4;"/>
    <polygon points="385.33 102.3 385.33 80.44 371.12 77.66 371.11 77.66 371.11 77.67 371.11 94.08 371.11 94.09 371.11 110.5 371.11 110.51 371.11 126.93 385.33 118.72 385.33 118.71 385.33 102.3" style="fill: #dfe9ed;"/>
    <polygon points="285.78 192.62 285.78 192.61 285.78 176.2 285.78 159.77 285.78 141.28 282.33 141.33 281.78 139.5 271.56 135.15 271.56 151.56 271.56 167.98 271.56 167.99 271.56 184.41 271.56 200.82 285.77 192.62 285.78 192.62" style="fill: #dfe9ed;"/>
    <g style="clip-path: url(#clippath-1);">
      <polygon points="371.11 110.5 371.11 94.09 371.11 94.08 371.11 77.67 371.11 77.66 371.11 61.24 356.89 69.45 342.67 77.66 328.45 85.87 328.44 85.87 328.44 85.88 314.22 94.08 314.22 94.09 300 102.3 300 118.71 300 118.72 300 135.14 300 151.56 300 151.57 300 167.98 300 167.99 300 184.41 314.22 192.62 314.22 176.2 314.22 176.19 314.22 159.78 328.44 151.57 328.44 151.56 328.45 151.56 342.67 143.35 356.89 135.14 371.11 126.93 371.11 110.51 371.11 110.5" style="fill: none;"/>
      <polygon points="300 167.98 300 151.57 300 151.56 300 135.14 285.78 139.78 285.78 143.36 285.78 159.77 285.78 176.2 285.78 192.61 300 184.41 300 167.99 300 167.98" style="fill: #a5b1c4;"/>
    </g>
    <g style="clip-path: url(#clippath-2);">
      <path d="M290.42,107.82c-2.87,1.66-6.41,1.66-9.28,0l-9.58-5.53-14.22-8.21h-.01v10.18c0,2.54,1.01,4.97,2.8,6.76l2.61,2.61c5.64,5.64,8.81,13.3,8.81,21.28v.23h0s14.21,8.21,14.21,8.21h.01l14.22-8.21v-16.42h0v-16.42l-9.58,5.52Z" style="fill: #353644;"/>
      <path d="M380.67,50.34l-9.56-5.52-14.22,8.21-14.22,8.21-14.23,8.21-14.21,8.21h-.01l-14.22,8.21-9.58,5.53c-2.07,1.19-2.07,4.17-.01,5.38h0s9.59,5.52,9.59,5.52l14.22-8.21h0s14.22-8.21,14.22-8.21h0s.01-.01.01-.01l14.22-8.21,14.22-8.21,8.4-4.85c2.59-1.49,5.82.37,5.82,3.36v9.7h.01l14.21,8.21,14.23-8.21v-16.41h0v-16.43l-9.57,5.52c-2.89,1.67-6.44,1.66-9.33,0Z" style="fill: #353644;"/>
      <path d="M290.57,107.74l9.43-5.44-7.14-4.11-2.07-1.2c-2.23-1.3-2.23-4.52,0-5.81l9.2-5.31,14.22-8.21h.01l14.21-8.21,14.23-8.21,14.22-8.21,8.85-5.11c3.32-1.92,7.42-1.92,10.74,0l4.7,2.71c2.57,1.48,5.73,1.48,8.3,0l10.08-5.82-14.23-8.21-4.31-2.49c-6.14-3.54-13.69-3.54-19.83,0l-4.31,2.49-14.22,8.21-14.22,8.21h-.01l-14.22,8.21-14.21,8.21h-.01l-14.22,8.21-14.22,8.21h0s-14.22,8.21-14.22,8.21l14.22,8.21,9.43,5.45c2.96,1.71,6.61,1.71,9.57,0Z" style="fill: #53576b;"/>
    </g>
    <path d="M349.75,705.81l-24.75-12.59c-9.1-4.24-27.33,3.11-32.35,14.02-6.53,14.21-4.39,28.57,1.31,32.64.51.37,3.7,2.5,4.3,2.67l22.93,12.73,28.56-49.47Z" style="fill: url(#_무제_그라디언트_16);"/>
    <ellipse cx="335.47" cy="730.55" rx="28.56" ry="18.34" transform="translate(-464.94 655.8) rotate(-60)" style="fill: #353644;"/>
    <path d="M342.4,718.75c-1.28-.74-2.78-.94-4.35-.68,1.26,3.38.63,8.27-1.99,12.81-2.62,4.54-6.54,7.53-10.1,8.13.56,1.49,1.48,2.69,2.76,3.43,4.2,2.43,10.67-.91,14.45-7.46s3.43-13.81-.77-16.24Z" style="fill: #a5b1c4;"/>
    <path d="M336.05,730.88c2.62-4.54,3.25-9.43,1.99-12.81-3.56.6-7.48,3.59-10.1,8.13-2.62,4.54-3.25,9.43-1.99,12.81,3.56-.6,7.48-3.59,10.1-8.13Z" style="fill: #dfe9ed;"/>
    <path d="M661.7,524.08l-24.75-12.59c-9.1-4.24-27.33,3.11-32.35,14.02-6.53,14.21-4.39,28.57,1.31,32.64.51.37,3.7,2.5,4.3,2.67l22.93,12.73,28.56-49.47Z" style="fill: url(#_무제_그라디언트_16-2);"/>
    <ellipse cx="647.42" cy="548.82" rx="28.56" ry="18.34" transform="translate(-151.58 835.09) rotate(-60)" style="fill: #353644;"/>
    <path d="M654.34,537.02c-1.28-.74-2.78-.94-4.35-.68,1.26,3.38.63,8.27-1.99,12.81-2.62,4.54-6.54,7.53-10.1,8.13.56,1.49,1.48,2.69,2.76,3.43,4.2,2.43,10.67-.91,14.45-7.46,3.78-6.54,3.43-13.81-.77-16.24Z" style="fill: #a5b1c4;"/>
    <path d="M648,549.16c2.62-4.54,3.25-9.43,1.99-12.81-3.56.6-7.48,3.59-10.1,8.13-2.62,4.54-3.25,9.43-1.99,12.81,3.56-.6,7.48-3.59,10.1-8.13Z" style="fill: #dfe9ed;"/>
    <path d="M233.12,642.01l-24.75-12.59c-9.1-4.24-27.33,3.11-32.35,14.02-6.53,14.21-4.39,28.57,1.31,32.64.51.37,3.7,2.5,4.3,2.67l22.93,12.73,28.56-49.47Z" style="fill: url(#_무제_그라디언트_16-3);"/>
    <ellipse cx="218.84" cy="666.75" rx="28.56" ry="18.34" transform="translate(-468 522.89) rotate(-60)" style="fill: #353644;"/>
    <path d="M225.76,654.95c-1.28-.74-2.78-.94-4.35-.68,1.26,3.38.63,8.27-1.99,12.81-2.62,4.54-6.54,7.53-10.1,8.13.56,1.49,1.48,2.69,2.76,3.43,4.2,2.43,10.67-.91,14.45-7.46s3.43-13.81-.77-16.24Z" style="fill: #a5b1c4;"/>
    <path d="M219.42,667.08c2.62-4.54,3.25-9.43,1.99-12.81-3.56.6-7.48,3.59-10.1,8.13-2.62,4.54-3.25,9.43-1.99,12.81,3.56-.6,7.48-3.59,10.1-8.13Z" style="fill: #dfe9ed;"/>
    <ellipse cx="292.89" cy="130.68" rx="6.25" ry="4.01" transform="translate(33.27 318.99) rotate(-60)" style="fill: url(#_새_패턴_견본_1);"/>
    <ellipse cx="392.45" cy="73.55" rx="6.25" ry="4.01" transform="translate(132.52 376.64) rotate(-60)" style="fill: url(#_새_패턴_견본_1-2);"/>
    <polygon points="385.33 332.22 385.34 332.21 385.33 332.21 385.33 332.22" style="fill: none;"/>
    <polygon points="399.56 274.74 399.56 274.72 399.55 274.73 399.56 274.74" style="fill: none;"/>
    <polygon points="328.44 414.32 328.44 414.33 328.45 414.32 328.44 414.32" style="fill: none;"/>
    <polygon points="612.9 299.36 612.89 299.36 612.89 299.37 612.9 299.36" style="fill: none;"/>
    <polygon points="570.23 274.73 570.22 274.72 570.22 274.74 570.23 274.73" style="fill: none;"/>
    <polygon points="570.23 225.46 570.22 225.46 570.22 225.47 570.23 225.46" style="fill: none;"/>
    <polygon points="243.11 299.36 243.11 299.37 243.12 299.36 243.11 299.36" style="fill: none;"/>
    <polygon points="385.33 480.02 385.34 480.01 385.33 480.01 385.33 480.02" style="fill: none;"/>
    <polygon points="470.67 562.13 470.67 562.12 470.66 562.12 470.67 562.13" style="fill: none;"/>
    <polygon points="513.34 94.08 513.33 94.08 513.33 94.09 513.34 94.08" style="fill: none;"/>
    <polygon points="257.34 406.11 257.33 406.11 257.33 406.12 257.34 406.11" style="fill: none;"/>
    <polygon points="271.56 299.36 271.55 299.36 271.56 299.37 271.56 299.36" style="fill: none;"/>
    <polygon points="641.33 315.79 641.34 315.78 641.33 315.78 641.33 315.79" style="fill: none;"/>
    <polygon points="598.66 488.22 598.67 488.23 598.67 488.22 598.66 488.22" style="fill: none;"/>
    <polygon points="641.33 282.95 641.34 282.94 641.33 282.94 641.33 282.95" style="fill: none;"/>
    <polygon points="513.33 553.92 513.34 553.91 513.33 553.91 513.33 553.92" style="fill: none;"/>
    <polygon points="541.78 504.65 541.78 504.64 541.77 504.64 541.78 504.65" style="fill: none;"/>
    <polygon points="356.89 299.37 356.89 299.36 356.88 299.36 356.89 299.37" style="fill: none;"/>
    <polygon points="598.67 159.77 598.66 159.77 598.67 159.78 598.67 159.77" style="fill: none;"/>
    <polygon points="200.44 636.03 200.45 636.02 200.44 636.02 200.44 636.03" style="fill: none;"/>
    <polygon points="228.88 373.26 228.89 373.27 228.89 373.26 228.88 373.26" style="fill: none;"/>
    <polygon points="513.33 356.84 513.33 356.85 513.34 356.84 513.33 356.84" style="fill: none;"/>
    <polygon points="328.45 709.92 328.44 709.92 328.44 709.93 328.45 709.92" style="fill: none;"/>
    <polygon points="641.33 167.98 641.33 167.99 641.34 167.98 641.33 167.98" style="fill: none;"/>
    <polygon points="527.56 282.95 527.56 282.94 527.55 282.94 527.56 282.95" style="fill: none;"/>
    <polygon points="513.33 241.88 513.33 241.89 513.34 241.88 513.33 241.88" style="fill: none;"/>
    <polygon points="598.67 373.26 598.66 373.26 598.67 373.27 598.67 373.26" style="fill: none;"/>
    <polygon points="271.56 611.38 271.55 611.39 271.56 611.4 271.56 611.38" style="fill: none;"/>
    <polygon points="527.55 463.58 527.56 463.59 527.56 463.58 527.55 463.58" style="fill: none;"/>
    <polygon points="385.34 167.98 385.33 167.98 385.33 167.99 385.34 167.98" style="fill: none;"/>
    <polygon points="342.66 176.2 342.67 176.2 342.67 176.19 356.89 167.99 356.89 167.98 371.11 159.77 371.11 143.35 356.89 151.56 342.67 159.77 342.66 159.77 328.44 167.99 328.44 184.4 328.44 184.41 328.45 184.41 342.66 176.2" style="fill: none;"/>
    <polygon points="342.67 603.19 342.67 603.18 342.66 603.18 342.67 603.19" style="fill: none;"/>
    <polygon points="271.55 660.66 271.56 660.67 271.56 660.65 271.55 660.66" style="fill: none;"/>
    <polygon points="200.44 373.26 200.44 373.27 200.45 373.26 200.44 373.26" style="fill: none;"/>
    <polygon points="200.44 488.22 200.44 488.23 200.45 488.22 200.44 488.22" style="fill: none;"/>
    <polygon points="228.88 636.02 228.89 636.03 228.89 636.02 228.88 636.02" style="fill: none;"/>
    <polygon points="328.44 562.13 328.45 562.12 328.44 562.12 328.44 562.13" style="fill: none;"/>
    <polygon points="627.11 537.49 627.11 521.07 627.11 521.06 634.68 500.27 627.1 504.65 612.89 512.85 598.67 521.06 598.67 521.07 598.66 521.07 584.44 529.28 570.22 537.49 556 545.7 541.78 553.91 541.77 553.91 527.56 562.12 527.55 562.12 513.33 570.33 499.11 578.54 499.11 578.55 484.89 586.75 470.67 594.96 470.67 594.97 456.44 603.18 442.22 611.39 428 619.6 413.78 627.81 413.77 627.81 399.56 636.02 399.56 636.03 399.55 636.03 385.33 644.23 371.11 652.44 371.11 652.45 356.89 660.65 356.89 660.66 356.89 677.08 356.89 693.5 371.11 685.29 371.12 685.29 385.33 677.08 399.56 668.87 413.78 660.66 428 652.45 442.22 644.24 456.44 636.03 456.44 636.02 456.45 636.02 470.67 627.81 484.89 619.6 499.11 611.39 513.33 603.18 513.34 603.18 527.55 594.97 527.56 594.97 541.78 586.76 556 578.55 556 578.54 570.22 570.34 584.44 562.13 584.44 562.12 584.45 562.12 598.67 553.91 612.89 545.7 627.11 537.49" style="fill: #cecdae;"/>
    <path d="M612.89,480.01v-16.42h0v-32.84h0v-82.11h0v-32.85h0v-16.42h0v-16.42h0v-32.85h0v-49.26h0v-36.96l-14.22,12.33h-.01l-14.22-8.21v16.41h0v32.85h0v16.42h0v16.42h0v16.43h0v16.41h0v16.43h0v32.84h0v32.85h0v49.27h0v16.42h0v16.42h0v49.27h.01l14.22,8.21h0s14.22,8.21,14.22,8.21v-32.84ZM598.67,373.26h0s-.01,0-.01,0h.01ZM598.66,488.22h.01s-.01,0-.01,0Z" style="fill: #eaeacc;"/>
    <path d="M598.67,504.64l-14.22-8.21h-.01l-14.22,8.21-14.22,8.21h0s-14.22,8.21-14.22,8.21h0s-14.22,8.21-14.22,8.21h0s-.01.01-.01.01l-14.22,8.21-14.22,8.21-14.22,8.21-14.22,8.21h0s-.01,0-.01,0l-14.21,8.21h-.01s-14.22,8.21-14.22,8.21h0s-14.22,8.22-14.22,8.22l-14.22,8.21-14.22,8.21-14.23,8.21-14.22,8.21h-.01l-14.21,8.21-14.22,8.21h-.01l-14.22,8.22-14.22,8.2h0s-14.22,8.22-14.22,8.22l14.22,8.21h.01l14.21,8.21,14.23-8.21h0s14.21-8.21,14.21-8.21h.01s14.22-8.21,14.22-8.21h0s14.22-8.22,14.22-8.22l14.22-8.2h.01s14.21-8.22,14.21-8.22h.01l14.22-8.21,14.22-8.21,14.22-8.21,14.23-8.21h0s14.22-8.22,14.22-8.22l14.22-8.2h0s14.22-8.22,14.22-8.22l14.22-8.21h.01l14.21-8.21h.01l14.22-8.21,14.22-8.21,14.22-8.21,14.22-8.21h.01s14.22-8.22,14.22-8.22l-14.22-8.2h0ZM513.33,553.92h0s.01-.01.01-.01h-.01Z" style="fill: #fffff8;"/>
    <path d="M541.77,143.35l-14.21-8.2h0s-.01,0-.01,0l-14.22-8.21v16.42h0v49.26h0v49.27h.01-.01v16.43h0v32.84h0v16.42h0v49.27h.01-.01v49.27h0v49.26h0s.01.01.01.01l14.21,8.2h.01s14.22,8.22,14.22,8.22v-16.42h0v-49.26h0v-32.85h0v-16.42h0v-131.38h0v-32.85h0v-49.26h0s-.01-.01-.01-.01ZM527.56,282.95h-.01s.01-.01.01-.01h0Z" style="fill: #eaeacc;"/>
    <polygon points="371.12 159.77 385.33 151.56 385.33 135.14 371.11 143.35 371.11 159.77 371.12 159.77" style="fill: #dfe9ed;"/>
    <path d="M356.89,660.66h-.01l-14.21,8.2h0s-.01.02-.01.02c-8.8,5.07-19.63,5.07-28.43,0h0s-.01,0-.01,0l-14.22-8.21v16.42h0v16.42l14.22,8.21,5.57,3.22c5.35,3.09,11.94,3.09,17.3,0h0s5.57-3.21,5.57-3.21h.01s14.22-8.22,14.22-8.22v-32.84Z" style="fill: #353644;"/>
    <path d="M413.78,167.99h-.01l-14.21-8.21-12.72-9.09-15.72,9.08h-.01l-14.22,8.21h0s-14.22,8.21-14.22,8.21h0s-.01.01-.01.01l-14.21,8.21h-.01v16.42h.01l10.11,10.32,4.11,14.31,14.22-8.21,14.22-8.21h.01l14.21-8.21,14.23-8.21,14.22-8.21h0s20.62-11.9,20.62-11.9l-20.62-4.52ZM385.33,167.98h.01-.01s0,0,0,0Z" style="fill: #fffff8;"/>
    <polygon points="314.22 652.44 328.44 644.24 342.66 636.02 342.67 636.02 356.89 627.81 371.1 619.6 371.11 619.6 385.33 611.39 399.56 603.18 413.78 594.97 428 586.76 442.22 578.55 442.22 578.54 456.44 570.34 456.44 570.33 456.45 570.33 470.66 562.12 470.67 562.12 484.89 553.91 499.11 545.7 513.33 537.49 527.55 529.28 527.56 529.28 527.56 529.27 541.78 521.07 541.78 521.06 556 512.86 556 512.85 570.22 504.64 584.44 496.43 584.44 480.01 584.44 463.59 584.44 447.17 584.44 447.16 584.44 430.75 584.44 430.74 584.44 414.33 584.44 414.32 584.44 397.9 584.44 381.48 584.44 365.06 584.44 365.05 584.44 348.63 584.44 332.21 584.44 332.2 584.44 315.79 584.44 299.37 584.44 299.36 584.44 282.94 584.44 282.93 584.44 266.53 584.44 266.52 584.44 250.1 584.44 250.09 584.44 233.68 584.44 233.67 584.44 217.26 584.44 217.25 584.44 200.83 584.44 184.41 584.44 184.4 584.44 167.99 584.44 167.98 570.22 159.78 570.22 176.19 570.22 192.62 570.22 209.04 570.22 225.46 570.23 225.46 570.22 225.47 570.22 241.88 570.22 241.89 570.22 258.31 570.22 274.72 570.23 274.73 570.22 274.74 570.22 291.15 570.22 307.58 570.22 323.99 570.22 324 570.22 340.42 570.22 356.84 570.22 373.27 570.22 389.69 570.22 406.11 570.22 422.54 570.22 438.95 570.22 455.38 570.22 471.8 570.22 488.22 556 496.43 541.78 504.64 541.78 504.65 541.77 504.64 527.56 512.85 527.55 512.85 513.33 521.07 499.11 529.28 484.89 537.48 484.89 537.49 470.67 545.69 470.67 545.7 470.66 545.7 456.44 553.91 442.22 562.12 428 570.33 413.78 578.54 413.77 578.54 399.56 586.75 385.33 594.96 385.33 594.97 371.11 603.18 356.89 611.39 356.88 611.39 342.67 619.6 342.66 619.6 328.44 627.81 314.22 636.02 314.21 636.02 300 644.23 285.78 652.44 285.78 652.45 300 660.66 314.22 652.45 314.22 652.44" style="fill: #53576b;"/>
    <polygon points="314.21 636.02 314.22 636.02 328.44 627.81 342.66 619.6 342.67 619.6 356.88 611.39 356.89 611.39 371.11 603.18 385.33 594.97 385.33 594.96 399.56 586.75 413.77 578.54 413.78 578.54 428 570.33 442.22 562.12 456.44 553.91 470.66 545.7 470.67 545.7 470.67 545.69 484.89 537.49 484.89 537.48 499.11 529.28 513.33 521.07 527.55 512.85 527.56 512.85 541.77 504.64 541.78 504.64 556 496.43 570.22 488.22 570.22 471.8 570.22 455.38 570.22 438.95 570.22 422.54 570.22 406.11 570.22 389.69 570.22 373.27 570.22 356.84 570.22 340.42 570.22 324 570.22 323.99 570.22 307.58 570.22 291.15 570.22 274.74 570.22 274.72 570.22 258.31 570.22 241.89 570.22 241.88 570.22 225.47 570.22 225.46 570.22 209.04 570.22 192.62 570.22 176.19 570.22 159.78 556 151.57 556 167.98 556 167.99 556 184.4 556 184.41 556 200.83 556 217.25 556 233.68 556 250.1 556 266.51 556 266.52 556 282.94 556 282.95 556 299.36 556 299.37 556 315.78 556 315.79 556 332.21 556 348.63 556 365.05 556 365.06 556 381.48 556 397.9 556 414.32 556 414.33 556 430.74 556 430.75 556 447.16 556 447.17 556 463.59 556 480.01 541.78 488.22 527.56 496.43 527.56 496.44 513.34 504.65 513.33 504.65 499.11 512.86 484.89 521.07 470.67 529.28 456.45 537.49 456.44 537.49 456.44 537.5 442.22 545.7 442.22 545.71 428.01 553.91 428 553.91 428 553.92 413.78 562.12 413.78 562.13 399.56 570.34 385.34 578.55 385.33 578.55 371.12 586.76 371.11 586.76 356.89 594.97 342.67 603.18 342.67 603.19 342.66 603.18 328.45 611.39 328.44 611.39 328.44 611.4 314.22 619.6 314.22 619.61 300 627.82 285.78 636.02 285.78 636.03 271.56 644.24 285.77 652.44 285.78 652.44 300 644.23 314.21 636.02" style="fill: #a5b1c4;"/>
    <path d="M300,677.08v-16.42l-14.22-8.21h0s-.01-.01-.01-.01l-14.21-8.2-14.23-8.22-14.22-8.21-14.22-8.21-14.22-8.21v16.42h0v16.42l14.22,8.21,14.22,8.21h0s.01.01.01.01l14.21,8.2h0s14.23,8.22,14.23,8.22l14.22,8.21,14.22,8.21v-16.41h0ZM228.88,636.02h.01s-.01,0-.01,0ZM271.55,660.66h.01s0,.01,0,.01h-.01Z" style="fill: #eaeacc;"/>
    <polygon points="285.78 636.02 300 627.82 314.22 619.61 314.22 619.6 328.44 611.4 328.44 611.39 328.45 611.39 342.66 603.18 342.67 603.18 356.89 594.97 371.11 586.76 371.12 586.76 385.33 578.55 385.34 578.55 399.56 570.34 413.78 562.13 413.78 562.12 428 553.92 428 553.91 428.01 553.91 442.22 545.71 442.22 545.7 456.44 537.5 456.44 537.49 456.45 537.49 470.67 529.28 484.89 521.07 499.11 512.86 513.33 504.65 513.34 504.65 527.56 496.44 527.56 496.43 541.78 488.22 556 480.01 556 463.59 556 447.17 556 447.16 556 430.75 556 430.74 556 414.33 556 414.32 556 397.9 556 381.48 556 365.06 556 365.05 556 348.63 556 332.21 556 315.79 556 315.78 556 299.37 556 299.36 556 282.95 556 282.94 556 266.52 556 266.51 556 250.1 556 233.68 556 217.25 556 200.83 556 184.41 556 184.4 556 167.99 556 167.98 556 151.57 556 151.56 555.99 151.56 541.78 143.36 541.78 159.77 541.78 176.2 541.78 192.61 541.78 192.62 541.78 209.04 541.78 225.46 541.78 225.47 541.78 241.89 541.78 258.31 541.78 274.73 541.78 291.16 541.78 307.57 541.78 324 541.78 340.42 541.78 356.84 541.78 356.85 541.78 373.26 541.78 373.27 541.78 389.69 541.78 406.11 541.78 406.12 541.78 422.53 541.78 438.96 541.78 455.37 541.78 455.38 541.78 471.8 527.56 480.01 527.55 480.01 513.33 488.22 499.11 496.43 484.89 504.64 484.89 504.65 470.67 512.85 470.67 512.86 470.66 512.86 456.44 521.06 456.44 521.07 442.22 529.28 428 537.49 413.78 545.7 399.56 553.91 385.33 562.12 371.11 570.33 356.89 578.54 356.89 578.55 342.67 586.75 342.67 586.76 342.66 586.76 328.44 594.97 314.22 603.18 300 611.39 285.78 619.6 285.77 619.6 271.56 627.81 257.33 636.02 271.56 644.24 285.78 636.03 285.78 636.02" style="fill: #53576b;"/>
    <path d="M285.77,619.6h.01l14.22-8.21,14.22-8.21,14.22-8.21,14.22-8.21h.01s14.22-8.21,14.22-8.21h0s14.22-8.22,14.22-8.22l14.22-8.21,14.23-8.21,14.22-8.21,14.22-8.21,14.22-8.21,14.22-8.21h0s14.22-8.21,14.22-8.21h.01s14.22-8.21,14.22-8.21h0s14.22-8.22,14.22-8.22l14.22-8.21,14.22-8.21h.01l14.22-8.21-14.22-8.21h-.01s-14.21-8.21-14.21-8.21h-.01l-14.22,8.21-14.22,8.21-14.22,8.21-14.22,8.21h-.01s-14.22,8.21-14.22,8.21h0s-14.22,8.21-14.22,8.21h0s-14.22,8.22-14.22,8.22l-14.22,8.21-14.22,8.21h-.01l-14.21,8.21h-.01l-14.22,8.21-14.22,8.21-14.22,8.21h-.01s-14.22,8.22-14.22,8.22l-14.22,8.21-14.22,8.21-14.22,8.21-14.23,8.21-14.21,8.21h-.01l-14.22,8.21,14.22,8.21,14.22,8.21,14.23-8.21,14.21-8.21ZM271.55,611.39h.01s0,0,0,0h-.01Z" style="fill: #fffff8;"/>
    <path d="M271.56,578.55h0s14.21-8.21,14.21-8.21h.01s14.22-8.22,14.22-8.22l14.22-8.21,14.22-8.21h.01l14.22-8.21,14.22-8.21,14.22-8.21h.01l14.21-8.21,14.23-8.21h0s14.22-8.22,14.22-8.22l14.22-8.21,14.22-8.21,14.22-8.21h.01l14.22-8.21,14.22-8.21,14.22-8.21h0v-16.42h0v-16.42h0v-32.85h0v-16.42h0v-65.69h0v-32.84h0v-82.12h0v-16.42h0v-16.42l-14.22,8.21-14.22,8.2h0s-14.22,8.22-14.22,8.22h-.01l-14.22,8.21-14.21,8.21h-.01l-14.22,8.21-14.22,8.21-14.22,8.21h-.01s-14.21,8.21-14.21,8.21h-.01s-14.22,8.22-14.22,8.22l-14.22,8.21-14.22,8.21h-.01l-14.22,8.21-14.22,8.21-14.22,8.21-14.22,8.21h0s-14.23,8.22-14.23,8.22l-14.21,8.2h-.01v16.42h0v98.54h0v16.42h0v16.42h0v65.69h0v32.85h0v16.42h0v16.42h0v16.43l14.22-8.21,14.23-8.21ZM385.33,480.02h0s.01,0,.01,0h-.01ZM328.44,414.32h.01-.01s0,0,0,0ZM385.33,332.22h0s.01-.01.01-.01h-.01ZM399.56,274.74h-.01s.01-.02.01-.02v.02ZM356.89,299.37h-.01s.01-.01.01-.01h0ZM271.56,299.36h0s-.01,0-.01,0h.01ZM257.34,406.11h-.01s0,0,0,0h.01Z" style="fill: #cecdae;"/>
    <path d="M243.12,611.39l14.21-8.21,14.23-8.21,14.22-8.21,14.22-8.21,14.22-8.21,14.22-8.21h0s.01-.01.01-.01l14.22-8.21,14.22-8.21,14.22-8.21h.01l14.21-8.21h.01l14.22-8.21,14.22-8.21,14.22-8.21h0s14.22-8.21,14.22-8.21h0s14.22-8.21,14.22-8.21h0s.01-.01.01-.01l14.22-8.21,14.22-8.21,14.22-8.21,14.22-8.21h0v-49.26h0v-49.27h0v-49.27h0v-16.42h0v-32.84h0v-16.43h0v-49.27h0v-49.26h0v-16.43l-14.22,8.21-14.22,8.21-14.22,8.21-14.22,8.21h-.01s-14.22,8.21-14.22,8.21h0s-14.22,8.22-14.22,8.22l-14.22,8.2h0s-14.22,8.22-14.22,8.22l-14.23,8.21-14.21,8.21h-.01l-14.22,8.21-14.22,8.21h0s-14.23,8.22-14.23,8.22l-14.22,8.2h0s-14.22,8.22-14.22,8.22l-14.22,8.21h-.01l-14.21,8.21-14.23,8.21-14.22,8.21h0s-14.22,3.02-14.22,3.02v38.03h0v49.27h0v164.23h0v49.26h0v32.85l14.22-8.21h.01ZM243.11,578.55h0v-16.42h0v-16.42h0v-32.85h0v-65.69h0v-16.42h0v-16.42h0v-98.54h0v-16.42h0s.01-.01.01-.01l14.21-8.2,14.23-8.21h0s14.22-8.22,14.22-8.22l14.22-8.21,14.22-8.21,14.22-8.21h.01l14.22-8.21,14.22-8.21,14.22-8.21h0s.01-.01.01-.01l14.21-8.2h0s.01-.01.01-.01l14.22-8.21,14.22-8.21,14.22-8.21h.01l14.21-8.21,14.22-8.21h.01l14.22-8.21h0s14.22-8.21,14.22-8.21l14.22-8.21v16.41h0v16.42h0v82.12h0v32.84h0v65.69h0v16.42h0v32.85h0v16.42h0v16.42h0s-14.22,8.22-14.22,8.22l-14.22,8.21-14.22,8.21h-.01l-14.22,8.21-14.22,8.21-14.22,8.21-14.22,8.21h0s-14.23,8.22-14.23,8.22l-14.21,8.21h-.01l-14.22,8.21-14.22,8.21-14.22,8.21h-.01l-14.22,8.21-14.22,8.21-14.22,8.21h0s-.01.01-.01.01l-14.21,8.2h0s-14.23,8.22-14.23,8.22l-14.22,8.21v-16.42Z" style="fill: #cecdae;"/>
    <path d="M200.45,636.02l14.21,8.21h.01v-16.41h0v-16.43l-14.23-8.21-14.21-8.21h-.01v19.59c0,8.2,4.37,15.77,11.47,19.87l2.75,1.59h.01Z" style="fill: #353644;"/>
    <g style="clip-path: url(#clippath-3);">
      <path d="M200.44,603.18l14.23,8.21,14.22,8.21v-32.84h0v-49.26h0v-164.23h-.01s.01,0,.01,0v-49.26h0v-38.04l-14.22-3.02-14.22-8.21h-.01l-14.22-8.21v16.42h0v16.42h0v16.42h0v114.96h0v32.84h0v32.85h0v16.42h0v32.85h0v16.42h0v16.42h0v16.43h.01l14.21,8.21ZM200.44,373.26h.01-.01s0,0,0,0ZM200.44,488.22h.01-.01s0,0,0,0Z" style="fill: #eaeacc;"/>
      <path d="M271.56,250.1h-.01l-14.22-8.21-14.22-8.21-14.22,8.21-14.22,8.21h-.01l-14.22,8.21-14.22,8.21,14.22,8.21h.01l14.22,8.21,4.34,2.51c6.11,3.53,13.64,3.53,19.75,0l4.34-2.5h0s14.22-8.22,14.22-8.22l14.23-8.21,17.76-10.26-17.76-6.16Z" style="fill: #fffff8;"/>
    </g>
    <path d="M641.33,496.43l-9.04,5.22h0c-3.21,1.86-5.18,5.28-5.18,8.99v10.42h0v16.43l14.22-8.21h.01l7.1-4.1c4.4-2.54,7.11-7.24,7.12-12.32h0v-8.21h0v-16.43h-.01l-14.22,8.21Z" style="fill: #353644;"/>
    <g style="clip-path: url(#clippath-4);">
      <path d="M655.55,159.78l-14.21,8.2h-.01s-14.22,8.22-14.22,8.22l-14.22-.76v25.39h0v49.26h0v32.85h0v16.42h.01-.01v16.42h0v32.85h0v82.11h0v32.84h0v49.27l14.21-8.2h.01s14.22-8.22,14.22-8.22l14.22-8.21h.01v-16.41h0v-16.43h0v-16.42h0v-16.42h0v-32.85h-.01s.01-.01.01-.01v-16.41h0v-16.42h-.01s.01-.01.01-.01v-49.26h0v-16.42h0v-49.27h-.01s.01-.01.01-.01v-16.41h0v-16.42h-.01s.01-.01.01-.01v-49.26h-.01ZM641.33,315.79h0s.01-.01.01-.01h-.01ZM641.33,282.95h0s.01-.01.01-.01h-.01Z" style="fill: #cecdae;"/>
      <path d="M641.33,151.56l-14.22-8.21h-.01l-14.21-8.2h0s-14.22-8.21-14.22-8.21h0s-.01-.01-.01-.01l-14.22-8.21-14.22-8.21-14.22-8.21-14.22-8.21h-.01l-14.21-8.21h-.01c-8.8-5.09-19.64-5.09-28.44-.01h0s-14.22,8.21-14.22,8.21h0s-14.22,8.21-14.22,8.21h0s-.01.01-.01.01l-14.21,8.21,14.22,8.21,7.22,12.25,7,12.38,14.22-8.21,1.78-1.03c7.7-4.45,17.19-4.45,24.89,0l1.78,1.03h.01s14.21,8.21,14.21,8.21h.01s14.21,8.21,14.21,8.21h.01s14.22,8.22,14.22,8.22l14.22,8.2h0s14.22,8.22,14.22,8.22h.01l3.79,2.19c6.45,3.72,14.4,3.72,20.85,0l3.79-2.19,14.22-8.21h0s.01-.01.01-.01l14.21-8.2-14.22-8.22ZM513.33,94.08h.01-.01s0,0,0,0ZM598.66,159.77h.01s-.01,0-.01,0Z" style="fill: #fffff8;"/>
    </g>
    <g style="clip-path: url(#clippath-5);">
      <polygon points="442.22 167.99 442.22 167.98 456.44 159.78 456.44 159.77 456.45 159.77 470.67 151.56 484.89 143.35 484.89 126.93 470.67 135.14 456.44 143.35 442.23 151.56 442.22 151.56 428 155 428 176.2 442.22 167.99" style="fill: #353644;"/>
      <polygon points="399.56 159.78 413.77 167.99 413.78 167.99 428 176.2 428 154.78 413.78 151.56 399.56 143.35 385.33 135.14 385.33 151.56 399.56 159.78" style="fill: #353644;"/>
      <polygon points="271.55 250.1 271.56 250.1 285.77 258.31 285.78 258.31 289.96 244.3 285.77 241.89 271.56 233.68 257.33 225.47 257.33 225.46 243.11 217.25 243.11 233.68 257.33 241.89 271.55 250.1" style="fill: #353644;"/>
      <path d="M257.33,225.47l14.23,8.21,19.55,11.29,7.56-5.64,2.15-2.81-.81-2.85,14.22-8.2h0s14.22-8.22,14.22-8.22l14.23-8.21-14.22-8.21h-.01v-16.42h0c0-10.17,5.41-19.55,14.21-24.63h.01s.01,0,.01,0l14.22-8.21,14.22-8.21,14.22-8.21,14.23,8.21,14.22,8.21,4.39,2.54c6.08,3.51,13.57,3.51,19.66,0l4.39-2.54h.01l14.21-8.21,14.23-8.21,14.22-8.21-14.22-8.21-14.22-8.21h-.01s-14.22-8.22-14.22-8.22l-14.22,8.21h0s-14.22,8.21-14.22,8.21h0s-.01.01-.01.01l-3.32-1.92c-6.74-3.89-15.05-3.9-21.79,0l-3.32,1.92h-.01l-14.22,8.21-14.22,8.21-14.22,8.21-14.22,8.21h-.01s0,.01,0,.01c-8.79,5.08-14.21,14.46-14.21,24.62h0v16.43l-14.22-8.21-14.22,8.2h0s-.01.01-.01.01l-14.21,8.2v.02h-.01s-14.22,8.2-14.22,8.2l-14.22,8.21,14.22,8.21h0Z" style="fill: #53576b;"/>
      <path d="M314.22,241.89h0s14.22-8.21,14.22-8.21l14.23-8.21h0v-16.43l-14.23,8.21-14.22,8.21h0s-14.22,8.21-14.22,8.21h0c-8.8,5.09-14.22,14.48-14.22,24.64h0s14.22-8.21,14.22-8.21l14.22-8.21Z" style="fill: #353644;"/>
    </g>
    <polygon points="561.49 223.86 561.49 240.28 561.49 240.29 561.49 256.7 561.49 256.71 575.71 264.92 575.71 248.5 575.71 248.49 575.71 232.07 561.49 223.86" style="fill: #a5b1c4;"/>
    <polygon points="561.49 312.83 561.49 329.25 561.49 329.26 561.49 345.67 561.49 345.68 575.71 353.89 575.71 337.47 575.71 337.46 575.71 321.04 561.49 312.83" style="fill: #a5b1c4;"/>
    <polygon points="561.49 401.81 561.49 418.23 561.49 418.24 561.49 434.65 561.49 434.66 575.71 442.87 575.71 426.45 575.71 426.44 575.71 410.02 561.49 401.81" style="fill: #a5b1c4;"/>
    <path d="M303.17,198.99l-3.18,1.84-14.22,8.21-12.39,7.15c-.82.47-.82,1.65,0,2.12l8.39,4.84c2.48,1.43,5.52,1.43,8,0l10.22-5.9,14.22-8.21,3.19-1.84-14.23-8.21Z" style="fill: #a5b1c4;"/>
    <polygon points="527.56 504.97 513.34 513.18 499.12 521.39 484.9 529.6 499.12 537.81 513.34 529.6 527.56 521.39 541.79 513.18 527.56 504.97" style="fill: #a5b1c4;"/>
    <polygon points="378.22 590.41 363.99 598.62 349.78 606.83 335.55 615.04 349.78 623.25 363.99 615.04 378.22 606.83 392.45 598.62 378.22 590.41" style="fill: #a5b1c4;"/>
    <path d="M444.77,119.94c-1.3-.75-2.91-.75-4.21,0l-12.11,6.99-10.92,6.31v3.81l10.92,6.31,14.22-8.21,11.14-6.43c1.37-.79,1.37-2.77,0-3.56l-9.04-5.22Z" style="fill: #a5b1c4;"/>
    <path d="M456.45,110.51l14.21-8.21h.01s14.22-8.21,14.22-8.21h0s14.21-8.21,14.21-8.21h.01c4.4-2.55,9.31-3.82,14.21-3.82s9.83,1.27,14.23,3.82h.01l14.21,8.21h.01l28.44,16.42,14.22,8.21,14.22,8.21h.01s14.22,8.21,14.22,8.21h0s14.21,8.21,14.21,8.21h.01l14.22,8.21,6.67,3.86h0c4.68,2.7,7.56,7.69,7.56,13.09v40.53h-.01.01v32.84h-.01.01v114.96h-.01.01v32.84h-.01.01v123.18c-.01,5.08-2.72,9.78-7.12,12.32l-7.1,4.1h-.01l-14.22,8.21-14.22,8.21-14.22,8.21-14.22,8.21h-.01s-14.22,8.22-14.22,8.22l-14.22,8.2h0s-14.22,8.22-14.22,8.22l-14.22,8.21h-.01l-14.21,8.21h-.01l-14.22,8.21-14.22,8.21-14.22,8.21-14.22,8.21h-.01s-14.22,8.22-14.22,8.22l-14.22,8.21-14.22,8.21-14.22,8.21-14.23,8.21-14.21,8.21h-.01l-14.22,8.21-14.22,8.21h0s-.01.01-.01.01l-5.57,3.21c-5.35,3.09-11.95,3.09-17.3,0l-5.57-3.22-14.22-8.21-14.22-8.21-14.22-8.21-14.23-8.21h0s-14.21-8.21-14.21-8.21h-.01s-14.22-8.22-14.22-8.22l-14.22-8.21h-.01l-14.21-8.21h-.01l-2.75-1.59c-7.1-4.1-11.47-11.67-11.47-19.87v-331.62c0-10.16,5.42-19.55,14.22-24.63h0s14.22-8.21,14.22-8.21h.01l14.22-8.21,14.22-8.21" style="fill: none; stroke: #c1bf93; stroke-miterlimit: 10; stroke-width: 3px;"/>
    <polyline points="328.44 184.41 328.45 184.41 342.66 176.2 342.67 176.2 342.67 176.19 356.89 167.99 356.89 167.98 371.11 159.77 371.12 159.77 386.84 150.69" style="fill: none; stroke: #c1bf93; stroke-miterlimit: 10; stroke-width: 3px;"/>
  </g>
</svg>