<svg width="800" height="800" viewBox="0 0 800 800" fill="none" xmlns="http://www.w3.org/2000/svg">
<g clip-path="url(#clip0_2587_18448)">
<path d="M162.111 241.13V257.52L176.471 249.23L190.831 240.94L205.201 232.65V232.82V232.84V249.23V249.24V265.81V265.82V282.2L219.561 273.91L233.921 265.62L248.291 257.33V241.13V240.94V224.54V224.36V224.35V208.14V207.95L262.651 199.66L277.011 191.37L290.491 183.6V168.31H290.501L290.491 168.3V151.73V135.15L276.131 143.44L261.781 151.72H261.771V151.73L248.291 159.51V174.78V174.79V174.98V191.37V191.56V207.77L233.921 216.06L219.561 224.35L205.201 232.64V216.25V216.24V199.67V199.66V184.38L204.321 184.89L189.961 193.18L175.601 201.48V201.49H175.591L162.111 209.26V224.54V241.13Z" fill="#C6A76F"/>
<path d="M205.201 199.671V216.241V216.251V232.641L219.561 224.351L233.921 216.061L248.291 207.771V191.561V191.371V174.981V174.791V174.781V159.511L247.411 160.021L233.051 168.311L218.681 176.601L205.201 184.381V199.661V199.671Z" fill="#C6A76F"/>
<path d="M262.651 199.661L248.291 207.951V208.141V224.351V224.361V224.541V240.941V241.131V257.331L233.921 265.621L219.561 273.911L205.201 282.201V265.821V265.811V249.241V249.231V232.841V232.821V232.651L190.831 240.941L176.471 249.231L162.111 257.521V257.711V274.111V290.691V307.091L176.471 298.801L190.831 290.501L205.201 282.211V282.391V282.401V298.801V298.811V315.381V315.391V331.961L219.561 323.671L233.921 315.381L248.291 307.091V307.081V290.691V290.501V274.111V273.921V273.911V257.711V257.521L262.651 249.231L277.011 240.941L290.491 233.161V218.071V201.481V184.901V184.891V183.601L277.011 191.371L262.651 199.661Z" fill="#C6A76F"/>
<path d="M205.201 315.38V298.81V298.8V282.4V282.39V282.21L190.831 290.5L176.471 298.8L162.111 307.09V307.27V323.68V340.26V356.84L176.471 348.55L190.831 340.26L205.201 331.97V331.96V315.39V315.38Z" fill="#C6A76F"/>
<path d="M262.651 249.23L248.291 257.52V257.71V273.91V273.92V274.11V290.5V290.69V307.08V307.09V307.27L262.651 298.98L277.011 290.69L290.491 282.92V267.81V251.23V234.65V234.64V233.16L277.011 240.94L262.651 249.23Z" fill="#C6A76F"/>
<path d="M148.09 233.68V266.52V282.94V299.36V381.48L162.31 373.27L176.53 365.05H176.54L190.75 356.84H190.76L204.98 348.63L219.2 340.42L233.42 332.21H233.43L247.64 324H247.65L261.87 315.79L276.08 307.58L290.3 299.37L304.52 291.15H304.53V274.74V241.89V209.05V159.78V143.36V110.51H304.52L290.31 118.72H290.3L276.08 126.93L261.86 135.14L247.64 143.35L233.42 151.56L219.19 159.78L204.97 167.99L190.75 176.2L176.53 184.41H176.52L162.3 192.62L148.08 196.56V233.68H148.09ZM162.31 209.05L162.32 209.04L163.19 208.54L176.53 200.84H176.54L190.76 192.62L204.98 184.41L205.86 183.9L219.2 176.2L233.43 167.99L247.65 159.78L248.53 159.27L261.87 151.57L261.88 151.56L276.09 143.36L290.31 135.15V167.98H290.32L290.31 167.99V184.41V233.67V282.94L276.09 291.16L261.87 299.37L247.65 307.58L233.43 315.79L219.2 324L204.98 332.21L190.76 340.42L176.54 348.63L176.53 348.64L162.32 356.84H162.31V307.58V258.32V209.05Z" fill="#C6A76F"/>
<path d="M304.541 143.35V159.77V209.04V241.88V274.73V291.15L318.761 299.36L332.981 307.58L347.201 315.79H347.211L361.431 324L375.651 332.21L389.871 340.42V291.16V274.74V241.89V225.47V209.05V176.2V154.78L375.651 151.57H375.641L361.431 143.36V192.62V225.46L357.911 236.11L347.201 233.68L335.091 223.67L334.871 221.52L332.981 209.05V126.93L318.761 118.72L304.541 110.51V143.35ZM361.431 258.32H361.421L361.431 258.3V258.32Z" fill="#E8CEA0"/>
<mask id="mask0_2587_18448" style="mask-type:luminance" maskUnits="userSpaceOnUse" x="137" y="613" width="278" height="187">
<path d="M281.611 613.19L137.971 750.37L233.421 799.01L414.051 697.4L281.611 613.19Z" fill="white"/>
</mask>
<g mask="url(#mask0_2587_18448)">
<path d="M449.2 584.07H407.9V625.37H449.2V584.07Z" fill="#DFE9ED"/>
<path d="M449.2 625.37H407.9V666.67H449.2V625.37Z" fill="#DFE9ED"/>
<path d="M449.2 666.67H407.9V707.97H449.2V666.67Z" fill="#DFE9ED"/>
<path d="M449.2 707.96H407.9V749.26H449.2V707.96Z" fill="#DFE9ED"/>
<path d="M449.2 749.261H407.9V790.561H449.2V749.261Z" fill="#DFE9ED"/>
<path d="M449.2 790.561H407.9V831.861H449.2V790.561Z" fill="#DFE9ED"/>
<path d="M407.909 584.07H366.609V625.37H407.909V584.07Z" fill="#DFE9ED"/>
<path d="M407.909 625.37H366.609V666.67H407.909V625.37Z" fill="#DFE9ED"/>
<path d="M407.909 666.67H366.609V707.97H407.909V666.67Z" fill="#DFE9ED"/>
<path d="M407.909 707.96H366.609V749.26H407.909V707.96Z" fill="#DFE9ED"/>
<path d="M407.909 749.261H366.609V790.561H407.909V749.261Z" fill="#DFE9ED"/>
<path d="M407.909 790.561H366.609V831.861H407.909V790.561Z" fill="#DFE9ED"/>
<path d="M366.611 584.07H325.311V625.37H366.611V584.07Z" fill="#DFE9ED"/>
<path d="M366.611 625.37H325.311V666.67H366.611V625.37Z" fill="#DFE9ED"/>
<path d="M366.611 666.67H325.311V707.97H366.611V666.67Z" fill="#DFE9ED"/>
<path d="M366.611 707.96H325.311V749.26H366.611V707.96Z" fill="#DFE9ED"/>
<path d="M366.611 749.261H325.311V790.561H366.611V749.261Z" fill="#DFE9ED"/>
<path d="M366.611 790.561H325.311V831.861H366.611V790.561Z" fill="#DFE9ED"/>
<path d="M325.31 584.07H284.01V625.37H325.31V584.07Z" fill="#DFE9ED"/>
<path d="M325.31 625.37H284.01V666.67H325.31V625.37Z" fill="#DFE9ED"/>
<path d="M325.31 666.67H284.01V707.97H325.31V666.67Z" fill="#DFE9ED"/>
<path d="M325.31 707.96H284.01V749.26H325.31V707.96Z" fill="#DFE9ED"/>
<path d="M325.31 749.261H284.01V790.561H325.31V749.261Z" fill="#DFE9ED"/>
<path d="M325.31 790.561H284.01V831.861H325.31V790.561Z" fill="#DFE9ED"/>
<path d="M284.021 584.07H242.721V625.37H284.021V584.07Z" fill="#DFE9ED"/>
<path d="M284.021 625.37H242.721V666.67H284.021V625.37Z" fill="#DFE9ED"/>
<path d="M284.021 666.67H242.721V707.97H284.021V666.67Z" fill="#DFE9ED"/>
<path d="M284.021 707.96H242.721V749.26H284.021V707.96Z" fill="#DFE9ED"/>
<path d="M284.021 749.261H242.721V790.561H284.021V749.261Z" fill="#DFE9ED"/>
<path d="M284.021 790.561H242.721V831.861H284.021V790.561Z" fill="#DFE9ED"/>
<path d="M242.72 584.07H201.42V625.37H242.72V584.07Z" fill="#DFE9ED"/>
<path d="M242.72 625.37H201.42V666.67H242.72V625.37Z" fill="#DFE9ED"/>
<path d="M242.72 666.67H201.42V707.97H242.72V666.67Z" fill="#DFE9ED"/>
<path d="M242.72 707.96H201.42V749.26H242.72V707.96Z" fill="#DFE9ED"/>
<path d="M242.72 749.261H201.42V790.561H242.72V749.261Z" fill="#DFE9ED"/>
<path d="M242.72 790.561H201.42V831.861H242.72V790.561Z" fill="#DFE9ED"/>
<path d="M201.419 584.07H160.119V625.37H201.419V584.07Z" fill="#DFE9ED"/>
<path d="M201.419 625.37H160.119V666.67H201.419V625.37Z" fill="#DFE9ED"/>
<path d="M201.419 666.67H160.119V707.97H201.419V666.67Z" fill="#DFE9ED"/>
<path d="M201.419 707.96H160.119V749.26H201.419V707.96Z" fill="#DFE9ED"/>
<path d="M201.419 749.261H160.119V790.561H201.419V749.261Z" fill="#DFE9ED"/>
<path d="M201.419 790.561H160.119V831.861H201.419V790.561Z" fill="#DFE9ED"/>
<path d="M160.13 584.07H118.83V625.37H160.13V584.07Z" fill="#DFE9ED"/>
<path d="M160.13 625.37H118.83V666.67H160.13V625.37Z" fill="#DFE9ED"/>
<path d="M160.13 666.67H118.83V707.97H160.13V666.67Z" fill="#DFE9ED"/>
<path d="M160.13 707.96H118.83V749.26H160.13V707.96Z" fill="#DFE9ED"/>
<path d="M160.13 749.261H118.83V790.561H160.13V749.261Z" fill="#DFE9ED"/>
<path d="M160.13 790.561H118.83V831.861H160.13V790.561Z" fill="#DFE9ED"/>
</g>
<path d="M251.271 422.851V388.131L237.051 392.331L237.081 413.441L251.271 422.851Z" fill="#A5B1C4"/>
<path d="M222.82 404.551L237.05 403.441V391.141L222.82 388.131V404.551Z" fill="#DFE9ED"/>
<path d="M222.82 453.821L237.05 445.601V429.181V412.771L222.83 420.971H222.82V420.981V437.391V453.821Z" fill="#DFE9ED"/>
<path d="M179.062 443.96V427.54L164.842 430.68V452.74L179.062 443.96Z" fill="#A5B1C4"/>
<path d="M165.931 453.82V453.81V428.29L164.601 428.68L151.711 429.18V445.6V445.61V462.03V478.45L165.931 470.24V453.82Z" fill="#DFE9ED"/>
<mask id="mask1_2587_18448" style="mask-type:luminance" maskUnits="userSpaceOnUse" x="137" y="340" width="115" height="98">
<path d="M237.05 347.07L229.55 342.74C225.39 340.34 220.26 340.34 216.1 342.74L208.61 347.07L194.39 355.28L180.17 363.49H180.16L165.94 371.71L151.72 379.91L143.19 384.84C139.67 386.87 137.5 390.63 137.5 394.7V397.38C137.5 401.81 139.87 405.91 143.7 408.13H143.71C148.66 411 151.72 416.28 151.72 422V424.28V429.17L165.94 437.38L180.17 429.18V396.33L194.39 388.12L208.61 379.91L214.89 376.29L218.64 374.12C220.5 373.04 222.83 374.38 222.84 376.54V379.73V384.06V388.13L237.07 396.34L251.29 388.13V371.71V361.32C251.29 357.58 249.3 354.13 246.06 352.26L237.07 347.07H237.05ZM165.93 404.56V404.54H165.94L165.93 404.56Z" fill="white"/>
</mask>
<g mask="url(#mask1_2587_18448)">
<path d="M237.049 361.01L227.499 357.99C224.599 356.32 221.039 356.32 218.139 357.99L208.609 363.49H208.599L194.379 371.7L180.159 379.91L180.149 379.92L165.939 388.13L180.159 396.34L194.379 388.13L208.599 379.92L214.879 376.3L219.089 373.86C220.749 372.9 222.829 374.1 222.829 376.02V384.06V388.13L230.159 392.36C234.429 394.82 239.689 394.82 243.959 392.36L251.279 388.13V371.71V355.28L237.059 361.01H237.049Z" fill="#353644"/>
<path d="M165.94 401.221V404.571L165.93 401.221L151.71 396.351L137.49 388.141V404.561L145.27 409.051C149.25 411.351 151.71 415.601 151.71 420.201V429.191L157.16 431.961L158.98 433.091C163.26 435.751 168.66 435.831 173.02 433.321L180.16 429.201V396.351L165.94 401.221Z" fill="#353644"/>
<path d="M237.05 347.07L222.82 338.86L208.6 347.07L194.38 355.28L180.16 363.49H180.15L165.93 371.71L151.71 379.91L137.49 388.13L151.71 396.34L157.3 399.73L162.81 402.8C164.75 403.88 167.12 403.87 169.04 402.75L180.16 396.33L173.4 392.42L171.36 391.25L168.71 389.71C167.49 389.01 167.51 387.24 168.75 386.57L175.6 382.82L180.16 379.91H180.17L194.39 371.7L208.61 363.49L208.62 363.48L218.05 358.04C221.01 356.33 224.66 356.33 227.62 358.04L234.21 361.84C235.97 362.86 238.15 362.86 239.91 361.84L249.19 356.48L251.28 355.27L237.06 347.06L237.05 347.07Z" fill="#53576B"/>
</g>
<path d="M166.541 700.901L141.791 688.311C132.691 684.071 114.461 691.421 109.441 702.331C102.911 716.541 105.051 730.901 110.751 734.971C111.261 735.341 114.451 737.471 115.051 737.641L137.981 750.371L166.541 700.901Z" fill="url(#paint0_linear_2587_18448)"/>
<path d="M168.132 734.804C176.018 721.144 175.301 705.964 166.529 700.9C157.757 695.835 144.253 702.804 136.366 716.464C128.479 730.124 129.197 745.303 137.969 750.367C146.741 755.432 160.245 748.464 168.132 734.804Z" fill="#353644"/>
<path d="M159.18 713.83C157.9 713.09 156.4 712.89 154.83 713.15C156.09 716.53 155.46 721.42 152.84 725.96C150.22 730.5 146.3 733.49 142.74 734.09C143.3 735.58 144.22 736.78 145.5 737.52C149.7 739.95 156.17 736.61 159.95 730.06C163.73 723.51 163.38 716.25 159.18 713.82V713.83Z" fill="#A5B1C4"/>
<path d="M152.842 725.97C155.462 721.43 156.092 716.54 154.832 713.16C151.272 713.76 147.352 716.75 144.732 721.29C142.112 725.83 141.482 730.72 142.742 734.1C146.302 733.5 150.222 730.51 152.842 725.97Z" fill="#DFE9ED"/>
<path d="M254.791 747.91L230.041 735.32C220.941 731.08 202.711 738.43 197.691 749.34C191.161 763.55 193.301 777.91 199.001 781.98C199.511 782.35 202.701 784.48 203.301 784.65L226.231 797.38L254.791 747.91Z" fill="url(#paint1_linear_2587_18448)"/>
<path d="M256.38 781.811C264.266 768.151 263.549 752.972 254.777 747.908C246.005 742.843 232.501 749.811 224.614 763.471C216.727 777.131 217.445 792.311 226.217 797.375C234.989 802.44 248.493 795.471 256.38 781.811Z" fill="#353644"/>
<path d="M247.43 760.84C246.15 760.1 244.65 759.9 243.08 760.16C244.34 763.54 243.71 768.43 241.09 772.97C238.47 777.51 234.55 780.5 230.99 781.1C231.55 782.59 232.47 783.79 233.75 784.53C237.95 786.96 244.42 783.62 248.2 777.07C251.98 770.52 251.63 763.26 247.43 760.83V760.84Z" fill="#A5B1C4"/>
<path d="M241.092 772.98C243.712 768.44 244.342 763.55 243.082 760.17C239.522 760.77 235.602 763.76 232.982 768.3C230.362 772.84 229.732 777.73 230.992 781.11C234.552 780.51 238.472 777.52 241.092 772.98Z" fill="#DFE9ED"/>
<path d="M425.131 649.87L400.381 637.28C391.281 633.04 373.051 640.39 368.031 651.3C361.501 665.51 363.641 679.87 369.341 683.94C369.851 684.31 373.041 686.44 373.641 686.61L396.571 699.34L425.131 649.87Z" fill="url(#paint2_linear_2587_18448)"/>
<path d="M426.729 683.774C434.616 670.114 433.898 654.935 425.126 649.871C416.355 644.806 402.85 651.774 394.964 665.434C387.077 679.094 387.795 694.274 396.566 699.338C405.338 704.402 418.843 697.434 426.729 683.774Z" fill="#353644"/>
<path d="M417.77 662.8C416.49 662.06 414.99 661.86 413.42 662.12C414.68 665.5 414.05 670.39 411.43 674.93C408.81 679.47 404.89 682.46 401.33 683.06C401.89 684.55 402.81 685.75 404.09 686.49C408.29 688.92 414.76 685.58 418.54 679.03C422.32 672.48 421.97 665.22 417.77 662.79V662.8Z" fill="#A5B1C4"/>
<path d="M411.431 674.94C414.051 670.4 414.681 665.51 413.421 662.13C409.861 662.73 405.941 665.72 403.321 670.26C400.701 674.8 400.071 679.69 401.331 683.07C404.891 682.47 408.811 679.48 411.431 674.94Z" fill="#DFE9ED"/>
<mask id="mask2_2587_18448" style="mask-type:luminance" maskUnits="userSpaceOnUse" x="119" y="77" width="300" height="384">
<path d="M404.1 135.14H404.09L389.88 126.93H389.87L375.65 118.72L361.43 110.51L347.21 102.3H347.2L332.99 94.0802H332.98L318.76 85.8702L304.54 77.6602L297.61 81.6702L294.58 83.4202L301.76 93.3702L299.32 94.7802L290.32 102.3L276.81 105.52L264.88 100.48L261.88 102.3L247.66 110.51L233.44 118.72L219.22 126.93H219.21L205 135.14H204.99L190.77 143.36L189.44 157.11L187.55 158.55L187.11 160.48L176.56 167.98L176.55 167.99L162.22 172.89L148.11 167.99L133.89 176.2H133.88L130.09 178.39C123.64 182.11 119.67 188.99 119.67 196.44V200.83V217.25V266.52V282.94V299.36V348.63V365.05V385.49C119.67 393.17 123.77 400.26 130.41 404.1L133.89 406.11L148.11 414.32L162.33 422.53H162.34L176.56 430.74L185.22 435.75L190.78 438.96L205 447.17H205.01L213.66 452.17L219.22 455.38L220.93 456.37L223.91 458.09C229.81 461.5 237.09 461.5 242.99 458.09L247.66 455.39H247.67L261.89 447.17L276.11 438.96L290.33 430.75H290.34L304.55 422.54H304.56L318.78 414.32L324.33 411.11L333 406.1L347.22 397.89L352.77 394.69L361.45 389.68L375.67 381.47L389.89 373.26L404.11 365.05L406.63 363.59L410.79 361.18C415.46 358.48 418.33 353.5 418.33 348.11V323.99V307.56V274.72V241.87V225.45V209.03V192.6V159.76V152.36C418.33 146.78 415.34 141.62 410.5 138.85L405.89 136.2L404.12 135.12L404.1 135.14ZM389.87 176.19V209.04V225.46V241.88V274.73V291.15V340.42L375.65 348.64L361.43 356.85L347.21 365.06H347.2L332.99 373.27H332.98L318.76 381.48L304.54 389.69L290.32 397.9H290.31L276.09 406.12L261.88 414.33H261.87L247.65 422.54L233.43 424.29L219.2 422.54L204.98 414.33L190.76 406.12L176.54 397.91L176.53 397.9L162.31 389.69L148.09 381.48V299.37V282.95V266.53V198.6C150.58 198.6 153.07 197.96 155.3 196.67L162.31 192.62L176.53 184.41H176.54L190.76 176.2L204.98 167.99L219.2 159.78L233.43 151.56L247.65 143.35L261.87 135.15L276.09 126.93L290.31 118.72H290.32L304.53 110.51H304.54L318.76 118.72L332.98 126.93L347.2 135.14L361.43 143.36L375.64 151.57H375.65L380.42 154.33C383.34 156.02 386.6 156.86 389.87 156.86V176.19Z" fill="white"/>
</mask>
<g mask="url(#mask2_2587_18448)">
<path d="M404.09 151.57L389.87 155.67V176.19V176.2V192.62V209.04V209.05V225.46V225.47V241.88V241.89V258.31V274.73V274.74V291.15V291.16V307.58V324V340.42V340.43L375.65 348.64L361.43 356.85L347.21 365.06H347.2L332.99 373.27H332.98L318.76 381.48L304.54 389.69L290.32 397.9L290.31 397.91L276.09 406.12L261.88 414.33H261.87L247.65 422.54L233.43 424.29V447.16V447.17V463.59L247.63 455.39L247.65 455.38L261.87 447.17L276.09 438.96L290.3 430.75H290.31V430.74L290.32 430.75L304.53 422.54H304.54V422.53L318.76 414.32L324.31 411.11L332.98 406.11L347.2 397.9L352.75 394.7L361.43 389.69L375.65 381.48L389.87 373.27L404.09 365.06L418.31 356.85V356.84V340.42V324.01V324V307.58V307.57V291.16V274.74V274.73V258.31V241.89V241.88V225.47V225.46V209.05V209.04V192.62V192.61V176.2V159.78V159.77V143.36L404.09 151.56V151.57Z" fill="#C6A76F"/>
<path d="M119.65 381.48V397.9L133.87 406.11L148.09 414.32L162.31 422.53H162.32L176.54 430.74L185.2 435.75L190.76 438.96L204.98 447.17H204.99L213.64 452.17L219.2 455.38L227.87 460.38L233.43 463.59V447.17V424.29L219.2 422.54L204.98 414.33L190.76 406.12L176.54 397.91L176.53 397.9L162.31 389.69L148.09 381.48V299.37V282.95V266.53V195L133.87 192.62L119.65 184.41V200.83V217.25V266.52V282.94V299.36V348.63V365.05V381.48Z" fill="#E8CEA0"/>
<path d="M133.87 192.62L140.88 196.67C145.34 199.24 150.83 199.24 155.29 196.67L162.3 192.62L176.52 184.41H176.53L190.75 176.2L204.97 167.99L219.19 159.78L233.42 151.56L247.64 143.35L261.86 135.15L276.08 126.93L290.3 118.72H290.31L304.52 110.51H304.53L318.75 118.72L332.97 126.93L347.19 135.14L361.42 143.36L375.63 151.57H375.64L380.41 154.33C386.26 157.71 393.46 157.71 399.3 154.33L404.07 151.57L418.29 143.36L404.08 135.14H404.07L389.86 126.93H389.85L375.63 118.72L361.41 110.51L347.19 102.3H347.18L332.97 94.08H332.96L318.74 85.87L311.45 81.66C307.16 79.18 301.88 79.19 297.59 81.66L294.56 83.41L301.74 93.36L299.3 94.77L290.3 102.29L276.79 105.51L264.86 100.47L261.86 102.29L247.64 110.5L233.42 118.71L219.2 126.92H219.19L204.98 135.13H204.97L190.75 143.35L189.42 157.1L187.53 158.54L187.09 160.47L176.54 167.97L176.53 167.98L162.2 172.88L148.09 167.98L133.87 176.19H133.86L119.65 184.4L133.87 192.61V192.62Z" fill="#F2E8C4"/>
</g>
<path d="M219.201 465.939L204.981 474.149H204.971L204.961 474.159V490.389V490.399V506.809V506.819V523.039L219.181 514.829L233.401 506.619L247.631 498.409V482.359V482.179V465.939V465.759V465.749V455.939L233.431 464.139L227.871 460.939L219.201 465.939Z" fill="#DFE9ED"/>
<path d="M247.631 465.76V465.94V482.18V482.36V498.41L233.401 506.62L219.181 514.83L204.961 523.04V506.82V506.81V490.4V490.39V474.16L190.761 482.36L176.541 490.57H176.531L162.311 498.78V515.2V515.21V531.63V547.68L176.511 539.47L190.731 531.26L204.961 523.05V523.23V523.24V539.47V539.48V555.89V555.9V572.13L219.181 563.92L233.401 555.71L247.631 547.5V531.45V531.26V515.03V514.84V514.83V498.78V498.6L261.851 490.39L276.071 482.18L290.301 473.97V457.73V441.31V441.3V431.31L276.091 439.51L261.871 447.72L247.651 455.93L247.631 455.94V465.75V465.76Z" fill="#DFE9ED"/>
<path d="M190.731 629.62L204.961 621.41V621.4V604.99V604.98V588.57V588.56V572.32V572.31V572.14L190.731 580.35L176.511 588.56L162.311 596.76V597.32V613.73V613.74V630.16V630.17V646.03L176.511 637.83L190.731 629.62Z" fill="#DFE9ED"/>
<path d="M261.851 539.47L247.631 547.68V547.87V563.92V563.93V564.11V580.35V580.53V596.76V596.77V596.95L261.851 588.74L276.071 580.53L290.301 572.32V572.31V555.9V539.48V539.47V523.24V523.23V523.05L276.071 531.26L261.851 539.47Z" fill="#DFE9ED"/>
<path d="M190.731 580.35L204.961 572.14V572.31V572.32V588.56V588.57V604.98V604.99V621.4L219.181 613.19L233.401 604.98L247.631 596.77V596.76V580.53V580.35V564.11V563.93V563.92V547.87V547.68L261.851 539.47L276.071 531.26L290.301 523.05V506.82V490.4V490.39V474.15V474.14V473.97L276.071 482.18L261.851 490.39L247.631 498.6V498.78V514.83V514.84V515.03V531.26V531.45V547.5L233.401 555.71L219.181 563.92L204.961 572.13V555.9V555.89V539.48V539.47V523.24V523.23V523.05L190.731 531.26L176.511 539.47L162.311 547.68V548.05V564.47V564.48V580.89V596.76L176.511 588.56L190.731 580.35Z" fill="#DFE9ED"/>
<path d="M304.541 432.55V448.96V465.38V481.81V514.65V580.34L318.761 588.56L332.981 596.77V580.35V514.66V498.24V448.97V416.12L324.311 411.11L318.761 414.32L304.541 422.53V432.54V432.55ZM318.761 440.76H318.751L318.761 440.75V440.76Z" fill="#DFE9ED"/>
<path d="M375.65 440.75L361.42 432.54V448.96V498.23V531.07V563.92V596.76V613.19H361.43L375.64 621.4H375.65L389.87 629.61V596.77V514.66V498.24V443.89L375.65 440.76V440.75Z" fill="#DFE9ED"/>
<path d="M375.64 621.4L361.43 613.19H361.42L347.21 621.4H347.2L332.98 629.61L318.76 637.83L304.54 646.03L290.32 654.25H290.31L276.09 662.46L261.88 670.67H261.87L247.65 678.88L233.43 687.09H233.42L219.21 695.3H219.2L204.99 703.51L219.2 711.72L224.36 714.7C229.97 717.94 236.87 717.94 242.48 714.7L243.93 713.87L247.65 711.72L261.87 703.51L276.09 695.3L290.31 687.09H290.32L304.53 678.88H304.54L318.76 670.67L332.98 662.46L347.2 654.25L361.42 646.04L375.65 637.82L389.87 629.61L375.65 621.4H375.64Z" fill="#FFFFF8"/>
<path d="M290.311 397.91L290.321 397.9H290.311V397.91Z" fill="#5FF25F"/>
<path d="M261.871 414.33H261.881L261.871 414.32V414.33Z" fill="#5FF25F"/>
<path d="M219.201 438.96H219.211L219.201 438.95V438.96Z" fill="#5FF25F"/>
<path d="M219.2 695.3H219.21L233.42 687.1V687.09H233.43L247.65 678.88L261.87 670.67H261.88L276.09 662.46L290.31 654.25H290.32L304.54 646.04V646.03L318.76 637.83L332.98 629.62V629.61L347.2 621.41V621.4H347.21L361.42 613.2V613.19V596.77V596.76V580.34V563.93V563.92V547.5V531.08V531.07V514.66V498.24V498.23V481.81V465.39V448.97V448.96V432.54L347.2 424.33V440.75V457.18V473.6V490.02V506.45V522.86V522.87V539.29V555.71V572.13H347.21L347.2 572.14V588.55V604.98L332.98 613.19L318.76 621.4L304.54 629.61L290.32 637.82H290.31V637.83L276.09 646.03V646.04L261.87 654.25L247.65 662.45V662.46L233.43 670.67H233.42L219.2 678.88L204.99 687.09H204.98L190.76 695.3L204.98 703.51H204.99L219.2 695.31V695.3Z" fill="#353644"/>
<path d="M204.98 430.75H204.99L204.98 430.74V430.75Z" fill="#5FF25F"/>
<path d="M204.991 687.09L219.201 678.88L233.421 670.67H233.431L247.651 662.46V662.45L261.871 654.25L276.091 646.04V646.03L290.311 637.83V637.82H290.321L304.541 629.61L318.761 621.4L332.981 613.19L347.201 604.98V588.55V572.14V572.13V555.71V539.29V522.87V522.86V506.45V490.02V473.6V457.18V440.75V424.33L332.981 416.12V432.54V448.96V448.97V465.39V481.81V498.23V498.24V514.65V514.66V531.08V547.5V563.92V580.34V580.35V596.76V596.77L318.761 604.97V604.98L304.541 613.18V613.19H304.531L290.311 621.4L276.091 629.61L261.871 637.82L247.651 646.03V646.04L247.641 646.03L233.431 654.24H233.421V654.25L219.201 662.45V662.46L204.981 670.66V670.67L190.761 678.87V678.88L176.541 687.08V687.09L190.761 695.3L204.981 687.09H204.991Z" fill="#A5B1C4"/>
<path d="M190.76 678.88L204.98 670.67L219.2 662.46L233.42 654.25L233.43 654.24L247.64 646.03H247.65L261.87 637.82L276.09 629.61L290.31 621.4L304.53 613.19H304.54L318.76 604.98L332.98 596.77L318.76 588.56L304.54 580.35L290.32 588.56H290.31L276.09 596.77L261.87 604.98L247.65 613.19L233.43 621.4H233.42L219.2 629.61L204.99 637.82H204.98L190.76 646.03L176.54 654.24L162.32 662.46H162.31L148.09 670.67L162.31 678.88H162.32L176.53 687.09H176.54L190.76 678.88Z" fill="#FFFFF8"/>
<path d="M162.31 662.45L162.32 662.46L176.54 654.25V654.24L190.76 646.03L204.98 637.83V637.82H204.99L219.2 629.62V629.61L233.42 621.41V621.4H233.43L247.65 613.19L261.87 604.98L276.09 596.77L290.31 588.56V588.55L290.32 588.56L304.54 580.35V580.34V563.92V547.5V531.08V514.66H304.53L304.54 514.65V498.23V481.82V481.81V465.39V465.38V448.97V448.96V432.55V432.54V422.54H304.53L290.32 430.75L290.31 430.74V430.75V440.75L290.32 440.76H290.31V457.17V457.18V473.6V490.02V490.03V506.44V522.87V539.28V539.29V555.71V555.72V572.13L276.09 580.34L261.87 588.55L247.65 596.76V596.77H247.64L233.42 604.97V604.98L219.2 613.19L204.98 621.4H204.97L190.76 629.61L176.54 637.82H176.53L162.31 646.03V645.48V629.62V629.61V613.19V613.18V596.77V596.21V580.34V563.93V563.92V547.5V547.12V531.08V514.66V514.65V498.23L176.53 490.02H176.54L190.76 481.81L204.96 473.6H204.97H204.98L219.2 465.39L227.87 460.38L219.2 455.38L213.64 452.17L204.98 457.17V457.18H204.97L190.76 465.38V465.39H190.75L176.54 473.59V473.6L176.53 473.59L162.31 481.81L148.09 485.89V506.44V522.87V539.29V555.71V572.13V572.14V588.55V588.56V604.97V604.98V621.4V637.82V637.83V654.24V654.25V670.67L162.31 662.46V662.45Z" fill="#DFE9ED"/>
<path d="M347.201 151.56V200.83V233.68L353.761 237.46C357.171 239.43 361.431 236.97 361.431 233.03V225.47V192.63V143.36L347.201 135.14V151.56Z" fill="#353644"/>
<path d="M332.98 159.78V209.04V221.12C332.98 223.81 334.42 226.3 336.75 227.65L347.2 233.68V200.84V151.57V135.14L332.98 126.93V159.78Z" fill="#A5B1C4"/>
<path d="M340.1 164.609V181.029V197.449L351.32 203.939C352.65 204.709 354.32 203.749 354.32 202.209V189.249V173.969C354.32 173.259 353.94 172.599 353.32 172.239L340.1 164.609Z" fill="#A5B1C4"/>
<path d="M340.102 458.66V475.08V491.5L351.322 497.99C352.652 498.76 354.322 497.8 354.322 496.26V483.3V468.02C354.322 467.31 353.942 466.65 353.322 466.29L340.102 458.66Z" fill="#A5B1C4"/>
<path d="M340.102 535.91V552.33V568.75L351.322 575.24C352.652 576.01 354.322 575.05 354.322 573.51V560.55V545.27C354.322 544.56 353.942 543.9 353.322 543.54L340.102 535.91Z" fill="#A5B1C4"/>
<path d="M291.301 629.77L277.081 637.979L262.861 646.19L248.641 654.4L261.861 662.03C262.481 662.39 263.241 662.39 263.861 662.03L277.081 654.4L291.301 646.19L302.531 639.71C303.861 638.94 303.861 637.01 302.531 636.25L291.301 629.77Z" fill="#A5B1C4"/>
<mask id="mask3_2587_18448" style="mask-type:luminance" maskUnits="userSpaceOnUse" x="119" y="394" width="300" height="356">
<path d="M404.09 424.34L389.87 416.12H389.86L375.65 407.91H375.64L361.42 399.7L352.75 394.7L347.2 397.9L332.98 406.11L324.31 411.12L332.98 416.13L347.2 424.34L361.42 432.55L375.65 440.76L380.11 443.34C383.13 445.08 386.5 445.95 389.87 445.95V498.24V514.66V596.77V629.62L375.65 637.83L361.42 646.04L347.2 654.26L332.98 662.46L318.76 670.68L304.54 678.89H304.53L290.32 687.1H290.31L276.09 695.31L261.87 703.52L247.65 711.73L233.43 714.42V719.94L233.42 714.42L219.2 711.73L204.99 703.52H204.98L190.76 695.31L176.54 687.1H176.53L162.32 678.89H162.31L148.09 670.68V654.26V637.84V604.99V588.57V572.15V488.12C150.23 488.12 152.36 487.57 154.27 486.46L162.31 481.82L176.53 473.6H176.54L190.75 465.4H190.76L204.97 457.19H204.98L213.64 452.18L204.99 447.18H204.98L190.76 438.97L185.2 435.76L176.54 440.76L176.53 440.77L162.31 448.98L148.09 457.18L133.87 465.4H133.86L128.21 468.67C122.91 471.73 119.65 477.38 119.65 483.49V506.45V522.87V555.71V572.14V588.56V604.98V670.67V673.96C119.65 682.09 123.98 689.6 131.02 693.67L131.36 693.87L133.87 695.32L148.08 703.52L162.3 711.74L176.52 719.95H176.53L190.74 728.16H190.75L204.96 736.37H204.97L219.19 744.58L223.83 747.26C229.75 750.68 237.04 750.69 242.97 747.27L246.52 745.22L247.62 744.57H247.63L261.85 736.36L276.07 728.14L290.29 719.93L304.51 711.72H304.52L318.74 703.51L332.95 695.3H332.96L347.18 687.09L361.4 678.88L375.62 670.67H375.63L389.85 662.45L404.07 654.24L408.42 651.73C414.53 648.2 418.29 641.68 418.29 634.63V629.62V613.19V580.35V563.93V514.66V481.82V465.39V448.97V443.47C418.29 436.7 414.68 430.45 408.82 427.07L404.07 424.33L404.09 424.34Z" fill="white"/>
</mask>
<g mask="url(#mask3_2587_18448)">
<path d="M219.2 744.571L233.41 752.781H233.42V736.361V719.941V714.411L219.2 711.721L204.99 703.511H204.98L190.76 695.301L176.54 687.091H176.53L162.32 678.881H162.31L148.09 670.671V654.251V654.241V637.831V637.821V621.401V604.981V604.971V588.561V588.551V572.141V572.131V555.711V539.291V522.871V506.441V484.561L133.87 481.811L119.65 473.601V490.021V506.441V506.451V522.861V522.871V539.291V555.701V555.711V572.131V572.141V588.551V588.561V604.971V604.981V621.401V637.821V654.231V654.251V670.661V670.671V687.091V687.101L133.87 695.311L148.08 703.511H148.09V703.521L162.31 711.731L176.53 719.941H176.54L190.75 728.151H190.76L204.97 736.361H204.98L219.2 744.571Z" fill="#353644"/>
<path d="M375.64 670.67L375.65 670.66L389.87 662.45L404.09 654.24L418.31 646.03V629.62V629.61V613.19V613.18V596.77V580.35V580.34V563.93V563.92V547.5V531.08V514.66V514.65V498.23V481.82V481.81V465.39V465.38V448.97V448.96V432.54L404.09 440.75L389.87 443.89V465.39V481.81V498.23V498.24V514.65V514.66V531.08V547.5V563.92V580.35V596.76V596.77V613.19V629.61L375.65 637.82L361.42 646.03V646.04L347.2 654.25L332.98 662.45V662.46L318.76 670.67L304.54 678.88H304.53L290.32 687.09H290.31L276.09 695.3L261.87 703.51L247.65 711.72L233.43 714.41L233.42 719.93V719.94V736.36V752.78L247.64 744.57L247.65 744.56L261.87 736.36V736.35L276.09 728.14L290.31 719.93L304.53 711.72H304.54L318.76 703.51L332.97 695.3H332.98L347.2 687.09L361.42 678.88V678.87L375.64 670.67Z" fill="#353644"/>
<path d="M404.091 424.34L389.871 416.12H389.861L375.651 407.91H375.641L361.421 399.7L352.751 394.7L347.201 397.9L332.981 406.11L324.311 411.12L332.981 416.13L347.201 424.34L361.421 432.55L375.651 440.76L380.111 443.34C386.151 446.82 393.591 446.82 399.641 443.34L404.101 440.77L418.321 432.56L404.101 424.36L404.091 424.34Z" fill="#53576B"/>
<path d="M176.54 473.59L190.75 465.39H190.76L204.97 457.18H204.98L213.64 452.17L204.99 447.17H204.98L190.76 438.96L185.2 435.75L176.54 440.75L176.53 440.76L162.31 448.97L148.09 457.17L133.87 465.39H133.86L119.65 473.6L133.87 481.81L141.91 486.45C145.74 488.66 150.45 488.66 154.28 486.45L162.32 481.81L176.54 473.59Z" fill="#53576B"/>
</g>
<path d="M361.432 324L347.212 315.79H347.202L332.982 307.58L318.762 299.37L304.542 291.16L304.532 291.15L290.312 299.37L276.092 307.58L261.882 315.79L247.662 324H247.652L233.442 332.21H233.432L219.212 340.42L204.992 348.63L190.772 356.84H190.762L176.552 365.05H176.542L162.322 373.27L148.102 381.48L162.322 389.69L176.542 397.9H176.552L190.772 406.12L204.992 414.32L219.212 422.54L220.942 423.54C228.672 428 238.202 428 245.932 423.54L247.662 422.54L261.882 414.33H261.892L276.102 406.12L290.322 397.91L290.332 397.9L304.552 389.69L318.772 381.48L332.992 373.27H333.002L347.212 365.06H347.222L361.442 356.85L375.662 348.64L389.882 340.43L375.662 332.21L361.442 324H361.432ZM204.982 397.9H204.992L204.982 397.91V397.9Z" fill="#F2E8C4"/>
<path d="M190.76 143.359L204.98 135.149V135.139H204.99L219.2 126.939V126.929H219.21L233.43 118.729V118.719L247.65 110.509L261.87 102.299L264.87 100.479" stroke="#C6AF8F" stroke-width="3" stroke-miterlimit="10"/>
<path d="M297.61 81.6698C301.9 79.1898 307.18 79.1898 311.47 81.6598L318.76 85.8698L332.98 94.0798H332.99L347.2 102.29L347.21 102.3L361.43 110.5L375.65 118.72L389.87 126.93H389.88L404.09 135.14H404.1L405.87 136.22L410.48 138.87C412.9 140.26 414.86 142.24 416.21 144.57C417.56 146.91 418.31 149.59 418.31 152.38V348.13C418.31 353.52 415.44 358.5 410.77 361.2L406.63 363.6L404.09 365.06L389.87 373.27L375.65 381.48L361.43 389.69L352.75 394.7L347.2 397.9L332.98 406.11L324.31 411.11L318.76 414.32L304.54 422.53L304.53 422.54L290.32 430.75H290.31L276.09 438.96L247.65 455.38H247.64L242.97 458.08C240.02 459.79 236.72 460.64 233.43 460.64C230.14 460.64 226.84 459.79 223.89 458.09L219.2 455.38L213.64 452.17L204.99 447.17H204.98L190.76 438.96L185.2 435.75L176.54 430.75L162.32 422.54H162.31L148.09 414.32L133.87 406.11L130.39 404.1C123.75 400.26 119.65 393.17 119.65 385.49V196.44C119.65 192.72 120.64 189.14 122.44 186.02C124.24 182.91 126.85 180.26 130.07 178.39L133.86 176.21H133.87L148.09 167.99" stroke="#C6AF8F" stroke-width="3" stroke-miterlimit="10"/>
<mask id="mask4_2587_18448" style="mask-type:luminance" maskUnits="userSpaceOnUse" x="148" y="16" width="157" height="159">
<path d="M290.32 69.45H290.31V21.38C290.31 20.65 289.91 19.97 289.26 19.63C280.69 15.08 270.38 15.26 261.98 20.12L261.87 20.18L247.65 28.39H247.64L233.43 36.59L219.2 44.81L204.98 53.02L190.76 61.23L176.54 69.44H176.53L170.18 73.11C165.31 75.93 162.31 81.13 162.31 86.75V94.07H162.32L162.31 94.08V110.49H162.32L162.31 110.51V143.34L154.84 147.66C150.66 150.07 148.09 154.53 148.09 159.35V162.72C148.09 165.97 149.83 168.98 152.64 170.61L157.17 173.22C160.35 175.06 164.27 175.06 167.45 173.22L176.53 167.98H176.54L184.02 163.65L187.01 161.92C189.33 160.58 190.76 158.11 190.76 155.43V105.89C190.76 98.57 194.66 91.81 201 88.15L204.98 85.85L219.2 77.64L219.21 77.63L233.43 69.43L247.65 61.21L254.83 57.07C257.96 55.26 261.87 57.52 261.87 61.14V97.02C261.87 100.27 263.61 103.28 266.42 104.9L271.36 107.75C274.28 109.44 277.88 109.44 280.8 107.75L290.3 102.27L299.64 96.88C302.66 95.13 304.53 91.91 304.53 88.42V87.86V85.85C304.53 80.76 301.82 76.06 297.41 73.52L290.31 69.42L290.32 69.45ZM178.42 87.03C178.42 87.03 178.42 87.05 178.41 87.05L176.53 85.88L178.43 87.03H178.42Z" fill="white"/>
</mask>
<g mask="url(#mask4_2587_18448)">
<path d="M290.311 85.8702V85.8802H290.321L304.541 77.6702V77.6602L290.321 69.4502H290.311V69.4602V85.8702Z" fill="#A07F57"/>
<path d="M176.541 135.15V135.14V118.72V102.3L182.501 89.5899L176.531 85.8799L162.311 77.6699V94.0799L162.321 94.0899H162.311V110.5L162.321 110.51L162.311 110.52V126.93V143.35V143.36L176.541 151.57V135.15Z" fill="#77552C"/>
<path d="M178.501 87.0704L181.541 88.8504L190.761 77.6704L204.981 69.4604H204.991L219.201 61.2604L233.431 53.0404L247.651 44.8304L261.871 36.6204L276.091 28.4104L290.311 20.2004L290.201 20.1304C278.941 12.1204 270.711 15.0904 261.981 20.1304L261.871 20.1904L247.651 28.4004H247.641L233.431 36.6004L219.201 44.8204L204.981 53.0304L190.761 61.2404L176.541 69.4504H176.531L162.311 77.6704L176.531 85.8804L178.501 87.0704Z" fill="#A07F57"/>
<path d="M290.32 85.8804H290.31V69.4604V20.1904L276.09 28.4004L261.87 36.6104L247.65 44.8204L233.43 53.0304L219.2 61.2404L204.99 69.4504H204.98L190.76 77.6604L183.68 81.7504C179.26 84.3004 176.54 89.0104 176.54 94.1204V135.14V151.57L163.83 156.04L163.53 153.78L162.3 156.34L148.08 151.58V168L162.3 176.21L176.52 168H176.53L184.01 163.67L187 161.94C189.32 160.6 190.75 158.13 190.75 155.45V102.87C190.75 97.4304 193.65 92.4104 198.36 89.6904L204.97 85.8704L219.19 77.6604L219.2 77.6504L233.42 69.4504L247.64 61.2304L255.77 56.5404C258.48 54.9804 261.86 56.9304 261.86 60.0604V97.0404C261.86 100.29 263.6 103.3 266.41 104.92L271.35 107.77L276.07 110.49L290.29 102.29L304.51 94.0804H304.52V77.6604L290.3 85.8704L290.32 85.8804Z" fill="#77552C"/>
<path d="M171.75 154.33L174.42 152.79L176.53 151.57L162.3 143.36L148.08 151.57L157.07 156.75C160.31 158.62 164.3 158.62 167.54 156.75L171.75 154.33Z" fill="#A07F57"/>
</g>
<path d="M466.25 241.13V257.52L480.61 249.23L494.97 240.94L509.34 232.65V232.82V232.84V249.23V249.24V265.81V265.82V282.2L523.7 273.91L538.06 265.62L552.43 257.33V241.13V240.94V224.54V224.36V224.35V208.14V207.95L566.79 199.66L581.15 191.37L594.62 183.6V168.31H594.63L594.62 168.3V151.73V135.15L580.26 143.44L565.91 151.72H565.9V151.73L552.43 159.51V174.78V174.79V174.98V191.37V191.56V207.77L538.06 216.06L523.7 224.35L509.34 232.64V216.25V216.24V199.67V199.66V184.38L508.45 184.89L494.09 193.18L479.73 201.48V201.49H479.72L466.25 209.26V224.54V241.13Z" fill="#C6A76F"/>
<path d="M509.34 199.671V216.241V216.251V232.641L523.7 224.351L538.06 216.061L552.43 207.771V191.561V191.371V174.981V174.791V174.781V159.511L551.54 160.021L537.18 168.311L522.81 176.601L509.34 184.381V199.661V199.671Z" fill="#C6A76F"/>
<path d="M566.79 199.661L552.43 207.951V208.141V224.351V224.361V224.541V240.941V241.131V257.331L538.06 265.621L523.7 273.911L509.34 282.201V265.821V265.811V249.241V249.231V232.841V232.821V232.651L494.97 240.941L480.61 249.231L466.25 257.521V257.711V274.111V290.691V307.091L480.61 298.801L494.97 290.501L509.34 282.211V282.391V282.401V298.801V298.811V315.381V315.391V331.961L523.7 323.671L538.06 315.381L552.43 307.091V307.081V290.691V290.501V274.111V273.921V273.911V257.711V257.521L566.79 249.231L581.15 240.941L594.62 233.161V218.071V201.481V184.901V184.891V183.601L581.15 191.371L566.79 199.661Z" fill="#C6A76F"/>
<path d="M509.34 315.38V298.81V298.8V282.4V282.39V282.21L494.97 290.5L480.61 298.8L466.25 307.09V307.27V323.68V340.26V356.84L480.61 348.55L494.97 340.26L509.34 331.97V331.96V315.39V315.38Z" fill="#C6A76F"/>
<path d="M566.79 249.23L552.43 257.52V257.71V273.91V273.92V274.11V290.5V290.69V307.08V307.09V307.27L566.79 298.98L581.15 290.69L594.62 282.92V267.81V251.23V234.65V234.64V233.16L581.15 240.94L566.79 249.23Z" fill="#C6A76F"/>
<path d="M452.219 233.68V266.52V282.94V299.36V381.48L466.439 373.27L480.659 365.05H480.669L494.879 356.84H494.889L509.109 348.63L523.329 340.42L537.549 332.21H537.559L551.769 324H551.779L565.999 315.79L580.209 307.58L594.429 299.37L608.649 291.15H608.659V274.74V241.89V209.05V159.78V143.36V110.51H608.649L594.439 118.72H594.429L580.209 126.93L565.989 135.14L551.769 143.35L537.549 151.56L523.319 159.78L509.099 167.99L494.879 176.2L480.659 184.41H480.649L466.429 192.62L452.209 196.56V233.68H452.219ZM466.439 209.05L466.449 209.04L467.319 208.54L480.659 200.84H480.669L494.889 192.62L509.109 184.41L509.989 183.9L523.329 176.2L537.559 167.99L551.779 159.78L552.659 159.27L565.999 151.57L566.009 151.56L580.219 143.36L594.439 135.15V167.98H594.449L594.439 167.99V184.41V233.67V282.94L580.219 291.16L565.999 299.37L551.779 307.58L537.559 315.79L523.329 324L509.109 332.21L494.889 340.42L480.669 348.63L480.659 348.64L466.449 356.84H466.439V307.58V258.32V209.05Z" fill="#C6A76F"/>
<path d="M608.67 143.35V159.77V209.04V241.88V274.73V291.15L622.89 299.36L637.11 307.58L651.33 315.79H651.34L665.56 324L679.78 332.21L694 340.42V291.16V274.74V241.89V225.47V209.05V176.2V154.78L679.78 151.57H679.77L665.56 143.36V192.62V225.46L662.04 236.11L651.33 233.68L639.22 223.67L639 221.52L637.11 209.05V126.93L622.89 118.72L608.67 110.51V143.35ZM665.56 258.32H665.55L665.56 258.3V258.32Z" fill="#E8CEA0"/>
<mask id="mask5_2587_18448" style="mask-type:luminance" maskUnits="userSpaceOnUse" x="442" y="613" width="277" height="187">
<path d="M585.739 613.19L442.109 750.37L537.549 799.01L718.179 697.4L585.739 613.19Z" fill="white"/>
</mask>
<g mask="url(#mask5_2587_18448)">
<path d="M753.339 584.07H712.039V625.37H753.339V584.07Z" fill="#DFE9ED"/>
<path d="M753.339 625.37H712.039V666.67H753.339V625.37Z" fill="#DFE9ED"/>
<path d="M753.339 666.67H712.039V707.97H753.339V666.67Z" fill="#DFE9ED"/>
<path d="M753.339 707.96H712.039V749.26H753.339V707.96Z" fill="#DFE9ED"/>
<path d="M753.339 749.261H712.039V790.561H753.339V749.261Z" fill="#DFE9ED"/>
<path d="M753.339 790.561H712.039V831.861H753.339V790.561Z" fill="#DFE9ED"/>
<path d="M712.038 584.07H670.738V625.37H712.038V584.07Z" fill="#DFE9ED"/>
<path d="M712.038 625.37H670.738V666.67H712.038V625.37Z" fill="#DFE9ED"/>
<path d="M712.038 666.67H670.738V707.97H712.038V666.67Z" fill="#DFE9ED"/>
<path d="M712.038 707.96H670.738V749.26H712.038V707.96Z" fill="#DFE9ED"/>
<path d="M712.038 749.261H670.738V790.561H712.038V749.261Z" fill="#DFE9ED"/>
<path d="M712.038 790.561H670.738V831.861H712.038V790.561Z" fill="#DFE9ED"/>
<path d="M670.739 584.07H629.439V625.37H670.739V584.07Z" fill="#DFE9ED"/>
<path d="M670.739 625.37H629.439V666.67H670.739V625.37Z" fill="#DFE9ED"/>
<path d="M670.739 666.67H629.439V707.97H670.739V666.67Z" fill="#DFE9ED"/>
<path d="M670.739 707.96H629.439V749.26H670.739V707.96Z" fill="#DFE9ED"/>
<path d="M670.739 749.261H629.439V790.561H670.739V749.261Z" fill="#DFE9ED"/>
<path d="M670.739 790.561H629.439V831.861H670.739V790.561Z" fill="#DFE9ED"/>
<path d="M629.448 584.07H588.148V625.37H629.448V584.07Z" fill="#DFE9ED"/>
<path d="M629.448 625.37H588.148V666.67H629.448V625.37Z" fill="#DFE9ED"/>
<path d="M629.448 666.67H588.148V707.97H629.448V666.67Z" fill="#DFE9ED"/>
<path d="M629.448 707.96H588.148V749.26H629.448V707.96Z" fill="#DFE9ED"/>
<path d="M629.448 749.261H588.148V790.561H629.448V749.261Z" fill="#DFE9ED"/>
<path d="M629.448 790.561H588.148V831.861H629.448V790.561Z" fill="#DFE9ED"/>
<path d="M588.15 584.07H546.85V625.37H588.15V584.07Z" fill="#DFE9ED"/>
<path d="M588.15 625.37H546.85V666.67H588.15V625.37Z" fill="#DFE9ED"/>
<path d="M588.15 666.67H546.85V707.97H588.15V666.67Z" fill="#DFE9ED"/>
<path d="M588.15 707.96H546.85V749.26H588.15V707.96Z" fill="#DFE9ED"/>
<path d="M588.15 749.261H546.85V790.561H588.15V749.261Z" fill="#DFE9ED"/>
<path d="M588.15 790.561H546.85V831.861H588.15V790.561Z" fill="#DFE9ED"/>
<path d="M546.859 584.07H505.559V625.37H546.859V584.07Z" fill="#DFE9ED"/>
<path d="M546.859 625.37H505.559V666.67H546.859V625.37Z" fill="#DFE9ED"/>
<path d="M546.859 666.67H505.559V707.97H546.859V666.67Z" fill="#DFE9ED"/>
<path d="M546.859 707.96H505.559V749.26H546.859V707.96Z" fill="#DFE9ED"/>
<path d="M546.859 749.261H505.559V790.561H546.859V749.261Z" fill="#DFE9ED"/>
<path d="M546.859 790.561H505.559V831.861H546.859V790.561Z" fill="#DFE9ED"/>
<path d="M505.56 584.07H464.26V625.37H505.56V584.07Z" fill="#DFE9ED"/>
<path d="M505.56 625.37H464.26V666.67H505.56V625.37Z" fill="#DFE9ED"/>
<path d="M505.56 666.67H464.26V707.97H505.56V666.67Z" fill="#DFE9ED"/>
<path d="M505.56 707.96H464.26V749.26H505.56V707.96Z" fill="#DFE9ED"/>
<path d="M505.56 749.261H464.26V790.561H505.56V749.261Z" fill="#DFE9ED"/>
<path d="M505.56 790.561H464.26V831.861H505.56V790.561Z" fill="#DFE9ED"/>
<path d="M464.259 584.07H422.959V625.37H464.259V584.07Z" fill="#DFE9ED"/>
<path d="M464.259 625.37H422.959V666.67H464.259V625.37Z" fill="#DFE9ED"/>
<path d="M464.259 666.67H422.959V707.97H464.259V666.67Z" fill="#DFE9ED"/>
<path d="M464.259 707.96H422.959V749.26H464.259V707.96Z" fill="#DFE9ED"/>
<path d="M464.259 749.261H422.959V790.561H464.259V749.261Z" fill="#DFE9ED"/>
<path d="M464.259 790.561H422.959V831.861H464.259V790.561Z" fill="#DFE9ED"/>
</g>
<path d="M555.4 422.851V388.131L541.18 392.331L541.22 413.441L555.4 422.851Z" fill="#A5B1C4"/>
<path d="M526.949 404.551L541.179 403.441V391.141L526.949 388.131V404.551Z" fill="#DFE9ED"/>
<path d="M526.949 453.821L541.179 445.601V429.181V412.771L526.959 420.971H526.949V420.981V437.391V453.821Z" fill="#DFE9ED"/>
<path d="M483.191 443.96V427.54L468.971 430.68V452.74L483.191 443.96Z" fill="#A5B1C4"/>
<path d="M470.06 453.82V453.81V428.29L468.73 428.68L455.84 429.18V445.6V445.61V462.03V478.45L470.06 470.24V453.82Z" fill="#DFE9ED"/>
<mask id="mask6_2587_18448" style="mask-type:luminance" maskUnits="userSpaceOnUse" x="441" y="340" width="115" height="98">
<path d="M541.179 347.07L533.679 342.74C529.519 340.34 524.389 340.34 520.229 342.74L512.739 347.07L498.519 355.28L484.299 363.49H484.289L470.069 371.71L455.849 379.91L447.319 384.84C443.799 386.87 441.629 390.63 441.629 394.7V397.38C441.629 401.81 443.999 405.91 447.829 408.13H447.839C452.789 411 455.849 416.28 455.849 422V429.18L470.069 437.39L484.299 429.19V396.34L498.519 388.13L512.739 379.92L519.019 376.3L522.769 374.13C524.629 373.05 526.959 374.39 526.969 376.55V379.74V384.07V388.14L541.199 396.35L555.419 388.14V371.72V361.33C555.419 357.59 553.429 354.14 550.189 352.27L541.199 347.08L541.179 347.07ZM470.059 404.56V404.54H470.069L470.059 404.56Z" fill="white"/>
</mask>
<g mask="url(#mask6_2587_18448)">
<path d="M541.178 361.01L531.628 357.99C528.728 356.32 525.168 356.32 522.268 357.99L512.738 363.49H512.728L498.508 371.7L484.288 379.91L484.278 379.92L470.068 388.13L484.288 396.34L498.508 388.13L512.728 379.92L519.008 376.3L523.218 373.86C524.878 372.9 526.958 374.1 526.958 376.02V384.06V388.13L534.288 392.36C538.558 394.82 543.818 394.82 548.088 392.36L555.408 388.13V371.71V355.28L541.188 361.01H541.178Z" fill="#353644"/>
<path d="M470.069 401.221V404.571L470.059 401.221L455.839 396.351L441.619 388.141V404.561L449.399 409.051C453.379 411.351 455.839 415.601 455.839 420.201V429.191L461.289 431.961L463.109 433.091C467.389 435.751 472.789 435.831 477.149 433.321L484.289 429.201V396.351L470.069 401.221Z" fill="#353644"/>
<path d="M541.179 347.07L526.949 338.86L512.729 347.07L498.509 355.28L484.289 363.49H484.279L470.059 371.71L455.839 379.91L441.619 388.13L455.839 396.34L461.429 399.73L466.939 402.8C468.879 403.88 471.249 403.87 473.169 402.75L484.289 396.33L477.529 392.42L475.489 391.25L472.839 389.71C471.619 389.01 471.639 387.24 472.879 386.57L479.729 382.82L484.289 379.91H484.299L498.519 371.7L512.739 363.49L512.749 363.48L522.179 358.04C525.139 356.33 528.789 356.33 531.749 358.04L538.339 361.84C540.099 362.86 542.279 362.86 544.039 361.84L553.319 356.48L555.409 355.27L541.189 347.06L541.179 347.07Z" fill="#53576B"/>
</g>
<path d="M470.67 700.901L445.92 688.311C436.82 684.071 418.59 691.421 413.57 702.331C407.04 716.541 409.18 730.901 414.88 734.971C415.39 735.341 418.58 737.471 419.18 737.641L442.11 750.371L470.67 700.901Z" fill="url(#paint3_linear_2587_18448)"/>
<path d="M472.272 734.801C480.159 721.141 479.441 705.961 470.67 700.897C461.898 695.833 448.393 702.801 440.507 716.461C432.62 730.121 433.338 745.3 442.109 750.364C450.881 755.429 464.386 748.461 472.272 734.801Z" fill="#353644"/>
<path d="M463.309 713.83C462.029 713.09 460.529 712.89 458.959 713.15C460.219 716.53 459.589 721.42 456.969 725.96C454.349 730.5 450.429 733.49 446.869 734.09C447.429 735.58 448.349 736.78 449.629 737.52C453.829 739.95 460.299 736.61 464.079 730.06C467.859 723.51 467.509 716.25 463.309 713.82V713.83Z" fill="#A5B1C4"/>
<path d="M456.97 725.97C459.59 721.43 460.22 716.54 458.96 713.16C455.4 713.76 451.48 716.75 448.86 721.29C446.24 725.83 445.61 730.72 446.87 734.1C450.43 733.5 454.35 730.51 456.97 725.97Z" fill="#DFE9ED"/>
<path d="M558.92 747.91L534.17 735.32C525.07 731.08 506.84 738.43 501.82 749.34C495.29 763.55 497.43 777.91 503.13 781.98C503.64 782.35 506.83 784.48 507.43 784.65L530.36 797.38L558.92 747.91Z" fill="url(#paint4_linear_2587_18448)"/>
<path d="M560.518 781.808C568.405 768.148 567.687 752.969 558.916 747.905C550.144 742.84 536.639 749.808 528.753 763.468C520.866 777.129 521.584 792.308 530.356 797.372C539.127 802.437 552.632 795.468 560.518 781.808Z" fill="#353644"/>
<path d="M551.559 760.84C550.279 760.1 548.779 759.9 547.209 760.16C548.469 763.54 547.839 768.43 545.219 772.97C542.599 777.51 538.679 780.5 535.119 781.1C535.679 782.59 536.599 783.79 537.879 784.53C542.079 786.96 548.549 783.62 552.329 777.07C556.109 770.52 555.759 763.26 551.559 760.83V760.84Z" fill="#A5B1C4"/>
<path d="M545.22 772.98C547.84 768.44 548.471 763.55 547.211 760.17C543.651 760.77 539.73 763.76 537.11 768.3C534.49 772.84 533.86 777.73 535.12 781.11C538.68 780.51 542.6 777.52 545.22 772.98Z" fill="#DFE9ED"/>
<path d="M729.269 649.87L704.519 637.28C695.419 633.04 677.189 640.39 672.169 651.3C665.639 665.51 667.779 679.87 673.479 683.94C673.989 684.31 677.179 686.44 677.779 686.61L700.709 699.34L729.269 649.87Z" fill="url(#paint5_linear_2587_18448)"/>
<path d="M730.862 683.779C738.749 670.119 738.031 654.94 729.259 649.875C720.487 644.811 706.983 651.779 699.096 665.439C691.21 679.099 691.927 694.278 700.699 699.343C709.471 704.407 722.976 697.439 730.862 683.779Z" fill="#353644"/>
<path d="M721.909 662.8C720.629 662.06 719.129 661.86 717.559 662.12C718.819 665.5 718.189 670.39 715.569 674.93C712.949 679.47 709.029 682.46 705.469 683.06C706.029 684.55 706.949 685.75 708.229 686.49C712.429 688.92 718.899 685.58 722.679 679.03C726.459 672.48 726.109 665.22 721.909 662.79V662.8Z" fill="#A5B1C4"/>
<path d="M715.558 674.94C718.178 670.4 718.808 665.51 717.548 662.13C713.988 662.73 710.068 665.72 707.448 670.26C704.828 674.8 704.198 679.69 705.458 683.07C709.018 682.47 712.938 679.48 715.558 674.94Z" fill="#DFE9ED"/>
<mask id="mask7_2587_18448" style="mask-type:luminance" maskUnits="userSpaceOnUse" x="423" y="77" width="300" height="384">
<path d="M708.229 135.14H708.219L694.009 126.93H693.999L679.779 118.72L665.559 110.51L651.339 102.3H651.329L637.119 94.0802H637.109L622.889 85.8702L608.669 77.6602L601.739 81.6702L598.709 83.4202L605.889 93.3702L603.449 94.7802L594.449 102.3L580.939 105.52L569.009 100.48L566.009 102.3L551.789 110.51L537.569 118.72L523.349 126.93H523.339L509.129 135.14H509.119L494.899 143.36L493.569 157.11L491.679 158.55L491.239 160.48L480.689 167.98L480.679 167.99L466.349 172.89L452.239 167.99L438.019 176.2H438.009L434.219 178.39C427.769 182.11 423.799 188.99 423.799 196.44V200.83V217.25V266.52V282.94V299.36V348.63V365.05V385.49C423.799 393.17 427.899 400.26 434.539 404.1L438.019 406.11L452.239 414.32L466.459 422.53H466.469L480.689 430.74L489.349 435.75L494.909 438.96L509.129 447.17H509.139L517.789 452.17L523.349 455.38L525.059 456.37L528.039 458.09C533.939 461.5 541.219 461.5 547.119 458.09L551.789 455.39H551.799L566.019 447.17L580.239 438.96L594.459 430.75H594.469L608.679 422.54H608.689L622.909 414.32L628.459 411.11L637.129 406.1L651.349 397.89L656.899 394.69L665.579 389.68L679.799 381.47L694.019 373.26L708.239 365.05L710.759 363.59L714.919 361.18C719.589 358.48 722.459 353.5 722.459 348.11V323.99V307.56V274.72V241.87V225.45V209.03V192.6V159.76V152.36C722.459 146.78 719.469 141.62 714.629 138.85L710.019 136.2L708.249 135.12L708.229 135.14ZM693.999 176.19V209.04V225.46V241.88V274.73V291.15V340.42L679.779 348.64L665.559 356.85L651.339 365.06H651.329L637.119 373.27H637.109L622.889 381.48L608.669 389.69L594.449 397.9H594.439L580.219 406.12L566.009 414.33H565.999L551.779 422.54L537.559 424.29L523.329 422.54L509.109 414.33L494.889 406.12L480.669 397.91L480.659 397.9L466.439 389.69L452.219 381.48V299.37V282.95V266.53V198.6C454.709 198.6 457.199 197.96 459.429 196.67L466.439 192.62L480.659 184.41H480.669L494.889 176.2L509.109 167.99L523.329 159.78L537.559 151.56L551.779 143.35L565.999 135.15L580.219 126.93L594.439 118.72H594.449L608.659 110.51H608.669L622.889 118.72L637.109 126.93L651.329 135.14L665.559 143.36L679.769 151.57H679.779L684.549 154.33C687.469 156.02 690.729 156.86 693.999 156.86V176.19Z" fill="white"/>
</mask>
<g mask="url(#mask7_2587_18448)">
<path d="M708.219 151.57L693.999 155.67V176.19V176.2V192.62V209.04V209.05V225.46V225.47V241.88V241.89V258.31V274.73V274.74V291.15V291.16V307.58V324V340.42V340.43L679.779 348.64L665.559 356.85L651.339 365.06H651.329L637.119 373.27H637.109L622.889 381.48L608.669 389.69L594.449 397.9L594.439 397.91L580.219 406.12L566.009 414.33H565.999L551.779 422.54L537.559 424.29V447.16V447.17V463.59L551.769 455.39L551.779 455.38L565.999 447.17L580.219 438.96L594.439 430.75V430.74L594.449 430.75L608.659 422.54H608.669V422.53L622.889 414.32L628.439 411.11L637.109 406.11L651.329 397.9L656.879 394.7L665.559 389.69L679.779 381.48L693.999 373.27L708.219 365.06L722.439 356.85V356.84V340.42V324.01V324V307.58V307.57V291.16V274.74V274.73V258.31V241.89V241.88V225.47V225.46V209.05V209.04V192.62V192.61V176.2V159.78V159.77V143.36L708.219 151.56V151.57Z" fill="#C6A76F"/>
<path d="M423.779 381.48V397.9L437.999 406.11L452.219 414.32L466.439 422.53H466.449L480.669 430.74L489.329 435.75L494.889 438.96L509.109 447.17H509.119L517.769 452.17L523.329 455.38L531.999 460.38L537.559 463.59V447.17V424.29L523.329 422.54L509.109 414.33L494.889 406.12L480.669 397.91L480.659 397.9L466.439 389.69L452.219 381.48V299.37V282.95V266.53V195L437.999 192.62L423.779 184.41V200.83V217.25V266.52V282.94V299.36V348.63V365.05V381.48Z" fill="#E8CEA0"/>
<path d="M437.999 192.62L445.009 196.67C449.469 199.24 454.959 199.24 459.419 196.67L466.429 192.62L480.649 184.41H480.659L494.879 176.2L509.099 167.99L523.319 159.78L537.549 151.56L551.769 143.35L565.989 135.15L580.209 126.93L594.429 118.72H594.439L608.649 110.51H608.659L622.879 118.72L637.099 126.93L651.319 135.14L665.549 143.36L679.759 151.57H679.769L684.539 154.33C690.389 157.71 697.589 157.71 703.429 154.33L708.199 151.57L722.419 143.36L708.209 135.14H708.199L693.989 126.93H693.979L679.759 118.72L665.539 110.51L651.319 102.3H651.309L637.099 94.08H637.089L622.869 85.87L615.579 81.66C611.289 79.18 606.009 79.19 601.719 81.66L598.689 83.41L605.869 93.36L603.429 94.77L594.429 102.29L580.919 105.51L568.989 100.47L565.989 102.29L551.769 110.5L537.549 118.71L523.329 126.92H523.319L509.109 135.13H509.099L494.879 143.35L493.549 157.1L491.659 158.54L491.219 160.47L480.669 167.97L480.659 167.98L466.329 172.88L452.219 167.98L437.999 176.19H437.989L423.779 184.4L437.999 192.61V192.62Z" fill="#F2E8C4"/>
</g>
<path d="M523.33 465.939L509.11 474.149H509.1V474.159V490.389V490.399V506.809V506.819V523.039L523.32 514.829L537.54 506.619L551.77 498.409V482.359V482.179V465.939V465.759V465.749V455.939L537.56 464.139L532 460.939L523.33 465.939Z" fill="#DFE9ED"/>
<path d="M551.769 465.76V465.94V482.18V482.36V498.41L537.539 506.62L523.319 514.83L509.099 523.04V506.82V506.81V490.4V490.39V474.16L494.889 482.36L480.669 490.57H480.659L466.439 498.78V515.2V515.21V531.63V547.68L480.649 539.47L494.869 531.26L509.099 523.05V523.23V523.24V539.47V539.48V555.89V555.9V572.13L523.319 563.92L537.539 555.71L551.769 547.5V531.45V531.26V515.03V514.84V514.83V498.78V498.6L565.989 490.39L580.209 482.18L594.439 473.97V457.73V441.31V441.3V431.31L580.219 439.51L565.999 447.72L551.779 455.93L551.769 455.94V465.75V465.76Z" fill="#DFE9ED"/>
<path d="M494.869 629.62L509.099 621.41V621.4V604.99V604.98V588.57V588.56V572.32V572.31V572.14L494.869 580.35L480.649 588.56L466.439 596.76V597.32V613.73V613.74V630.16V630.17V646.03L480.649 637.83L494.869 629.62Z" fill="#DFE9ED"/>
<path d="M565.99 539.47L551.77 547.68V547.87V563.92V563.93V564.11V580.35V580.53V596.76V596.77V596.95L565.99 588.74L580.21 580.53L594.44 572.32V572.31V555.9V539.48V539.47V523.24V523.23V523.05L580.21 531.26L565.99 539.47Z" fill="#DFE9ED"/>
<path d="M494.869 580.35L509.099 572.14V572.31V572.32V588.56V588.57V604.98V604.99V621.4L523.319 613.19L537.539 604.98L551.769 596.77V596.76V580.53V580.35V564.11V563.93V563.92V547.87V547.68L565.989 539.47L580.209 531.26L594.439 523.05V506.82V490.4V490.39V474.15V474.14V473.97L580.209 482.18L565.989 490.39L551.769 498.6V498.78V514.83V514.84V515.03V531.26V531.45V547.5L537.539 555.71L523.319 563.92L509.099 572.13V555.9V555.89V539.48V539.47V523.24V523.23V523.05L494.869 531.26L480.649 539.47L466.439 547.68V548.05V564.47V564.48V580.89V596.76L480.649 588.56L494.869 580.35Z" fill="#DFE9ED"/>
<path d="M608.67 432.55V448.96V465.38V481.81V514.65V580.34L622.89 588.56L637.11 596.77V580.35V514.66V498.24V448.97V416.12L628.44 411.11L622.89 414.32L608.67 422.53V432.54V432.55ZM622.89 440.76H622.88L622.89 440.75V440.76Z" fill="#DFE9ED"/>
<path d="M679.779 440.75L665.549 432.54V448.96V498.23V531.07V563.92V596.76V613.19H665.559L679.769 621.4H679.779L693.999 629.61V596.77V514.66V498.24V443.89L679.779 440.76V440.75Z" fill="#DFE9ED"/>
<path d="M679.769 621.4L665.559 613.19H665.549L651.339 621.4H651.329L637.109 629.61L622.889 637.83L608.669 646.03L594.449 654.25H594.439L580.219 662.46L566.009 670.67H565.999L551.779 678.88L537.559 687.09H537.549L523.339 695.3H523.329L509.119 703.51L523.329 711.72L528.489 714.7C534.099 717.94 540.999 717.94 546.609 714.7L548.059 713.87L551.779 711.72L565.999 703.51L580.219 695.3L594.439 687.09H594.449L608.659 678.88H608.669L622.889 670.67L637.109 662.46L651.329 654.25L665.549 646.04L679.779 637.82L693.999 629.61L679.779 621.4H679.769Z" fill="#FFFFF8"/>
<path d="M594.439 397.91L594.449 397.9H594.439V397.91Z" fill="#5FF25F"/>
<path d="M566 414.33H566.01L566 414.32V414.33Z" fill="#5FF25F"/>
<path d="M523.33 438.96H523.34L523.33 438.95V438.96Z" fill="#5FF25F"/>
<path d="M523.329 695.3H523.339L537.549 687.1V687.09H537.559L551.779 678.88L565.999 670.67H566.009L580.219 662.46L594.439 654.25H594.449L608.669 646.04V646.03L622.889 637.83L637.109 629.62V629.61L651.329 621.41V621.4H651.339L665.549 613.2V613.19V596.77V596.76V580.34V563.93V563.92V547.5V531.08V531.07V514.66V498.24V498.23V481.81V465.39V448.97V448.96V432.54L651.329 424.33V440.75V457.18V473.6V490.02V506.45V522.86V522.87V539.29V555.71V572.13H651.339L651.329 572.14V588.55V604.98L637.109 613.19L622.889 621.4L608.669 629.61L594.449 637.82H594.439V637.83L580.219 646.03V646.04L565.999 654.25L551.779 662.45V662.46L537.559 670.67H537.549L523.329 678.88L509.119 687.09H509.109L494.889 695.3L509.109 703.51H509.119L523.329 695.31V695.3Z" fill="#353644"/>
<path d="M509.109 430.75H509.119L509.109 430.74V430.75Z" fill="#5FF25F"/>
<path d="M509.12 687.09L523.33 678.88L537.55 670.67H537.56L551.78 662.46V662.45L566 654.25L580.22 646.04V646.03L594.44 637.83V637.82H594.45L608.67 629.61L622.89 621.4L637.11 613.19L651.33 604.98V588.55V572.14V572.13V555.71V539.29V522.87V522.86V506.45V490.02V473.6V457.18V440.75V424.33L637.11 416.12V432.54V448.96V448.97V465.39V481.81V498.23V498.24V514.65V514.66V531.08V547.5V563.92V580.34V580.35V596.76V596.77L622.89 604.97V604.98L608.67 613.18V613.19H608.66L594.44 621.4L580.22 629.61L566 637.82L551.78 646.03V646.04L551.77 646.03L537.56 654.24H537.55V654.25L523.33 662.45V662.46L509.11 670.66V670.67L494.89 678.87V678.88L480.67 687.08V687.09L494.89 695.3L509.11 687.09H509.12Z" fill="#A5B1C4"/>
<path d="M494.889 678.88L509.109 670.67L523.329 662.46L537.549 654.25L537.559 654.24L551.769 646.03H551.779L565.999 637.82L580.219 629.61L594.439 621.4L608.659 613.19H608.669L622.889 604.98L637.109 596.77L622.889 588.56L608.669 580.35L594.449 588.56H594.439L580.219 596.77L565.999 604.98L551.779 613.19L537.559 621.4H537.549L523.329 629.61L509.119 637.82H509.109L494.889 646.03L480.669 654.24L466.449 662.46H466.439L452.219 670.67L466.439 678.88H466.449L480.659 687.09H480.669L494.889 678.88Z" fill="#FFFFF8"/>
<path d="M466.439 662.45L466.449 662.46L480.669 654.25V654.24L494.889 646.03L509.109 637.83V637.82H509.119L523.329 629.62V629.61L537.549 621.41V621.4H537.559L551.779 613.19L565.999 604.98L580.219 596.77L594.439 588.56V588.55L594.449 588.56L608.669 580.35V580.34V563.92V547.5V531.08V514.66H608.659L608.669 514.65V498.23V481.82V481.81V465.39V465.38V448.97V448.96V432.55V432.54V422.54H608.659L594.449 430.75L594.439 430.74V430.75V440.75L594.449 440.76H594.439V457.17V457.18V473.6V490.02V490.03V506.44V522.87V539.28V539.29V555.71V555.72V572.13L580.219 580.34L565.999 588.55L551.779 596.76V596.77H551.769L537.549 604.97V604.98L523.329 613.19L509.109 621.4H509.099L494.889 629.61L480.669 637.82H480.659L466.439 646.03V645.48V629.62V629.61V613.19V613.18V596.77V596.21V580.34V563.93V563.92V547.5V547.12V531.08V514.66V514.65V498.23L480.659 490.02H480.669L494.889 481.81L509.099 473.6H509.109L523.329 465.39L531.999 460.38L523.329 455.38L517.769 452.17L509.109 457.17V457.18H509.099L494.889 465.38V465.39H494.879L480.669 473.59V473.6L480.659 473.59L466.439 481.81L452.219 485.89V506.44V522.87V539.29V555.71V572.13V572.14V588.55V588.56V604.97V604.98V621.4V637.82V637.83V654.24V654.25V670.67L466.439 662.46V662.45Z" fill="#DFE9ED"/>
<path d="M651.33 151.56V200.83V233.68L657.89 237.46C661.3 239.43 665.56 236.97 665.56 233.03V225.47V192.63V143.36L651.33 135.14V151.56Z" fill="#353644"/>
<path d="M637.109 159.78V209.04V221.12C637.109 223.81 638.549 226.3 640.879 227.65L651.329 233.68V200.84V151.57V135.14L637.109 126.93V159.78Z" fill="#A5B1C4"/>
<path d="M644.229 164.609V181.029V197.449L655.449 203.939C656.779 204.709 658.449 203.749 658.449 202.209V189.249V173.969C658.449 173.259 658.069 172.599 657.449 172.239L644.229 164.609Z" fill="#A5B1C4"/>
<path d="M644.23 458.66V475.08V491.5L655.451 497.99C656.781 498.76 658.451 497.8 658.451 496.26V483.3V468.02C658.451 467.31 658.071 466.65 657.451 466.29L644.23 458.66Z" fill="#A5B1C4"/>
<path d="M644.23 535.91V552.33V568.75L655.451 575.24C656.781 576.01 658.451 575.05 658.451 573.51V560.55V545.27C658.451 544.56 658.071 543.9 657.451 543.54L644.23 535.91Z" fill="#A5B1C4"/>
<path d="M595.439 629.77L581.219 637.979L566.999 646.19L552.779 654.4L565.999 662.03C566.619 662.39 567.379 662.39 567.999 662.03L581.219 654.4L595.439 646.19L606.669 639.71C607.999 638.94 607.999 637.01 606.669 636.25L595.439 629.77Z" fill="#A5B1C4"/>
<mask id="mask8_2587_18448" style="mask-type:luminance" maskUnits="userSpaceOnUse" x="423" y="394" width="300" height="356">
<path d="M708.219 424.34L693.999 416.12H693.989L679.779 407.91H679.769L665.549 399.7L656.879 394.7L651.329 397.9L637.109 406.11L628.439 411.12L637.109 416.13L651.329 424.34L665.549 432.55L679.779 440.76L684.239 443.34C687.259 445.08 690.629 445.95 693.999 445.95V498.24V514.66V596.77V629.62L679.779 637.83L665.549 646.04L651.329 654.26L637.109 662.46L622.889 670.68L608.669 678.89H608.659L594.449 687.1H594.439L580.219 695.31L565.999 703.52L551.779 711.73L537.559 714.42V719.94L537.549 714.42L523.329 711.73L509.119 703.52H509.109L494.889 695.31L480.669 687.1H480.659L466.449 678.89H466.439L452.219 670.68V654.26V637.84V604.99V588.57V572.15V488.12C454.359 488.12 456.489 487.57 458.399 486.46L466.439 481.82L480.659 473.6H480.669L494.879 465.4H494.889L509.099 457.19H509.109L517.769 452.18L509.119 447.18H509.109L494.889 438.97L489.329 435.76L480.669 440.76L480.659 440.77L466.439 448.98L452.219 457.18L437.999 465.4H437.989L432.339 468.67C427.039 471.73 423.779 477.38 423.779 483.49V506.45V522.87V555.71V572.14V588.56V604.98V670.67V673.96C423.779 682.09 428.109 689.6 435.149 693.67L435.489 693.87L437.999 695.32L452.209 703.52L466.429 711.74L480.649 719.95H480.659L494.869 728.16H494.879L509.089 736.37H509.099L523.319 744.58L527.959 747.26C533.879 750.68 541.169 750.69 547.099 747.27L550.649 745.22L551.749 744.57H551.759L565.979 736.36L580.199 728.14L594.419 719.93L608.639 711.72H608.649L622.869 703.51L637.079 695.3H637.089L651.309 687.09L665.529 678.88L679.749 670.67H679.759L693.979 662.45L708.199 654.24L712.549 651.73C718.659 648.2 722.419 641.68 722.419 634.63V629.62V613.19V580.35V563.93V514.66V481.82V465.39V448.97V443.47C722.419 436.7 718.809 430.45 712.949 427.07L708.199 424.33L708.219 424.34Z" fill="white"/>
</mask>
<g mask="url(#mask8_2587_18448)">
<path d="M523.329 744.571L537.539 752.781H537.549V736.361V719.941V714.411L523.329 711.721L509.119 703.511H509.109L494.889 695.301L480.669 687.091H480.659L466.449 678.881H466.439L452.219 670.671V654.251V654.241V637.831V637.821V621.401V604.981V604.971V588.561V588.551V572.141V572.131V555.711V539.291V522.871V506.441V484.561L437.999 481.811L423.779 473.601V490.021V506.441V506.451V522.861V522.871V539.291V555.701V555.711V572.131V572.141V588.551V588.561V604.971V604.981V621.401V637.821V654.231V654.251V670.661V670.671V687.091V687.101L437.999 695.311L452.209 703.511H452.219V703.521L466.439 711.731L480.659 719.941H480.669L494.879 728.151H494.889L509.099 736.361H509.109L523.329 744.571Z" fill="#353644"/>
<path d="M679.769 670.67L679.779 670.66L693.999 662.45L708.219 654.24L722.439 646.03V629.62V629.61V613.19V613.18V596.77V580.35V580.34V563.93V563.92V547.5V531.08V514.66V514.65V498.23V481.82V481.81V465.39V465.38V448.97V448.96V432.54L708.219 440.75L693.999 443.89V465.39V481.81V498.23V498.24V514.65V514.66V531.08V547.5V563.92V580.35V596.76V596.77V613.19V629.61L679.779 637.82L665.549 646.03V646.04L651.329 654.25L637.109 662.45V662.46L622.889 670.67L608.669 678.88H608.659L594.449 687.09H594.439L580.219 695.3L565.999 703.51L551.779 711.72L537.559 714.41L537.549 719.93V719.94V736.36V752.78L551.769 744.57L551.779 744.56L565.999 736.36V736.35L580.219 728.14L594.439 719.93L608.659 711.72H608.669L622.889 703.51L637.099 695.3H637.109L651.329 687.09L665.549 678.88V678.87L679.769 670.67Z" fill="#353644"/>
<path d="M708.219 424.34L693.999 416.12H693.989L679.779 407.91H679.769L665.549 399.7L656.879 394.7L651.329 397.9L637.109 406.11L628.439 411.12L637.109 416.13L651.329 424.34L665.549 432.55L679.779 440.76L684.239 443.34C690.279 446.82 697.719 446.82 703.769 443.34L708.229 440.77L722.449 432.56L708.229 424.36L708.219 424.34Z" fill="#53576B"/>
<path d="M480.669 473.59L494.879 465.39H494.889L509.099 457.18H509.109L517.769 452.17L509.119 447.17H509.109L494.889 438.96L489.329 435.75L480.669 440.75L480.659 440.76L466.439 448.97L452.219 457.17L437.999 465.39H437.989L423.779 473.6L437.999 481.81L446.039 486.45C449.869 488.66 454.579 488.66 458.409 486.45L466.449 481.81L480.669 473.59Z" fill="#53576B"/>
</g>
<path d="M665.56 324L651.34 315.79H651.33L637.11 307.58L622.89 299.37L608.67 291.16L608.66 291.15L594.44 299.37L580.22 307.58L566.01 315.79L551.79 324H551.78L537.57 332.21H537.56L523.34 340.42L509.12 348.63L494.9 356.84H494.89L480.68 365.05H480.67L466.45 373.27L452.23 381.48L466.45 389.69L480.67 397.9H480.68L494.9 406.12L509.12 414.32L523.34 422.54L525.07 423.54C532.8 428 542.33 428 550.06 423.54L551.79 422.54L566.01 414.33H566.02L580.23 406.12L594.45 397.91L594.46 397.9L608.68 389.69L622.9 381.48L637.12 373.27H637.13L651.34 365.06H651.35L665.57 356.85L679.79 348.64L694.01 340.43L679.79 332.21L665.57 324H665.56ZM509.11 397.9H509.12L509.11 397.91V397.9Z" fill="#F2E8C4"/>
<path d="M494.889 143.359L509.109 135.149V135.139H509.119L523.329 126.939V126.929H523.339L537.559 118.729V118.719L551.779 110.509L565.999 102.299L568.999 100.479" stroke="#C6AF8F" stroke-width="3" stroke-miterlimit="10"/>
<path d="M601.739 81.6698C606.029 79.1898 611.309 79.1898 615.599 81.6598L622.889 85.8698L637.109 94.0798H637.119L651.329 102.29L651.339 102.3L665.559 110.5L679.779 118.72L693.999 126.93H694.009L708.219 135.14H708.229L709.999 136.22L714.609 138.87C717.029 140.26 718.989 142.24 720.339 144.57C721.689 146.91 722.439 149.59 722.439 152.38V348.13C722.439 353.52 719.569 358.5 714.899 361.2L710.759 363.6L708.219 365.06L693.999 373.27L679.779 381.48L665.559 389.69L656.879 394.7L651.329 397.9L637.109 406.11L628.439 411.11L622.889 414.32L608.669 422.53L608.659 422.54L594.449 430.75H594.439L580.219 438.96L551.779 455.38H551.769L547.099 458.08C544.149 459.79 540.849 460.64 537.559 460.64C534.269 460.64 530.969 459.79 528.019 458.09L523.329 455.38L517.769 452.17L509.119 447.17H509.109L494.889 438.96L489.329 435.75L480.669 430.75L466.449 422.54H466.439L452.219 414.32L437.999 406.11L434.519 404.1C427.879 400.26 423.779 393.17 423.779 385.49V196.44C423.779 192.72 424.769 189.14 426.569 186.02C428.369 182.91 430.979 180.26 434.199 178.39L437.989 176.21H437.999L452.219 167.99" stroke="#C6AF8F" stroke-width="3" stroke-miterlimit="10"/>
<mask id="mask9_2587_18448" style="mask-type:luminance" maskUnits="userSpaceOnUse" x="452" y="16" width="157" height="159">
<path d="M594.449 69.45H594.439V21.38C594.439 20.65 594.039 19.97 593.389 19.63C584.819 15.08 574.509 15.26 566.109 20.12L565.999 20.18L551.779 28.39H551.769L537.559 36.59L523.329 44.81L509.109 53.02L494.889 61.23L480.669 69.44H480.659L474.309 73.11C469.439 75.93 466.439 81.13 466.439 86.75V94.07H466.449L466.439 94.08V110.49H466.449L466.439 110.51V143.34L458.969 147.66C454.789 150.07 452.219 154.53 452.219 159.35V162.72C452.219 165.97 453.959 168.98 456.769 170.61L461.299 173.22C464.479 175.06 468.399 175.06 471.579 173.22L480.659 167.98H480.669L488.149 163.65L491.139 161.92C493.459 160.58 494.889 158.11 494.889 155.43V105.89C494.889 98.57 498.789 91.81 505.129 88.15L509.109 85.85L523.329 77.64L523.339 77.63L537.559 69.43L551.779 61.21L558.959 57.07C562.089 55.26 565.999 57.52 565.999 61.14V97.02C565.999 100.27 567.739 103.28 570.549 104.9L575.489 107.75C578.409 109.44 582.009 109.44 584.929 107.75L594.429 102.27L603.769 96.88C606.789 95.13 608.659 91.91 608.659 88.42V87.86V85.85C608.659 80.76 605.949 76.06 601.539 73.52L594.439 69.42L594.449 69.45ZM482.559 87.03C482.559 87.03 482.559 87.05 482.549 87.05L480.669 85.88L482.569 87.03H482.559Z" fill="white"/>
</mask>
<g mask="url(#mask9_2587_18448)">
<path d="M594.439 85.8702V85.8802H594.449L608.669 77.6702V77.6602L594.449 69.4502H594.439V69.4602V85.8702Z" fill="#A07F57"/>
<path d="M480.669 135.15V135.14V118.72V102.3L486.629 89.5899L480.659 85.8799L466.439 77.6699V94.0799L466.449 94.0899H466.439V110.5L466.449 110.51L466.439 110.52V126.93V143.35V143.36L480.669 151.57V135.15Z" fill="#77552C"/>
<path d="M482.629 87.0704L485.669 88.8504L494.889 77.6704L509.109 69.4604H509.119L523.329 61.2604L537.559 53.0404L551.779 44.8304L565.999 36.6204L580.219 28.4104L594.439 20.2004L594.329 20.1304C583.069 12.1204 574.839 15.0904 566.109 20.1304L565.999 20.1904L551.779 28.4004H551.769L537.559 36.6004L523.329 44.8204L509.109 53.0304L494.889 61.2404L480.669 69.4504H480.659L466.439 77.6704L480.659 85.8804L482.629 87.0704Z" fill="#A07F57"/>
<path d="M594.449 85.8804H594.439V69.4604V20.1904L580.219 28.4004L565.999 36.6104L551.779 44.8204L537.559 53.0304L523.329 61.2404L509.119 69.4504H509.109L494.889 77.6604L487.809 81.7504C483.389 84.3004 480.669 89.0104 480.669 94.1204V135.14V151.57L467.959 156.04L467.659 153.78L466.429 156.34L452.209 151.58V168L466.429 176.21L480.649 168H480.659L488.139 163.67L491.129 161.94C493.449 160.6 494.879 158.13 494.879 155.45V102.87C494.879 97.4304 497.779 92.4104 502.489 89.6904L509.099 85.8704L523.319 77.6604L523.329 77.6504L537.549 69.4504L551.769 61.2304L559.899 56.5404C562.609 54.9804 565.989 56.9304 565.989 60.0604V97.0404C565.989 100.29 567.729 103.3 570.539 104.92L575.479 107.77L580.199 110.49L594.419 102.29L608.639 94.0804H608.649V77.6604L594.429 85.8704L594.449 85.8804Z" fill="#77552C"/>
<path d="M475.889 154.33L478.559 152.79L480.669 151.57L466.439 143.36L452.219 151.57L461.209 156.75C464.449 158.62 468.439 158.62 471.679 156.75L475.889 154.33Z" fill="#A07F57"/>
</g>
</g>
<defs>
<linearGradient id="paint0_linear_2587_18448" x1="105.421" y1="718.731" x2="166.541" y2="718.731" gradientUnits="userSpaceOnUse">
<stop stop-color="#53576B"/>
<stop offset="1" stop-color="#777D99"/>
</linearGradient>
<linearGradient id="paint1_linear_2587_18448" x1="193.671" y1="765.74" x2="254.791" y2="765.74" gradientUnits="userSpaceOnUse">
<stop stop-color="#53576B"/>
<stop offset="1" stop-color="#777D99"/>
</linearGradient>
<linearGradient id="paint2_linear_2587_18448" x1="364.011" y1="667.7" x2="425.131" y2="667.7" gradientUnits="userSpaceOnUse">
<stop stop-color="#53576B"/>
<stop offset="1" stop-color="#777D99"/>
</linearGradient>
<linearGradient id="paint3_linear_2587_18448" x1="409.55" y1="0.00067078" x2="470.67" y2="0.00067078" gradientUnits="userSpaceOnUse">
<stop stop-color="#53576B"/>
<stop offset="1" stop-color="#777D99"/>
</linearGradient>
<linearGradient id="paint4_linear_2587_18448" x1="497.8" y1="765.74" x2="558.92" y2="765.74" gradientUnits="userSpaceOnUse">
<stop stop-color="#53576B"/>
<stop offset="1" stop-color="#777D99"/>
</linearGradient>
<linearGradient id="paint5_linear_2587_18448" x1="668.139" y1="667.7" x2="729.269" y2="667.7" gradientUnits="userSpaceOnUse">
<stop stop-color="#53576B"/>
<stop offset="1" stop-color="#777D99"/>
</linearGradient>
<clipPath id="clip0_2587_18448">
<rect width="800" height="800" fill="white"/>
</clipPath>
</defs>
</svg>
