<?xml version="1.0" encoding="UTF-8"?>
<svg id="_레이어_1" data-name="레이어 1" xmlns="http://www.w3.org/2000/svg" xmlns:xlink="http://www.w3.org/1999/xlink" viewBox="0 0 800 800">
  <defs>
    <clipPath id="clippath">
      <polygon points="300.01 537.49 110.53 659.5 218.28 714.07 391.93 615.29 300.01 537.49" style="fill: none;"/>
    </clipPath>
    <linearGradient id="_무제_그라디언트_16" data-name="무제 그라디언트 16" x1="174.91" y1="682.43" x2="236.03" y2="682.43" gradientUnits="userSpaceOnUse">
      <stop offset="0" stop-color="#53576b"/>
      <stop offset="1" stop-color="#777d99"/>
    </linearGradient>
    <linearGradient id="_무제_그라디언트_16-2" data-name="무제 그라디언트 16" x1="345.58" y1="583.65" x2="406.7" y2="583.65" xlink:href="#_무제_그라디언트_16"/>
    <linearGradient id="_무제_그라디언트_16-3" data-name="무제 그라디언트 16" x1="88.82" y1="633.87" x2="149.94" y2="633.87" xlink:href="#_무제_그라디언트_16"/>
    <clipPath id="clippath-1">
      <path d="M385.35,192.62h-.01s-14.23-8.21-14.23-8.21h0s-14.21-8.22-14.21-8.22l-14.23-8.21-14.22-8.21h-.01l-14.22-8.21-14.22-8.21-2.86-1.65-4.21-2.43c-4.43-2.56-9.88-2.56-14.31,0l-7.06,4.08,10.27,10.54.12.67,3.83,13.43-14.22,8.2h0s-7.82,4.52-7.82,4.52l-20.63-4.51-11.11-9.98-3.1,1.76-14.23,8.22-14.23,8.21-14.22,8.21-14.22,8.21,10.98,10.08,3.24,14.55h0s-.01,0-.01,0l-14.21,8.21h-.01l-14.21,8.22-14.22-8.21-14.22-8.21-14.23,8.2h0s-8.07,4.66-8.07,4.66c-3.8,2.19-6.14,6.25-6.14,10.64v354.21l14.21,8.21,14.23,8.21,14.22,8.21,14.22,8.21h.01l14.2,8.21h.01l14.22,8.21,14.22,8.21h0s.01.01.01.01l14.22,8.2,14.21-8.2h.02s14.21-8.22,14.21-8.22l14.23-8.21,14.21-8.21h.01l14.22-8.21,14.21-8.21h.01l14.21-8.21h.01l14.22-8.21,14.23-8.21h0s14.23-8.22,14.23-8.22l14.21-8.21,14.23-8.21h0c8.8-5.08,14.22-14.47,14.22-24.63V208.61c0-4.82-2.57-9.28-6.75-11.69l-7.46-4.31ZM186.22,636.03h-.01s.01-.01.01-.01h0ZM228.9,611.4h-.02s.02-.02.02-.02v.02ZM228.9,562.13h-.02.02s0,0,0,0ZM228.9,200.84h-.02s.02-.02.02-.02v.02ZM285.78,562.13h0s.01-.01.01-.01h-.01ZM285.78,414.33h0s.01,0,.01,0h-.01ZM300,603.19h-.01s.01-.01.01-.01h0ZM314.22,299.37h-.01s.01-.01.01-.01h0ZM356.9,274.74h-.02s.02-.02.02-.02v.02Z" style="fill: none;"/>
    </clipPath>
    <clipPath id="clippath-2">
      <path d="M228.9,69.45l-7.5-4.33c-4.16-2.4-9.29-2.4-13.45,0l-7.49,4.33-14.22,8.21-14.22,8.21h-.01l-14.22,8.22-14.22,8.2h0s-8.53,4.93-8.53,4.93c-3.52,2.03-5.69,5.79-5.69,9.86v2.68c0,4.43,2.37,8.53,6.2,10.75h.01c4.95,2.87,8.01,8.15,8.01,13.87v2.28s0,4.89,0,4.89l14.22,8.21h0s14.23-8.2,14.23-8.2h0v-32.85l14.22-8.21,14.22-8.21,6.28-3.62,3.75-2.17c1.86-1.08,4.19.26,4.2,2.42v3.19s0,4.33,0,4.33v4.07l14.23,8.21,14.22-8.21h0v-16.42h0v-10.39c0-3.74-1.99-7.19-5.23-9.06l-8.99-5.19ZM157.78,126.94v-.02h.01s-.01.02-.01.02ZM157.78,110.51h0s.01,0,.01,0h-.01Z" style="fill: none;"/>
    </clipPath>
    <pattern id="_새_패턴_견본_1" data-name="새 패턴 견본 1" x="0" y="0" width="41.3" height="41.3" patternTransform="translate(-3711.41 -2242.01) scale(.61)" patternUnits="userSpaceOnUse" viewBox="0 0 41.3 41.3">
      <g>
        <rect y="0" width="41.3" height="41.3" style="fill: none;"/>
        <rect x="0" y="0" width="41.3" height="41.3" style="fill: #dfe9ed;"/>
      </g>
    </pattern>
    <pattern id="_새_패턴_견본_1-2" data-name="새 패턴 견본 1" patternTransform="translate(-3732.01 -2226.87) scale(.61)" xlink:href="#_새_패턴_견본_1"/>
    <clipPath id="clippath-3">
      <path id="_클리핑_프레임" data-name="클리핑 프레임" d="M271.56,143.35l-8.8-5.08c-3.36-1.94-7.49-1.94-10.85,0l-8.8,5.08v-9.26c0-4.43-2.36-8.52-6.2-10.74l-1.16-.67c-4.24-2.45-9.47-2.45-13.71,0l-7.37,4.25-14.21,8.21h-.01l-14.22,8.21-14.22,8.21h0s-7.39,4.28-7.39,4.28c-4.23,2.44-6.84,6.95-6.84,11.84v8.52h0v16.43l-14.22,8.21-5.59,3.23c-5.34,3.08-8.63,8.78-8.63,14.94v6.46h0s14.22,8.22,14.22,8.22l14.22,8.21,14.22-8.22h.01l14.21-8.21h.01v-9.01c0-4.59-2.45-8.83-6.42-11.12l-7.8-4.5v-16.42h0v-12.8c0-2.24,1.19-4.31,3.13-5.43l11.09-6.4,14.22-8.21h0s.01-.01.01-.01l14.21-8.2h0s0-.01,0-.01l11.11-6.41c1.38-.8,3.11.2,3.11,1.79v26.42c0,1.76.94,3.38,2.46,4.26l11.76,6.79,9.57,5.52c2.88,1.66,6.43,1.66,9.3,0l9.57-5.52h0s14.22-8.21,14.22-8.21v-6.99h0c0-5.84-3.12-11.24-8.18-14.16l-6.04-3.49ZM157.78,225.47h0s.01-.01.01-.01h-.01Z" style="fill: none;"/>
    </clipPath>
    <clipPath id="clippath-4">
      <polygon points="599.11 537.49 409.64 659.5 517.39 714.07 691.03 615.29 599.11 537.49" style="fill: none;"/>
    </clipPath>
    <linearGradient id="_무제_그라디언트_16-4" data-name="무제 그라디언트 16" x1="474.02" x2="535.14" xlink:href="#_무제_그라디언트_16"/>
    <linearGradient id="_무제_그라디언트_16-5" data-name="무제 그라디언트 16" x1="644.69" y1="583.65" x2="705.81" y2="583.65" xlink:href="#_무제_그라디언트_16"/>
    <linearGradient id="_무제_그라디언트_16-6" data-name="무제 그라디언트 16" x1="387.93" y1="633.87" x2="449.05" y2="633.87" xlink:href="#_무제_그라디언트_16"/>
    <clipPath id="clippath-5">
      <path d="M684.46,192.62h-.01s-14.23-8.21-14.23-8.21h0s-14.21-8.22-14.21-8.22l-14.23-8.21-14.22-8.21h-.01l-14.22-8.21-14.22-8.21-2.86-1.65-4.21-2.43c-4.43-2.56-9.88-2.56-14.31,0l-7.06,4.08,10.27,10.54.12.67,3.83,13.43-14.22,8.2h0s-7.82,4.52-7.82,4.52l-20.63-4.51-11.11-9.98-3.1,1.76-14.23,8.22-14.23,8.21-14.22,8.21-14.22,8.21,10.98,10.08,3.24,14.55h0s-.01,0-.01,0l-14.21,8.21h-.01l-14.21,8.22-14.22-8.21-14.22-8.21-14.23,8.2h0s-8.07,4.66-8.07,4.66c-3.8,2.19-6.14,6.25-6.14,10.64v354.21l14.21,8.21,14.23,8.21,14.22,8.21,14.22,8.21h.01l14.2,8.21h.01l14.22,8.21,14.22,8.21h0s.01.01.01.01l14.22,8.2,14.21-8.2h.02s14.21-8.22,14.21-8.22l14.23-8.21,14.21-8.21h.01l14.22-8.21,14.21-8.21h.01l14.21-8.21h.01l14.22-8.21,14.23-8.21h0s14.23-8.22,14.23-8.22l14.21-8.21,14.23-8.21h0c8.8-5.08,14.22-14.47,14.22-24.63V208.61c0-4.82-2.57-9.28-6.75-11.69l-7.46-4.31ZM485.33,636.03h-.01s.01-.01.01-.01h0ZM528.01,611.4h-.02s.02-.02.02-.02v.02ZM528.01,562.13h-.02.02s0,0,0,0ZM528.01,200.84h-.02s.02-.02.02-.02v.02ZM584.89,562.13h0s.01-.01.01-.01h-.01ZM584.89,414.33h0s.01,0,.01,0h-.01ZM599.11,603.19h-.01s.01-.01.01-.01h0ZM613.33,299.37h-.01s.01-.01.01-.01h0ZM656.01,274.74h-.02s.02-.02.02-.02v.02Z" style="fill: none;"/>
    </clipPath>
    <clipPath id="clippath-6">
      <path d="M528.01,69.45l-7.5-4.33c-4.16-2.4-9.29-2.4-13.45,0l-7.49,4.33-14.22,8.21-14.22,8.21h-.01l-14.22,8.22-14.22,8.2h0s-8.53,4.93-8.53,4.93c-3.52,2.03-5.69,5.79-5.69,9.86v2.68c0,4.43,2.37,8.53,6.2,10.75h.01c4.95,2.87,8.01,8.15,8.01,13.87v2.28s0,4.89,0,4.89l14.22,8.21h0s14.23-8.2,14.23-8.2h0v-32.85l14.22-8.21,14.22-8.21,6.28-3.62,3.75-2.17c1.86-1.08,4.19.26,4.2,2.42v3.19s0,4.33,0,4.33v4.07l14.23,8.21,14.22-8.21h0v-16.42h0v-10.39c0-3.74-1.99-7.19-5.23-9.06l-8.99-5.19ZM456.89,126.94v-.02h.01s-.01.02-.01.02ZM456.89,110.51h0s.01,0,.01,0h-.01Z" style="fill: none;"/>
    </clipPath>
    <pattern id="_새_패턴_견본_1-3" data-name="새 패턴 견본 1" patternTransform="translate(-3688.17 -2242.01) scale(.61)" xlink:href="#_새_패턴_견본_1"/>
    <pattern id="_새_패턴_견본_1-4" data-name="새 패턴 견본 1" patternTransform="translate(-3708.78 -2226.87) scale(.61)" xlink:href="#_새_패턴_견본_1"/>
    <clipPath id="clippath-7">
      <path id="_클리핑_프레임-2" data-name="클리핑 프레임" d="M570.67,143.35l-8.8-5.08c-3.36-1.94-7.49-1.94-10.85,0l-8.8,5.08v-9.26c0-4.43-2.36-8.52-6.2-10.74l-1.16-.67c-4.24-2.45-9.47-2.45-13.71,0l-7.37,4.25-14.21,8.21h-.01l-14.22,8.21-14.22,8.21h0s-7.39,4.28-7.39,4.28c-4.23,2.44-6.84,6.95-6.84,11.84v8.52h0v16.43l-14.22,8.21-5.59,3.23c-5.34,3.08-8.63,8.78-8.63,14.94v6.46h0s14.22,8.22,14.22,8.22l14.22,8.21,14.22-8.22h.01l14.21-8.21h.01v-9.01c0-4.59-2.45-8.83-6.42-11.12l-7.8-4.5v-16.42h0v-12.8c0-2.24,1.19-4.31,3.13-5.43l11.09-6.4,14.22-8.21h0s.01-.01.01-.01l14.21-8.2h0s0-.01,0-.01l11.11-6.41c1.38-.8,3.11.2,3.11,1.79v26.42c0,1.76.94,3.38,2.46,4.26l11.76,6.79,9.57,5.52c2.88,1.66,6.43,1.66,9.3,0l9.57-5.52h0s14.22-8.21,14.22-8.21v-6.99h0c0-5.84-3.12-11.24-8.18-14.16l-6.04-3.49ZM456.89,225.47h0s.01-.01.01-.01h-.01Z" style="fill: none;"/>
    </clipPath>
  </defs>
  <g>
    <g style="clip-path: url(#clippath);">
      <g>
        <rect x="367.56" y="501.48" width="41.3" height="41.3" style="fill: none;"/>
        <rect x="367.56" y="501.48" width="41.3" height="41.3" style="fill: #dfe9ed;"/>
      </g>
      <g>
        <rect x="367.56" y="542.78" width="41.3" height="41.3" style="fill: none;"/>
        <rect x="367.56" y="542.78" width="41.3" height="41.3" style="fill: #dfe9ed;"/>
      </g>
      <g>
        <rect x="367.56" y="584.07" width="41.3" height="41.3" style="fill: none;"/>
        <rect x="367.56" y="584.07" width="41.3" height="41.3" style="fill: #dfe9ed;"/>
      </g>
      <g>
        <rect x="367.56" y="625.37" width="41.3" height="41.3" style="fill: none;"/>
        <rect x="367.56" y="625.37" width="41.3" height="41.3" style="fill: #dfe9ed;"/>
      </g>
      <g>
        <rect x="367.56" y="666.67" width="41.3" height="41.3" style="fill: none;"/>
        <rect x="367.56" y="666.67" width="41.3" height="41.3" style="fill: #dfe9ed;"/>
      </g>
      <g>
        <rect x="367.56" y="707.96" width="41.3" height="41.3" style="fill: none;"/>
        <rect x="367.56" y="707.96" width="41.3" height="41.3" style="fill: #dfe9ed;"/>
      </g>
      <g>
        <rect x="326.26" y="501.48" width="41.3" height="41.3" style="fill: none;"/>
        <rect x="326.26" y="501.48" width="41.3" height="41.3" style="fill: #dfe9ed;"/>
      </g>
      <g>
        <rect x="326.26" y="542.78" width="41.3" height="41.3" style="fill: none;"/>
        <rect x="326.26" y="542.78" width="41.3" height="41.3" style="fill: #dfe9ed;"/>
      </g>
      <g>
        <rect x="326.26" y="584.07" width="41.3" height="41.3" style="fill: none;"/>
        <rect x="326.26" y="584.07" width="41.3" height="41.3" style="fill: #dfe9ed;"/>
      </g>
      <g>
        <rect x="326.26" y="625.37" width="41.3" height="41.3" style="fill: none;"/>
        <rect x="326.26" y="625.37" width="41.3" height="41.3" style="fill: #dfe9ed;"/>
      </g>
      <g>
        <rect x="326.26" y="666.67" width="41.3" height="41.3" style="fill: none;"/>
        <rect x="326.26" y="666.67" width="41.3" height="41.3" style="fill: #dfe9ed;"/>
      </g>
      <g>
        <rect x="326.26" y="707.96" width="41.3" height="41.3" style="fill: none;"/>
        <rect x="326.26" y="707.96" width="41.3" height="41.3" style="fill: #dfe9ed;"/>
      </g>
      <g>
        <rect x="284.97" y="501.48" width="41.3" height="41.3" style="fill: none;"/>
        <rect x="284.97" y="501.48" width="41.3" height="41.3" style="fill: #dfe9ed;"/>
      </g>
      <g>
        <rect x="284.97" y="542.78" width="41.3" height="41.3" style="fill: none;"/>
        <rect x="284.97" y="542.78" width="41.3" height="41.3" style="fill: #dfe9ed;"/>
      </g>
      <g>
        <rect x="284.97" y="584.07" width="41.3" height="41.3" style="fill: none;"/>
        <rect x="284.97" y="584.07" width="41.3" height="41.3" style="fill: #dfe9ed;"/>
      </g>
      <g>
        <rect x="284.97" y="625.37" width="41.3" height="41.3" style="fill: none;"/>
        <rect x="284.97" y="625.37" width="41.3" height="41.3" style="fill: #dfe9ed;"/>
      </g>
      <g>
        <rect x="284.97" y="666.67" width="41.3" height="41.3" style="fill: none;"/>
        <rect x="284.97" y="666.67" width="41.3" height="41.3" style="fill: #dfe9ed;"/>
      </g>
      <g>
        <rect x="284.97" y="707.96" width="41.3" height="41.3" style="fill: none;"/>
        <rect x="284.97" y="707.96" width="41.3" height="41.3" style="fill: #dfe9ed;"/>
      </g>
      <g>
        <rect x="243.67" y="501.48" width="41.3" height="41.3" style="fill: none;"/>
        <rect x="243.67" y="501.48" width="41.3" height="41.3" style="fill: #dfe9ed;"/>
      </g>
      <g>
        <rect x="243.67" y="542.78" width="41.3" height="41.3" style="fill: none;"/>
        <rect x="243.67" y="542.78" width="41.3" height="41.3" style="fill: #dfe9ed;"/>
      </g>
      <g>
        <rect x="243.67" y="584.07" width="41.3" height="41.3" style="fill: none;"/>
        <rect x="243.67" y="584.07" width="41.3" height="41.3" style="fill: #dfe9ed;"/>
      </g>
      <g>
        <rect x="243.67" y="625.37" width="41.3" height="41.3" style="fill: none;"/>
        <rect x="243.67" y="625.37" width="41.3" height="41.3" style="fill: #dfe9ed;"/>
      </g>
      <g>
        <rect x="243.67" y="666.67" width="41.3" height="41.3" style="fill: none;"/>
        <rect x="243.67" y="666.67" width="41.3" height="41.3" style="fill: #dfe9ed;"/>
      </g>
      <g>
        <rect x="243.67" y="707.96" width="41.3" height="41.3" style="fill: none;"/>
        <rect x="243.67" y="707.96" width="41.3" height="41.3" style="fill: #dfe9ed;"/>
      </g>
      <g>
        <rect x="202.37" y="501.48" width="41.3" height="41.3" style="fill: none;"/>
        <rect x="202.37" y="501.48" width="41.3" height="41.3" style="fill: #dfe9ed;"/>
      </g>
      <g>
        <rect x="202.37" y="542.78" width="41.3" height="41.3" style="fill: none;"/>
        <rect x="202.37" y="542.78" width="41.3" height="41.3" style="fill: #dfe9ed;"/>
      </g>
      <g>
        <rect x="202.37" y="584.07" width="41.3" height="41.3" style="fill: none;"/>
        <rect x="202.37" y="584.07" width="41.3" height="41.3" style="fill: #dfe9ed;"/>
      </g>
      <g>
        <rect x="202.37" y="625.37" width="41.3" height="41.3" style="fill: none;"/>
        <rect x="202.37" y="625.37" width="41.3" height="41.3" style="fill: #dfe9ed;"/>
      </g>
      <g>
        <rect x="202.37" y="666.67" width="41.3" height="41.3" style="fill: none;"/>
        <rect x="202.37" y="666.67" width="41.3" height="41.3" style="fill: #dfe9ed;"/>
      </g>
      <g>
        <rect x="202.37" y="707.96" width="41.3" height="41.3" style="fill: none;"/>
        <rect x="202.37" y="707.96" width="41.3" height="41.3" style="fill: #dfe9ed;"/>
      </g>
      <g>
        <rect x="161.08" y="501.48" width="41.3" height="41.3" style="fill: none;"/>
        <rect x="161.08" y="501.48" width="41.3" height="41.3" style="fill: #dfe9ed;"/>
      </g>
      <g>
        <rect x="161.08" y="542.78" width="41.3" height="41.3" style="fill: none;"/>
        <rect x="161.08" y="542.78" width="41.3" height="41.3" style="fill: #dfe9ed;"/>
      </g>
      <g>
        <rect x="161.08" y="584.07" width="41.3" height="41.3" style="fill: none;"/>
        <rect x="161.08" y="584.07" width="41.3" height="41.3" style="fill: #dfe9ed;"/>
      </g>
      <g>
        <rect x="161.08" y="625.37" width="41.3" height="41.3" style="fill: none;"/>
        <rect x="161.08" y="625.37" width="41.3" height="41.3" style="fill: #dfe9ed;"/>
      </g>
      <g>
        <rect x="161.08" y="666.67" width="41.3" height="41.3" style="fill: none;"/>
        <rect x="161.08" y="666.67" width="41.3" height="41.3" style="fill: #dfe9ed;"/>
      </g>
      <g>
        <rect x="161.08" y="707.96" width="41.3" height="41.3" style="fill: none;"/>
        <rect x="161.08" y="707.96" width="41.3" height="41.3" style="fill: #dfe9ed;"/>
      </g>
      <g>
        <rect x="119.78" y="501.48" width="41.3" height="41.3" style="fill: none;"/>
        <rect x="119.78" y="501.48" width="41.3" height="41.3" style="fill: #dfe9ed;"/>
      </g>
      <g>
        <rect x="119.78" y="542.78" width="41.3" height="41.3" style="fill: none;"/>
        <rect x="119.78" y="542.78" width="41.3" height="41.3" style="fill: #dfe9ed;"/>
      </g>
      <g>
        <rect x="119.78" y="584.07" width="41.3" height="41.3" style="fill: none;"/>
        <rect x="119.78" y="584.07" width="41.3" height="41.3" style="fill: #dfe9ed;"/>
      </g>
      <g>
        <rect x="119.78" y="625.37" width="41.3" height="41.3" style="fill: none;"/>
        <rect x="119.78" y="625.37" width="41.3" height="41.3" style="fill: #dfe9ed;"/>
      </g>
      <g>
        <rect x="119.78" y="666.67" width="41.3" height="41.3" style="fill: none;"/>
        <rect x="119.78" y="666.67" width="41.3" height="41.3" style="fill: #dfe9ed;"/>
      </g>
      <g>
        <rect x="119.78" y="707.96" width="41.3" height="41.3" style="fill: none;"/>
        <rect x="119.78" y="707.96" width="41.3" height="41.3" style="fill: #dfe9ed;"/>
      </g>
      <g>
        <rect x="78.49" y="501.48" width="41.3" height="41.3" style="fill: none;"/>
        <rect x="78.49" y="501.48" width="41.3" height="41.3" style="fill: #dfe9ed;"/>
      </g>
      <g>
        <rect x="78.49" y="542.78" width="41.3" height="41.3" style="fill: none;"/>
        <rect x="78.49" y="542.78" width="41.3" height="41.3" style="fill: #dfe9ed;"/>
      </g>
      <g>
        <rect x="78.49" y="584.07" width="41.3" height="41.3" style="fill: none;"/>
        <rect x="78.49" y="584.07" width="41.3" height="41.3" style="fill: #dfe9ed;"/>
      </g>
      <g>
        <rect x="78.49" y="625.37" width="41.3" height="41.3" style="fill: none;"/>
        <rect x="78.49" y="625.37" width="41.3" height="41.3" style="fill: #dfe9ed;"/>
      </g>
      <g>
        <rect x="78.49" y="666.67" width="41.3" height="41.3" style="fill: none;"/>
        <rect x="78.49" y="666.67" width="41.3" height="41.3" style="fill: #dfe9ed;"/>
      </g>
      <g>
        <rect x="78.49" y="707.96" width="41.3" height="41.3" style="fill: none;"/>
        <rect x="78.49" y="707.96" width="41.3" height="41.3" style="fill: #dfe9ed;"/>
      </g>
    </g>
    <g>
      <g>
        <path d="M236.03,664.59l-24.75-12.59c-9.1-4.24-27.33,3.11-32.35,14.02-6.53,14.21-4.39,28.57,1.31,32.64.51.37,3.7,2.5,4.3,2.67l22.93,12.73,28.56-49.47Z" style="fill: url(#_무제_그라디언트_16);"/>
        <ellipse cx="221.75" cy="689.33" rx="28.56" ry="18.34" transform="translate(-486.1 536.71) rotate(-60)" style="fill: #353644;"/>
        <path d="M228.68,677.53c-1.28-.74-2.78-.94-4.35-.68,1.26,3.38.63,8.27-1.99,12.81-2.62,4.54-6.54,7.53-10.1,8.13.56,1.49,1.48,2.69,2.76,3.43,4.2,2.43,10.67-.91,14.45-7.46s3.43-13.81-.77-16.24Z" style="fill: #a5b1c4;"/>
        <path d="M222.33,689.67c2.62-4.54,3.25-9.43,1.99-12.81-3.56.6-7.48,3.59-10.1,8.13-2.62,4.54-3.25,9.43-1.99,12.81,3.56-.6,7.48-3.59,10.1-8.13Z" style="fill: #dfe9ed;"/>
      </g>
      <g>
        <path d="M406.7,565.82l-24.75-12.59c-9.1-4.24-27.33,3.11-32.35,14.02-6.53,14.21-4.39,28.57,1.31,32.64.51.37,3.7,2.5,4.3,2.67l22.93,12.73,28.56-49.47Z" style="fill: url(#_무제_그라디언트_16-2);"/>
        <ellipse cx="392.42" cy="590.56" rx="28.56" ry="18.34" transform="translate(-315.23 635.12) rotate(-60)" style="fill: #353644;"/>
        <path d="M399.34,578.76c-1.28-.74-2.78-.94-4.35-.68,1.26,3.38.63,8.27-1.99,12.81-2.62,4.54-6.54,7.53-10.1,8.13.56,1.49,1.48,2.69,2.76,3.43,4.2,2.43,10.67-.91,14.45-7.46s3.43-13.81-.77-16.24Z" style="fill: #a5b1c4;"/>
        <path d="M393,590.89c2.62-4.54,3.25-9.43,1.99-12.81-3.56.6-7.48,3.59-10.1,8.13-2.62,4.54-3.25,9.43-1.99,12.81,3.56-.6,7.48-3.59,10.1-8.13Z" style="fill: #dfe9ed;"/>
      </g>
      <g>
        <path d="M149.94,616.04l-24.75-12.59c-9.1-4.24-27.33,3.11-32.35,14.02-6.53,14.21-4.39,28.57,1.31,32.64.51.37,3.7,2.5,4.3,2.67l22.93,12.73,28.56-49.47Z" style="fill: url(#_무제_그라디언트_16-3);"/>
        <ellipse cx="135.66" cy="640.78" rx="28.56" ry="18.34" transform="translate(-487.1 437.87) rotate(-60)" style="fill: #353644;"/>
        <path d="M142.58,628.98c-1.28-.74-2.78-.94-4.35-.68,1.26,3.38.63,8.27-1.99,12.81-2.62,4.54-6.54,7.53-10.1,8.13.56,1.49,1.48,2.69,2.76,3.43,4.2,2.43,10.67-.91,14.45-7.46s3.43-13.81-.77-16.24Z" style="fill: #a5b1c4;"/>
        <path d="M136.24,641.11c2.62-4.54,3.25-9.43,1.99-12.81-3.56.6-7.48,3.59-10.1,8.13-2.62,4.54-3.25,9.43-1.99,12.81,3.56-.6,7.48-3.59,10.1-8.13Z" style="fill: #dfe9ed;"/>
      </g>
    </g>
    <g style="clip-path: url(#clippath-1);">
      <g>
        <polygon points="269.99 193.53 257.34 200.83 243.12 209.04 243.11 209.04 241.63 209.89 228.9 217.25 228.89 217.25 214.67 225.46 214.67 225.47 200.45 233.68 186.23 241.89 186.22 241.89 172.01 250.1 172 250.1 157.78 258.31 143.56 266.52 143.56 282.94 143.56 282.95 143.56 299.36 143.56 299.37 143.56 315.41 143.56 315.78 143.56 315.79 143.56 332.21 143.56 348.63 143.56 364.5 143.56 365.05 143.56 381.48 143.56 397.9 143.56 413.72 143.56 414.32 143.56 430.74 143.56 430.75 143.56 447.17 143.56 462.8 143.56 463.58 143.56 463.59 143.56 480.01 143.56 496.43 143.56 496.44 143.56 511.89 143.56 512.85 143.56 512.86 143.56 529.28 143.56 545.7 143.56 545.71 143.56 561.16 157.77 552.95 171.99 544.74 186.22 536.53 186.22 536.52 200.44 528.31 214.66 520.1 228.89 511.89 228.89 512.08 243.11 503.87 257.33 495.66 271.56 487.45 271.56 471.81 271.56 471.8 271.56 455.38 271.56 438.95 271.56 438.18 271.56 422.54 271.56 422.53 271.56 406.11 271.56 389.69 271.56 389.68 271.56 389.1 271.56 373.27 271.56 356.85 271.56 356.84 271.56 340.42 271.56 340.01 271.56 324 271.56 307.58 271.56 291.15 271.56 290.79 271.56 274.73 271.56 258.31 271.56 241.89 271.56 241.88 271.56 241.71 271.56 225.47 271.56 225.46 271.56 209.05 271.56 209.04 271.56 192.62 269.99 193.53" style="fill: #cecdae;"/>
        <polygon points="371.12 545.7 371.12 562.12 371.12 562.13 371.12 578.54 385.34 570.33 399.56 562.12 399.56 545.71 399.56 545.7 399.56 529.28 385.34 537.49 371.12 545.7" style="fill: #353644;"/>
        <polygon points="371.12 215.11 371.12 218.93 371.12 233.67 371.12 250.1 371.12 266.51 371.12 266.52 371.12 282.94 371.12 282.95 371.12 299.36 371.12 315.79 371.12 332.21 371.12 348.63 371.12 365.06 371.12 381.47 371.12 381.48 371.12 397.9 371.12 414.32 371.12 430.74 371.12 430.75 371.12 447.16 371.12 447.17 371.12 463.59 371.12 480.01 371.12 480.02 371.12 496.43 371.12 512.86 371.12 529.27 371.12 529.28 371.12 545.7 385.34 537.49 399.56 529.28 399.56 512.85 399.56 496.44 399.56 496.43 399.56 480.01 399.56 463.59 399.56 463.58 399.56 447.17 399.56 430.75 399.56 430.74 399.56 414.32 399.56 397.91 399.56 397.9 399.56 381.48 399.56 365.05 399.56 348.64 399.56 348.63 399.56 332.21 399.56 315.79 399.56 315.78 399.56 299.37 399.56 282.94 399.56 266.52 399.56 250.09 399.56 233.68 399.56 217.25 399.56 200.83 385.34 209.04 371.12 215.11" style="fill: #cecdae;"/>
        <path d="M371.12,529.27v-49.25h0v-32.85h0v-16.42h0v-49.27h0v-98.53h0v-16.43h0v-51.96s-14.22-5.51-14.22-5.51h0s-14.23-8.22-14.23-8.22v16.42h0v82.11h0v32.85h0,0v49.26h0s0,.01,0,.01v49.26h0s0,.01,0,.01v16.41h0v32.85h0,0v49.26h0s0,.01,0,.01l14.22,8.2h0s14.22,8.22,14.22,8.22v-16.42h0ZM356.9,274.72v.02h-.01s.01-.02.01-.02Z" style="fill: #eaeacc;"/>
        <path d="M356.9,586.75l14.21-8.21h0v-16.41h0v-16.43l-14.22,8.21-14.23,8.21-14.22,8.21-14.22,8.21h0s-14.22,8.21-14.22,8.21h0s-.01.01-.01.01l-14.22,8.21-14.22,8.21-14.22,8.21-14.22,8.21h0v16.42h0v16.42l14.22-8.21,14.21-8.21h.01l14.22-8.21,14.22-8.21h.01l14.21-8.21h.01l14.22-8.21,14.22-8.21h0s14.23-8.22,14.23-8.22ZM342.68,578.55h0s0,0,0,0ZM300,603.18h.01s-.01,0-.01,0Z" style="fill: #cecdae;"/>
        <path d="M281.95,154.56l3.83,13.43,14.22,8.21h.01l14.22,8.21,14.22,8.21,14.22,8.21,14.23,8.21h0s3.59,2.08,3.59,2.08l4.56,2.63c3.76,2.17,8.39,2.17,12.14,0l8.15-4.7,14.22-8.21h0s-14.21-8.21-14.21-8.21h-.01s-14.22-8.21-14.22-8.21h0s-14.22-8.22-14.22-8.22l-14.22-8.21h0s0,0,0,0l-14.21-8.21h-.01l-14.22-8.21-14.22-8.21-14.22-8.21h-.01l-14.22,8.21,10.28,10.54.11.67Z" style="fill: #fffff8;"/>
        <path d="M285.79,184.41h-.01v16.42h0v49.26h0v49.27h0v49.27h0v16.42h.01s-.01.01-.01.01v32.83h0v16.43h.01-.01v32.84h.01s-.01.01-.01.01v16.42h0v32.84h.01l14.22,8.21h0s14.22,8.21,14.22,8.21v-197.06h0v-16.42h-.01s.01-.01.01-.01v-49.26h0v-65.69l-14.22-8.21h-.01l-14.22-8.21v16.41h.01ZM300.01,291.16h-.01.01s0,0,0,0Z" style="fill: #eaeacc;"/>
        <path d="M243.12,636.02v-16.41h0s0-.01,0-.01l-14.21,8.21-14.23,2.19-14.22-2.19-14.22-8.21v16.42h0v16.42l14.22,8.21h0s.01.01.01.01l5.9,3.41c5.14,2.97,11.47,2.97,16.61,0l5.91-3.41h.01s14.21-8.22,14.21-8.22h0v-16.41h0Z" style="fill: #353644;"/>
        <polygon points="200.46 611.39 214.67 603.18 228.9 594.97 243.12 586.76 257.34 578.55 271.56 570.34 285.78 562.13 285.78 562.12 285.79 562.12 300.01 553.91 314.23 545.7 328.45 537.49 328.46 537.49 342.67 529.28 342.67 529.27 342.67 512.86 342.67 496.43 342.67 480.02 342.67 480.01 342.67 463.59 342.67 447.17 342.67 447.16 342.67 430.75 342.67 430.74 342.67 414.32 342.67 397.9 342.67 381.48 342.67 381.47 342.67 365.06 342.67 348.63 342.67 332.22 342.67 332.21 342.67 315.79 342.67 299.37 342.67 299.36 342.67 282.94 342.67 266.52 342.67 250.1 342.67 233.67 342.67 217.26 342.67 217.25 342.67 200.83 328.45 192.62 328.45 209.04 328.45 225.46 328.45 225.47 328.45 241.88 328.45 241.89 328.45 258.31 328.45 274.73 328.45 291.15 328.45 307.58 328.45 324 328.45 340.42 328.45 340.43 328.45 356.84 328.45 356.85 328.45 373.26 328.45 373.27 328.45 389.69 328.45 406.11 328.45 422.53 328.45 438.95 328.45 438.96 328.45 455.38 328.45 471.8 328.45 488.22 328.45 488.23 328.45 504.64 328.45 504.65 328.45 521.06 328.45 521.07 314.23 529.28 300.01 537.49 285.79 545.7 285.78 545.7 271.56 553.91 257.34 562.12 243.12 570.33 243.12 570.34 243.11 570.34 228.9 578.54 228.9 578.55 214.67 586.76 200.45 594.97 186.23 603.18 172.01 611.39 186.23 619.6 200.45 611.39 200.46 611.39" style="fill: #53576b;"/>
        <polygon points="214.67 209.04 228.89 200.83 228.9 200.82 243.11 192.62 243.12 192.62 243.12 192.61 263.75 180.72 243.12 176.2 232 166.22 228.9 167.98 214.67 176.2 200.45 184.41 186.23 192.62 172.01 200.83 182.99 210.91 186.23 225.46 200.45 217.25 214.67 209.04" style="fill: #fffff8;"/>
        <polygon points="200.45 594.97 214.67 586.76 228.9 578.55 228.9 578.54 243.11 570.34 243.12 570.34 243.12 570.33 257.34 562.12 271.56 553.91 285.78 545.7 285.79 545.7 300.01 537.49 314.23 529.28 328.45 521.07 328.45 521.06 328.45 504.65 328.45 504.64 328.45 488.23 328.45 488.22 328.45 471.8 328.45 455.38 328.45 438.96 328.45 438.95 328.45 422.53 328.45 406.11 328.45 389.69 328.45 373.27 328.45 373.26 328.45 356.85 328.45 356.84 328.45 340.43 328.45 340.42 328.45 324 328.45 307.58 328.45 291.15 328.45 274.73 328.45 258.31 328.45 241.89 328.45 241.88 328.45 225.47 328.45 225.46 328.45 209.04 328.45 192.62 314.23 184.41 314.23 200.83 314.23 217.25 314.23 233.68 314.23 250.09 314.23 250.1 314.23 266.52 314.23 282.94 314.23 299.36 314.23 299.37 314.23 315.78 314.23 315.79 314.23 332.21 314.23 348.64 314.23 365.05 314.23 381.48 314.23 397.9 314.23 414.32 314.23 430.74 314.23 447.17 314.23 463.59 314.23 480.01 314.23 496.44 314.23 512.85 300.01 521.06 300.01 521.07 285.78 529.28 271.56 537.49 257.34 545.7 243.12 553.91 243.11 553.91 228.9 562.12 228.9 562.13 228.89 562.13 214.67 570.33 200.45 578.54 200.45 578.55 186.23 586.75 186.23 586.76 186.22 586.76 172.01 594.96 172.01 594.97 157.78 603.18 172.01 611.39 186.23 603.18 200.45 594.97" style="fill: #a5b1c4;"/>
        <polygon points="186.22 636.02 186.23 636.02 186.23 619.6 172.01 611.39 157.78 603.18 143.57 594.97 143.56 594.97 129.34 586.76 129.34 603.18 129.34 619.6 143.56 627.81 157.78 636.02 157.79 636.02 172 644.23 172.01 644.23 186.23 652.44 186.23 636.03 186.22 636.02" style="fill: #eaeacc;"/>
        <path d="M172.01,594.96l14.21-8.2h.01s14.22-8.21,14.22-8.21h0s14.22-8.22,14.22-8.22l14.22-8.2h.01s14.21-8.22,14.21-8.22h0l14.22-8.21,14.22-8.21,14.22-8.21,14.23-8.21h0s14.22-8.22,14.22-8.22l-14.22-8.2h0s-14.22-8.22-14.22-8.22h-.01s-14.22,8.21-14.22,8.21h0s-14.22,8.22-14.22,8.22l-14.22,8.2h0s-14.22,8.22-14.22,8.22l-14.23,8.21-14.22,8.21-14.22,8.21-14.22,8.21h-.01l-14.22,8.22-14.22,8.2h0s-14.22,8.22-14.22,8.22l14.22,8.21h.01l14.21,8.21,14.23-8.21h0ZM285.79,512.86h-.01s.01,0,.01,0ZM200.46,562.13h-.01s.01,0,.01,0ZM157.78,586.76h0s.01,0,.01,0h-.01Z" style="fill: #fffff8;"/>
        <path d="M143.56,578.54l14.22-8.2,14.22-8.22h.01l14.22-8.21,14.22-8.21,14.22-8.21,14.23-8.21,14.22-8.21h0s14.22-8.21,14.22-8.21l14.22-8.21h0s14.22-8.21,14.22-8.21h0v-32.84h0v-16.43h0v-32.84h0v-16.43h0v-32.84h0v-16.42h0v-49.27h0v-49.27h0v-49.26h0v-16.43h0v-16.42l-14.22,8.2h0s-14.22,8.22-14.22,8.22l-14.22,8.2h0s0,.01,0,.01l-14.21,8.2v.02h-.01s-14.22,8.2-14.22,8.2l-14.22,8.21-14.22,8.21h0s-.01,0-.01,0l-14.21,8.21h-.01l-14.22,8.22-14.22,8.21-14.22,5.79v117.37h0v82.11h0v65.69h0v65.7l14.22-8.21h0ZM143.56,561.16v-15.45h0v-32.85h0v-16.42h0v-32.85h0v-32.84h0v-114.96h0v-16.42h0v-16.42h0v-16.43l14.22-8.21,14.22-8.21h.01l14.21-8.21h0s14.22-8.21,14.22-8.21l14.22-8.21h0s14.22-8.22,14.22-8.22h0s12.73-7.36,12.73-7.36l1.48-.85h0l14.22-8.21,12.65-7.3,1.57-.91h0v16.42h0v16.42h0v16.42h0v114.96h0v32.84h0v32.85h0v49.27h0v16.42l-14.22,8.21-14.22,8.21h0l-14.21,8.21-14.23,8.21h0s-14.22,8.22-14.22,8.22l-14.22,8.21h-.01l-14.21,8.21h-.01l-14.22,8.21-14.22,8.21v-.96Z" style="fill: #cecdae;"/>
        <path d="M129.34,619.6v-32.84l-14.22-8.21h0s-14.22-8.21-14.22-8.21v16.41h0v7.24c0,5.69,3.03,10.94,7.96,13.78l6.26,3.62,14.22,8.21Z" style="fill: #353644;"/>
        <polygon points="115.12 578.55 129.34 586.76 129.34 570.33 129.34 553.92 129.34 537.49 129.34 521.07 129.34 521.06 129.34 504.65 129.34 488.22 129.34 471.8 129.34 455.38 129.34 455.37 129.34 438.96 129.34 422.53 129.34 406.11 129.34 389.69 129.34 373.27 129.34 373.26 129.34 356.84 129.34 340.42 129.34 324 129.34 307.57 129.34 291.16 129.34 274.73 129.34 254.48 115.12 250.1 100.9 241.89 100.9 258.31 100.9 274.73 100.9 274.74 100.9 291.15 100.9 307.58 100.9 323.99 100.9 324 100.9 340.42 100.9 356.84 100.9 356.85 100.9 373.26 100.9 373.27 100.9 389.68 100.9 389.69 100.9 406.11 100.9 422.53 100.9 422.54 100.9 438.95 100.9 455.38 100.9 471.8 100.9 488.22 100.9 488.23 100.9 504.64 100.9 504.65 100.9 521.07 100.9 537.48 100.9 537.5 100.9 553.91 100.9 570.34 115.12 578.54 115.12 578.55" style="fill: #eaeacc;"/>
        <path d="M124.38,255.45c3.07,1.77,6.85,1.77,9.92,0l9.26-5.35,14.22-8.21-14.22-8.21-14.22-8.21-14.22,8.2h0s0,.01,0,.01l-14.21,8.2h0s14.22,8.22,14.22,8.22l9.26,5.35Z" style="fill: #fffff8;"/>
        <path d="M321.34,231.25v16.42h0v16.42h0s11.22,6.49,11.22,6.49c1.33.77,3-.19,3-1.73v-12.96h0v-15.28c0-.71-.38-1.37-1-1.73l-13.22-7.63Z" style="fill: #a5b1c4;"/>
        <path d="M321.34,322.8v16.42h0v16.42h0s11.22,6.49,11.22,6.49c1.33.77,3-.19,3-1.73v-12.96h0v-15.28c0-.71-.38-1.37-1-1.73l-13.22-7.63Z" style="fill: #a5b1c4;"/>
        <path d="M321.34,414.36v16.42h0v16.42h0s11.22,6.49,11.22,6.49c1.33.77,3-.19,3-1.73v-12.96h0v-15.28c0-.71-.38-1.37-1-1.73l-13.22-7.63Z" style="fill: #a5b1c4;"/>
        <path d="M263.67,548.97l-14.22,8.21-14.22,8.21-14.22,8.21,13.22,7.63c.62.36,1.38.36,2,0l13.22-7.63,14.22-8.21,11.23-6.48c1.33-.77,1.33-2.7,0-3.46l-11.23-6.48Z" style="fill: #a5b1c4;"/>
        <path d="M356.9,537.48l-14.22-8.2h0l-14.21,8.21h-.01l-14.22,8.21-14.22,8.21-14.22,8.21h-.01s-14.22,8.22-14.22,8.22l-14.22,8.21-14.22,8.21-14.22,8.21-14.23,8.21-14.21,8.21h-.01l-14.22,8.21,14.22,8.21,5.51,3.18c5.39,3.11,12.04,3.11,17.43,0l5.51-3.18,14.21-8.21h0l14.22-8.21,14.22-8.21,14.22-8.21,14.22-8.21h.01s14.22-8.21,14.22-8.21h0s14.22-8.22,14.22-8.22l14.22-8.21,14.23-8.21,14.22-8.21-14.22-8.21h0ZM228.89,611.39h.01s0,0,0,0h-.01Z" style="fill: #fffff8;"/>
      </g>
    </g>
    <g>
      <polygon points="243.12 145.22 243.12 110.51 228.9 114.7 228.93 135.81 243.12 145.22" style="fill: #a5b1c4;"/>
      <polygon points="214.67 126.93 228.9 125.81 228.9 113.52 214.67 110.51 214.67 126.93" style="fill: #dfe9ed;"/>
      <polygon points="214.67 176.2 228.9 167.98 228.9 151.56 228.9 135.15 214.68 143.35 214.67 143.35 214.67 143.36 214.67 159.77 214.67 176.2" style="fill: #dfe9ed;"/>
    </g>
    <g>
      <polygon points="170.91 166.34 170.91 149.92 156.69 153.06 156.69 175.11 170.91 166.34" style="fill: #a5b1c4;"/>
      <polygon points="157.78 176.2 157.78 176.19 157.78 150.67 156.45 151.06 143.56 151.56 143.56 167.98 143.56 167.99 143.56 184.41 143.56 200.83 157.78 192.62 157.78 176.2" style="fill: #dfe9ed;"/>
    </g>
    <g style="clip-path: url(#clippath-2);">
      <g>
        <path d="M228.9,83.39h0l-9.55-3.02c-2.9-1.67-6.46-1.67-9.36,0l-9.53,5.5h-.01s-14.22,8.21-14.22,8.21h0s-14.22,8.21-14.22,8.21h0s-.01.01-.01.01l-14.21,8.21,14.22,8.21,14.22-8.21,14.22-8.21,6.28-3.62h0l4.21-2.44c1.66-.96,3.74.24,3.74,2.16v8.04s0,4.07,0,4.07l7.33,4.23c4.27,2.46,9.53,2.46,13.8,0l7.32-4.23h0v-16.42h0v-16.43l-14.22,5.73Z" style="fill: #353644;"/>
        <path d="M157.79,123.59v3.35s-.01-3.35-.01-3.35l-14.22-4.87-14.22-8.21v16.42l7.78,4.49c3.98,2.3,6.44,6.55,6.44,11.15v8.99l5.45,2.77,1.82,1.13c4.28,2.66,9.68,2.74,14.04.23l7.14-4.12h0v-32.85l-14.22,4.87Z" style="fill: #353644;"/>
        <path d="M228.9,69.45l-14.23-8.21-14.22,8.21s-14.22,8.21-14.22,8.21l-14.22,8.21h-.01l-14.22,8.22-14.22,8.2h0s-14.22,8.22-14.22,8.22l14.22,8.21,5.59,3.39,5.51,3.07c1.94,1.08,4.31,1.07,6.23-.05l11.12-6.42-6.76-3.91-2.04-1.17-2.65-1.54c-1.22-.7-1.2-2.47.04-3.14l6.85-3.75,4.56-2.91h.01s14.22-8.21,14.22-8.21h0s14.22-8.21,14.22-8.21h0s.01-.01.01-.01l9.43-5.44c2.96-1.71,6.61-1.71,9.57,0l6.59,3.8c1.76,1.02,3.94,1.02,5.7,0l9.28-5.36,2.09-1.21s-14.22-8.21-14.22-8.21Z" style="fill: #53576b;"/>
      </g>
    </g>
    <polygon points="214.68 94.08 214.67 94.08 214.67 94.09 214.68 94.08" style="fill: none;"/>
    <polyline points="232 166.22 230.44 167.11 228.9 167.98 214.67 176.2 207.47 180.36 200.45 184.41 186.23 192.62 172.01 200.83" style="fill: none; stroke: #c1bf93; stroke-miterlimit: 10; stroke-width: 3px;"/>
    <polygon points="271.56 192.62 269.99 193.53 271.56 192.62 271.56 192.62" style="fill: none;"/>
    <polygon points="172 545.7 172.01 545.7 186.22 537.49 186.23 537.49 200.45 529.28 214.67 521.07 214.67 521.06 228.9 512.85 243.11 504.64 243.12 504.64 257.34 496.43 271.56 488.22 271.56 487.45 257.33 495.66 243.11 503.87 228.89 512.08 228.89 511.89 214.66 520.1 200.44 528.31 186.22 536.52 186.22 536.53 171.99 544.74 157.77 552.95 143.56 561.16 143.56 562.12 157.78 553.91 172 545.7" style="fill: none;"/>
    <polygon points="285.79 512.86 285.78 512.85 285.78 512.86 285.79 512.86" style="fill: none;"/>
    <polygon points="300.01 291.16 300.01 291.15 300 291.16 300.01 291.16" style="fill: none;"/>
    <polygon points="186.23 225.46 186.22 225.46 186.23 225.47 186.23 225.46" style="fill: none;"/>
    <polygon points="200.45 184.41 214.67 176.2 214.67 159.77 214.67 143.36 200.46 151.56 200.45 151.56 200.45 151.57 186.23 159.78 172.01 167.99 172.01 184.4 172.01 184.41 172.01 200.83 186.23 192.62 200.45 184.41" style="fill: none;"/>
    <polygon points="228.9 200.84 228.9 200.82 228.89 200.83 228.9 200.84" style="fill: none;"/>
    <polygon points="356.9 274.72 356.89 274.73 356.9 274.74 356.9 274.72" style="fill: none;"/>
    <polygon points="157.78 126.92 157.78 126.94 157.79 126.93 157.78 126.92" style="fill: none;"/>
    <polygon points="157.78 110.51 157.79 110.51 157.78 110.5 157.78 110.51" style="fill: none;"/>
    <polygon points="157.78 586.76 157.79 586.76 157.78 586.75 157.78 586.76" style="fill: none;"/>
    <polygon points="228.89 611.39 228.9 611.4 228.9 611.38 228.89 611.39" style="fill: none;"/>
    <polygon points="200.46 562.13 200.45 562.12 200.45 562.13 200.46 562.13" style="fill: none;"/>
    <polygon points="243.11 209.04 241.63 209.89 243.11 209.04 243.11 209.04" style="fill: none;"/>
    <polygon points="157.78 225.47 157.79 225.46 157.78 225.46 157.78 225.47" style="fill: none;"/>
    <polygon points="342.68 332.21 342.67 332.21 342.67 332.22 342.68 332.21" style="fill: none;"/>
    <polygon points="342.68 381.48 342.67 381.47 342.67 381.48 342.68 381.48" style="fill: none;"/>
    <polygon points="342.68 480.01 342.67 480.01 342.67 480.02 342.68 480.01" style="fill: none;"/>
    <polygon points="186.23 636.03 186.23 636.02 186.22 636.02 186.23 636.03" style="fill: none;"/>
    <polygon points="285.78 184.4 285.78 184.41 285.79 184.41 285.78 184.4" style="fill: none;"/>
    <polygon points="285.78 365.05 285.78 365.06 285.79 365.06 285.78 365.05" style="fill: none;"/>
    <polygon points="285.78 414.32 285.78 414.33 285.79 414.32 285.78 414.32" style="fill: none;"/>
    <polygon points="285.78 447.16 285.78 447.17 285.79 447.17 285.78 447.16" style="fill: none;"/>
    <polygon points="228.9 562.13 228.9 562.12 228.89 562.13 228.9 562.13" style="fill: none;"/>
    <polygon points="285.78 562.13 285.79 562.12 285.78 562.12 285.78 562.13" style="fill: none;"/>
    <polygon points="314.23 299.37 314.23 299.36 314.22 299.36 314.23 299.37" style="fill: none;"/>
    <polygon points="342.68 430.75 342.67 430.74 342.67 430.75 342.68 430.75" style="fill: none;"/>
    <polygon points="300 603.18 300.01 603.19 300.01 603.18 300 603.18" style="fill: none;"/>
    <polygon points="342.68 578.55 342.67 578.54 342.67 578.55 342.68 578.55" style="fill: none;"/>
    <polygon points="228.9 660.65 228.89 660.66 228.9 660.67 228.9 660.65" style="fill: none;"/>
    <polygon points="100.9 636.02 100.89 636.03 100.9 636.03 100.9 636.02" style="fill: none;"/>
    <ellipse cx="236.01" cy="106.44" rx="6.25" ry="4.01" transform="translate(25.82 257.61) rotate(-60)" style="fill: url(#_새_패턴_견본_1);"/>
    <ellipse cx="165.24" cy="146.67" rx="6.25" ry="4.01" transform="translate(-44.39 216.44) rotate(-60)" style="fill: url(#_새_패턴_견본_1-2);"/>
    <path d="M129.34,225.47l-7.02,4.05-7.2,4.15h0s0,.01,0,.01l-8.07,4.65c-1.9,1.1-3.44,2.67-4.5,4.51-1.06,1.83-1.64,3.94-1.64,6.13v345.17c.05,5.63,3.07,10.81,7.95,13.63l6.26,3.62,7.2,4.16,7.02,4.05h0s14.22,8.21,14.22,8.21l14.22,8.21h.01l7.1,4.1,7.1,4.1h.01l14.22,8.21,14.22,8.21h0s0,.01,0,.01h0l5.9,3.41c5.14,2.96,11.46,2.97,16.6,0l5.92-3.41h.01s0-.01,0-.01l14.21-8.21h0s7.2-4.16,7.2-4.16l7.02-4.05,14.21-8.21h.01l14.22-8.21,7.11-4.1,7.1-4.11h.01l14.21-8.21h.01l14.22-8.21,7.03-4.05,7.2-4.16h0s14.23-8.22,14.23-8.22l14.21-8.21h0s7.2-4.16,7.2-4.16l7.02-4.05.07-.04c8.72-5.06,14.1-14.36,14.15-24.44v-.14h0v-49.27h0v-32.85h0v-32.84h0v-32.84h0v-49.27h0v-32.85h0v-107.32c-.03-2.36-.66-4.62-1.8-6.6-1.15-2-2.82-3.7-4.88-4.9l-7.53-4.34h-.01s-7.02-4.06-7.02-4.06l-7.2-4.15h0s-7.1-4.11-7.1-4.11l-7.11-4.1-7.2-4.16-7.02-4.05h0s0,0,0,0l-7.19-4.16-7.02-4.05h-.01l-14.22-8.21-14.22-8.21-2.86-1.65-4.21-2.43c-4.43-2.56-9.88-2.56-14.31,0l-7.06,4.08" style="fill: none; stroke: #c1bf93; stroke-miterlimit: 10; stroke-width: 3px;"/>
    <g style="clip-path: url(#clippath-3);">
      <polygon points="214.67 94.09 200.45 102.3 186.23 110.51 172.01 118.72 172.01 135.14 172.01 151.56 186.23 143.35 200.45 135.14 200.46 135.14 214.67 126.93 214.67 110.51 214.67 94.09" style="fill: none;"/>
      <g>
        <polygon points="228.9 167.99 243.12 176.2 257.34 184.41 271.56 176.2 271.56 176.19 285.78 167.99 285.78 151.57 271.56 159.78 257.35 167.98 257.34 167.98 243.12 159.77 228.9 151.56 228.9 167.98 228.9 167.99" style="fill: #353644;"/>
        <polygon points="157.78 241.89 172 233.67 172.01 233.67 186.22 225.46 186.23 225.46 186.23 209.04 172.01 217.25 172.01 217.26 172 217.26 157.79 225.46 157.78 225.47 157.78 225.46 143.56 217.25 129.34 209.04 129.34 225.46 129.34 225.47 143.56 233.68 157.78 241.89" style="fill: #353644;"/>
        <path d="M157.78,225.46h.01l14.21-8.2h.01s14.22-8.22,14.22-8.22l-14.22-8.21v-16.42h0v-12.8c0-2.24,1.19-4.31,3.13-5.43l11.09-6.4,14.22-8.21h0s.01-.01.01-.01l14.21-8.2h0s0-.01,0-.01l11.11-6.41c1.38-.8,3.11.2,3.11,1.79v12.83l14.22,8.21,14.22,8.21h.01l14.21-8.2,14.22-8.21h0s-14.22-8.22-14.22-8.22l-14.22-8.21-14.22,8.21v-9.26c0-4.43-2.36-8.52-6.2-10.74l-1.16-.67c-4.24-2.45-9.47-2.45-13.71,0l-7.37,4.25-14.21,8.21h-.01l-14.22,8.21-14.22,8.21h0s-7.39,4.28-7.39,4.28c-4.23,2.44-6.84,6.95-6.84,11.84v8.52h0v16.43l-14.22,8.21-14.22,8.21,14.22,8.21,14.22,8.21Z" style="fill: #53576b;"/>
      </g>
    </g>
    <path d="M156.19,204.56l-8.8,5.07c-.66.38-.66,1.34,0,1.73l6.25,3.61c1.57.91,3.51.91,5.09,0l7.74-4.47-10.28-5.94Z" style="fill: #a5b1c4;"/>
    <path d="M258.69,143.15l-8.49,4.9,10.29,5.94,8.12-4.69c.96-.55.96-1.94,0-2.49l-6.33-3.66c-1.11-.64-2.48-.64-3.59,0Z" style="fill: #a5b1c4;"/>
  </g>
  <g>
    <g style="clip-path: url(#clippath-4);">
      <g>
        <rect x="666.67" y="501.48" width="41.3" height="41.3" style="fill: none;"/>
        <rect x="666.67" y="501.48" width="41.3" height="41.3" style="fill: #dfe9ed;"/>
      </g>
      <g>
        <rect x="666.67" y="542.78" width="41.3" height="41.3" style="fill: none;"/>
        <rect x="666.67" y="542.78" width="41.3" height="41.3" style="fill: #dfe9ed;"/>
      </g>
      <g>
        <rect x="666.67" y="584.07" width="41.3" height="41.3" style="fill: none;"/>
        <rect x="666.67" y="584.07" width="41.3" height="41.3" style="fill: #dfe9ed;"/>
      </g>
      <g>
        <rect x="666.67" y="625.37" width="41.3" height="41.3" style="fill: none;"/>
        <rect x="666.67" y="625.37" width="41.3" height="41.3" style="fill: #dfe9ed;"/>
      </g>
      <g>
        <rect x="666.67" y="666.67" width="41.3" height="41.3" style="fill: none;"/>
        <rect x="666.67" y="666.67" width="41.3" height="41.3" style="fill: #dfe9ed;"/>
      </g>
      <g>
        <rect x="666.67" y="707.96" width="41.3" height="41.3" style="fill: none;"/>
        <rect x="666.67" y="707.96" width="41.3" height="41.3" style="fill: #dfe9ed;"/>
      </g>
      <g>
        <rect x="625.37" y="501.48" width="41.3" height="41.3" style="fill: none;"/>
        <rect x="625.37" y="501.48" width="41.3" height="41.3" style="fill: #dfe9ed;"/>
      </g>
      <g>
        <rect x="625.37" y="542.78" width="41.3" height="41.3" style="fill: none;"/>
        <rect x="625.37" y="542.78" width="41.3" height="41.3" style="fill: #dfe9ed;"/>
      </g>
      <g>
        <rect x="625.37" y="584.07" width="41.3" height="41.3" style="fill: none;"/>
        <rect x="625.37" y="584.07" width="41.3" height="41.3" style="fill: #dfe9ed;"/>
      </g>
      <g>
        <rect x="625.37" y="625.37" width="41.3" height="41.3" style="fill: none;"/>
        <rect x="625.37" y="625.37" width="41.3" height="41.3" style="fill: #dfe9ed;"/>
      </g>
      <g>
        <rect x="625.37" y="666.67" width="41.3" height="41.3" style="fill: none;"/>
        <rect x="625.37" y="666.67" width="41.3" height="41.3" style="fill: #dfe9ed;"/>
      </g>
      <g>
        <rect x="625.37" y="707.96" width="41.3" height="41.3" style="fill: none;"/>
        <rect x="625.37" y="707.96" width="41.3" height="41.3" style="fill: #dfe9ed;"/>
      </g>
      <g>
        <rect x="584.07" y="501.48" width="41.3" height="41.3" style="fill: none;"/>
        <rect x="584.07" y="501.48" width="41.3" height="41.3" style="fill: #dfe9ed;"/>
      </g>
      <g>
        <rect x="584.07" y="542.78" width="41.3" height="41.3" style="fill: none;"/>
        <rect x="584.07" y="542.78" width="41.3" height="41.3" style="fill: #dfe9ed;"/>
      </g>
      <g>
        <rect x="584.07" y="584.07" width="41.3" height="41.3" style="fill: none;"/>
        <rect x="584.07" y="584.07" width="41.3" height="41.3" style="fill: #dfe9ed;"/>
      </g>
      <g>
        <rect x="584.07" y="625.37" width="41.3" height="41.3" style="fill: none;"/>
        <rect x="584.07" y="625.37" width="41.3" height="41.3" style="fill: #dfe9ed;"/>
      </g>
      <g>
        <rect x="584.07" y="666.67" width="41.3" height="41.3" style="fill: none;"/>
        <rect x="584.07" y="666.67" width="41.3" height="41.3" style="fill: #dfe9ed;"/>
      </g>
      <g>
        <rect x="584.07" y="707.96" width="41.3" height="41.3" style="fill: none;"/>
        <rect x="584.07" y="707.96" width="41.3" height="41.3" style="fill: #dfe9ed;"/>
      </g>
      <g>
        <rect x="542.78" y="501.48" width="41.3" height="41.3" style="fill: none;"/>
        <rect x="542.78" y="501.48" width="41.3" height="41.3" style="fill: #dfe9ed;"/>
      </g>
      <g>
        <rect x="542.78" y="542.78" width="41.3" height="41.3" style="fill: none;"/>
        <rect x="542.78" y="542.78" width="41.3" height="41.3" style="fill: #dfe9ed;"/>
      </g>
      <g>
        <rect x="542.78" y="584.07" width="41.3" height="41.3" style="fill: none;"/>
        <rect x="542.78" y="584.07" width="41.3" height="41.3" style="fill: #dfe9ed;"/>
      </g>
      <g>
        <rect x="542.78" y="625.37" width="41.3" height="41.3" style="fill: none;"/>
        <rect x="542.78" y="625.37" width="41.3" height="41.3" style="fill: #dfe9ed;"/>
      </g>
      <g>
        <rect x="542.78" y="666.67" width="41.3" height="41.3" style="fill: none;"/>
        <rect x="542.78" y="666.67" width="41.3" height="41.3" style="fill: #dfe9ed;"/>
      </g>
      <g>
        <rect x="542.78" y="707.96" width="41.3" height="41.3" style="fill: none;"/>
        <rect x="542.78" y="707.96" width="41.3" height="41.3" style="fill: #dfe9ed;"/>
      </g>
      <g>
        <rect x="501.48" y="501.48" width="41.3" height="41.3" style="fill: none;"/>
        <rect x="501.48" y="501.48" width="41.3" height="41.3" style="fill: #dfe9ed;"/>
      </g>
      <g>
        <rect x="501.48" y="542.78" width="41.3" height="41.3" style="fill: none;"/>
        <rect x="501.48" y="542.78" width="41.3" height="41.3" style="fill: #dfe9ed;"/>
      </g>
      <g>
        <rect x="501.48" y="584.07" width="41.3" height="41.3" style="fill: none;"/>
        <rect x="501.48" y="584.07" width="41.3" height="41.3" style="fill: #dfe9ed;"/>
      </g>
      <g>
        <rect x="501.48" y="625.37" width="41.3" height="41.3" style="fill: none;"/>
        <rect x="501.48" y="625.37" width="41.3" height="41.3" style="fill: #dfe9ed;"/>
      </g>
      <g>
        <rect x="501.48" y="666.67" width="41.3" height="41.3" style="fill: none;"/>
        <rect x="501.48" y="666.67" width="41.3" height="41.3" style="fill: #dfe9ed;"/>
      </g>
      <g>
        <rect x="501.48" y="707.96" width="41.3" height="41.3" style="fill: none;"/>
        <rect x="501.48" y="707.96" width="41.3" height="41.3" style="fill: #dfe9ed;"/>
      </g>
      <g>
        <rect x="460.19" y="501.48" width="41.3" height="41.3" style="fill: none;"/>
        <rect x="460.19" y="501.48" width="41.3" height="41.3" style="fill: #dfe9ed;"/>
      </g>
      <g>
        <rect x="460.19" y="542.78" width="41.3" height="41.3" style="fill: none;"/>
        <rect x="460.19" y="542.78" width="41.3" height="41.3" style="fill: #dfe9ed;"/>
      </g>
      <g>
        <rect x="460.19" y="584.07" width="41.3" height="41.3" style="fill: none;"/>
        <rect x="460.19" y="584.07" width="41.3" height="41.3" style="fill: #dfe9ed;"/>
      </g>
      <g>
        <rect x="460.19" y="625.37" width="41.3" height="41.3" style="fill: none;"/>
        <rect x="460.19" y="625.37" width="41.3" height="41.3" style="fill: #dfe9ed;"/>
      </g>
      <g>
        <rect x="460.19" y="666.67" width="41.3" height="41.3" style="fill: none;"/>
        <rect x="460.19" y="666.67" width="41.3" height="41.3" style="fill: #dfe9ed;"/>
      </g>
      <g>
        <rect x="460.19" y="707.96" width="41.3" height="41.3" style="fill: none;"/>
        <rect x="460.19" y="707.96" width="41.3" height="41.3" style="fill: #dfe9ed;"/>
      </g>
      <g>
        <rect x="418.89" y="501.48" width="41.3" height="41.3" style="fill: none;"/>
        <rect x="418.89" y="501.48" width="41.3" height="41.3" style="fill: #dfe9ed;"/>
      </g>
      <g>
        <rect x="418.89" y="542.78" width="41.3" height="41.3" style="fill: none;"/>
        <rect x="418.89" y="542.78" width="41.3" height="41.3" style="fill: #dfe9ed;"/>
      </g>
      <g>
        <rect x="418.89" y="584.07" width="41.3" height="41.3" style="fill: none;"/>
        <rect x="418.89" y="584.07" width="41.3" height="41.3" style="fill: #dfe9ed;"/>
      </g>
      <g>
        <rect x="418.89" y="625.37" width="41.3" height="41.3" style="fill: none;"/>
        <rect x="418.89" y="625.37" width="41.3" height="41.3" style="fill: #dfe9ed;"/>
      </g>
      <g>
        <rect x="418.89" y="666.67" width="41.3" height="41.3" style="fill: none;"/>
        <rect x="418.89" y="666.67" width="41.3" height="41.3" style="fill: #dfe9ed;"/>
      </g>
      <g>
        <rect x="418.89" y="707.96" width="41.3" height="41.3" style="fill: none;"/>
        <rect x="418.89" y="707.96" width="41.3" height="41.3" style="fill: #dfe9ed;"/>
      </g>
      <g>
        <rect x="377.59" y="501.48" width="41.3" height="41.3" style="fill: none;"/>
        <rect x="377.59" y="501.48" width="41.3" height="41.3" style="fill: #dfe9ed;"/>
      </g>
      <g>
        <rect x="377.59" y="542.78" width="41.3" height="41.3" style="fill: none;"/>
        <rect x="377.59" y="542.78" width="41.3" height="41.3" style="fill: #dfe9ed;"/>
      </g>
      <g>
        <rect x="377.59" y="584.07" width="41.3" height="41.3" style="fill: none;"/>
        <rect x="377.59" y="584.07" width="41.3" height="41.3" style="fill: #dfe9ed;"/>
      </g>
      <g>
        <rect x="377.59" y="625.37" width="41.3" height="41.3" style="fill: none;"/>
        <rect x="377.59" y="625.37" width="41.3" height="41.3" style="fill: #dfe9ed;"/>
      </g>
      <g>
        <rect x="377.59" y="666.67" width="41.3" height="41.3" style="fill: none;"/>
        <rect x="377.59" y="666.67" width="41.3" height="41.3" style="fill: #dfe9ed;"/>
      </g>
      <g>
        <rect x="377.59" y="707.96" width="41.3" height="41.3" style="fill: none;"/>
        <rect x="377.59" y="707.96" width="41.3" height="41.3" style="fill: #dfe9ed;"/>
      </g>
    </g>
    <g>
      <g>
        <path d="M535.14,664.59l-24.75-12.59c-9.1-4.24-27.33,3.11-32.35,14.02-6.53,14.21-4.39,28.57,1.31,32.64.51.37,3.7,2.5,4.3,2.67l22.93,12.73,28.56-49.47Z" style="fill: url(#_무제_그라디언트_16-4);"/>
        <ellipse cx="520.86" cy="689.33" rx="28.56" ry="18.34" transform="translate(-336.55 795.74) rotate(-60)" style="fill: #353644;"/>
        <path d="M527.78,677.53c-1.28-.74-2.78-.94-4.35-.68,1.26,3.38.63,8.27-1.99,12.81-2.62,4.54-6.54,7.53-10.1,8.13.56,1.49,1.48,2.69,2.76,3.43,4.2,2.43,10.67-.91,14.45-7.46s3.43-13.81-.77-16.24Z" style="fill: #a5b1c4;"/>
        <path d="M521.44,689.67c2.62-4.54,3.25-9.43,1.99-12.81-3.56.6-7.48,3.59-10.1,8.13-2.62,4.54-3.25,9.43-1.99,12.81,3.56-.6,7.48-3.59,10.1-8.13Z" style="fill: #dfe9ed;"/>
      </g>
      <g>
        <path d="M705.81,565.82l-24.75-12.59c-9.1-4.24-27.33,3.11-32.35,14.02-6.53,14.21-4.39,28.57,1.31,32.64.51.37,3.7,2.5,4.3,2.67l22.93,12.73,28.56-49.47Z" style="fill: url(#_무제_그라디언트_16-5);"/>
        <ellipse cx="691.52" cy="590.56" rx="28.56" ry="18.34" transform="translate(-165.67 894.16) rotate(-60)" style="fill: #353644;"/>
        <path d="M698.45,578.76c-1.28-.74-2.78-.94-4.35-.68,1.26,3.38.63,8.27-1.99,12.81-2.62,4.54-6.54,7.53-10.1,8.13.56,1.49,1.48,2.69,2.76,3.43,4.2,2.43,10.67-.91,14.45-7.46s3.43-13.81-.77-16.24Z" style="fill: #a5b1c4;"/>
        <path d="M692.11,590.89c2.62-4.54,3.25-9.43,1.99-12.81-3.56.6-7.48,3.59-10.1,8.13-2.62,4.54-3.25,9.43-1.99,12.81,3.56-.6,7.48-3.59,10.1-8.13Z" style="fill: #dfe9ed;"/>
      </g>
      <g>
        <path d="M449.05,616.04l-24.75-12.59c-9.1-4.24-27.33,3.11-32.35,14.02-6.53,14.21-4.39,28.57,1.31,32.64.51.37,3.7,2.5,4.3,2.67l22.93,12.73,28.56-49.47Z" style="fill: url(#_무제_그라디언트_16-6);"/>
        <ellipse cx="434.76" cy="640.78" rx="28.56" ry="18.34" transform="translate(-337.55 696.91) rotate(-60)" style="fill: #353644;"/>
        <path d="M441.69,628.98c-1.28-.74-2.78-.94-4.35-.68,1.26,3.38.63,8.27-1.99,12.81-2.62,4.54-6.54,7.53-10.1,8.13.56,1.49,1.48,2.69,2.76,3.43,4.2,2.43,10.67-.91,14.45-7.46s3.43-13.81-.77-16.24Z" style="fill: #a5b1c4;"/>
        <path d="M435.34,641.11c2.62-4.54,3.25-9.43,1.99-12.81-3.56.6-7.48,3.59-10.1,8.13-2.62,4.54-3.25,9.43-1.99,12.81,3.56-.6,7.48-3.59,10.1-8.13Z" style="fill: #dfe9ed;"/>
      </g>
    </g>
    <g style="clip-path: url(#clippath-5);">
      <g>
        <polygon points="569.09 193.53 556.45 200.83 542.22 209.04 542.22 209.04 540.74 209.89 528.01 217.25 528 217.25 513.78 225.46 513.78 225.47 499.55 233.68 485.33 241.89 485.33 241.89 471.11 250.1 471.1 250.1 456.89 258.31 442.67 266.52 442.67 282.94 442.67 282.95 442.67 299.36 442.67 299.37 442.67 315.41 442.67 315.78 442.67 315.79 442.67 332.21 442.67 348.63 442.67 364.5 442.67 365.05 442.67 381.48 442.67 397.9 442.67 413.72 442.67 414.32 442.67 430.74 442.67 430.75 442.67 447.17 442.67 462.8 442.67 463.58 442.67 463.59 442.67 480.01 442.67 496.43 442.67 496.44 442.67 511.89 442.67 512.85 442.67 512.86 442.67 529.28 442.67 545.7 442.67 545.71 442.67 561.16 456.88 552.95 471.1 544.74 485.33 536.53 485.33 536.52 499.55 528.31 513.77 520.1 528 511.89 528 512.08 542.22 503.87 556.44 495.66 570.67 487.45 570.67 471.81 570.67 471.8 570.67 455.38 570.67 438.95 570.67 438.18 570.67 422.54 570.67 422.53 570.67 406.11 570.67 389.69 570.67 389.68 570.67 389.1 570.67 373.27 570.67 356.85 570.67 356.84 570.67 340.42 570.67 340.01 570.67 324 570.67 307.58 570.67 291.15 570.67 290.79 570.67 274.73 570.67 258.31 570.67 241.89 570.67 241.88 570.67 241.71 570.67 225.47 570.67 225.46 570.67 209.05 570.67 209.04 570.67 192.62 569.09 193.53" style="fill: #cecdae;"/>
        <polygon points="670.22 545.7 670.22 562.12 670.22 562.13 670.22 578.54 684.45 570.33 698.67 562.12 698.67 545.71 698.67 545.7 698.67 529.28 684.45 537.49 670.22 545.7" style="fill: #353644;"/>
        <polygon points="670.22 215.11 670.22 218.93 670.22 233.67 670.22 250.1 670.22 266.51 670.22 266.52 670.22 282.94 670.22 282.95 670.22 299.36 670.22 315.79 670.22 332.21 670.22 348.63 670.22 365.06 670.22 381.47 670.22 381.48 670.22 397.9 670.22 414.32 670.22 430.74 670.22 430.75 670.22 447.16 670.22 447.17 670.22 463.59 670.22 480.01 670.22 480.02 670.22 496.43 670.22 512.86 670.22 529.27 670.22 529.28 670.22 545.7 684.45 537.49 698.67 529.28 698.67 512.85 698.67 496.44 698.67 496.43 698.67 480.01 698.67 463.59 698.67 463.58 698.67 447.17 698.67 430.75 698.67 430.74 698.67 414.32 698.67 397.91 698.67 397.9 698.67 381.48 698.67 365.05 698.67 348.64 698.67 348.63 698.67 332.21 698.67 315.79 698.67 315.78 698.67 299.37 698.67 282.94 698.67 266.52 698.67 250.09 698.67 233.68 698.67 217.25 698.67 200.83 684.45 209.04 670.22 215.11" style="fill: #cecdae;"/>
        <path d="M670.22,529.27v-49.25h0v-32.85h0v-16.42h0v-49.27h0v-98.53h0v-16.43h0v-51.96s-14.22-5.51-14.22-5.51h0s-14.23-8.22-14.23-8.22v16.42h0v82.11h0v32.85h0,0v49.26h0s0,.01,0,.01v49.26h0s0,.01,0,.01v16.41h0v32.85h0,0v49.26h0s0,.01,0,.01l14.22,8.2h0s14.22,8.22,14.22,8.22v-16.42h0ZM656.01,274.72v.02h-.01s.01-.02.01-.02Z" style="fill: #eaeacc;"/>
        <path d="M656.01,586.75l14.21-8.21h0v-16.41h0v-16.43l-14.22,8.21-14.23,8.21-14.22,8.21-14.22,8.21h0s-14.22,8.21-14.22,8.21h0s-.01.01-.01.01l-14.22,8.21-14.22,8.21-14.22,8.21-14.22,8.21h0v16.42h0v16.42l14.22-8.21,14.21-8.21h.01l14.22-8.21,14.22-8.21h.01l14.21-8.21h.01l14.22-8.21,14.22-8.21h0s14.23-8.22,14.23-8.22ZM641.78,578.55h0s0,0,0,0ZM599.1,603.18h.01s-.01,0-.01,0Z" style="fill: #cecdae;"/>
        <path d="M581.06,154.56l3.83,13.43,14.22,8.21h.01l14.22,8.21,14.22,8.21,14.22,8.21,14.23,8.21h0s3.59,2.08,3.59,2.08l4.56,2.63c3.76,2.17,8.39,2.17,12.14,0l8.15-4.7,14.22-8.21h0s-14.21-8.21-14.21-8.21h-.01s-14.22-8.21-14.22-8.21h0s-14.22-8.22-14.22-8.22l-14.22-8.21h0s0,0,0,0l-14.21-8.21h-.01l-14.22-8.21-14.22-8.21-14.22-8.21h-.01l-14.22,8.21,10.28,10.54.11.67Z" style="fill: #fffff8;"/>
        <path d="M584.9,184.41h-.01v16.42h0v49.26h0v49.27h0v49.27h0v16.42h.01s-.01.01-.01.01v32.83h0v16.43h.01-.01v32.84h.01s-.01.01-.01.01v16.42h0v32.84h.01l14.22,8.21h0s14.22,8.21,14.22,8.21v-197.06h0v-16.42h-.01s.01-.01.01-.01v-49.26h0v-65.69l-14.22-8.21h-.01l-14.22-8.21v16.41h.01ZM599.11,291.16h-.01.01s0,0,0,0Z" style="fill: #eaeacc;"/>
        <path d="M542.22,636.02v-16.41h0s0-.01,0-.01l-14.21,8.21-14.23,2.19-14.22-2.19-14.22-8.21v16.42h0v16.42l14.22,8.21h0s.01.01.01.01l5.9,3.41c5.14,2.97,11.47,2.97,16.61,0l5.91-3.41h.01s14.21-8.22,14.21-8.22h0v-16.41h0Z" style="fill: #353644;"/>
        <polygon points="499.56 611.39 513.78 603.18 528.01 594.97 542.22 586.76 556.45 578.55 570.67 570.34 584.89 562.13 584.89 562.12 584.9 562.12 599.11 553.91 613.33 545.7 627.55 537.49 627.56 537.49 641.78 529.28 641.78 529.27 641.78 512.86 641.78 496.43 641.78 480.02 641.78 480.01 641.78 463.59 641.78 447.17 641.78 447.16 641.78 430.75 641.78 430.74 641.78 414.32 641.78 397.9 641.78 381.48 641.78 381.47 641.78 365.06 641.78 348.63 641.78 332.22 641.78 332.21 641.78 315.79 641.78 299.37 641.78 299.36 641.78 282.94 641.78 266.52 641.78 250.1 641.78 233.67 641.78 217.26 641.78 217.25 641.78 200.83 627.55 192.62 627.55 209.04 627.55 225.46 627.55 225.47 627.55 241.88 627.55 241.89 627.55 258.31 627.55 274.73 627.55 291.15 627.55 307.58 627.55 324 627.55 340.42 627.55 340.43 627.55 356.84 627.55 356.85 627.55 373.26 627.55 373.27 627.55 389.69 627.55 406.11 627.55 422.53 627.55 438.95 627.55 438.96 627.55 455.38 627.55 471.8 627.55 488.22 627.55 488.23 627.55 504.64 627.55 504.65 627.55 521.06 627.55 521.07 613.33 529.28 599.11 537.49 584.9 545.7 584.89 545.7 570.67 553.91 556.45 562.12 542.22 570.33 542.22 570.34 542.22 570.34 528.01 578.54 528.01 578.55 513.78 586.76 499.55 594.97 485.33 603.18 471.11 611.39 485.33 619.6 499.55 611.39 499.56 611.39" style="fill: #53576b;"/>
        <polygon points="513.78 209.04 527.99 200.83 528.01 200.82 542.22 192.62 542.22 192.62 542.22 192.61 562.85 180.72 542.22 176.2 531.11 166.22 528.01 167.98 513.78 176.2 499.55 184.41 485.33 192.62 471.11 200.83 482.09 210.91 485.33 225.46 499.55 217.25 513.78 209.04" style="fill: #fffff8;"/>
        <polygon points="499.55 594.97 513.78 586.76 528.01 578.55 528.01 578.54 542.22 570.34 542.22 570.34 542.22 570.33 556.45 562.12 570.67 553.91 584.89 545.7 584.9 545.7 599.11 537.49 613.33 529.28 627.55 521.07 627.55 521.06 627.55 504.65 627.55 504.64 627.55 488.23 627.55 488.22 627.55 471.8 627.55 455.38 627.55 438.96 627.55 438.95 627.55 422.53 627.55 406.11 627.55 389.69 627.55 373.27 627.55 373.26 627.55 356.85 627.55 356.84 627.55 340.43 627.55 340.42 627.55 324 627.55 307.58 627.55 291.15 627.55 274.73 627.55 258.31 627.55 241.89 627.55 241.88 627.55 225.47 627.55 225.46 627.55 209.04 627.55 192.62 613.33 184.41 613.33 200.83 613.33 217.25 613.33 233.68 613.33 250.09 613.33 250.1 613.33 266.52 613.33 282.94 613.33 299.36 613.33 299.37 613.33 315.78 613.33 315.79 613.33 332.21 613.33 348.64 613.33 365.05 613.33 381.48 613.33 397.9 613.33 414.32 613.33 430.74 613.33 447.17 613.33 463.59 613.33 480.01 613.33 496.44 613.33 512.85 599.11 521.06 599.11 521.07 584.89 529.28 570.67 537.49 556.45 545.7 542.22 553.91 542.22 553.91 528.01 562.12 528.01 562.13 527.99 562.13 513.78 570.33 499.55 578.54 499.55 578.55 485.33 586.75 485.33 586.76 485.32 586.76 471.11 594.96 471.11 594.97 456.89 603.18 471.11 611.39 485.33 603.18 499.55 594.97" style="fill: #a5b1c4;"/>
        <polygon points="485.32 636.02 485.33 636.02 485.33 619.6 471.11 611.39 456.89 603.18 442.68 594.97 442.67 594.97 428.45 586.76 428.45 603.18 428.45 619.6 442.67 627.81 456.89 636.02 456.9 636.02 471.1 644.23 471.11 644.23 485.33 652.44 485.33 636.03 485.32 636.02" style="fill: #eaeacc;"/>
        <path d="M471.11,594.96l14.21-8.2h.01s14.22-8.21,14.22-8.21h0s14.22-8.22,14.22-8.22l14.22-8.2h.01s14.21-8.22,14.21-8.22h0l14.22-8.21,14.22-8.21,14.22-8.21,14.23-8.21h0s14.22-8.22,14.22-8.22l-14.22-8.2h0s-14.22-8.22-14.22-8.22h-.01s-14.22,8.21-14.22,8.21h0s-14.22,8.22-14.22,8.22l-14.22,8.2h0s-14.22,8.22-14.22,8.22l-14.23,8.21-14.22,8.21-14.22,8.21-14.22,8.21h-.01l-14.22,8.22-14.22,8.2h0s-14.22,8.22-14.22,8.22l14.22,8.21h.01l14.21,8.21,14.23-8.21h0ZM584.9,512.86h-.01s.01,0,.01,0ZM499.56,562.13h-.01s.01,0,.01,0ZM456.89,586.76h0s.01,0,.01,0h-.01Z" style="fill: #fffff8;"/>
        <path d="M442.67,578.54l14.22-8.2,14.22-8.22h.01l14.22-8.21,14.22-8.21,14.22-8.21,14.23-8.21,14.22-8.21h0s14.22-8.21,14.22-8.21l14.22-8.21h0s14.22-8.21,14.22-8.21h0v-32.84h0v-16.43h0v-32.84h0v-16.43h0v-32.84h0v-16.42h0v-49.27h0v-49.27h0v-49.26h0v-16.43h0v-16.42l-14.22,8.2h0s-14.22,8.22-14.22,8.22l-14.22,8.2h0s0,.01,0,.01l-14.21,8.2v.02h-.01s-14.22,8.2-14.22,8.2l-14.22,8.21-14.22,8.21h0s-.01,0-.01,0l-14.21,8.21h-.01l-14.22,8.22-14.22,8.21-14.22,5.79v117.37h0v82.11h0v65.69h0v65.7l14.22-8.21h0ZM442.67,561.16v-15.45h0v-32.85h0v-16.42h0v-32.85h0v-32.84h0v-114.96h0v-16.42h0v-16.42h0v-16.43l14.22-8.21,14.22-8.21h.01l14.21-8.21h0s14.22-8.21,14.22-8.21l14.22-8.21h0s14.22-8.22,14.22-8.22h0s12.73-7.36,12.73-7.36l1.48-.85h0l14.22-8.21,12.65-7.3,1.57-.91h0v16.42h0v16.42h0v16.42h0v114.96h0v32.84h0v32.85h0v49.27h0v16.42l-14.22,8.21-14.22,8.21h0l-14.21,8.21-14.23,8.21h0s-14.22,8.22-14.22,8.22l-14.22,8.21h-.01l-14.21,8.21h-.01l-14.22,8.21-14.22,8.21v-.96Z" style="fill: #cecdae;"/>
        <path d="M428.45,619.6v-32.84l-14.22-8.21h0s-14.22-8.21-14.22-8.21v16.41h0v7.24c0,5.69,3.03,10.94,7.96,13.78l6.26,3.62,14.22,8.21Z" style="fill: #353644;"/>
        <polygon points="414.22 578.55 428.45 586.76 428.45 570.33 428.45 553.92 428.45 537.49 428.45 521.07 428.45 521.06 428.45 504.65 428.45 488.22 428.45 471.8 428.45 455.38 428.45 455.37 428.45 438.96 428.45 422.53 428.45 406.11 428.45 389.69 428.45 373.27 428.45 373.26 428.45 356.84 428.45 340.42 428.45 324 428.45 307.57 428.45 291.16 428.45 274.73 428.45 254.48 414.22 250.1 400.01 241.89 400.01 258.31 400.01 274.73 400.01 274.74 400.01 291.15 400.01 307.58 400.01 323.99 400.01 324 400.01 340.42 400.01 356.84 400.01 356.85 400.01 373.26 400.01 373.27 400.01 389.68 400.01 389.69 400.01 406.11 400.01 422.53 400.01 422.54 400.01 438.95 400.01 455.38 400.01 471.8 400.01 488.22 400.01 488.23 400.01 504.64 400.01 504.65 400.01 521.07 400.01 537.48 400.01 537.5 400.01 553.91 400.01 570.34 414.22 578.54 414.22 578.55" style="fill: #eaeacc;"/>
        <path d="M423.48,255.45c3.07,1.77,6.85,1.77,9.92,0l9.26-5.35,14.22-8.21-14.22-8.21-14.22-8.21-14.22,8.2h0s0,.01,0,.01l-14.21,8.2h0s14.22,8.22,14.22,8.22l9.26,5.35Z" style="fill: #fffff8;"/>
        <path d="M620.44,231.25v16.42h0v16.42h0s11.22,6.49,11.22,6.49c1.33.77,3-.19,3-1.73v-12.96h0v-15.28c0-.71-.38-1.37-1-1.73l-13.22-7.63Z" style="fill: #a5b1c4;"/>
        <path d="M620.44,322.8v16.42h0v16.42h0s11.22,6.49,11.22,6.49c1.33.77,3-.19,3-1.73v-12.96h0v-15.28c0-.71-.38-1.37-1-1.73l-13.22-7.63Z" style="fill: #a5b1c4;"/>
        <path d="M620.44,414.36v16.42h0v16.42h0s11.22,6.49,11.22,6.49c1.33.77,3-.19,3-1.73v-12.96h0v-15.28c0-.71-.38-1.37-1-1.73l-13.22-7.63Z" style="fill: #a5b1c4;"/>
        <path d="M562.78,548.97l-14.22,8.21-14.22,8.21-14.22,8.21,13.22,7.63c.62.36,1.38.36,2,0l13.22-7.63,14.22-8.21,11.23-6.48c1.33-.77,1.33-2.7,0-3.46l-11.23-6.48Z" style="fill: #a5b1c4;"/>
        <path d="M656.01,537.48l-14.22-8.2h0l-14.21,8.21h-.01l-14.22,8.21-14.22,8.21-14.22,8.21h-.01s-14.22,8.22-14.22,8.22l-14.22,8.21-14.22,8.21-14.22,8.21-14.23,8.21-14.21,8.21h-.01l-14.22,8.21,14.22,8.21,5.51,3.18c5.39,3.11,12.04,3.11,17.43,0l5.51-3.18,14.21-8.21h0l14.22-8.21,14.22-8.21,14.22-8.21,14.22-8.21h.01s14.22-8.21,14.22-8.21h0s14.22-8.22,14.22-8.22l14.22-8.21,14.23-8.21,14.22-8.21-14.22-8.21h0ZM527.99,611.39h.01s0,0,0,0h-.01Z" style="fill: #fffff8;"/>
      </g>
    </g>
    <g>
      <polygon points="542.22 145.22 542.22 110.51 528.01 114.7 528.04 135.81 542.22 145.22" style="fill: #a5b1c4;"/>
      <polygon points="513.78 126.93 528.01 125.81 528.01 113.52 513.78 110.51 513.78 126.93" style="fill: #dfe9ed;"/>
      <polygon points="513.78 176.2 528.01 167.98 528.01 151.56 528.01 135.15 513.78 143.35 513.78 143.35 513.78 143.36 513.78 159.77 513.78 176.2" style="fill: #dfe9ed;"/>
    </g>
    <g>
      <polygon points="470.01 166.34 470.01 149.92 455.79 153.06 455.79 175.11 470.01 166.34" style="fill: #a5b1c4;"/>
      <polygon points="456.89 176.2 456.89 176.19 456.89 150.67 455.56 151.06 442.67 151.56 442.67 167.98 442.67 167.99 442.67 184.41 442.67 200.83 456.89 192.62 456.89 176.2" style="fill: #dfe9ed;"/>
    </g>
    <g style="clip-path: url(#clippath-6);">
      <g>
        <path d="M528.01,83.39h0l-9.55-3.02c-2.9-1.67-6.46-1.67-9.36,0l-9.53,5.5h-.01s-14.22,8.21-14.22,8.21h0s-14.22,8.21-14.22,8.21h0s-.01.01-.01.01l-14.21,8.21,14.22,8.21,14.22-8.21,14.22-8.21,6.28-3.62h0l4.21-2.44c1.66-.96,3.74.24,3.74,2.16v8.04s0,4.07,0,4.07l7.33,4.23c4.27,2.46,9.53,2.46,13.8,0l7.32-4.23h0v-16.42h0v-16.43l-14.22,5.73Z" style="fill: #353644;"/>
        <path d="M456.9,123.59v3.35s-.01-3.35-.01-3.35l-14.22-4.87-14.22-8.21v16.42l7.78,4.49c3.98,2.3,6.44,6.55,6.44,11.15v8.99l5.45,2.77,1.82,1.13c4.28,2.66,9.68,2.74,14.04.23l7.14-4.12h0v-32.85l-14.22,4.87Z" style="fill: #353644;"/>
        <path d="M528.01,69.45l-14.23-8.21-14.22,8.21s-14.22,8.21-14.22,8.21l-14.22,8.21h-.01l-14.22,8.22-14.22,8.2h0s-14.22,8.22-14.22,8.22l14.22,8.21,5.59,3.39,5.51,3.07c1.94,1.08,4.31,1.07,6.23-.05l11.12-6.42-6.76-3.91-2.04-1.17-2.65-1.54c-1.22-.7-1.2-2.47.04-3.14l6.85-3.75,4.56-2.91h.01s14.22-8.21,14.22-8.21h0s14.22-8.21,14.22-8.21h0s.01-.01.01-.01l9.43-5.44c2.96-1.71,6.61-1.71,9.57,0l6.59,3.8c1.76,1.02,3.94,1.02,5.7,0l9.28-5.36,2.09-1.21s-14.22-8.21-14.22-8.21Z" style="fill: #53576b;"/>
      </g>
    </g>
    <polygon points="513.78 94.08 513.78 94.08 513.78 94.09 513.78 94.08" style="fill: none;"/>
    <polyline points="531.11 166.22 529.55 167.11 528.01 167.98 513.78 176.2 506.58 180.36 499.55 184.41 485.33 192.62 471.11 200.83" style="fill: none; stroke: #c1bf93; stroke-miterlimit: 10; stroke-width: 3px;"/>
    <polygon points="570.67 192.62 569.09 193.53 570.67 192.62 570.67 192.62" style="fill: none;"/>
    <polygon points="471.1 545.7 471.11 545.7 485.32 537.49 485.33 537.49 499.55 529.28 513.78 521.07 513.78 521.06 528.01 512.85 542.22 504.64 542.22 504.64 556.45 496.43 570.67 488.22 570.67 487.45 556.44 495.66 542.22 503.87 528 512.08 528 511.89 513.77 520.1 499.55 528.31 485.33 536.52 485.33 536.53 471.1 544.74 456.88 552.95 442.67 561.16 442.67 562.12 456.89 553.91 471.1 545.7" style="fill: none;"/>
    <polygon points="584.9 512.86 584.89 512.85 584.89 512.86 584.9 512.86" style="fill: none;"/>
    <polygon points="599.11 291.16 599.11 291.15 599.1 291.16 599.11 291.16" style="fill: none;"/>
    <polygon points="485.33 225.46 485.32 225.46 485.33 225.47 485.33 225.46" style="fill: none;"/>
    <polygon points="499.55 184.41 513.78 176.2 513.78 159.77 513.78 143.36 499.56 151.56 499.55 151.56 499.55 151.57 485.33 159.78 471.11 167.99 471.11 184.4 471.11 184.41 471.11 200.83 485.33 192.62 499.55 184.41" style="fill: none;"/>
    <polygon points="528.01 200.84 528.01 200.82 527.99 200.83 528.01 200.84" style="fill: none;"/>
    <polygon points="656.01 274.72 655.99 274.73 656.01 274.74 656.01 274.72" style="fill: none;"/>
    <polygon points="456.89 126.92 456.89 126.94 456.9 126.93 456.89 126.92" style="fill: none;"/>
    <polygon points="456.89 110.51 456.9 110.51 456.89 110.5 456.89 110.51" style="fill: none;"/>
    <polygon points="456.89 586.76 456.9 586.76 456.89 586.75 456.89 586.76" style="fill: none;"/>
    <polygon points="527.99 611.39 528.01 611.4 528.01 611.38 527.99 611.39" style="fill: none;"/>
    <polygon points="499.56 562.13 499.55 562.12 499.55 562.13 499.56 562.13" style="fill: none;"/>
    <polygon points="542.22 209.04 540.74 209.89 542.22 209.04 542.22 209.04" style="fill: none;"/>
    <polygon points="456.89 225.47 456.9 225.46 456.89 225.46 456.89 225.47" style="fill: none;"/>
    <polygon points="641.78 332.21 641.78 332.21 641.78 332.22 641.78 332.21" style="fill: none;"/>
    <polygon points="641.78 381.48 641.78 381.47 641.78 381.48 641.78 381.48" style="fill: none;"/>
    <polygon points="641.78 480.01 641.78 480.01 641.78 480.02 641.78 480.01" style="fill: none;"/>
    <polygon points="485.33 636.03 485.33 636.02 485.32 636.02 485.33 636.03" style="fill: none;"/>
    <polygon points="584.89 184.4 584.89 184.41 584.9 184.41 584.89 184.4" style="fill: none;"/>
    <polygon points="584.89 365.05 584.89 365.06 584.9 365.06 584.89 365.05" style="fill: none;"/>
    <polygon points="584.89 414.32 584.89 414.33 584.9 414.32 584.89 414.32" style="fill: none;"/>
    <polygon points="584.89 447.16 584.89 447.17 584.9 447.17 584.89 447.16" style="fill: none;"/>
    <polygon points="528.01 562.13 528.01 562.12 527.99 562.13 528.01 562.13" style="fill: none;"/>
    <polygon points="584.89 562.13 584.9 562.12 584.89 562.12 584.89 562.13" style="fill: none;"/>
    <polygon points="613.33 299.37 613.33 299.36 613.32 299.36 613.33 299.37" style="fill: none;"/>
    <polygon points="641.78 430.75 641.78 430.74 641.78 430.75 641.78 430.75" style="fill: none;"/>
    <polygon points="599.1 603.18 599.11 603.19 599.11 603.18 599.1 603.18" style="fill: none;"/>
    <polygon points="641.78 578.55 641.78 578.54 641.78 578.55 641.78 578.55" style="fill: none;"/>
    <polygon points="528.01 660.65 527.99 660.66 528.01 660.67 528.01 660.65" style="fill: none;"/>
    <polygon points="400.01 636.02 399.99 636.03 400.01 636.03 400.01 636.02" style="fill: none;"/>
    <ellipse cx="535.11" cy="106.44" rx="6.25" ry="4.01" transform="translate(175.37 516.65) rotate(-60)" style="fill: url(#_새_패턴_견본_1-3);"/>
    <ellipse cx="464.35" cy="146.67" rx="6.25" ry="4.01" transform="translate(105.16 475.47) rotate(-60)" style="fill: url(#_새_패턴_견본_1-4);"/>
    <path d="M428.45,225.47l-7.02,4.05-7.2,4.15h0s0,.01,0,.01l-8.07,4.65c-1.9,1.1-3.44,2.67-4.5,4.51-1.06,1.83-1.64,3.94-1.64,6.13v345.17c.05,5.63,3.07,10.81,7.95,13.63l6.26,3.62,7.2,4.16,7.02,4.05h0s14.22,8.21,14.22,8.21l14.22,8.21h.01l7.1,4.1,7.1,4.1h.01l14.22,8.21,14.22,8.21h0s0,.01,0,.01h0l5.9,3.41c5.14,2.96,11.46,2.97,16.6,0l5.92-3.41h.01s0-.01,0-.01l14.21-8.21h0s7.2-4.16,7.2-4.16l7.02-4.05,14.21-8.21h.01l14.22-8.21,7.11-4.1,7.1-4.11h.01l14.21-8.21h.01l14.22-8.21,7.03-4.05,7.2-4.16h0s14.23-8.22,14.23-8.22l14.21-8.21h0s7.2-4.16,7.2-4.16l7.02-4.05.07-.04c8.72-5.06,14.1-14.36,14.15-24.44v-.14h0v-49.27h0v-32.85h0v-32.84h0v-32.84h0v-49.27h0v-32.85h0v-107.32c-.03-2.36-.66-4.62-1.8-6.6-1.15-2-2.82-3.7-4.88-4.9l-7.53-4.34h-.01s-7.02-4.06-7.02-4.06l-7.2-4.15h0s-7.1-4.11-7.1-4.11l-7.11-4.1-7.2-4.16-7.02-4.05h0s0,0,0,0l-7.19-4.16-7.02-4.05h-.01l-14.22-8.21-14.22-8.21-2.86-1.65-4.21-2.43c-4.43-2.56-9.88-2.56-14.31,0l-7.06,4.08" style="fill: none; stroke: #c1bf93; stroke-miterlimit: 10; stroke-width: 3px;"/>
    <g style="clip-path: url(#clippath-7);">
      <polygon points="513.78 94.09 499.55 102.3 485.33 110.51 471.11 118.72 471.11 135.14 471.11 151.56 485.33 143.35 499.55 135.14 499.56 135.14 513.78 126.93 513.78 110.51 513.78 94.09" style="fill: none;"/>
      <g>
        <polygon points="528.01 167.99 542.22 176.2 556.45 184.41 570.67 176.2 570.67 176.19 584.89 167.99 584.89 151.57 570.67 159.78 556.46 167.98 556.45 167.98 542.22 159.77 528.01 151.56 528.01 167.98 528.01 167.99" style="fill: #353644;"/>
        <polygon points="456.89 241.89 471.1 233.67 471.11 233.67 485.32 225.46 485.33 225.46 485.33 209.04 471.11 217.25 471.11 217.26 471.1 217.26 456.9 225.46 456.89 225.47 456.89 225.46 442.67 217.25 428.45 209.04 428.45 225.46 428.45 225.47 442.67 233.68 456.89 241.89" style="fill: #353644;"/>
        <path d="M456.89,225.46h.01l14.21-8.2h.01s14.22-8.22,14.22-8.22l-14.22-8.21v-16.42h0v-12.8c0-2.24,1.19-4.31,3.13-5.43l11.09-6.4,14.22-8.21h0s.01-.01.01-.01l14.21-8.2h0s0-.01,0-.01l11.11-6.41c1.38-.8,3.11.2,3.11,1.79v12.83l14.22,8.21,14.22,8.21h.01l14.21-8.2,14.22-8.21h0s-14.22-8.22-14.22-8.22l-14.22-8.21-14.22,8.21v-9.26c0-4.43-2.36-8.52-6.2-10.74l-1.16-.67c-4.24-2.45-9.47-2.45-13.71,0l-7.37,4.25-14.21,8.21h-.01l-14.22,8.21-14.22,8.21h0s-7.39,4.28-7.39,4.28c-4.23,2.44-6.84,6.95-6.84,11.84v8.52h0v16.43l-14.22,8.21-14.22,8.21,14.22,8.21,14.22,8.21Z" style="fill: #53576b;"/>
      </g>
    </g>
    <path d="M455.3,204.56l-8.8,5.07c-.66.38-.66,1.34,0,1.73l6.25,3.61c1.57.91,3.51.91,5.09,0l7.74-4.47-10.28-5.94Z" style="fill: #a5b1c4;"/>
    <path d="M557.8,143.15l-8.49,4.9,10.29,5.94,8.12-4.69c.96-.55.96-1.94,0-2.49l-6.33-3.66c-1.11-.64-2.48-.64-3.59,0Z" style="fill: #a5b1c4;"/>
  </g>
</svg>