<svg width="801" height="800" viewBox="0 0 801 800" fill="none" xmlns="http://www.w3.org/2000/svg">
<g clip-path="url(#clip0_2587_19019)">
<mask id="mask0_2587_19019" style="mask-type:luminance" maskUnits="userSpaceOnUse" x="420" y="537" width="282" height="178">
<path d="M609.673 537.49L420.203 659.5L527.953 714.07L701.593 615.29L609.673 537.49Z" fill="white"/>
</mask>
<g mask="url(#mask0_2587_19019)">
<path d="M718.532 501.48H677.232V542.78H718.532V501.48Z" fill="#DFE9ED"/>
<path d="M718.532 542.78H677.232V584.08H718.532V542.78Z" fill="#DFE9ED"/>
<path d="M718.532 584.07H677.232V625.37H718.532V584.07Z" fill="#DFE9ED"/>
<path d="M718.532 625.37H677.232V666.67H718.532V625.37Z" fill="#DFE9ED"/>
<path d="M718.532 666.671H677.232V707.971H718.532V666.671Z" fill="#DFE9ED"/>
<path d="M718.532 707.961H677.232V749.261H718.532V707.961Z" fill="#DFE9ED"/>
<path d="M677.232 501.48H635.932V542.78H677.232V501.48Z" fill="#DFE9ED"/>
<path d="M677.232 542.78H635.932V584.08H677.232V542.78Z" fill="#DFE9ED"/>
<path d="M677.232 584.07H635.932V625.37H677.232V584.07Z" fill="#DFE9ED"/>
<path d="M677.232 625.37H635.932V666.67H677.232V625.37Z" fill="#DFE9ED"/>
<path d="M677.232 666.671H635.932V707.971H677.232V666.671Z" fill="#DFE9ED"/>
<path d="M677.232 707.961H635.932V749.261H677.232V707.961Z" fill="#DFE9ED"/>
<path d="M635.933 501.48H594.633V542.78H635.933V501.48Z" fill="#DFE9ED"/>
<path d="M635.933 542.78H594.633V584.08H635.933V542.78Z" fill="#DFE9ED"/>
<path d="M635.933 584.07H594.633V625.37H635.933V584.07Z" fill="#DFE9ED"/>
<path d="M635.933 625.37H594.633V666.67H635.933V625.37Z" fill="#DFE9ED"/>
<path d="M635.933 666.671H594.633V707.971H635.933V666.671Z" fill="#DFE9ED"/>
<path d="M635.933 707.961H594.633V749.261H635.933V707.961Z" fill="#DFE9ED"/>
<path d="M594.642 501.48H553.342V542.78H594.642V501.48Z" fill="#DFE9ED"/>
<path d="M594.642 542.78H553.342V584.08H594.642V542.78Z" fill="#DFE9ED"/>
<path d="M594.642 584.07H553.342V625.37H594.642V584.07Z" fill="#DFE9ED"/>
<path d="M594.642 625.37H553.342V666.67H594.642V625.37Z" fill="#DFE9ED"/>
<path d="M594.642 666.671H553.342V707.971H594.642V666.671Z" fill="#DFE9ED"/>
<path d="M594.642 707.961H553.342V749.261H594.642V707.961Z" fill="#DFE9ED"/>
<path d="M553.343 501.48H512.043V542.78H553.343V501.48Z" fill="#DFE9ED"/>
<path d="M553.343 542.78H512.043V584.08H553.343V542.78Z" fill="#DFE9ED"/>
<path d="M553.343 584.07H512.043V625.37H553.343V584.07Z" fill="#DFE9ED"/>
<path d="M553.343 625.37H512.043V666.67H553.343V625.37Z" fill="#DFE9ED"/>
<path d="M553.343 666.671H512.043V707.971H553.343V666.671Z" fill="#DFE9ED"/>
<path d="M553.343 707.961H512.043V749.261H553.343V707.961Z" fill="#DFE9ED"/>
<path d="M512.052 501.48H470.752V542.78H512.052V501.48Z" fill="#DFE9ED"/>
<path d="M512.052 542.78H470.752V584.08H512.052V542.78Z" fill="#DFE9ED"/>
<path d="M512.052 584.07H470.752V625.37H512.052V584.07Z" fill="#DFE9ED"/>
<path d="M512.052 625.37H470.752V666.67H512.052V625.37Z" fill="#DFE9ED"/>
<path d="M512.052 666.671H470.752V707.971H512.052V666.671Z" fill="#DFE9ED"/>
<path d="M512.052 707.961H470.752V749.261H512.052V707.961Z" fill="#DFE9ED"/>
<path d="M470.753 501.48H429.453V542.78H470.753V501.48Z" fill="#DFE9ED"/>
<path d="M470.753 542.78H429.453V584.08H470.753V542.78Z" fill="#DFE9ED"/>
<path d="M470.753 584.07H429.453V625.37H470.753V584.07Z" fill="#DFE9ED"/>
<path d="M470.753 625.37H429.453V666.67H470.753V625.37Z" fill="#DFE9ED"/>
<path d="M470.753 666.671H429.453V707.971H470.753V666.671Z" fill="#DFE9ED"/>
<path d="M470.753 707.961H429.453V749.261H470.753V707.961Z" fill="#DFE9ED"/>
<path d="M429.452 501.48H388.152V542.78H429.452V501.48Z" fill="#DFE9ED"/>
<path d="M429.452 542.78H388.152V584.08H429.452V542.78Z" fill="#DFE9ED"/>
<path d="M429.452 584.07H388.152V625.37H429.452V584.07Z" fill="#DFE9ED"/>
<path d="M429.452 625.37H388.152V666.67H429.452V625.37Z" fill="#DFE9ED"/>
<path d="M429.452 666.671H388.152V707.971H429.452V666.671Z" fill="#DFE9ED"/>
<path d="M429.452 707.961H388.152V749.261H429.452V707.961Z" fill="#DFE9ED"/>
</g>
<path d="M545.703 664.591L520.953 652.001C511.853 647.761 493.623 655.111 488.603 666.021C482.073 680.231 484.213 694.591 489.913 698.661C490.423 699.031 493.613 701.161 494.213 701.331L517.143 714.061L545.703 664.591Z" fill="url(#paint0_linear_2587_19019)"/>
<path d="M547.304 698.498C555.19 684.838 554.473 669.659 545.701 664.594C536.929 659.53 523.424 666.498 515.538 680.158C507.651 693.818 508.369 708.997 517.141 714.062C525.913 719.126 539.417 712.158 547.304 698.498Z" fill="#353644"/>
<path d="M538.342 677.531C537.062 676.791 535.562 676.591 533.992 676.851C535.252 680.231 534.622 685.121 532.002 689.661C529.382 694.201 525.462 697.191 521.902 697.791C522.462 699.281 523.382 700.481 524.662 701.221C528.862 703.651 535.332 700.311 539.112 693.761C542.892 687.211 542.542 679.951 538.342 677.521V677.531Z" fill="#A5B1C4"/>
<path d="M532.004 689.671C534.624 685.131 535.254 680.241 533.994 676.861C530.434 677.461 526.514 680.451 523.894 684.991C521.274 689.531 520.644 694.421 521.904 697.801C525.464 697.201 529.384 694.211 532.004 689.671Z" fill="#DFE9ED"/>
<path d="M716.373 565.821L691.623 553.231C682.523 548.991 664.293 556.341 659.273 567.251C652.743 581.461 654.883 595.821 660.583 599.891C661.093 600.261 664.283 602.391 664.883 602.561L687.813 615.291L716.373 565.821Z" fill="url(#paint1_linear_2587_19019)"/>
<path d="M717.976 599.736C725.862 586.076 725.145 570.897 716.373 565.833C707.601 560.768 694.096 567.736 686.21 581.396C678.323 595.056 679.041 610.235 687.813 615.3C696.585 620.364 710.089 613.396 717.976 599.736Z" fill="#353644"/>
<path d="M709.012 578.76C707.732 578.02 706.232 577.82 704.662 578.08C705.922 581.46 705.292 586.35 702.672 590.89C700.052 595.43 696.132 598.42 692.572 599.02C693.132 600.51 694.052 601.71 695.332 602.45C699.532 604.88 706.002 601.54 709.782 594.99C713.562 588.44 713.212 581.18 709.012 578.75V578.76Z" fill="#A5B1C4"/>
<path d="M702.674 590.89C705.294 586.35 705.924 581.46 704.664 578.08C701.104 578.68 697.184 581.67 694.564 586.21C691.944 590.75 691.314 595.64 692.574 599.02C696.134 598.42 700.054 595.43 702.674 590.89Z" fill="#DFE9ED"/>
<path d="M459.613 616.04L434.863 603.45C425.763 599.21 407.533 606.56 402.513 617.47C395.983 631.68 398.123 646.04 403.823 650.11C404.333 650.48 407.523 652.61 408.123 652.78L431.053 665.51L459.613 616.04Z" fill="url(#paint2_linear_2587_19019)"/>
<path d="M461.208 649.957C469.095 636.297 468.377 621.118 459.605 616.053C450.833 610.989 437.329 617.957 429.442 631.617C421.555 645.277 422.273 660.456 431.045 665.521C439.817 670.585 453.321 663.617 461.208 649.957Z" fill="#353644"/>
<path d="M452.253 628.98C450.973 628.24 449.472 628.04 447.902 628.3C449.162 631.68 448.533 636.57 445.913 641.11C443.293 645.65 439.372 648.64 435.812 649.24C436.373 650.73 437.293 651.93 438.573 652.67C442.773 655.1 449.242 651.76 453.022 645.21C456.802 638.66 456.453 631.4 452.253 628.97V628.98Z" fill="#A5B1C4"/>
<path d="M445.902 641.11C448.522 636.57 449.152 631.68 447.892 628.3C444.332 628.9 440.412 631.89 437.792 636.43C435.172 640.97 434.542 645.86 435.802 649.24C439.362 648.64 443.282 645.65 445.902 641.11Z" fill="#DFE9ED"/>
<mask id="mask1_2587_19019" style="mask-type:luminance" maskUnits="userSpaceOnUse" x="410" y="137" width="300" height="532">
<path d="M695.022 192.621H695.012L680.782 184.411L666.572 176.191L652.342 167.981L638.122 159.771H638.112L623.892 151.561L609.672 143.351L606.812 141.701L602.602 139.271C598.172 136.711 592.722 136.711 588.292 139.271L581.232 143.351L591.502 153.891L591.622 154.561L595.452 167.991L581.232 176.191L573.412 180.711L552.782 176.201L541.672 166.221L538.572 167.981L524.342 176.201L510.112 184.411L495.892 192.621L481.672 200.831L492.652 210.911L495.892 225.461H495.882L481.672 233.671H481.662L467.452 241.891L453.232 233.681L439.012 225.471L424.782 233.671L416.712 238.331C412.912 240.521 410.572 244.581 410.572 248.971V603.181L424.782 611.391L439.012 619.601L453.232 627.811L467.452 636.021H467.462L481.662 644.231H481.672L495.892 652.441L510.112 660.651L510.122 660.661L524.342 668.861L538.552 660.661H538.572L552.782 652.441L567.012 644.231L581.222 636.021H581.232L595.452 627.811L609.662 619.601H609.672L623.882 611.391H623.892L638.112 603.181L652.342 594.971L666.572 586.751L680.782 578.541L695.012 570.331C703.812 565.251 709.232 555.861 709.232 545.701V208.611C709.232 203.791 706.662 199.331 702.482 196.921L695.022 192.611V192.621ZM495.892 636.031H495.882L495.892 636.021V636.031ZM538.572 611.401H538.552L538.572 611.381V611.401ZM538.572 200.841H538.552L538.572 200.821V200.841ZM595.452 562.131L595.462 562.121H595.452V562.131ZM609.672 603.191H609.662L609.672 603.181V603.191ZM623.892 299.371H623.882L623.892 299.361V299.371ZM666.572 274.741H666.552L666.572 274.721V274.741Z" fill="white"/>
</mask>
<g mask="url(#mask1_2587_19019)">
<path d="M579.652 193.53L567.012 200.83L552.782 209.04L551.302 209.89L538.572 217.25H538.562L524.342 225.46V225.47L510.112 233.68L495.892 241.89L481.672 250.1H481.662L467.452 258.31L453.232 266.52V282.94V282.95V299.36V299.37V315.41V315.78V315.79V332.21V348.63V364.5V365.05V381.48V397.9V413.72V414.32V430.74V430.75V447.17V462.8V463.58V463.59V480.01V496.43V496.44V511.89V512.85V512.86V529.28V545.7V545.71V561.16L467.442 552.95L481.662 544.74L495.892 536.53V536.52L510.112 528.31L524.332 520.1L538.562 511.89V512.08L552.782 503.87L567.002 495.66L581.232 487.45V471.81V471.8V455.38V438.95V438.18V422.54V422.53V406.11V389.69V389.68V389.1V373.27V356.85V356.84V340.42V340.01V324V307.58V291.15V290.79V274.73V258.31V241.89V241.88V241.71V225.47V225.46V209.05V209.04V192.62L579.652 193.53Z" fill="#CECDAE"/>
<path d="M680.781 545.7V562.12V562.13V578.54L695.011 570.33L709.231 562.12V545.71V545.7V529.28L695.011 537.49L680.781 545.7Z" fill="#353644"/>
<path d="M680.781 215.11V218.93V233.67V250.1V266.51V266.52V282.94V282.95V299.36V315.79V332.21V348.63V365.06V381.47V381.48V397.9V414.32V430.74V430.75V447.16V447.17V463.59V480.01V480.02V496.43V512.86V529.27V529.28V545.7L695.011 537.49L709.231 529.28V512.85V496.44V496.43V480.01V463.59V463.58V447.17V430.75V430.74V414.32V397.91V397.9V381.48V365.05V348.64V348.63V332.21V315.79V315.78V299.37V282.94V266.52V250.09V233.68V217.25V200.83L695.011 209.04L680.781 215.11Z" fill="#CECDAE"/>
<path d="M680.782 529.27V480.02V447.17V430.75V381.48V282.95V266.52V214.56L666.562 209.05L652.332 200.83V217.25V299.36V332.21V381.47V381.48V430.74V430.75V447.16V480.01V529.27V529.28L666.552 537.48L680.772 545.7V529.28L680.782 529.27ZM666.572 274.72V274.74H666.562L666.572 274.72Z" fill="#EAEACC"/>
<path d="M666.571 586.75L680.781 578.54V562.13V545.7L666.561 553.91L652.331 562.12L638.111 570.33L623.891 578.54L609.671 586.75L609.661 586.76L595.441 594.97L581.221 603.18L567.001 611.39L552.781 619.6V636.02V652.44L567.001 644.23L581.211 636.02H581.221L595.441 627.81L609.661 619.6H609.671L623.881 611.39H623.891L638.111 603.18L652.331 594.97L666.561 586.75H666.571Z" fill="#CECDAE"/>
<path d="M591.622 154.56L595.452 167.99L609.672 176.2H609.682L623.902 184.41L638.122 192.62L652.342 200.83L666.572 209.04L670.162 211.12L674.722 213.75C678.482 215.92 683.112 215.92 686.862 213.75L695.012 209.05L709.232 200.84L695.022 192.63H695.012L680.792 184.42L666.572 176.2L652.352 167.99L638.142 159.78H638.132L623.912 151.57L609.692 143.36L595.472 135.15H595.462L581.242 143.36L591.522 153.9L591.632 154.57L591.622 154.56Z" fill="#FFFFF8"/>
<path d="M595.463 184.41H595.453V200.83V250.09V299.36V348.63V365.05H595.463L595.453 365.06V397.89V414.32V447.16H595.463L595.453 447.17V463.59V496.43H595.463L609.683 504.64L623.903 512.85V315.79V299.37H623.893L623.903 299.36V250.1V184.41L609.683 176.2H609.673L595.453 167.99V184.4H595.463V184.41Z" fill="#EAEACC"/>
<path d="M552.782 636.021V619.611V619.601L538.572 627.811L524.342 630.001L510.122 627.811L495.902 619.601V636.021V652.441L510.122 660.651L510.132 660.661L516.032 664.071C521.172 667.041 527.502 667.041 532.642 664.071L538.552 660.661H538.562L552.772 652.441V636.031L552.782 636.021Z" fill="#353644"/>
<path d="M510.122 611.39L524.342 603.18L538.572 594.97L552.782 586.76L567.012 578.55L581.232 570.34L595.452 562.13V562.12H595.462L609.672 553.91L623.892 545.7L638.112 537.49H638.122L652.342 529.28V529.27V512.86V496.43V480.02V480.01V463.59V447.17V447.16V430.75V430.74V414.32V397.9V381.48V381.47V365.06V348.63V332.22V332.21V315.79V299.37V299.36V282.94V266.52V250.1V233.67V217.26V217.25V200.83L638.112 192.62V209.04V225.46V225.47V241.88V241.89V258.31V274.73V291.15V307.58V324V340.42V340.43V356.84V356.85V373.26V373.27V389.69V406.11V422.53V438.95V438.96V455.38V471.8V488.22V488.23V504.64V504.65V521.06V521.07L623.892 529.28L609.672 537.49L595.462 545.7H595.452L581.232 553.91L567.012 562.12L552.782 570.33V570.34L538.572 578.54V578.55L524.342 586.76L510.112 594.97L495.892 603.18L481.672 611.39L495.892 619.6L510.112 611.39H510.122Z" fill="#53576B"/>
<path d="M524.342 209.041L538.552 200.831L538.572 200.821L552.782 192.621V192.611L573.412 180.721L552.782 176.201L541.672 166.221L538.572 167.981L524.342 176.201L510.112 184.411L495.892 192.621L481.672 200.831L492.652 210.911L495.892 225.461L510.112 217.251L524.342 209.041Z" fill="#FFFFF8"/>
<path d="M510.113 594.97L524.343 586.76L538.573 578.55V578.54L552.783 570.34V570.33L567.013 562.12L581.233 553.91L595.453 545.7H595.463L609.673 537.49L623.893 529.28L638.113 521.07V521.06V504.65V504.64V488.23V488.22V471.8V455.38V438.96V438.95V422.53V406.11V389.69V373.27V373.26V356.85V356.84V340.43V340.42V324V307.58V291.15V274.73V258.31V241.89V241.88V225.47V225.46V209.04V192.62L623.893 184.41V200.83V217.25V233.68V250.09V250.1V266.52V282.94V299.36V299.37V315.78V315.79V332.21V348.64V365.05V381.48V397.9V414.32V430.74V447.17V463.59V480.01V496.44V512.85L609.673 521.06V521.07L595.453 529.28L581.233 537.49L567.013 545.7L552.783 553.91L538.573 562.12V562.13H538.553L524.343 570.33L510.113 578.54V578.55L495.893 586.75V586.76H495.883L481.673 594.96V594.97L467.453 603.18L481.673 611.39L495.893 603.18L510.113 594.97Z" fill="#A5B1C4"/>
<path d="M495.882 636.021H495.892V619.601L481.672 611.391L467.452 603.181L453.242 594.971H453.232L439.012 586.761V603.181V619.601L453.232 627.811L467.452 636.021H467.462L481.662 644.231H481.672L495.892 652.441V636.031L495.882 636.021Z" fill="#EAEACC"/>
<path d="M481.672 594.961L495.882 586.761H495.892L510.112 578.551L524.332 570.331L538.552 562.131H538.562L552.772 553.911L566.992 545.701L581.212 537.491L595.432 529.281L609.662 521.071L623.882 512.851L609.662 504.651L595.442 496.431H595.432L581.212 504.641L566.992 512.861L552.772 521.061L538.552 529.281L524.322 537.491L510.102 545.701L495.882 553.911L481.662 562.121H481.652L467.432 570.341L453.212 578.541L438.992 586.761L453.212 594.971H453.222L467.432 603.181L481.662 594.971L481.672 594.961Z" fill="#FFFFF8"/>
<path d="M453.232 578.54L467.452 570.34L481.671 562.12H481.681L495.901 553.91L510.121 545.7L524.342 537.49L538.572 529.28L552.791 521.07L567.012 512.86L581.231 504.65L595.452 496.44V463.6V447.17V414.33V397.9V365.06V348.64V299.37V250.1V200.84V184.41V167.99L581.231 176.19L567.012 184.41L552.791 192.61V192.62L538.582 200.82V200.84H538.572L524.351 209.04L510.132 217.25L495.911 225.46H495.901L481.691 233.67H481.681L467.461 241.89L453.241 250.1L439.021 255.89V373.26V455.37V521.06V586.76L453.241 578.55L453.232 578.54ZM453.232 561.16V545.71V512.86V496.44V463.59V430.75V315.79V299.37V282.95V266.52L467.452 258.31L481.671 250.1H481.681L495.891 241.89L510.111 233.68L524.332 225.47L538.551 217.25L551.281 209.89L552.762 209.04L566.981 200.83L579.632 193.53L581.202 192.62V209.04V225.46V241.88V356.84V389.68V422.53V471.8V488.22L566.981 496.43L552.762 504.64L538.551 512.85L524.322 521.06L510.102 529.28L495.882 537.49H495.871L481.661 545.7H481.651L467.431 553.91L453.211 562.12V561.16H453.232Z" fill="#CECDAE"/>
<path d="M439.012 619.601V586.761L424.792 578.551L410.572 570.341V586.751V593.991C410.572 599.681 413.602 604.931 418.532 607.771L424.792 611.391L439.012 619.601Z" fill="#353644"/>
<path d="M424.782 578.551L439.012 586.761V570.331V553.921V537.491V521.071V521.061V504.651V488.221V471.801V455.381V455.371V438.961V422.531V406.111V389.691V373.271V373.261V356.841V340.421V324.001V307.571V291.161V274.731V254.481L424.782 250.101L410.572 241.891V258.311V274.731V274.741V291.151V307.581V323.991V324.001V340.421V356.841V356.851V373.261V373.271V389.681V389.691V406.111V422.531V422.541V438.951V455.381V471.801V488.221V488.231V504.641V504.651V521.071V537.481V537.501V553.911V570.341L424.782 578.541V578.551Z" fill="#EAEACC"/>
<path d="M434.042 255.451C437.112 257.221 440.892 257.221 443.962 255.451L453.222 250.101L467.442 241.891L453.222 233.681L439.002 225.471L424.782 233.671V233.681L410.572 241.881L424.792 250.101L434.052 255.451H434.042Z" fill="#FFFFF8"/>
<path d="M631.002 231.25V247.67V264.09L642.222 270.58C643.552 271.35 645.222 270.39 645.222 268.85V255.89V240.61C645.222 239.9 644.842 239.24 644.222 238.88L631.002 231.25Z" fill="#A5B1C4"/>
<path d="M631.002 322.801V339.221V355.641L642.222 362.131C643.552 362.901 645.222 361.941 645.222 360.401V347.441V332.161C645.222 331.451 644.842 330.791 644.222 330.431L631.002 322.801Z" fill="#A5B1C4"/>
<path d="M631.002 414.36V430.78V447.2L642.222 453.69C643.552 454.46 645.222 453.5 645.222 451.96V439V423.72C645.222 423.01 644.842 422.35 644.222 421.99L631.002 414.36Z" fill="#A5B1C4"/>
<path d="M573.342 548.971L559.122 557.181L544.902 565.391L530.682 573.601L543.902 581.231C544.522 581.591 545.282 581.591 545.902 581.231L559.122 573.601L573.342 565.391L584.572 558.911C585.902 558.141 585.902 556.211 584.572 555.451L573.342 548.971Z" fill="#A5B1C4"/>
<path d="M666.572 537.48L652.352 529.28L638.142 537.49H638.132L623.912 545.7L609.692 553.91L595.472 562.12H595.462L581.242 570.34L567.022 578.55L552.802 586.76L538.582 594.97L524.352 603.18L510.142 611.39H510.132L495.912 619.6L510.132 627.81L515.642 630.99C521.032 634.1 527.682 634.1 533.072 630.99L538.582 627.81L552.792 619.6L567.012 611.39L581.232 603.18L595.452 594.97L609.672 586.76H609.682L623.902 578.55L638.122 570.33L652.342 562.12L666.572 553.91L680.792 545.7L666.572 537.49V537.48Z" fill="#FFFFF8"/>
</g>
<path d="M552.784 145.221V110.511L538.574 114.701L538.604 135.811L552.784 145.221Z" fill="#A5B1C4"/>
<path d="M524.344 126.931L538.574 125.811V113.521L524.344 110.511V126.931Z" fill="#DFE9ED"/>
<path d="M524.344 176.2L538.574 167.98V151.56V135.15L524.344 143.35V143.36V159.77V176.2Z" fill="#DFE9ED"/>
<path d="M480.572 166.34V149.92L466.352 153.06V175.11L480.572 166.34Z" fill="#A5B1C4"/>
<path d="M467.452 176.2V176.19V150.67L466.122 151.06L453.232 151.56V167.98V167.99V184.41V200.83L467.452 192.62V176.2Z" fill="#DFE9ED"/>
<mask id="mask2_2587_19019" style="mask-type:luminance" maskUnits="userSpaceOnUse" x="439" y="63" width="114" height="97">
<path d="M538.573 69.4503L531.073 65.1203C526.913 62.7203 521.783 62.7203 517.623 65.1203L510.133 69.4503L495.913 77.6603L481.693 85.8703H481.683L467.463 94.0903L453.243 102.29L444.713 107.22C441.193 109.25 439.023 113.01 439.023 117.08V119.76C439.023 124.19 441.393 128.29 445.223 130.51H445.233C450.183 133.38 453.243 138.66 453.243 144.38V146.66V151.55L467.463 159.76L481.693 151.56V118.71L495.913 110.5L510.133 102.29L516.413 98.6703L520.163 96.5003C522.023 95.4203 524.353 96.7603 524.363 98.9203V102.11V106.44V110.51L538.593 118.72L552.813 110.51V94.0903V83.7003C552.813 79.9603 550.823 76.5103 547.583 74.6403L538.593 69.4503H538.573ZM467.453 126.94V126.92H467.463L467.453 126.94Z" fill="white"/>
</mask>
<g mask="url(#mask2_2587_19019)">
<path d="M538.573 83.3902L529.023 80.3702C526.123 78.7002 522.563 78.7002 519.663 80.3702L510.133 85.8702H510.123L495.903 94.0802L481.683 102.29L481.673 102.3L467.463 110.51L481.683 118.72L495.903 110.51L510.123 102.3L516.403 98.6802L520.613 96.2402C522.273 95.2802 524.353 96.4802 524.353 98.4002V106.44V110.51L531.683 114.74C535.953 117.2 541.213 117.2 545.483 114.74L552.803 110.51V94.0901V77.6602L538.583 83.3902H538.573Z" fill="#353644"/>
<path d="M467.464 123.59V126.94L467.454 123.59L453.234 118.72L439.014 110.51V126.93L446.794 131.42C450.774 133.72 453.234 137.97 453.234 142.57V151.56L458.684 154.33L460.504 155.46C464.784 158.12 470.184 158.2 474.544 155.69L481.684 151.57V118.72L467.464 123.59Z" fill="#353644"/>
<path d="M538.574 69.4502L524.344 61.2402L510.124 69.4502L495.904 77.6602L481.684 85.8702H481.674L467.454 94.0902L453.234 102.29L439.014 110.51L453.234 118.72L458.824 122.11L464.334 125.18C466.274 126.26 468.644 126.25 470.564 125.13L481.684 118.71L474.924 114.8L472.884 113.63L470.234 112.09C469.014 111.39 469.034 109.62 470.274 108.95L477.124 105.2L481.684 102.29H481.694L495.914 94.0802L510.134 85.8702L510.144 85.8602L519.574 80.4202C522.534 78.7102 526.184 78.7102 529.144 80.4202L535.734 84.2202C537.494 85.2402 539.674 85.2402 541.434 84.2202L550.714 78.8602L552.804 77.6502L538.584 69.4402L538.574 69.4502Z" fill="#53576B"/>
</g>
<path d="M541.674 166.221L540.114 167.111L538.574 167.981L524.344 176.201L517.144 180.361L510.114 184.411L495.894 192.621L481.674 200.831" stroke="#C1BF93" stroke-width="3" stroke-miterlimit="10"/>
<path d="M439.012 225.47L431.992 229.52L424.792 233.67V233.68L416.722 238.33C414.822 239.43 413.282 241 412.222 242.84C411.162 244.67 410.582 246.78 410.582 248.97V594.14C410.632 599.77 413.652 604.95 418.532 607.77L424.792 611.39L431.992 615.55L439.012 619.6L453.232 627.81L467.452 636.02H467.462L474.562 640.12L481.662 644.22H481.672L495.892 652.43L510.112 660.64V660.65L516.012 664.06C521.152 667.02 527.472 667.03 532.612 664.06L538.532 660.65H538.542V660.64L552.752 652.43L559.952 648.27L566.972 644.22L581.182 636.01H581.192L595.412 627.8L602.522 623.7L609.622 619.59H609.632L623.842 611.38H623.852L638.072 603.17L645.102 599.12L652.302 594.96L666.532 586.74L680.742 578.53L687.942 574.37L694.962 570.32L695.032 570.28C703.752 565.22 709.132 555.92 709.182 545.84V545.7V496.43V463.58V430.74V397.9V348.63V315.78V208.46C709.152 206.1 708.522 203.84 707.382 201.86C706.232 199.86 704.562 198.16 702.502 196.96L694.972 192.62H694.962L687.942 188.56L680.742 184.41L673.642 180.3L666.532 176.2L659.332 172.04L652.312 167.99L645.122 163.83L638.102 159.78H638.092L623.872 151.57L609.652 143.36L606.792 141.71L602.582 139.28C598.152 136.72 592.702 136.72 588.272 139.28L581.212 143.36" stroke="#C1BF93" stroke-width="3" stroke-miterlimit="10"/>
<mask id="mask3_2587_19019" style="mask-type:luminance" maskUnits="userSpaceOnUse" x="439" y="120" width="157" height="122">
<path d="M581.234 143.35L572.434 138.27C569.074 136.33 564.944 136.33 561.584 138.27L552.784 143.35V134.09C552.784 129.66 550.424 125.57 546.584 123.35L545.424 122.68C541.184 120.23 535.954 120.23 531.714 122.68L524.344 126.93L510.134 135.14H510.124L495.904 143.35L481.684 151.56L474.294 155.84C470.064 158.28 467.454 162.79 467.454 167.68V176.2V192.63L453.234 200.84L447.644 204.07C442.304 207.15 439.014 212.85 439.014 219.01V225.47L453.234 233.69L467.454 241.9L481.674 233.68H481.684L495.894 225.47H495.904V216.46C495.904 211.87 493.454 207.63 489.484 205.34L481.684 200.84V184.42V171.62C481.684 169.38 482.874 167.31 484.814 166.19L495.904 159.79L510.124 151.58L510.134 151.57L524.344 143.37V143.36L535.454 136.95C536.834 136.15 538.564 137.15 538.564 138.74V165.16C538.564 166.92 539.504 168.54 541.024 169.42L552.784 176.21L562.354 181.73C565.234 183.39 568.784 183.39 571.654 181.73L581.224 176.21L595.444 168V161.01C595.444 155.17 592.324 149.77 587.264 146.85L581.224 143.36L581.234 143.35ZM467.454 225.47L467.464 225.46H467.454V225.47Z" fill="white"/>
</mask>
<g mask="url(#mask3_2587_19019)">
<path d="M538.574 167.991L552.784 176.201L567.014 184.411L581.234 176.201V176.191L595.454 167.991V151.571L581.234 159.781L567.024 167.981H567.014L552.784 159.771L538.574 151.561V167.981V167.991Z" fill="#353644"/>
<path d="M467.454 241.89L481.664 233.67H481.674L495.884 225.46H495.894V209.04L481.674 217.25V217.26H481.664L467.464 225.46L467.454 225.47V225.46L453.234 217.25L439.014 209.04V225.46V225.47L453.234 233.68L467.454 241.89Z" fill="#353644"/>
<path d="M467.454 225.46H467.464L481.674 217.26H481.684L495.904 209.04L481.684 200.83V184.41V171.61C481.684 169.37 482.874 167.3 484.814 166.18L495.904 159.78L510.124 151.57L510.134 151.56L524.344 143.36V143.35L535.454 136.94C536.834 136.14 538.564 137.14 538.564 138.73V151.56L552.784 159.77L567.004 167.98H567.014L581.224 159.78L595.444 151.57L581.224 143.35L567.004 135.14L552.784 143.35V134.09C552.784 129.66 550.424 125.57 546.584 123.35L545.424 122.68C541.184 120.23 535.954 120.23 531.714 122.68L524.344 126.93L510.134 135.14H510.124L495.904 143.35L481.684 151.56L474.294 155.84C470.064 158.28 467.454 162.79 467.454 167.68V176.2V192.63L453.234 200.84L439.014 209.05L453.234 217.26L467.454 225.47V225.46Z" fill="#53576B"/>
</g>
<path d="M465.863 204.561L457.063 209.631C456.403 210.011 456.403 210.971 457.063 211.361L463.313 214.971C464.883 215.881 466.823 215.881 468.403 214.971L476.143 210.501L465.863 204.561Z" fill="#A5B1C4"/>
<path d="M568.363 143.15L559.873 148.05L570.163 153.99L578.283 149.3C579.243 148.75 579.243 147.36 578.283 146.81L571.953 143.15C570.843 142.51 569.473 142.51 568.363 143.15Z" fill="#A5B1C4"/>
<path d="M142.674 241.13V257.52L157.034 249.23L171.394 240.94L185.764 232.65V232.82V232.84V249.23V249.24V265.81V265.82V282.2L200.124 273.91L214.484 265.62L228.854 257.33V241.13V240.94V224.54V224.36V224.35V208.14V207.95L243.214 199.66L257.574 191.37L271.054 183.6V168.31H271.064L271.054 168.3V151.73V135.15L256.694 143.44L242.344 151.72H242.334V151.73L228.854 159.51V174.78V174.79V174.98V191.37V191.56V207.77L214.484 216.06L200.124 224.35L185.764 232.64V216.25V216.24V199.67V199.66V184.38L184.884 184.89L170.524 193.18L156.164 201.48V201.49H156.154L142.674 209.26V224.54V241.13Z" fill="#C6A76F"/>
<path d="M185.764 199.671V216.241V216.251V232.641L200.124 224.351L214.484 216.061L228.854 207.771V191.561V191.371V174.981V174.791V174.781V159.511L227.974 160.021L213.614 168.311L199.244 176.601L185.764 184.381V199.661V199.671Z" fill="#C6A76F"/>
<path d="M243.214 199.661L228.854 207.951V208.141V224.351V224.361V224.541V240.941V241.131V257.331L214.484 265.621L200.124 273.911L185.764 282.201V265.821V265.811V249.241V249.231V232.841V232.821V232.651L171.394 240.941L157.034 249.231L142.674 257.521V257.711V274.111V290.691V307.091L157.034 298.801L171.394 290.501L185.764 282.211V282.391V282.401V298.801V298.811V315.381V315.391V331.961L200.124 323.671L214.484 315.381L228.854 307.091V307.081V290.691V290.501V274.111V273.921V273.911V257.711V257.521L243.214 249.231L257.574 240.941L271.054 233.161V218.071V201.481V184.901V184.891V183.601L257.574 191.371L243.214 199.661Z" fill="#C6A76F"/>
<path d="M185.764 315.38V298.81V298.8V282.4V282.39V282.21L171.394 290.5L157.034 298.8L142.674 307.09V307.27V323.68V340.26V356.84L157.034 348.55L171.394 340.26L185.764 331.97V331.96V315.39V315.38Z" fill="#C6A76F"/>
<path d="M243.214 249.23L228.854 257.52V257.71V273.91V273.92V274.11V290.5V290.69V307.08V307.09V307.27L243.214 298.98L257.574 290.69L271.054 282.92V267.81V251.23V234.65V234.64V233.16L257.574 240.94L243.214 249.23Z" fill="#C6A76F"/>
<path d="M128.653 233.68V266.52V282.94V299.36V381.48L142.873 373.27L157.093 365.05H157.103L171.313 356.84H171.323L185.543 348.63L199.763 340.42L213.983 332.21H213.993L228.203 324H228.213L242.433 315.79L256.643 307.58L270.863 299.37L285.083 291.15H285.093V274.74V241.89V209.05V159.78V143.36V110.51H285.083L270.873 118.72H270.863L256.643 126.93L242.423 135.14L228.203 143.35L213.983 151.56L199.753 159.78L185.533 167.99L171.313 176.2L157.093 184.41H157.083L142.863 192.62L128.643 196.56V233.68H128.653ZM142.873 209.05L142.883 209.04L143.753 208.54L157.093 200.84H157.103L171.323 192.62L185.543 184.41L186.423 183.9L199.763 176.2L213.993 167.99L228.213 159.78L229.093 159.27L242.433 151.57L242.443 151.56L256.653 143.36L270.873 135.15V167.98H270.883L270.873 167.99V184.41V233.67V282.94L256.653 291.16L242.433 299.37L228.213 307.58L213.993 315.79L199.763 324L185.543 332.21L171.323 340.42L157.103 348.63L157.093 348.64L142.883 356.84H142.873V307.58V258.32V209.05Z" fill="#C6A76F"/>
<path d="M285.104 143.35V159.77V209.04V241.88V274.73V291.15L299.324 299.36L313.544 307.58L327.764 315.79H327.773L341.993 324L356.214 332.21L370.434 340.42V291.16V274.74V241.89V225.47V209.05V176.2V154.78L356.214 151.57H356.204L341.993 143.36V192.62V225.46L338.474 236.11L327.764 233.68L315.654 223.67L315.434 221.52L313.544 209.05V126.93L299.324 118.72L285.104 110.51V143.35ZM341.993 258.32H341.984L341.993 258.3V258.32Z" fill="#E8CEA0"/>
<mask id="mask4_2587_19019" style="mask-type:luminance" maskUnits="userSpaceOnUse" x="118" y="613" width="277" height="187">
<path d="M262.173 613.19L118.533 750.37L213.983 799.01L394.613 697.4L262.173 613.19Z" fill="white"/>
</mask>
<g mask="url(#mask4_2587_19019)">
<path d="M429.763 584.07H388.463V625.37H429.763V584.07Z" fill="#DFE9ED"/>
<path d="M429.763 625.37H388.463V666.67H429.763V625.37Z" fill="#DFE9ED"/>
<path d="M429.763 666.67H388.463V707.97H429.763V666.67Z" fill="#DFE9ED"/>
<path d="M429.763 707.96H388.463V749.26H429.763V707.96Z" fill="#DFE9ED"/>
<path d="M429.763 749.261H388.463V790.561H429.763V749.261Z" fill="#DFE9ED"/>
<path d="M429.763 790.561H388.463V831.861H429.763V790.561Z" fill="#DFE9ED"/>
<path d="M388.472 584.07H347.172V625.37H388.472V584.07Z" fill="#DFE9ED"/>
<path d="M388.472 625.37H347.172V666.67H388.472V625.37Z" fill="#DFE9ED"/>
<path d="M388.472 666.67H347.172V707.97H388.472V666.67Z" fill="#DFE9ED"/>
<path d="M388.472 707.96H347.172V749.26H388.472V707.96Z" fill="#DFE9ED"/>
<path d="M388.472 749.261H347.172V790.561H388.472V749.261Z" fill="#DFE9ED"/>
<path d="M388.472 790.561H347.172V831.861H388.472V790.561Z" fill="#DFE9ED"/>
<path d="M347.173 584.07H305.873V625.37H347.173V584.07Z" fill="#DFE9ED"/>
<path d="M347.173 625.37H305.873V666.67H347.173V625.37Z" fill="#DFE9ED"/>
<path d="M347.173 666.67H305.873V707.97H347.173V666.67Z" fill="#DFE9ED"/>
<path d="M347.173 707.96H305.873V749.26H347.173V707.96Z" fill="#DFE9ED"/>
<path d="M347.173 749.261H305.873V790.561H347.173V749.261Z" fill="#DFE9ED"/>
<path d="M347.173 790.561H305.873V831.861H347.173V790.561Z" fill="#DFE9ED"/>
<path d="M305.872 584.07H264.572V625.37H305.872V584.07Z" fill="#DFE9ED"/>
<path d="M305.872 625.37H264.572V666.67H305.872V625.37Z" fill="#DFE9ED"/>
<path d="M305.872 666.67H264.572V707.97H305.872V666.67Z" fill="#DFE9ED"/>
<path d="M305.872 707.96H264.572V749.26H305.872V707.96Z" fill="#DFE9ED"/>
<path d="M305.872 749.261H264.572V790.561H305.872V749.261Z" fill="#DFE9ED"/>
<path d="M305.872 790.561H264.572V831.861H305.872V790.561Z" fill="#DFE9ED"/>
<path d="M264.583 584.07H223.283V625.37H264.583V584.07Z" fill="#DFE9ED"/>
<path d="M264.583 625.37H223.283V666.67H264.583V625.37Z" fill="#DFE9ED"/>
<path d="M264.583 666.67H223.283V707.97H264.583V666.67Z" fill="#DFE9ED"/>
<path d="M264.583 707.96H223.283V749.26H264.583V707.96Z" fill="#DFE9ED"/>
<path d="M264.583 749.261H223.283V790.561H264.583V749.261Z" fill="#DFE9ED"/>
<path d="M264.583 790.561H223.283V831.861H264.583V790.561Z" fill="#DFE9ED"/>
<path d="M223.282 584.07H181.982V625.37H223.282V584.07Z" fill="#DFE9ED"/>
<path d="M223.282 625.37H181.982V666.67H223.282V625.37Z" fill="#DFE9ED"/>
<path d="M223.282 666.67H181.982V707.97H223.282V666.67Z" fill="#DFE9ED"/>
<path d="M223.282 707.96H181.982V749.26H223.282V707.96Z" fill="#DFE9ED"/>
<path d="M223.282 749.261H181.982V790.561H223.282V749.261Z" fill="#DFE9ED"/>
<path d="M223.282 790.561H181.982V831.861H223.282V790.561Z" fill="#DFE9ED"/>
<path d="M181.982 584.07H140.682V625.37H181.982V584.07Z" fill="#DFE9ED"/>
<path d="M181.982 625.37H140.682V666.67H181.982V625.37Z" fill="#DFE9ED"/>
<path d="M181.982 666.67H140.682V707.97H181.982V666.67Z" fill="#DFE9ED"/>
<path d="M181.982 707.96H140.682V749.26H181.982V707.96Z" fill="#DFE9ED"/>
<path d="M181.982 749.261H140.682V790.561H181.982V749.261Z" fill="#DFE9ED"/>
<path d="M181.982 790.561H140.682V831.861H181.982V790.561Z" fill="#DFE9ED"/>
<path d="M140.693 584.07H99.3926V625.37H140.693V584.07Z" fill="#DFE9ED"/>
<path d="M140.693 625.37H99.3926V666.67H140.693V625.37Z" fill="#DFE9ED"/>
<path d="M140.693 666.67H99.3926V707.97H140.693V666.67Z" fill="#DFE9ED"/>
<path d="M140.693 707.96H99.3926V749.26H140.693V707.96Z" fill="#DFE9ED"/>
<path d="M140.693 749.261H99.3926V790.561H140.693V749.261Z" fill="#DFE9ED"/>
<path d="M140.693 790.561H99.3926V831.861H140.693V790.561Z" fill="#DFE9ED"/>
</g>
<path d="M231.833 422.851V388.131L217.613 392.331L217.643 413.441L231.833 422.851Z" fill="#A5B1C4"/>
<path d="M203.383 404.551L217.613 403.441V391.141L203.383 388.131V404.551Z" fill="#DFE9ED"/>
<path d="M203.383 453.821L217.613 445.601V429.181V412.771L203.393 420.971H203.383V420.981V437.391V453.821Z" fill="#DFE9ED"/>
<path d="M159.624 443.96V427.54L145.404 430.68V452.74L159.624 443.96Z" fill="#A5B1C4"/>
<path d="M146.493 453.82V453.81V428.29L145.163 428.68L132.273 429.18V445.6V445.61V462.03V478.45L146.493 470.24V453.82Z" fill="#DFE9ED"/>
<mask id="mask5_2587_19019" style="mask-type:luminance" maskUnits="userSpaceOnUse" x="118" y="340" width="114" height="98">
<path d="M217.613 347.07L210.113 342.74C205.953 340.34 200.823 340.34 196.663 342.74L189.173 347.07L174.952 355.28L160.732 363.49H160.723L146.503 371.71L132.283 379.91L123.753 384.84C120.233 386.87 118.062 390.63 118.062 394.7V397.38C118.062 401.81 120.432 405.91 124.262 408.13H124.272C129.222 411 132.283 416.28 132.283 422V424.28V429.17L146.503 437.38L160.732 429.18V396.33L174.952 388.12L189.173 379.91L195.452 376.29L199.202 374.12C201.062 373.04 203.392 374.38 203.402 376.54V379.73V384.06V388.13L217.633 396.34L231.852 388.13V371.71V361.32C231.852 357.58 229.862 354.13 226.622 352.26L217.633 347.07H217.613ZM146.492 404.56V404.54H146.503L146.492 404.56Z" fill="white"/>
</mask>
<g mask="url(#mask5_2587_19019)">
<path d="M217.612 361.01L208.062 357.99C205.162 356.32 201.602 356.32 198.702 357.99L189.172 363.49H189.162L174.942 371.7L160.722 379.91L160.712 379.92L146.502 388.13L160.722 396.34L174.942 388.13L189.162 379.92L195.442 376.3L199.652 373.86C201.312 372.9 203.392 374.1 203.392 376.02V384.06V388.13L210.722 392.36C214.992 394.82 220.252 394.82 224.522 392.36L231.842 388.13V371.71V355.28L217.622 361.01H217.612Z" fill="#353644"/>
<path d="M146.503 401.221V404.571L146.493 401.221L132.273 396.351L118.053 388.141V404.561L125.833 409.051C129.813 411.351 132.273 415.601 132.273 420.201V429.191L137.723 431.961L139.543 433.091C143.823 435.751 149.223 435.831 153.583 433.321L160.723 429.201V396.351L146.503 401.221Z" fill="#353644"/>
<path d="M217.613 347.07L203.383 338.86L189.163 347.07L174.943 355.28L160.723 363.49H160.713L146.493 371.71L132.273 379.91L118.053 388.13L132.273 396.34L137.863 399.73L143.373 402.8C145.313 403.88 147.683 403.87 149.603 402.75L160.723 396.33L153.963 392.42L151.923 391.25L149.273 389.71C148.053 389.01 148.073 387.24 149.313 386.57L156.163 382.82L160.723 379.91H160.733L174.953 371.7L189.173 363.49L189.183 363.48L198.613 358.04C201.573 356.33 205.223 356.33 208.183 358.04L214.773 361.84C216.533 362.86 218.713 362.86 220.473 361.84L229.753 356.48L231.843 355.27L217.623 347.06L217.613 347.07Z" fill="#53576B"/>
</g>
<path d="M147.103 700.901L122.353 688.311C113.253 684.071 95.0232 691.421 90.0032 702.331C83.4732 716.541 85.6132 730.901 91.3132 734.971C91.8232 735.341 95.0132 737.471 95.6132 737.641L118.543 750.371L147.103 700.901Z" fill="url(#paint3_linear_2587_19019)"/>
<path d="M148.694 734.804C156.581 721.144 155.863 705.964 147.091 700.9C138.319 695.835 124.815 702.804 116.928 716.464C109.042 730.124 109.759 745.303 118.531 750.367C127.303 755.432 140.808 748.464 148.694 734.804Z" fill="#353644"/>
<path d="M139.743 713.83C138.463 713.09 136.963 712.89 135.393 713.15C136.653 716.53 136.023 721.42 133.403 725.96C130.783 730.5 126.863 733.49 123.303 734.09C123.863 735.58 124.783 736.78 126.063 737.52C130.263 739.95 136.733 736.61 140.513 730.06C144.293 723.51 143.943 716.25 139.743 713.82V713.83Z" fill="#A5B1C4"/>
<path d="M133.404 725.97C136.024 721.43 136.654 716.54 135.394 713.16C131.834 713.76 127.914 716.75 125.294 721.29C122.674 725.83 122.044 730.72 123.304 734.1C126.864 733.5 130.784 730.51 133.404 725.97Z" fill="#DFE9ED"/>
<path d="M235.353 747.91L210.603 735.32C201.503 731.08 183.273 738.43 178.253 749.34C171.723 763.55 173.863 777.91 179.563 781.98C180.073 782.35 183.263 784.48 183.863 784.65L206.793 797.38L235.353 747.91Z" fill="url(#paint4_linear_2587_19019)"/>
<path d="M236.942 781.811C244.829 768.151 244.111 752.972 235.339 747.908C226.568 742.843 213.063 749.811 205.176 763.471C197.29 777.131 198.008 792.311 206.779 797.375C215.551 802.44 229.056 795.471 236.942 781.811Z" fill="#353644"/>
<path d="M227.993 760.84C226.713 760.1 225.213 759.9 223.643 760.16C224.903 763.54 224.273 768.43 221.653 772.97C219.033 777.51 215.113 780.5 211.553 781.1C212.113 782.59 213.033 783.79 214.313 784.53C218.513 786.96 224.983 783.62 228.763 777.07C232.543 770.52 232.193 763.26 227.993 760.83V760.84Z" fill="#A5B1C4"/>
<path d="M221.654 772.98C224.274 768.44 224.904 763.55 223.644 760.17C220.084 760.77 216.164 763.76 213.544 768.3C210.924 772.84 210.294 777.73 211.554 781.11C215.114 780.51 219.034 777.52 221.654 772.98Z" fill="#DFE9ED"/>
<path d="M405.693 649.87L380.943 637.28C371.843 633.04 353.613 640.39 348.593 651.3C342.063 665.51 344.203 679.87 349.903 683.94C350.413 684.31 353.603 686.44 354.203 686.61L377.133 699.34L405.693 649.87Z" fill="url(#paint5_linear_2587_19019)"/>
<path d="M407.292 683.774C415.179 670.114 414.461 654.935 405.689 649.871C396.917 644.806 383.413 651.774 375.526 665.434C367.639 679.094 368.357 694.274 377.129 699.338C385.901 704.402 399.405 697.434 407.292 683.774Z" fill="#353644"/>
<path d="M398.333 662.8C397.053 662.06 395.553 661.86 393.983 662.12C395.243 665.5 394.613 670.39 391.993 674.93C389.373 679.47 385.453 682.46 381.893 683.06C382.453 684.55 383.373 685.75 384.653 686.49C388.853 688.92 395.323 685.58 399.103 679.03C402.883 672.48 402.533 665.22 398.333 662.79V662.8Z" fill="#A5B1C4"/>
<path d="M391.994 674.94C394.614 670.4 395.244 665.51 393.984 662.13C390.424 662.73 386.504 665.72 383.884 670.26C381.264 674.8 380.634 679.69 381.894 683.07C385.454 682.47 389.374 679.48 391.994 674.94Z" fill="#DFE9ED"/>
<mask id="mask6_2587_19019" style="mask-type:luminance" maskUnits="userSpaceOnUse" x="100" y="77" width="299" height="384">
<path d="M384.662 135.14H384.652L370.442 126.93H370.432L356.212 118.72L341.992 110.51L327.772 102.3H327.762L313.552 94.0802H313.542L299.322 85.8702L285.102 77.6602L278.172 81.6702L275.142 83.4202L282.322 93.3702L279.882 94.7802L270.882 102.3L257.372 105.52L245.442 100.48L242.442 102.3L228.222 110.51L214.002 118.72L199.782 126.93H199.772L185.562 135.14H185.552L171.332 143.36L170.002 157.11L168.112 158.55L167.672 160.48L157.122 167.98L157.112 167.99L142.782 172.89L128.672 167.99L114.452 176.2H114.442L110.652 178.39C104.202 182.11 100.232 188.99 100.232 196.44V200.83V217.25V266.52V282.94V299.36V348.63V365.05V385.49C100.232 393.17 104.332 400.26 110.972 404.1L114.452 406.11L128.672 414.32L142.892 422.53H142.902L157.122 430.74L165.782 435.75L171.342 438.96L185.562 447.17H185.572L194.222 452.17L199.782 455.38L201.492 456.37L204.472 458.09C210.372 461.5 217.652 461.5 223.552 458.09L228.222 455.39H228.232L242.452 447.17L256.672 438.96L270.892 430.75H270.902L285.112 422.54H285.122L299.342 414.32L304.892 411.11L313.562 406.1L327.782 397.89L333.332 394.69L342.012 389.68L356.232 381.47L370.452 373.26L384.672 365.05L387.192 363.59L391.352 361.18C396.022 358.48 398.892 353.5 398.892 348.11V323.99V307.56V274.72V241.87V225.45V209.03V192.6V159.76V152.36C398.892 146.78 395.902 141.62 391.062 138.85L386.452 136.2L384.682 135.12L384.662 135.14ZM370.432 176.19V209.04V225.46V241.88V274.73V291.15V340.42L356.212 348.64L341.992 356.85L327.772 365.06H327.762L313.552 373.27H313.542L299.322 381.48L285.102 389.69L270.882 397.9H270.872L256.652 406.12L242.442 414.33H242.432L228.212 422.54L213.992 424.29L199.762 422.54L185.542 414.33L171.322 406.12L157.102 397.91L157.092 397.9L142.872 389.69L128.652 381.48V299.37V282.95V266.53V198.6C131.142 198.6 133.632 197.96 135.862 196.67L142.872 192.62L157.092 184.41H157.102L171.322 176.2L185.542 167.99L199.762 159.78L213.992 151.56L228.212 143.35L242.432 135.15L256.652 126.93L270.872 118.72H270.882L285.092 110.51H285.102L299.322 118.72L313.542 126.93L327.762 135.14L341.992 143.36L356.202 151.57H356.212L360.982 154.33C363.902 156.02 367.162 156.86 370.432 156.86V176.19Z" fill="white"/>
</mask>
<g mask="url(#mask6_2587_19019)">
<path d="M384.652 151.57L370.432 155.67V176.19V176.2V192.62V209.04V209.05V225.46V225.47V241.88V241.89V258.31V274.73V274.74V291.15V291.16V307.58V324V340.42V340.43L356.212 348.64L341.992 356.85L327.772 365.06H327.762L313.552 373.27H313.542L299.322 381.48L285.102 389.69L270.882 397.9L270.872 397.91L256.652 406.12L242.442 414.33H242.432L228.212 422.54L213.992 424.29V447.16V447.17V463.59L228.192 455.39L228.212 455.38L242.432 447.17L256.652 438.96L270.862 430.75H270.872V430.74L270.882 430.75L285.092 422.54H285.102V422.53L299.322 414.32L304.872 411.11L313.542 406.11L327.762 397.9L333.312 394.7L341.992 389.69L356.212 381.48L370.432 373.27L384.652 365.06L398.872 356.85V356.84V340.42V324.01V324V307.58V307.57V291.16V274.74V274.73V258.31V241.89V241.88V225.47V225.46V209.05V209.04V192.62V192.61V176.2V159.78V159.77V143.36L384.652 151.56V151.57Z" fill="#C6A76F"/>
<path d="M100.213 381.48V397.9L114.433 406.11L128.653 414.32L142.873 422.53H142.883L157.103 430.74L165.763 435.75L171.323 438.96L185.543 447.17H185.553L194.203 452.17L199.763 455.38L208.433 460.38L213.993 463.59V447.17V424.29L199.763 422.54L185.543 414.33L171.323 406.12L157.103 397.91L157.093 397.9L142.873 389.69L128.653 381.48V299.37V282.95V266.53V195L114.433 192.62L100.213 184.41V200.83V217.25V266.52V282.94V299.36V348.63V365.05V381.48Z" fill="#E8CEA0"/>
<path d="M114.433 192.62L121.443 196.67C125.903 199.24 131.393 199.24 135.853 196.67L142.863 192.62L157.083 184.41H157.093L171.313 176.2L185.533 167.99L199.753 159.78L213.983 151.56L228.203 143.35L242.423 135.15L256.643 126.93L270.863 118.72H270.873L285.083 110.51H285.093L299.313 118.72L313.533 126.93L327.753 135.14L341.983 143.36L356.193 151.57H356.203L360.973 154.33C366.823 157.71 374.023 157.71 379.863 154.33L384.633 151.57L398.853 143.36L384.643 135.14H384.633L370.423 126.93H370.413L356.193 118.72L341.973 110.51L327.753 102.3H327.743L313.533 94.08H313.523L299.303 85.87L292.013 81.66C287.723 79.18 282.443 79.19 278.153 81.66L275.123 83.41L282.303 93.36L279.863 94.77L270.863 102.29L257.353 105.51L245.423 100.47L242.423 102.29L228.203 110.5L213.983 118.71L199.763 126.92H199.753L185.543 135.13H185.533L171.313 143.35L169.983 157.1L168.093 158.54L167.653 160.47L157.103 167.97L157.093 167.98L142.763 172.88L128.653 167.98L114.433 176.19H114.423L100.213 184.4L114.433 192.61V192.62Z" fill="#F2E8C4"/>
</g>
<path d="M199.763 465.939L185.543 474.149H185.533L185.523 474.159V490.389V490.399V506.809V506.819V523.039L199.743 514.829L213.963 506.619L228.193 498.409V482.359V482.179V465.939V465.759V465.749V455.939L213.993 464.139L208.433 460.939L199.763 465.939Z" fill="#DFE9ED"/>
<path d="M228.193 465.76V465.94V482.18V482.36V498.41L213.963 506.62L199.743 514.83L185.523 523.04V506.82V506.81V490.4V490.39V474.16L171.323 482.36L157.103 490.57H157.093L142.873 498.78V515.2V515.21V531.63V547.68L157.073 539.47L171.293 531.26L185.523 523.05V523.23V523.24V539.47V539.48V555.89V555.9V572.13L199.743 563.92L213.963 555.71L228.193 547.5V531.45V531.26V515.03V514.84V514.83V498.78V498.6L242.413 490.39L256.633 482.18L270.863 473.97V457.73V441.31V441.3V431.31L256.653 439.51L242.433 447.72L228.213 455.93L228.193 455.94V465.75V465.76Z" fill="#DFE9ED"/>
<path d="M171.293 629.62L185.523 621.41V621.4V604.99V604.98V588.57V588.56V572.32V572.31V572.14L171.293 580.35L157.073 588.56L142.873 596.76V597.32V613.73V613.74V630.16V630.17V646.03L157.073 637.83L171.293 629.62Z" fill="#DFE9ED"/>
<path d="M242.413 539.47L228.193 547.68V547.87V563.92V563.93V564.11V580.35V580.53V596.76V596.77V596.95L242.413 588.74L256.633 580.53L270.863 572.32V572.31V555.9V539.48V539.47V523.24V523.23V523.05L256.633 531.26L242.413 539.47Z" fill="#DFE9ED"/>
<path d="M171.293 580.35L185.523 572.14V572.31V572.32V588.56V588.57V604.98V604.99V621.4L199.743 613.19L213.963 604.98L228.193 596.77V596.76V580.53V580.35V564.11V563.93V563.92V547.87V547.68L242.413 539.47L256.633 531.26L270.863 523.05V506.82V490.4V490.39V474.15V474.14V473.97L256.633 482.18L242.413 490.39L228.193 498.6V498.78V514.83V514.84V515.03V531.26V531.45V547.5L213.963 555.71L199.743 563.92L185.523 572.13V555.9V555.89V539.48V539.47V523.24V523.23V523.05L171.293 531.26L157.073 539.47L142.873 547.68V548.05V564.47V564.48V580.89V596.76L157.073 588.56L171.293 580.35Z" fill="#DFE9ED"/>
<path d="M285.104 432.55V448.96V465.38V481.81V514.65V580.34L299.324 588.56L313.544 596.77V580.35V514.66V498.24V448.97V416.12L304.874 411.11L299.324 414.32L285.104 422.53V432.54V432.55ZM299.324 440.76H299.314L299.324 440.75V440.76Z" fill="#DFE9ED"/>
<path d="M356.212 440.75L341.982 432.54V448.96V498.23V531.07V563.92V596.76V613.19H341.992L356.202 621.4H356.212L370.432 629.61V596.77V514.66V498.24V443.89L356.212 440.76V440.75Z" fill="#DFE9ED"/>
<path d="M356.203 621.4L341.993 613.19H341.983L327.773 621.4H327.763L313.543 629.61L299.323 637.83L285.103 646.03L270.883 654.25H270.873L256.653 662.46L242.443 670.67H242.433L228.213 678.88L213.993 687.09H213.983L199.773 695.3H199.763L185.553 703.51L199.763 711.72L204.923 714.7C210.533 717.94 217.433 717.94 223.043 714.7L224.493 713.87L228.213 711.72L242.433 703.51L256.653 695.3L270.873 687.09H270.883L285.093 678.88H285.103L299.323 670.67L313.543 662.46L327.763 654.25L341.983 646.04L356.213 637.82L370.433 629.61L356.213 621.4H356.203Z" fill="#FFFFF8"/>
<path d="M270.873 397.91L270.883 397.9H270.873V397.91Z" fill="#5FF25F"/>
<path d="M242.434 414.33H242.444L242.434 414.32V414.33Z" fill="#5FF25F"/>
<path d="M199.764 438.96H199.774L199.764 438.95V438.96Z" fill="#5FF25F"/>
<path d="M199.762 695.3H199.772L213.982 687.1V687.09H213.992L228.212 678.88L242.432 670.67H242.442L256.652 662.46L270.872 654.25H270.882L285.102 646.04V646.03L299.322 637.83L313.542 629.62V629.61L327.762 621.41V621.4H327.772L341.982 613.2V613.19V596.77V596.76V580.34V563.93V563.92V547.5V531.08V531.07V514.66V498.24V498.23V481.81V465.39V448.97V448.96V432.54L327.762 424.33V440.75V457.18V473.6V490.02V506.45V522.86V522.87V539.29V555.71V572.13H327.772L327.762 572.14V588.55V604.98L313.542 613.19L299.322 621.4L285.102 629.61L270.882 637.82H270.872V637.83L256.652 646.03V646.04L242.432 654.25L228.212 662.45V662.46L213.992 670.67H213.982L199.762 678.88L185.552 687.09H185.542L171.322 695.3L185.542 703.51H185.552L199.762 695.31V695.3Z" fill="#353644"/>
<path d="M185.543 430.75H185.553L185.543 430.74V430.75Z" fill="#5FF25F"/>
<path d="M185.554 687.09L199.764 678.88L213.984 670.67H213.994L228.214 662.46V662.45L242.434 654.25L256.654 646.04V646.03L270.874 637.83V637.82H270.884L285.104 629.61L299.324 621.4L313.544 613.19L327.764 604.98V588.55V572.14V572.13V555.71V539.29V522.87V522.86V506.45V490.02V473.6V457.18V440.75V424.33L313.544 416.12V432.54V448.96V448.97V465.39V481.81V498.23V498.24V514.65V514.66V531.08V547.5V563.92V580.34V580.35V596.76V596.77L299.324 604.97V604.98L285.104 613.18V613.19H285.094L270.874 621.4L256.654 629.61L242.434 637.82L228.214 646.03V646.04L228.204 646.03L213.994 654.24H213.984V654.25L199.764 662.45V662.46L185.544 670.66V670.67L171.324 678.87V678.88L157.104 687.08V687.09L171.324 695.3L185.544 687.09H185.554Z" fill="#A5B1C4"/>
<path d="M171.322 678.88L185.542 670.67L199.762 662.46L213.982 654.25L213.992 654.24L228.202 646.03H228.212L242.432 637.82L256.652 629.61L270.872 621.4L285.092 613.19H285.102L299.322 604.98L313.542 596.77L299.322 588.56L285.102 580.35L270.882 588.56H270.872L256.652 596.77L242.432 604.98L228.212 613.19L213.992 621.4H213.982L199.762 629.61L185.552 637.82H185.542L171.322 646.03L157.102 654.24L142.882 662.46H142.872L128.652 670.67L142.872 678.88H142.882L157.092 687.09H157.102L171.322 678.88Z" fill="#FFFFF8"/>
<path d="M142.872 662.45L142.882 662.46L157.102 654.25V654.24L171.322 646.03L185.542 637.83V637.82H185.552L199.762 629.62V629.61L213.982 621.41V621.4H213.992L228.212 613.19L242.432 604.98L256.652 596.77L270.872 588.56V588.55L270.882 588.56L285.102 580.35V580.34V563.92V547.5V531.08V514.66H285.092L285.102 514.65V498.23V481.82V481.81V465.39V465.38V448.97V448.96V432.55V432.54V422.54H285.092L270.882 430.75L270.872 430.74V430.75V440.75L270.882 440.76H270.872V457.17V457.18V473.6V490.02V490.03V506.44V522.87V539.28V539.29V555.71V555.72V572.13L256.652 580.34L242.432 588.55L228.212 596.76V596.77H228.202L213.982 604.97V604.98L199.762 613.19L185.542 621.4H185.532L171.322 629.61L157.102 637.82H157.092L142.872 646.03V645.48V629.62V629.61V613.19V613.18V596.77V596.21V580.34V563.93V563.92V547.5V547.12V531.08V514.66V514.65V498.23L157.092 490.02H157.102L171.322 481.81L185.522 473.6H185.532H185.542L199.762 465.39L208.432 460.38L199.762 455.38L194.202 452.17L185.542 457.17V457.18H185.532L171.322 465.38V465.39H171.312L157.102 473.59V473.6L157.092 473.59L142.872 481.81L128.652 485.89V506.44V522.87V539.29V555.71V572.13V572.14V588.55V588.56V604.97V604.98V621.4V637.82V637.83V654.24V654.25V670.67L142.872 662.46V662.45Z" fill="#DFE9ED"/>
<path d="M327.764 151.56V200.83V233.68L334.324 237.46C337.734 239.43 341.994 236.97 341.994 233.03V225.47V192.63V143.36L327.764 135.14V151.56Z" fill="#353644"/>
<path d="M313.543 159.78V209.04V221.12C313.543 223.81 314.983 226.3 317.313 227.65L327.763 233.68V200.84V151.57V135.14L313.543 126.93V159.78Z" fill="#A5B1C4"/>
<path d="M320.662 164.609V181.029V197.449L331.882 203.939C333.212 204.709 334.882 203.749 334.882 202.209V189.249V173.969C334.882 173.259 334.502 172.599 333.882 172.239L320.662 164.609Z" fill="#A5B1C4"/>
<path d="M320.664 458.66V475.08V491.5L331.884 497.99C333.214 498.76 334.884 497.8 334.884 496.26V483.3V468.02C334.884 467.31 334.504 466.65 333.884 466.29L320.664 458.66Z" fill="#A5B1C4"/>
<path d="M320.664 535.91V552.33V568.75L331.884 575.24C333.214 576.01 334.884 575.05 334.884 573.51V560.55V545.27C334.884 544.56 334.504 543.9 333.884 543.54L320.664 535.91Z" fill="#A5B1C4"/>
<path d="M271.863 629.77L257.643 637.979L243.423 646.19L229.203 654.4L242.423 662.03C243.043 662.39 243.803 662.39 244.423 662.03L257.643 654.4L271.863 646.19L283.093 639.71C284.423 638.94 284.423 637.01 283.093 636.25L271.863 629.77Z" fill="#A5B1C4"/>
<mask id="mask7_2587_19019" style="mask-type:luminance" maskUnits="userSpaceOnUse" x="100" y="394" width="299" height="356">
<path d="M384.653 424.34L370.433 416.12H370.423L356.213 407.91H356.203L341.983 399.7L333.313 394.7L327.763 397.9L313.543 406.11L304.873 411.12L313.543 416.13L327.763 424.34L341.983 432.55L356.213 440.76L360.673 443.34C363.693 445.08 367.063 445.95 370.433 445.95V498.24V514.66V596.77V629.62L356.213 637.83L341.983 646.04L327.763 654.26L313.543 662.46L299.323 670.68L285.103 678.89H285.093L270.883 687.1H270.873L256.653 695.31L242.433 703.52L228.213 711.73L213.993 714.42V719.94L213.983 714.42L199.763 711.73L185.553 703.52H185.543L171.323 695.31L157.103 687.1H157.093L142.883 678.89H142.873L128.653 670.68V654.26V637.84V604.99V588.57V572.15V488.12C130.793 488.12 132.923 487.57 134.833 486.46L142.873 481.82L157.093 473.6H157.103L171.313 465.4H171.323L185.533 457.19H185.543L194.203 452.18L185.553 447.18H185.543L171.323 438.97L165.763 435.76L157.103 440.76L157.093 440.77L142.873 448.98L128.653 457.18L114.433 465.4H114.423L108.773 468.67C103.473 471.73 100.213 477.38 100.213 483.49V506.45V522.87V555.71V572.14V588.56V604.98V670.67V673.96C100.213 682.09 104.543 689.6 111.583 693.67L111.923 693.87L114.433 695.32L128.643 703.52L142.863 711.74L157.083 719.95H157.093L171.303 728.16H171.313L185.523 736.37H185.533L199.753 744.58L204.393 747.26C210.313 750.68 217.603 750.69 223.533 747.27L227.083 745.22L228.183 744.57H228.193L242.413 736.36L256.633 728.14L270.853 719.93L285.073 711.72H285.083L299.303 703.51L313.513 695.3H313.523L327.743 687.09L341.963 678.88L356.183 670.67H356.193L370.413 662.45L384.633 654.24L388.983 651.73C395.093 648.2 398.853 641.68 398.853 634.63V629.62V613.19V580.35V563.93V514.66V481.82V465.39V448.97V443.47C398.853 436.7 395.243 430.45 389.383 427.07L384.633 424.33L384.653 424.34Z" fill="white"/>
</mask>
<g mask="url(#mask7_2587_19019)">
<path d="M199.763 744.571L213.973 752.781H213.983V736.361V719.941V714.411L199.763 711.721L185.553 703.511H185.543L171.323 695.301L157.103 687.091H157.093L142.883 678.881H142.873L128.653 670.671V654.251V654.241V637.831V637.821V621.401V604.981V604.971V588.561V588.551V572.141V572.131V555.711V539.291V522.871V506.441V484.561L114.433 481.811L100.213 473.601V490.021V506.441V506.451V522.861V522.871V539.291V555.701V555.711V572.131V572.141V588.551V588.561V604.971V604.981V621.401V637.821V654.231V654.251V670.661V670.671V687.091V687.101L114.433 695.311L128.643 703.511H128.653V703.521L142.873 711.731L157.093 719.941H157.103L171.313 728.151H171.323L185.533 736.361H185.543L199.763 744.571Z" fill="#353644"/>
<path d="M356.202 670.67L356.212 670.66L370.432 662.45L384.652 654.24L398.872 646.03V629.62V629.61V613.19V613.18V596.77V580.35V580.34V563.93V563.92V547.5V531.08V514.66V514.65V498.23V481.82V481.81V465.39V465.38V448.97V448.96V432.54L384.652 440.75L370.432 443.89V465.39V481.81V498.23V498.24V514.65V514.66V531.08V547.5V563.92V580.35V596.76V596.77V613.19V629.61L356.212 637.82L341.982 646.03V646.04L327.762 654.25L313.542 662.45V662.46L299.322 670.67L285.102 678.88H285.092L270.882 687.09H270.872L256.652 695.3L242.432 703.51L228.212 711.72L213.992 714.41L213.982 719.93V719.94V736.36V752.78L228.202 744.57L228.212 744.56L242.432 736.36V736.35L256.652 728.14L270.872 719.93L285.092 711.72H285.102L299.322 703.51L313.532 695.3H313.542L327.762 687.09L341.982 678.88V678.87L356.202 670.67Z" fill="#353644"/>
<path d="M384.653 424.34L370.433 416.12H370.423L356.213 407.91H356.203L341.983 399.7L333.313 394.7L327.763 397.9L313.543 406.11L304.873 411.12L313.543 416.13L327.763 424.34L341.983 432.55L356.213 440.76L360.673 443.34C366.713 446.82 374.153 446.82 380.203 443.34L384.663 440.77L398.883 432.56L384.663 424.36L384.653 424.34Z" fill="#53576B"/>
<path d="M157.103 473.59L171.313 465.39H171.323L185.533 457.18H185.543L194.203 452.17L185.553 447.17H185.543L171.323 438.96L165.763 435.75L157.103 440.75L157.093 440.76L142.873 448.97L128.653 457.17L114.433 465.39H114.423L100.213 473.6L114.433 481.81L122.473 486.45C126.303 488.66 131.013 488.66 134.843 486.45L142.883 481.81L157.103 473.59Z" fill="#53576B"/>
</g>
<path d="M341.994 324L327.774 315.79H327.764L313.544 307.58L299.324 299.37L285.104 291.16L285.094 291.15L270.874 299.37L256.654 307.58L242.444 315.79L228.224 324H228.214L214.004 332.21H213.994L199.774 340.42L185.554 348.63L171.334 356.84H171.324L157.114 365.05H157.104L142.884 373.27L128.664 381.48L142.884 389.69L157.104 397.9H157.114L171.334 406.12L185.554 414.32L199.774 422.54L201.504 423.54C209.234 428 218.764 428 226.494 423.54L228.224 422.54L242.444 414.33H242.454L256.664 406.12L270.884 397.91L270.894 397.9L285.114 389.69L299.334 381.48L313.554 373.27H313.564L327.774 365.06H327.784L342.004 356.85L356.224 348.64L370.444 340.43L356.224 332.21L342.004 324H341.994ZM185.544 397.9H185.554L185.544 397.91V397.9Z" fill="#F2E8C4"/>
<path d="M171.322 143.359L185.542 135.149V135.139H185.552L199.762 126.939V126.929H199.772L213.992 118.729V118.719L228.212 110.509L242.432 102.299L245.432 100.479" stroke="#C6AF8F" stroke-width="3" stroke-miterlimit="10"/>
<path d="M278.173 81.6698C282.463 79.1898 287.743 79.1898 292.033 81.6598L299.323 85.8698L313.543 94.0798H313.553L327.763 102.29L327.773 102.3L341.993 110.5L356.213 118.72L370.433 126.93H370.443L384.653 135.14H384.663L386.433 136.22L391.043 138.87C393.463 140.26 395.423 142.24 396.773 144.57C398.123 146.91 398.873 149.59 398.873 152.38V348.13C398.873 353.52 396.003 358.5 391.333 361.2L387.193 363.6L384.653 365.06L370.433 373.27L356.213 381.48L341.993 389.69L333.313 394.7L327.763 397.9L313.543 406.11L304.873 411.11L299.323 414.32L285.103 422.53L285.093 422.54L270.883 430.75H270.873L256.653 438.96L228.213 455.38H228.203L223.533 458.08C220.583 459.79 217.283 460.64 213.993 460.64C210.703 460.64 207.403 459.79 204.453 458.09L199.763 455.38L194.203 452.17L185.553 447.17H185.543L171.323 438.96L165.763 435.75L157.103 430.75L142.883 422.54H142.873L128.653 414.32L114.433 406.11L110.953 404.1C104.313 400.26 100.213 393.17 100.213 385.49V196.44C100.213 192.72 101.203 189.14 103.003 186.02C104.803 182.91 107.413 180.26 110.633 178.39L114.423 176.21H114.433L128.653 167.99" stroke="#C6AF8F" stroke-width="3" stroke-miterlimit="10"/>
<mask id="mask8_2587_19019" style="mask-type:luminance" maskUnits="userSpaceOnUse" x="128" y="16" width="158" height="159">
<path d="M270.882 69.45H270.872V21.38C270.872 20.65 270.472 19.97 269.822 19.63C261.252 15.08 250.942 15.26 242.542 20.12L242.432 20.18L228.212 28.39H228.202L213.992 36.59L199.762 44.81L185.542 53.02L171.322 61.23L157.102 69.44H157.092L150.742 73.11C145.872 75.93 142.872 81.13 142.872 86.75V94.07H142.882L142.872 94.08V110.49H142.882L142.872 110.51V143.34L135.402 147.66C131.222 150.07 128.652 154.53 128.652 159.35V162.72C128.652 165.97 130.392 168.98 133.202 170.61L137.732 173.22C140.912 175.06 144.832 175.06 148.012 173.22L157.092 167.98H157.102L164.582 163.65L167.572 161.92C169.892 160.58 171.322 158.11 171.322 155.43V105.89C171.322 98.57 175.222 91.81 181.562 88.15L185.542 85.85L199.762 77.64L199.772 77.63L213.992 69.43L228.212 61.21L235.392 57.07C238.522 55.26 242.432 57.52 242.432 61.14V97.02C242.432 100.27 244.172 103.28 246.982 104.9L251.922 107.75C254.842 109.44 258.442 109.44 261.362 107.75L270.862 102.27L280.202 96.88C283.222 95.13 285.092 91.91 285.092 88.42V87.86V85.85C285.092 80.76 282.382 76.06 277.972 73.52L270.872 69.42L270.882 69.45ZM158.982 87.03C158.982 87.03 158.982 87.05 158.972 87.05L157.092 85.88L158.992 87.03H158.982Z" fill="white"/>
</mask>
<g mask="url(#mask8_2587_19019)">
<path d="M270.873 85.8702V85.8802H270.883L285.103 77.6702V77.6602L270.883 69.4502H270.873V69.4602V85.8702Z" fill="#A07F57"/>
<path d="M157.103 135.15V135.14V118.72V102.3L163.063 89.5899L157.093 85.8799L142.873 77.6699V94.0799L142.883 94.0899H142.873V110.5L142.883 110.51L142.873 110.52V126.93V143.35V143.36L157.103 151.57V135.15Z" fill="#77552C"/>
<path d="M159.063 87.0704L162.103 88.8504L171.323 77.6704L185.543 69.4604H185.553L199.763 61.2604L213.993 53.0404L228.213 44.8304L242.433 36.6204L256.653 28.4104L270.873 20.2004L270.763 20.1304C259.503 12.1204 251.273 15.0904 242.543 20.1304L242.433 20.1904L228.213 28.4004H228.203L213.993 36.6004L199.763 44.8204L185.543 53.0304L171.323 61.2404L157.103 69.4504H157.093L142.873 77.6704L157.093 85.8804L159.063 87.0704Z" fill="#A07F57"/>
<path d="M270.883 85.8804H270.873V69.4604V20.1904L256.653 28.4004L242.433 36.6104L228.213 44.8204L213.993 53.0304L199.763 61.2404L185.553 69.4504H185.543L171.323 77.6604L164.243 81.7504C159.823 84.3004 157.103 89.0104 157.103 94.1204V135.14V151.57L144.393 156.04L144.093 153.78L142.863 156.34L128.643 151.58V168L142.863 176.21L157.083 168H157.093L164.573 163.67L167.563 161.94C169.883 160.6 171.313 158.13 171.313 155.45V102.87C171.313 97.4304 174.213 92.4104 178.923 89.6904L185.533 85.8704L199.753 77.6604L199.763 77.6504L213.983 69.4504L228.203 61.2304L236.333 56.5404C239.043 54.9804 242.423 56.9304 242.423 60.0604V97.0404C242.423 100.29 244.163 103.3 246.973 104.92L251.913 107.77L256.633 110.49L270.853 102.29L285.073 94.0804H285.083V77.6604L270.863 85.8704L270.883 85.8804Z" fill="#77552C"/>
<path d="M152.313 154.33L154.983 152.79L157.093 151.57L142.863 143.36L128.643 151.57L137.633 156.75C140.873 158.62 144.863 158.62 148.103 156.75L152.313 154.33Z" fill="#A07F57"/>
</g>
</g>
<defs>
<linearGradient id="paint0_linear_2587_19019" x1="484.583" y1="682.431" x2="545.703" y2="682.431" gradientUnits="userSpaceOnUse">
<stop stop-color="#53576B"/>
<stop offset="1" stop-color="#777D99"/>
</linearGradient>
<linearGradient id="paint1_linear_2587_19019" x1="655.253" y1="583.651" x2="716.373" y2="583.651" gradientUnits="userSpaceOnUse">
<stop stop-color="#53576B"/>
<stop offset="1" stop-color="#777D99"/>
</linearGradient>
<linearGradient id="paint2_linear_2587_19019" x1="398.493" y1="633.87" x2="459.613" y2="633.87" gradientUnits="userSpaceOnUse">
<stop stop-color="#53576B"/>
<stop offset="1" stop-color="#777D99"/>
</linearGradient>
<linearGradient id="paint3_linear_2587_19019" x1="85.9832" y1="718.731" x2="147.103" y2="718.731" gradientUnits="userSpaceOnUse">
<stop stop-color="#53576B"/>
<stop offset="1" stop-color="#777D99"/>
</linearGradient>
<linearGradient id="paint4_linear_2587_19019" x1="174.233" y1="765.74" x2="235.353" y2="765.74" gradientUnits="userSpaceOnUse">
<stop stop-color="#53576B"/>
<stop offset="1" stop-color="#777D99"/>
</linearGradient>
<linearGradient id="paint5_linear_2587_19019" x1="344.573" y1="667.7" x2="405.693" y2="667.7" gradientUnits="userSpaceOnUse">
<stop stop-color="#53576B"/>
<stop offset="1" stop-color="#777D99"/>
</linearGradient>
<clipPath id="clip0_2587_19019">
<rect width="800" height="800" fill="white" transform="translate(0.5625)"/>
</clipPath>
</defs>
</svg>
